<?xml version="1.0" encoding="UTF-8"?>
<svg xmlns="http://www.w3.org/2000/svg" width="1440" height="1096" viewBox="0 0 1440 1096">
  <rect width="100%" height="100%" fill="#f7f4ea"/>
  <rect x="20" y="20" width="1400" height="1056" rx="28" fill="#fcfbf7" stroke="#d6d0c4"/>
  <rect x="1072" y="20" width="304" height="1056" rx="24" fill="#f0ece2" stroke="#d6d0c4"/>
  <g>
  <text x="56" y="58" font-family="Helvetica, Arial, sans-serif" font-size="30" font-weight="700" fill="#16324f">Эрозия — шаг 5</text>
  <text x="56" y="108" font-family="Helvetica, Arial, sans-serif" font-size="14" fill="#4f6d7a">Серая пунктирная линия показывает реальную загруженную береговую линию; цветные слои — результаты пошаговой эрозии</text>
  <text x="56" y="134" font-family="Helvetica, Arial, sans-serif" font-size="13" fill="#6b7a87">SVG содержит исходную полилинию, фрактальные итерации, масштаб и длину по слоям.</text>
  </g>
  <g>
    <polyline fill="none" stroke="#7a8b99" stroke-width="1.80" stroke-opacity="0.85" stroke-linejoin="round" stroke-linecap="round" stroke-dasharray="8 6" points="359.94,309.71 361.39,310.12 361.97,309.61 363.59,309.37 363.30,309.18 364.65,309.19 365.80,311.03 364.81,312.73 364.92,314.07 362.96,315.07 362.59,315.47 363.10,315.66 362.28,316.30 360.75,316.45 360.74,318.71 358.82,319.90 359.78,320.58 359.01,321.24 360.26,320.82 359.61,322.66 360.75,323.02 362.49,325.20 362.00,327.19 362.68,328.56 365.85,330.94 367.59,331.62 370.07,331.49 371.36,332.00 373.57,335.53 380.95,333.15 383.86,334.29 384.98,335.80 390.18,336.17 395.67,334.62 396.23,333.06 395.94,334.54 398.35,332.99 400.82,332.89 399.44,332.29 399.70,331.75 400.65,331.62 400.92,332.00 401.64,331.34 402.58,331.32 402.23,331.67 402.71,331.65 402.88,332.23 402.19,331.99 401.47,332.39 401.05,332.02 401.09,332.87 403.88,332.36 403.84,331.83 404.30,332.14 409.24,328.61 413.05,327.53 417.72,327.45 426.15,323.56 430.00,322.95 434.09,322.90 441.21,320.03 450.70,320.14 452.42,320.83 455.39,320.18 456.86,320.75 455.45,321.77 451.12,322.56 440.99,320.38 434.66,323.19 426.33,323.93 419.50,327.42 415.37,328.26 411.11,328.49 409.03,329.19 406.32,331.01 405.10,332.06 405.59,332.34 404.75,332.36 400.43,336.82 398.42,336.74 395.16,339.08 391.24,339.17 386.67,340.38 383.42,340.14 385.86,340.91 385.23,341.46 385.86,341.59 388.75,340.29 391.52,339.70 392.91,339.93 391.50,341.26 388.80,341.88 384.77,341.67 380.19,340.68 377.40,340.72 375.13,340.11 377.09,340.25 374.22,338.74 373.76,338.85 374.55,339.23 374.53,339.88 371.36,339.32 365.56,340.35 365.40,339.65 365.19,340.20 363.40,340.04 357.74,338.64 357.55,337.95 358.07,337.78 356.35,337.30 357.17,338.19 355.54,338.45 350.69,337.54 347.48,336.23 341.41,336.88 335.67,336.90 332.75,335.81 331.04,334.16 333.22,336.49 339.58,340.21 344.15,343.90 343.52,343.35 344.44,343.60 343.37,343.10 343.76,341.56 344.69,340.76 346.96,340.17 356.36,341.97 360.92,343.51 359.21,342.74 361.55,343.10 360.06,342.60 360.91,342.68 362.18,343.26 360.85,343.20 361.97,343.47 364.17,342.51 365.87,343.20 366.63,345.06 368.08,346.33 367.67,347.31 366.41,347.66 365.69,347.27 364.52,348.90 361.33,349.98 357.18,350.65 356.60,350.62 358.89,350.40 353.11,350.54 349.46,351.36 349.75,351.56 347.99,352.36 347.62,353.21 348.19,352.94 348.87,353.36 349.45,354.56 349.14,355.28 350.11,354.59 349.93,354.20 350.40,354.71 351.29,354.44 351.56,355.24 352.57,354.22 353.00,354.46 352.50,354.73 353.42,354.60 353.73,355.04 355.07,354.57 355.50,355.30 357.01,353.50 356.54,352.96 356.30,353.51 355.87,353.39 355.76,352.07 356.99,351.84 356.97,352.88 360.02,353.23 359.34,353.20 360.39,353.55 360.64,354.53 361.29,354.73 360.67,354.57 360.87,354.92 361.20,355.22 361.76,354.94 361.30,355.22 362.08,355.80 363.64,355.94 364.17,355.30 363.94,356.06 364.80,356.28 365.59,356.40 365.15,356.00 365.67,355.79 366.04,356.49 367.19,355.79 368.75,356.81 368.57,356.37 369.22,356.37 370.16,358.15 370.91,358.13 370.73,358.46 371.86,359.13 372.85,359.24 372.73,358.90 373.20,359.53 375.17,359.55 377.54,361.45 377.10,360.87 377.85,360.95 377.87,360.49 378.79,360.33 380.26,360.84 380.82,361.82 380.24,361.95 380.07,361.42 379.66,361.79 380.19,363.05 379.38,364.20 367.51,361.70 391.70,367.08 400.80,368.76 401.01,367.68 404.84,366.53 407.72,366.02 409.69,366.46 413.67,365.90 416.08,364.92 420.06,365.73 423.20,365.24 425.59,366.12 433.52,365.68 433.96,365.52 432.84,365.43 432.67,364.96 433.66,363.86 433.16,362.89 434.40,362.60 436.26,362.79 437.32,364.06 440.84,364.76 444.15,362.64 444.94,361.42 444.35,360.02 445.18,360.48 446.85,358.60 445.56,361.43 447.07,362.76 445.81,363.47 445.07,365.37 445.40,365.93 445.98,366.02 445.77,364.65 446.60,364.20 448.55,363.79 450.87,364.18 452.33,364.90 452.82,365.79 452.12,366.94 450.65,366.65 450.90,367.98 453.01,368.03 452.49,367.86 452.83,366.16 454.05,365.44 454.98,366.65 456.81,367.16 456.47,368.13 460.14,371.10 460.85,371.12 460.23,370.84 460.47,370.41 461.89,370.37 462.98,369.79 465.59,371.27 466.65,371.07 464.93,369.60 465.29,368.09 466.55,367.64 470.01,368.10 466.60,366.53 466.17,364.99 466.94,365.36 468.19,365.11 468.59,363.96 469.99,363.84 470.80,362.52 471.82,362.55 472.92,363.47 475.11,367.89 473.90,368.48 473.25,369.57 474.43,375.55 473.46,376.83 474.78,377.08 474.88,376.62 476.19,376.22 481.69,376.41 482.56,376.70 483.01,377.62 482.32,378.10 480.71,378.17 478.79,379.45 478.31,379.13 477.74,379.36 477.87,383.74 476.17,381.88 474.96,381.71 473.17,380.62 470.91,382.14 470.05,382.04 468.42,384.30 467.75,383.59 465.70,383.99 465.11,383.01 464.26,383.12 460.10,384.63 460.08,385.23 459.79,384.86 459.53,385.23 459.75,385.93 459.37,385.24 455.99,387.56 449.57,389.73 446.30,389.82 444.18,388.81 442.98,387.58 442.25,390.73 441.14,392.10 436.31,393.14 428.71,396.02 424.55,398.15 419.80,400.89 419.56,401.32 420.87,401.37 421.26,401.96 420.03,403.27 420.26,403.68 419.48,403.00 418.52,403.35 418.47,403.71 419.19,403.62 419.33,404.35 415.85,405.04 418.35,403.43 417.38,402.80 412.22,405.03 412.10,405.96 410.82,406.32 411.33,405.91 410.83,405.44 403.62,408.29 400.49,410.07 396.46,414.00 397.17,414.76 398.37,414.91 398.98,415.81 397.50,417.42 408.22,419.49 413.40,416.73 416.82,415.95 425.23,416.35 428.50,417.46 430.51,418.71 430.65,418.38 426.63,416.54 429.58,417.01 430.66,416.42 430.95,417.32 432.20,416.63 432.45,415.94 434.77,415.73 434.87,415.00 436.09,414.54 438.25,414.73 438.13,414.35 440.50,413.31 440.95,412.57 441.73,412.66 442.34,411.40 443.79,411.15 444.41,410.46 445.55,410.86 443.87,411.93 443.07,411.50 441.78,413.27 439.55,414.25 440.60,414.56 439.30,414.55 438.44,415.79 437.23,415.80 437.05,415.33 435.96,415.68 434.81,417.11 436.33,417.14 436.43,417.49 435.74,417.94 435.54,417.50 435.01,417.87 433.59,417.74 434.27,418.64 433.51,418.66 433.18,419.98 430.86,418.83 436.33,422.28 439.28,425.12 441.08,425.99 441.87,427.13 444.20,428.32 446.95,428.91 449.07,430.75 450.72,430.75 452.34,429.03 455.48,428.97 457.63,427.48 459.64,427.74 461.66,428.66 465.45,431.05 469.65,435.05 472.30,440.27 472.58,442.07 472.09,442.54 473.11,446.26 472.75,449.48 471.76,451.25 470.37,451.79 469.12,451.59 468.86,451.99 468.90,453.57 467.74,454.93 468.71,459.16 468.58,463.06 467.90,464.84 466.60,465.35 466.12,466.16 469.71,466.18 471.69,466.97 467.72,466.72 467.42,467.81 467.28,466.62 466.82,466.90 465.99,466.43 465.38,467.18 463.74,467.03 463.58,467.75 463.31,467.08 462.21,467.24 461.98,468.14 461.37,467.49 460.19,468.27 461.18,469.73 459.78,468.68 459.50,470.27 459.30,469.40 458.83,469.90 458.90,468.45 457.26,468.99 459.77,471.30 463.24,473.10 464.59,474.79 465.44,474.37 469.25,475.46 471.94,474.89 473.32,475.44 474.67,476.50 475.61,479.62 477.21,480.18 479.54,479.96 481.57,482.26 484.27,482.30 489.88,480.91 497.30,481.97 500.41,480.87 501.57,481.00 503.75,479.86 507.87,479.44 510.71,474.95 516.28,474.16 518.14,471.84 519.97,471.05 522.76,471.37 522.91,469.02 524.35,468.40 524.69,467.04 527.47,462.86 530.44,460.23 535.39,458.45 536.70,457.53 538.93,457.05 540.16,456.17 550.76,453.19 556.39,453.30 558.21,452.83 560.81,453.28 561.38,452.31 564.76,451.57 566.16,452.32 566.96,451.93 569.01,452.31 570.36,453.39 570.03,454.26 572.46,454.88 575.74,452.78 576.12,450.32 577.76,447.82 583.24,446.23 584.00,444.95 583.62,443.90 584.22,443.32 585.55,442.91 586.75,443.43 588.73,442.88 590.65,443.25 590.76,443.75 592.95,444.40 593.29,443.87 591.93,443.80 590.83,442.49 591.00,441.80 591.57,441.20 595.68,439.94 592.94,438.72 593.65,436.65 597.22,434.09 603.16,432.25 608.48,432.23 616.10,434.52 621.64,437.85 621.78,439.33 623.17,439.91 622.96,440.54 623.66,440.88 628.58,439.45 631.44,439.95 633.48,439.08 634.70,437.93 636.54,437.42 649.75,438.90 651.57,437.39 655.31,436.82 659.76,436.82 664.56,434.89 665.19,433.97 677.31,431.28 682.89,432.66 684.24,433.41 689.76,432.80 695.47,433.70 711.87,438.53 719.80,442.44 723.58,446.13 723.60,447.36 722.15,448.18 725.07,451.01 725.20,452.57 727.90,455.40 728.23,456.90 727.60,457.12 729.24,457.55 729.72,458.40 734.74,461.47 739.13,462.70 740.07,462.55 743.84,463.41 746.20,463.19 749.32,464.31 751.92,464.48 755.74,463.56 756.90,462.50 755.49,461.33 755.24,459.55 754.69,459.57 755.56,458.80 755.91,459.17 756.28,458.81 756.29,459.60 757.34,459.52 756.67,459.90 757.57,459.44 758.31,459.72 758.29,460.07 759.05,460.12 758.81,460.71 759.61,460.77 761.61,462.46 763.88,463.36 765.08,464.78 763.28,465.77 765.16,467.69 768.63,469.59 768.64,469.99 771.64,470.56 772.01,470.10 771.45,469.04 772.92,468.85 774.09,469.41 774.79,470.71 772.99,471.22 778.22,474.49 779.95,477.46 781.44,478.12 783.36,480.21 784.69,480.63 789.47,480.85 792.39,482.13 792.84,482.78 795.08,483.47 797.84,483.05 808.11,484.78 810.54,485.91 811.52,485.90 812.45,486.65 817.03,487.49 818.06,488.10 820.20,488.07 823.22,489.40 828.32,495.12 829.62,495.80 831.25,495.78 834.65,497.13 837.23,497.48 838.96,499.18 839.71,501.83 842.41,502.14 842.33,502.58 843.39,502.89 847.46,506.94 857.28,512.28 859.58,515.01 861.00,515.56 864.42,518.20 868.78,522.89 876.63,528.43 878.43,530.89 884.06,533.32 885.65,536.58 886.75,537.54 893.11,540.14 896.84,542.30 899.75,547.86 901.52,549.00 904.54,549.97 910.37,550.54 915.89,553.00 921.52,554.68 923.02,558.15 923.71,563.15 927.95,566.08 929.73,564.68 931.72,564.28 936.75,566.58 940.23,566.50 944.23,569.86 948.50,569.18 951.77,570.17 955.93,570.08 963.10,570.85 964.49,571.62 970.38,577.24 971.03,577.26 972.16,576.29 975.42,576.32 977.87,579.33 979.76,586.63 982.68,589.79 984.67,590.15 986.65,589.39 988.34,589.57 992.25,590.47 993.87,591.34 999.21,592.20 1001.09,593.66 1001.25,593.16 1001.28,593.59 1002.09,593.55 1002.76,594.14 1004.60,597.05 1007.30,603.66 1010.20,617.12 1010.54,616.48 1010.39,617.28 1012.58,618.35 1014.95,623.36 1016.01,627.17 1015.27,629.13 1015.82,629.58 1019.34,630.37 1022.43,631.96 1024.59,631.37 1024.79,631.05 1023.82,630.88 1023.68,630.41 1025.96,629.16 1028.30,630.07 1030.84,629.27 1032.10,630.90 1033.20,630.03 1035.00,630.59 1037.34,629.60 1037.64,630.37 1038.92,630.03 1041.11,631.00 1041.59,631.74 1042.36,631.05 1044.39,631.12 1045.77,631.88 1047.37,631.71 1048.32,632.79 1051.20,632.48 1052.51,633.13 1053.59,634.63 1058.10,636.28 1059.53,636.39 1060.66,635.01 1063.52,635.53 1063.19,634.23 1064.00,633.88 1063.31,634.29 1063.74,635.53 1062.34,635.68 1060.70,635.15 1060.14,636.38 1058.73,636.63 1053.64,634.96 1052.53,633.30 1051.51,632.88 1047.88,632.99 1047.25,631.90 1045.80,632.08 1044.48,631.30 1042.72,631.29 1041.57,631.92 1038.96,630.28 1037.56,630.55 1037.15,629.72 1035.00,630.95 1033.19,630.23 1032.08,631.17 1030.45,629.46 1028.84,630.40 1025.45,629.56 1024.03,630.70 1025.28,630.75 1025.16,631.58 1022.38,632.34 1019.12,630.39 1016.76,630.30 1015.98,631.42 1016.96,632.91 1016.33,633.51 1019.92,637.36 1020.67,636.96 1019.49,634.08 1023.62,634.32 1024.47,635.16 1023.75,635.33 1023.37,636.48 1020.71,637.07 1022.38,637.82 1021.93,639.09 1021.38,638.79 1021.84,639.55 1020.69,637.14 1020.69,637.74 1020.14,637.62 1023.40,642.25 1023.77,641.67 1025.17,652.97 1024.73,656.38 1020.63,664.16 1017.63,667.22 1016.26,667.47 1015.59,666.78 1012.24,669.43 1011.00,671.15 1010.54,674.38 1007.85,678.59 1004.60,680.05 1000.42,685.03 999.70,685.50 995.81,686.01 993.47,687.32 990.57,688.11 988.31,690.09 984.77,691.78 982.78,692.20 981.13,693.83 975.56,696.98 967.85,699.30 964.08,698.88 959.13,700.32 956.72,702.06 953.66,705.31 951.66,706.02 951.09,705.78 945.71,708.01 943.76,708.16 941.81,709.37 940.28,709.36 939.33,708.68 940.08,708.60 938.63,708.47 933.71,709.50 930.84,709.53 922.06,715.39 917.49,717.02 915.40,717.14 911.34,716.84 907.35,713.98 905.46,714.14 904.42,713.62 900.34,714.31 895.31,714.10 893.45,712.24 890.06,711.07 887.74,711.22 887.26,710.66 886.02,710.43 882.30,711.58 881.06,711.46 880.06,710.73 875.64,709.50 870.25,705.04 865.69,703.98 862.35,705.85 856.57,707.87 854.39,708.05 852.57,707.48 851.21,706.21 848.34,705.89 845.22,707.78 841.18,708.69 837.90,709.04 837.11,708.66 833.51,708.71 832.87,708.30 828.67,710.47 825.60,710.94 824.93,710.48 818.05,714.57 815.34,714.68 813.23,712.98 811.94,713.04 809.75,714.80 805.55,716.87 802.23,717.10 801.46,716.75 798.79,717.23 796.86,716.96 796.09,716.37 793.83,717.39 791.56,716.66 788.75,714.95 782.49,715.38 782.00,715.13 782.38,715.01 779.86,714.37 778.49,714.42 769.75,712.56 765.31,712.27 765.33,712.73 764.96,712.18 761.85,712.23 760.67,710.23 756.82,709.53 755.10,707.68 754.32,706.47 755.32,703.37 754.32,703.57 752.94,703.15 749.77,703.54 748.28,702.00 746.33,703.37 743.82,706.50 743.32,707.93 742.23,708.70 738.45,709.82 736.44,709.33 735.23,708.55 734.56,707.04 730.64,705.86 728.94,704.26 722.00,702.88 721.52,702.36 721.91,701.40 711.25,701.14 705.54,699.39 704.28,698.58 703.81,697.82 704.36,697.81 703.30,696.79 703.79,696.83 703.86,694.33 702.63,692.49 693.69,688.47 689.07,687.38 681.78,686.63 679.24,685.47 679.00,686.58 678.56,685.32 676.45,686.44 676.07,686.97 676.48,687.31 672.85,691.79 670.50,693.13 666.18,694.61 661.53,694.31 660.56,693.91 659.96,693.00 660.32,692.80 658.17,692.16 658.04,691.24 657.92,691.86 657.34,691.39 657.62,690.13 658.54,690.26 650.93,687.41 650.13,686.03 643.36,679.96 642.52,677.21 643.39,673.55 642.31,669.01 638.29,664.78 631.38,661.55 618.89,666.00 609.76,668.18 605.20,668.59 598.67,667.48 594.92,665.03 585.67,662.88 584.67,662.10 584.82,661.37 581.00,659.38 579.99,657.66 580.91,656.98 578.70,655.86 577.54,654.41 575.97,653.53 575.40,651.81 574.17,650.97 573.00,648.96 573.37,645.94 575.12,642.73 576.82,642.02 580.71,642.79 581.15,642.31 579.70,640.80 578.43,640.85 575.54,642.02 571.68,641.68 569.90,640.82 569.65,640.06 570.38,639.59 569.74,639.58 569.94,639.07 568.04,637.37 563.17,637.01 563.44,638.62 560.69,641.95 558.36,643.76 553.51,646.62 548.20,647.41 537.08,647.25 533.64,646.44 532.41,645.21 531.46,645.92 528.64,645.90 525.87,646.88 523.22,647.30 522.21,646.91 521.67,647.41 519.47,647.62 511.16,646.38 510.79,645.91 505.73,645.05 500.80,644.82 492.69,645.53 484.51,645.45 483.66,644.87 481.85,645.17 473.66,644.64 462.44,642.82 459.96,643.08 458.09,642.50 454.58,642.26 449.51,644.33 446.08,645.00 443.81,645.88 443.11,646.63 433.54,648.56 432.82,649.36 430.46,649.92 430.13,650.37 430.69,650.37 429.79,651.00 423.09,652.60 422.31,653.16 416.55,653.16 415.88,653.87 412.52,653.89 411.91,654.58 410.34,654.66 409.84,655.10 403.32,655.32 402.80,656.41 397.79,657.07 396.86,658.43 395.42,658.97 394.71,658.79 393.15,659.69 392.14,661.24 390.52,661.06 390.57,660.55 389.92,660.29 390.04,660.67 388.74,660.91 388.63,661.60 387.13,661.70 387.05,662.37 384.63,662.19 383.22,662.59 379.75,664.70 380.11,665.04 379.26,664.89 379.59,665.78 379.16,666.27 375.80,667.93 376.21,668.51 373.68,670.43 367.60,671.92 368.26,672.68 367.44,672.08 366.05,672.40 363.63,674.31 359.31,675.26 357.71,676.05 356.94,675.82 357.28,676.04 353.51,677.43 352.38,678.58 349.63,679.79 349.13,680.23 349.55,680.51 347.46,680.48 346.89,681.57 342.54,683.60 339.76,684.32 338.37,685.36 332.44,686.58 329.44,687.62 327.95,689.07 325.90,689.08 324.82,689.96 323.49,689.88 322.91,691.37 324.88,692.58 324.65,693.44 323.66,692.89 324.10,696.85 318.43,702.51 313.27,704.26 304.52,704.97 301.20,705.94 297.29,706.32 290.58,706.34 279.95,705.41 272.94,702.53 259.71,700.78 252.76,698.77 251.20,697.67 250.36,697.93 247.67,697.34 247.26,696.84 245.77,698.65 243.99,698.64 244.58,699.20 243.75,699.30 244.12,700.30 241.80,700.32 241.72,701.38 240.96,700.86 240.92,701.27 239.19,701.93 236.77,701.55 235.67,702.14 235.54,701.75 231.98,702.20 230.73,701.77 230.19,702.24 229.95,701.86 227.56,702.14 226.51,701.71 222.79,701.53 220.44,701.82 219.46,701.53 218.67,701.94 213.20,700.40 210.71,700.77 208.49,700.15 206.80,700.30 202.42,698.92 201.80,699.16 202.34,699.12 201.90,699.63 201.02,699.76 195.43,698.78 187.58,696.69 185.28,696.97 181.05,696.26 178.67,695.69 178.57,695.34 177.57,695.85 175.74,695.64 175.55,696.34 172.57,696.07 172.16,696.52 166.98,694.65 166.47,694.04 166.11,694.49 163.77,693.82 163.46,694.60 161.39,694.68 156.06,692.87 154.17,692.93 152.70,692.44 152.65,692.02 150.34,691.86 148.49,690.61 146.65,690.81 146.54,690.09 143.39,689.05 142.79,689.33 140.31,688.31 139.87,687.71 139.14,688.05 136.27,687.57 131.67,685.32 112.04,677.71 109.26,675.82 108.44,675.83 108.59,675.43 106.15,673.68 105.96,672.59 103.80,672.10 103.33,670.85 100.16,668.57 99.53,666.90 100.76,666.05 100.33,665.28 97.97,663.69 96.41,661.82 96.44,660.33 93.36,657.39 92.19,654.84 92.17,652.72 91.66,652.74 94.56,650.76 96.43,651.71 97.52,651.49 96.60,649.46 97.00,647.31 96.54,646.17 95.42,645.34 96.06,644.77 95.90,644.00 94.25,642.10 94.68,641.78 93.93,640.79 92.63,640.00 93.07,639.35 91.64,639.20 90.01,636.58 88.54,636.73 87.77,636.15 87.81,635.17 86.61,633.96 85.23,633.54 85.12,632.73 84.68,633.05 84.33,632.42 83.65,632.40 84.13,631.88 82.56,630.89 82.90,630.46 81.43,630.18 81.43,629.62 80.42,628.98 79.58,629.10 78.50,628.17 79.05,627.54 76.69,626.60 76.98,625.75 77.80,625.68 77.01,625.16 76.87,624.30 78.29,623.69 78.03,623.33 79.75,622.87 78.29,621.99 78.91,621.72 79.04,620.89 77.25,621.07 76.86,621.66 76.01,621.46 74.13,619.06 74.02,618.53 74.95,618.00 73.92,617.71 73.74,616.94 74.01,616.56 74.97,616.59 75.32,615.91 73.71,615.98 73.22,614.77 72.55,614.83 72.73,615.23 71.60,615.97 70.61,615.84 69.54,614.94 69.58,614.56 70.38,614.50 69.75,613.96 70.06,613.15 68.91,613.26 68.57,612.56 68.24,613.49 67.56,613.61 65.64,612.30 64.85,612.99 65.26,613.49 64.09,613.50 62.47,612.72 61.72,614.11 60.55,614.66 58.42,612.39 57.60,613.46 56.00,612.44 56.87,610.58 57.15,611.13 57.38,610.63 57.93,610.97 58.41,610.65 58.68,611.04 59.10,608.01 61.26,605.96 62.42,605.84 63.76,606.42 65.52,605.45 66.57,605.93 67.61,605.45 68.91,605.79 69.29,606.40 70.04,606.12 68.77,604.15 69.11,601.06 69.84,600.41 71.78,600.68 72.78,599.56 74.02,599.95 74.52,599.24 76.12,599.05 74.98,598.97 74.12,598.22 74.30,596.73 75.13,595.75 86.89,596.26 86.08,592.78 86.92,591.44 85.64,586.88 86.27,585.90 87.07,585.87 86.59,581.66 87.30,580.79 85.87,575.57 86.04,573.59 87.76,571.81 90.01,564.47 87.93,564.28 85.02,562.74 81.04,563.77 73.67,562.80 71.80,563.43 71.37,563.14 71.03,563.58 71.23,563.17 70.44,563.60 69.81,563.16 72.63,562.62 76.35,562.73 77.72,563.16 78.80,562.52 79.19,562.80 79.67,562.22 79.96,562.59 82.25,562.88 84.01,561.84 85.33,561.85 86.65,562.86 87.59,563.16 88.12,562.82 88.34,563.20 88.45,562.40 89.71,561.79 91.88,561.23 93.43,561.47 94.68,560.71 94.89,559.64 95.54,559.36 99.58,550.86 103.89,548.68 107.04,549.15 114.51,547.77 117.71,548.09 121.73,549.85 124.23,550.36 125.13,551.71 125.46,550.25 127.32,548.23 128.59,547.94 130.76,546.26 133.24,542.87 134.77,539.53 132.25,536.11 132.78,532.94 131.74,530.24 131.83,529.00 132.70,528.39 132.83,522.70 133.78,522.01 132.85,522.46 132.11,521.85 130.93,522.02 130.55,521.44 130.09,521.83 129.30,521.49 130.21,521.70 130.50,521.21 131.00,521.82 131.23,521.52 132.82,521.91 133.37,521.35 133.59,519.34 134.84,518.47 135.11,515.34 136.67,513.60 136.50,512.06 138.79,509.32 136.82,503.25 137.17,502.75 140.21,502.52 140.67,501.45 140.15,502.40 138.88,502.32 139.39,501.56 139.16,501.95 138.79,501.46 138.74,501.95 138.52,501.07 137.90,501.65 137.74,501.05 137.52,502.08 135.76,501.61 137.22,501.44 137.40,500.86 136.83,500.50 137.75,499.76 137.66,500.89 138.01,499.65 138.48,500.77 137.95,500.92 139.43,501.20 138.21,499.61 138.59,498.85 137.50,499.10 138.75,498.26 137.13,498.38 137.88,498.06 137.13,497.91 137.87,497.83 137.68,496.98 141.47,501.12 138.18,497.45 138.61,496.88 138.00,496.09 138.14,494.88 137.24,493.82 137.62,493.54 136.91,493.69 136.37,493.21 135.61,490.91 135.62,489.31 136.77,486.55 140.28,486.53 136.10,486.43 137.07,486.36 137.31,485.93 137.72,486.27 139.07,485.97 138.37,485.83 138.69,485.03 139.35,485.17 139.32,485.79 139.92,485.32 140.60,486.71 140.32,484.92 140.67,485.12 141.57,483.10 150.90,474.66 158.62,464.56 162.74,460.71 167.63,457.44 171.80,455.92 178.16,454.51 198.76,452.68 199.92,451.95 200.91,452.14 201.98,451.62 202.96,449.14 200.07,447.76 197.18,445.15 193.93,443.53 191.88,443.80 192.62,443.09 192.10,442.81 190.18,442.75 187.52,444.58 185.98,444.07 187.01,443.00 187.02,441.83 185.08,443.72 184.76,441.93 183.57,442.74 182.36,442.86 182.51,441.84 180.49,440.45 181.69,439.50 180.06,439.54 179.46,439.14 180.05,438.25 177.61,438.34 173.67,437.56 176.09,436.01 175.73,435.15 173.81,433.76 170.30,433.65 170.00,434.53 171.94,434.43 172.19,434.82 171.90,435.40 169.89,436.04 164.77,432.94 160.78,432.24 158.32,431.09 155.17,430.49 153.96,428.45 151.94,427.36 149.69,427.27 147.45,428.58 146.80,427.84 147.01,426.71 144.40,426.21 143.58,425.47 141.40,425.87 136.58,424.57 131.43,424.13 127.11,422.44 124.11,421.52 123.54,421.73 118.70,420.05 116.22,418.83 113.90,415.20 112.56,414.12 112.83,412.01 112.26,410.86 108.01,409.10 112.64,410.51 113.46,414.15 117.52,419.06 126.47,421.69 132.20,423.92 137.27,424.17 142.14,425.56 147.19,424.34 146.71,423.34 144.93,422.93 144.28,421.52 144.98,421.04 147.40,420.73 148.00,419.73 146.26,418.82 147.63,417.92 149.17,418.04 150.94,419.27 153.03,419.44 155.16,421.05 157.43,421.72 158.09,420.90 157.65,419.54 160.17,416.70 163.96,416.24 166.56,414.64 168.28,414.50 169.56,414.90 172.77,413.96 176.84,410.62 180.76,411.87 183.27,410.39 186.21,411.13 193.58,409.99 195.60,410.14 197.75,411.29 198.95,413.32 202.23,414.31 205.59,411.61 209.82,410.54 210.07,408.95 209.12,409.20 209.16,409.84 207.73,409.23 207.30,410.12 206.71,409.49 206.99,409.01 205.83,408.59 205.21,409.08 205.86,409.56 205.17,410.29 204.02,409.56 203.85,408.71 202.87,409.01 202.06,408.25 202.41,407.89 202.92,408.68 202.74,408.03 203.55,407.96 203.42,406.69 205.01,405.05 207.99,402.57 212.58,399.79 211.59,400.25 211.34,399.47 211.93,399.41 211.13,399.27 211.01,398.75 213.28,399.26 213.87,398.01 214.48,398.01 214.87,397.39 214.29,396.89 217.62,397.21 213.31,399.51 219.03,396.61 237.86,385.50 221.69,394.80 220.28,395.16 217.60,394.33 216.95,394.71 214.58,391.16 215.28,391.46 217.29,390.17 217.27,389.61 217.65,390.12 220.79,389.92 220.91,387.56 221.61,387.80 222.59,390.08 224.51,390.92 223.10,388.32 223.84,384.13 224.10,383.90 224.38,387.56 225.95,388.70 227.09,385.60 227.04,382.90 226.18,381.64 227.58,379.66 228.84,380.56 229.09,383.34 231.09,384.32 233.07,386.84 233.88,385.28 234.16,385.86 235.03,385.51 235.54,384.08 235.06,382.95 236.72,381.39 236.28,380.34 236.63,379.00 237.16,379.02 238.24,381.94 238.42,385.25 243.65,382.43 249.12,377.78 250.69,376.09 249.41,377.19 248.45,375.14 249.03,375.16 251.42,373.06 253.64,372.48 254.81,371.49 253.81,369.63 255.21,370.72 256.75,369.59 256.38,371.21 250.70,376.06 260.83,368.15 258.94,368.73 258.06,368.08 256.35,365.00 254.42,363.60 254.12,360.96 254.59,360.81 252.83,359.50 251.45,359.77 249.76,359.44 249.57,358.80 248.37,358.24 244.29,357.47 238.75,354.14 235.69,350.82 235.98,349.70 238.38,347.37 241.96,346.28 244.65,346.75 245.27,347.48 244.06,349.18 245.71,349.70 247.02,352.65 247.86,353.05 249.57,351.09 249.91,349.56 249.25,347.99 249.99,347.49 250.70,348.06 251.21,350.27 250.76,352.52 251.22,353.19 253.17,354.56 256.65,355.11 258.41,356.95 256.99,359.23 257.33,359.93 258.89,361.45 263.32,363.67 262.82,365.66 260.97,367.08 260.86,367.97 263.51,364.76 266.68,362.42 274.80,351.97 273.36,351.54 272.80,350.27 271.78,350.58 271.26,350.18 271.82,350.40 272.22,349.99 272.08,347.23 272.40,349.56 274.65,351.52 277.07,349.02 279.72,347.86 281.09,343.10 280.24,339.99 279.96,340.41 279.34,340.18 279.56,339.81 278.99,339.97 278.22,339.08 279.02,336.96 281.64,335.61 283.54,335.49 285.02,336.06 289.55,334.51 297.20,332.86 297.35,330.76 296.41,328.71 297.59,328.97 298.28,331.80 297.73,332.68 308.19,330.74 312.71,331.97 315.73,331.80 319.99,332.64 320.45,331.57 321.38,331.10 324.18,331.35 324.94,330.50 324.47,330.37 324.72,329.33 327.63,328.29 328.45,326.66 329.28,326.49 329.46,323.90 328.41,323.55 328.05,322.76 325.71,322.02 325.29,319.01 325.83,319.38 326.32,322.19 327.82,322.01 329.53,322.53 330.60,324.03 331.85,322.68 331.09,320.91 331.97,321.50 332.45,320.46 336.61,318.87 336.22,316.62 337.08,317.96 336.92,319.07 334.45,320.84 333.03,321.28 333.62,322.75 332.14,324.45 332.42,325.70 330.28,326.47 330.88,327.14 330.45,328.35 326.76,330.72 325.20,330.89 329.97,330.96 333.64,332.62 336.46,329.89 339.58,329.25 343.47,329.87 345.86,330.77 348.69,331.00 350.29,331.96 356.51,330.04 357.58,328.82 357.30,327.43 357.96,324.94 358.94,323.86 357.66,323.78 356.40,322.71 355.47,321.35 355.54,319.69 358.16,316.34 360.18,315.69 361.97,314.40 363.81,311.85 363.63,311.00 363.07,310.20 361.53,310.79 359.02,310.57 357.50,309.45 358.39,308.07 360.94,306.38 361.11,305.35 356.76,306.38 355.57,306.16 354.35,305.20 353.57,303.55 354.23,301.17 355.92,301.37 356.91,300.21 356.66,299.16 357.16,299.14 355.57,298.25 352.72,297.61 352.20,296.27 353.55,294.69 352.22,293.09 346.95,291.08 346.57,289.00 347.47,287.54 349.00,286.60 348.07,285.72 346.82,285.86 345.61,284.59 346.88,285.79 348.07,285.63 349.09,286.43 347.36,287.85 346.74,289.07 347.17,291.08 352.20,292.78 353.85,294.36 353.11,292.83 354.47,294.75 353.39,296.70 353.73,297.54 354.96,298.06 356.97,298.09 358.12,299.25 357.86,300.71 355.82,301.94 354.39,303.68 354.72,303.52 355.68,305.06 356.13,304.84 356.64,305.53 360.67,303.95 362.27,304.13 363.15,304.78 363.56,307.01 362.66,306.48 361.43,307.04 359.68,308.64 359.91,309.58 359.94,309.71"/>
    <polyline fill="none" stroke="#1f6f8b" stroke-width="2.20" stroke-opacity="0.35" stroke-linejoin="round" stroke-linecap="round" points="359.94,309.71 364.65,309.19 365.80,311.03 358.82,319.90 362.68,328.56 371.36,332.00 373.57,335.53 380.95,333.15 390.18,336.17 441.21,320.03 456.86,320.75 451.12,322.56 440.99,320.38 411.11,328.49 395.16,339.08 383.42,340.14 385.86,341.59 392.91,339.93 388.80,341.88 374.22,338.74 365.56,340.35 347.48,336.23 335.67,336.90 331.04,334.16 344.15,343.90 346.96,340.17 365.87,343.20 367.67,347.31 349.46,351.36 349.14,355.28 355.50,355.30 356.99,351.84 362.08,355.80 369.22,356.37 380.82,361.82 379.38,364.20 367.51,361.70 391.70,367.08 400.80,368.76 416.08,364.92 433.52,365.68 434.40,362.60 440.84,364.76 446.85,358.60 445.40,365.93 450.87,364.18 450.90,367.98 454.05,365.44 460.14,371.10 465.59,371.27 465.29,368.09 470.01,368.10 466.17,364.99 472.92,363.47 473.46,376.83 483.01,377.62 477.74,379.36 477.87,383.74 473.17,380.62 468.42,384.30 464.26,383.12 449.57,389.73 442.98,387.58 441.14,392.10 424.55,398.15 419.80,400.89 419.33,404.35 415.85,405.04 417.38,402.80 403.62,408.29 396.46,414.00 397.50,417.42 408.22,419.49 416.82,415.95 430.51,418.71 426.63,416.54 430.95,417.32 445.55,410.86 435.96,415.68 433.18,419.98 430.86,418.83 449.07,430.75 457.63,427.48 461.66,428.66 472.30,440.27 472.75,449.48 468.86,451.99 466.12,466.16 471.69,466.97 462.21,467.24 459.50,470.27 457.26,468.99 464.59,474.79 473.32,475.44 475.61,479.62 481.57,482.26 507.87,479.44 510.71,474.95 522.76,471.37 530.44,460.23 550.76,453.19 564.76,451.57 572.46,454.88 584.22,443.32 592.95,444.40 591.00,441.80 595.68,439.94 593.65,436.65 603.16,432.25 616.10,434.52 623.66,440.88 636.54,437.42 649.75,438.90 677.31,431.28 695.47,433.70 719.80,442.44 727.60,457.12 734.74,461.47 751.92,464.48 756.90,462.50 756.28,458.81 768.64,469.99 774.09,469.41 772.99,471.22 783.36,480.21 823.22,489.40 828.32,495.12 837.23,497.48 839.71,501.83 857.28,512.28 886.75,537.54 896.84,542.30 899.75,547.86 921.52,554.68 923.71,563.15 927.95,566.08 931.72,564.28 944.23,569.86 963.10,570.85 970.38,577.24 975.42,576.32 982.68,589.79 1002.76,594.14 1015.82,629.58 1022.43,631.96 1025.96,629.16 1037.34,629.60 1058.10,636.28 1064.00,633.88 1063.74,635.53 1058.73,636.63 1037.15,629.72 1032.08,631.17 1025.45,629.56 1022.38,632.34 1016.76,630.30 1019.92,637.36 1019.49,634.08 1024.47,635.16 1020.71,637.07 1021.84,639.55 1020.14,637.62 1023.77,641.67 1024.73,656.38 1020.63,664.16 1012.24,669.43 1007.85,678.59 1000.42,685.03 975.56,696.98 959.13,700.32 953.66,705.31 941.81,709.37 930.84,709.53 915.40,717.14 907.35,713.98 895.31,714.10 890.06,711.07 881.06,711.46 865.69,703.98 856.57,707.87 848.34,705.89 824.93,710.48 818.05,714.57 811.94,713.04 805.55,716.87 793.83,717.39 788.75,714.95 761.85,712.23 755.10,707.68 755.32,703.37 748.28,702.00 742.23,708.70 736.44,709.33 721.91,701.40 705.54,699.39 702.63,692.49 693.69,688.47 678.56,685.32 670.50,693.13 661.53,694.31 643.36,679.96 642.31,669.01 638.29,664.78 631.38,661.55 605.20,668.59 585.67,662.88 573.00,648.96 575.12,642.73 581.15,642.31 571.68,641.68 568.04,637.37 563.17,637.01 558.36,643.76 548.20,647.41 532.41,645.21 519.47,647.62 454.58,642.26 422.31,653.16 403.32,655.32 392.14,661.24 383.22,662.59 373.68,670.43 323.49,689.88 324.10,696.85 318.43,702.51 297.29,706.32 279.95,705.41 247.26,696.84 241.72,701.38 230.19,702.24 178.57,695.34 172.16,696.52 136.27,687.57 112.04,677.71 100.16,668.57 93.36,657.39 91.66,652.74 97.52,651.49 95.90,644.00 76.69,626.60 79.75,622.87 74.13,619.06 75.32,615.91 70.61,615.84 68.57,612.56 60.55,614.66 56.00,612.44 61.26,605.96 70.04,606.12 69.11,601.06 76.12,599.05 75.13,595.75 86.89,596.26 86.04,573.59 90.01,564.47 69.81,563.16 93.43,561.47 99.58,550.86 103.89,548.68 117.71,548.09 125.13,551.71 134.77,539.53 131.74,530.24 133.78,522.01 129.30,521.49 133.37,521.35 138.79,509.32 136.82,503.25 140.67,501.45 135.76,501.61 138.01,499.65 139.43,501.20 137.68,496.98 141.47,501.12 135.61,490.91 136.77,486.55 140.28,486.53 136.10,486.43 138.69,485.03 140.60,486.71 167.63,457.44 198.76,452.68 202.96,449.14 192.10,442.81 187.52,444.58 187.02,441.83 182.36,442.86 180.05,438.25 173.67,437.56 176.09,436.01 173.81,433.76 170.30,433.65 169.89,436.04 151.94,427.36 147.45,428.58 143.58,425.47 118.70,420.05 108.01,409.10 112.64,410.51 117.52,419.06 142.14,425.56 147.19,424.34 144.28,421.52 147.63,417.92 157.43,421.72 160.17,416.70 172.77,413.96 176.84,410.62 195.60,410.14 202.23,414.31 209.82,410.54 210.07,408.95 205.17,410.29 202.06,408.25 212.58,399.79 211.01,398.75 217.62,397.21 213.31,399.51 237.86,385.50 221.69,394.80 216.95,394.71 214.58,391.16 220.79,389.92 220.91,387.56 224.51,390.92 223.84,384.13 225.95,388.70 227.58,379.66 233.07,386.84 237.16,379.02 238.42,385.25 249.12,377.78 253.81,369.63 256.38,371.21 250.70,376.06 260.83,368.15 258.06,368.08 252.83,359.50 238.75,354.14 235.69,350.82 238.38,347.37 244.65,346.75 247.86,353.05 250.70,348.06 251.22,353.19 256.65,355.11 257.33,359.93 263.32,363.67 260.86,367.97 274.80,351.97 271.26,350.18 272.08,347.23 274.65,351.52 279.72,347.86 279.02,336.96 297.20,332.86 296.41,328.71 297.73,332.68 308.19,330.74 319.99,332.64 329.28,326.49 325.29,319.01 330.60,324.03 336.22,316.62 330.45,328.35 325.20,330.89 333.64,332.62 339.58,329.25 350.29,331.96 356.51,330.04 358.94,323.86 355.54,319.69 363.63,311.00 357.50,309.45 361.11,305.35 354.35,305.20 357.16,299.14 346.95,291.08 349.00,286.60 345.61,284.59 349.09,286.43 347.17,291.08 353.85,294.36 353.11,292.83 353.73,297.54 358.12,299.25 354.39,303.68 356.64,305.53 363.15,304.78 359.91,309.58 359.94,309.71"/>
    <polyline fill="none" stroke="#c06c3f" stroke-width="2.20" stroke-opacity="0.45" stroke-linejoin="round" stroke-linecap="round" points="359.94,309.71 364.64,309.21 365.80,311.04 358.82,319.90 362.68,328.56 371.35,332.01 373.57,335.53 380.95,333.17 390.18,336.17 441.20,320.04 456.84,320.76 451.12,322.56 440.99,320.38 411.12,328.50 395.16,339.08 383.43,340.14 385.86,341.59 392.91,339.93 388.80,341.88 374.22,338.74 365.56,340.35 347.48,336.23 335.67,336.90 331.04,334.16 344.15,343.90 346.97,340.17 365.87,343.20 367.66,347.31 349.46,351.37 349.14,355.28 355.50,355.30 356.99,351.84 362.08,355.80 369.22,356.37 380.81,361.82 379.37,364.20 367.51,361.70 391.70,367.08 400.81,368.77 416.08,364.93 433.52,365.68 434.41,362.62 440.84,364.76 446.84,358.63 445.40,365.93 450.85,364.20 450.90,367.98 454.05,365.46 460.13,371.10 465.59,371.27 465.30,368.10 470.01,368.10 466.19,365.00 472.91,363.48 473.46,376.83 482.98,377.63 477.75,379.36 477.87,383.74 473.17,380.63 468.42,384.30 464.26,383.12 449.57,389.73 442.99,387.59 441.14,392.10 424.56,398.16 419.81,400.89 419.34,404.35 415.85,405.04 417.38,402.81 403.63,408.30 396.47,414.00 397.50,417.42 408.22,419.49 416.82,415.96 430.51,418.71 426.64,416.54 430.95,417.32 445.55,410.86 435.96,415.68 433.18,419.98 430.86,418.83 449.07,430.75 457.63,427.50 461.66,428.67 472.29,440.27 472.75,449.48 468.86,451.99 466.11,466.16 471.69,466.97 462.22,467.25 459.51,470.27 457.26,468.99 464.59,474.79 473.31,475.45 475.60,479.63 481.57,482.26 507.86,479.45 510.72,474.95 522.77,471.37 530.45,460.23 550.76,453.20 564.76,451.59 572.46,454.88 584.23,443.34 592.95,444.40 591.02,441.80 595.68,439.94 593.67,436.65 603.16,432.27 616.09,434.53 623.66,440.88 636.54,437.43 649.76,438.91 677.31,431.29 695.47,433.71 719.80,442.44 727.60,457.12 734.74,461.47 751.92,464.48 756.90,462.50 756.28,458.83 768.63,469.99 774.07,469.42 772.99,471.22 783.36,480.21 823.20,489.40 828.32,495.12 837.22,497.49 839.70,501.83 857.27,512.29 886.75,537.54 896.84,542.30 899.75,547.86 921.51,554.68 923.70,563.14 927.95,566.08 931.72,564.29 944.23,569.86 963.09,570.86 970.37,577.24 975.42,576.33 982.68,589.79 1002.75,594.14 1015.82,629.58 1022.43,631.96 1025.96,629.17 1037.34,629.60 1058.10,636.28 1063.99,633.90 1063.74,635.53 1058.73,636.63 1037.15,629.72 1032.08,631.17 1025.46,629.57 1022.38,632.34 1016.77,630.30 1019.92,637.36 1019.50,634.09 1024.47,635.16 1020.71,637.07 1021.84,639.55 1020.14,637.62 1023.78,641.67 1024.74,656.38 1020.63,664.16 1012.24,669.43 1007.85,678.59 1000.42,685.03 975.56,696.98 959.15,700.33 953.66,705.31 941.81,709.37 930.84,709.53 915.41,717.14 907.35,713.99 895.31,714.11 890.05,711.08 881.06,711.46 865.69,704.01 856.57,707.88 848.33,705.90 824.93,710.48 818.06,714.57 811.94,713.05 805.55,716.88 793.84,717.39 788.75,714.95 761.85,712.23 755.10,707.68 755.31,703.37 748.28,702.01 742.24,708.71 736.43,709.33 721.91,701.41 705.53,699.39 702.63,692.49 693.69,688.47 678.57,685.34 670.51,693.13 661.52,694.31 643.36,679.96 642.30,669.02 638.28,664.78 631.37,661.57 605.20,668.59 585.67,662.88 573.00,648.96 575.12,642.74 581.13,642.32 571.68,641.68 568.03,637.38 563.18,637.02 558.36,643.77 548.20,647.42 532.41,645.23 519.46,647.63 454.58,642.28 422.31,653.17 403.33,655.33 392.15,661.25 383.23,662.60 373.68,670.44 323.51,689.89 324.10,696.85 318.43,702.51 297.29,706.32 279.95,705.41 247.27,696.85 241.72,701.38 230.18,702.24 178.57,695.34 172.15,696.53 136.27,687.57 112.04,677.72 100.16,668.57 93.36,657.39 91.67,652.75 97.52,651.49 95.89,644.01 76.69,626.61 79.74,622.87 74.13,619.07 75.31,615.91 70.61,615.84 68.57,612.57 60.55,614.66 56.01,612.44 61.26,605.97 70.04,606.12 69.12,601.06 76.12,599.05 75.14,595.76 86.89,596.26 86.05,573.59 90.01,564.47 69.83,563.17 93.43,561.47 99.58,550.87 103.89,548.68 117.71,548.09 125.13,551.71 134.77,539.53 131.74,530.24 133.78,522.01 129.30,521.49 133.37,521.35 138.79,509.32 136.82,503.25 140.67,501.45 135.76,501.61 138.01,499.66 139.43,501.20 137.69,496.99 141.47,501.12 135.61,490.91 136.77,486.55 140.28,486.53 136.10,486.43 138.69,485.04 140.60,486.71 167.63,457.44 198.76,452.68 202.95,449.14 192.10,442.81 187.52,444.58 187.01,441.84 182.36,442.86 180.05,438.26 173.67,437.56 176.09,436.01 173.80,433.76 170.30,433.66 169.89,436.04 151.94,427.36 147.45,428.58 143.58,425.47 118.70,420.05 108.00,409.10 112.63,410.51 117.52,419.06 142.14,425.56 147.19,424.34 144.28,421.52 147.64,417.94 157.43,421.72 160.18,416.71 172.77,413.97 176.85,410.63 195.60,410.15 202.23,414.31 209.82,410.54 210.07,408.96 205.17,410.29 202.07,408.25 212.58,399.80 211.02,398.76 217.62,397.21 213.31,399.51 237.86,385.50 221.69,394.80 216.95,394.71 214.59,391.16 220.79,389.92 220.91,387.57 224.51,390.92 223.85,384.13 225.95,388.70 227.59,379.67 233.07,386.84 237.16,379.03 238.42,385.25 249.12,377.78 253.82,369.63 256.38,371.21 250.70,376.06 260.83,368.16 258.06,368.08 252.83,359.50 238.75,354.15 235.69,350.82 238.39,347.38 244.64,346.75 247.86,353.05 250.70,348.09 251.22,353.19 256.65,355.12 257.33,359.93 263.31,363.67 260.86,367.97 274.80,351.97 271.25,350.18 272.07,347.24 274.65,351.52 279.72,347.86 279.03,336.96 297.20,332.87 296.43,328.75 297.73,332.68 308.19,330.75 320.00,332.64 329.28,326.49 325.31,319.02 330.61,324.03 336.22,316.63 330.45,328.35 325.20,330.89 333.64,332.62 339.59,329.26 350.29,331.96 356.51,330.04 358.94,323.86 355.55,319.69 363.63,311.00 357.50,309.45 361.11,305.35 354.35,305.20 357.16,299.14 346.95,291.08 349.00,286.60 345.63,284.60 349.08,286.44 347.17,291.08 353.84,294.36 353.10,292.83 353.73,297.54 358.10,299.25 354.40,303.68 356.64,305.53 363.12,304.79 359.91,309.58 359.94,309.71"/>
    <polyline fill="none" stroke="#2c7a7b" stroke-width="2.20" stroke-opacity="0.55" stroke-linejoin="round" stroke-linecap="round" points="359.94,309.71 364.62,309.22 365.80,311.04 358.82,319.90 362.68,328.56 371.33,332.02 373.57,335.53 380.95,333.18 390.19,336.18 441.20,320.05 456.82,320.77 451.12,322.56 440.99,320.38 411.13,328.51 395.16,339.09 383.43,340.14 385.86,341.59 392.91,339.93 388.80,341.88 374.22,338.74 365.56,340.35 347.48,336.23 335.67,336.90 331.04,334.16 344.15,343.90 346.97,340.17 365.86,343.20 367.66,347.31 349.47,351.37 349.14,355.28 355.50,355.30 357.00,351.84 362.08,355.80 369.22,356.38 380.79,361.82 379.37,364.20 367.51,361.70 391.69,367.09 400.81,368.77 416.09,364.94 433.52,365.68 434.42,362.64 440.84,364.76 446.82,358.66 445.40,365.93 450.83,364.22 450.90,367.98 454.04,365.48 460.13,371.10 465.59,371.27 465.32,368.11 470.01,368.10 466.20,365.00 472.89,363.49 473.46,376.83 482.95,377.64 477.75,379.37 477.87,383.74 473.17,380.64 468.42,384.30 464.26,383.13 449.57,389.73 443.00,387.61 441.14,392.11 424.57,398.16 419.82,400.90 419.34,404.35 415.85,405.04 417.37,402.82 403.64,408.30 396.48,414.01 397.50,417.43 408.22,419.49 416.83,415.97 430.51,418.71 426.65,416.54 430.96,417.32 445.54,410.87 435.96,415.68 433.18,419.98 430.86,418.83 449.06,430.75 457.63,427.51 461.65,428.68 472.28,440.27 472.75,449.48 468.86,452.00 466.11,466.16 471.69,466.98 462.23,467.26 459.51,470.27 457.26,468.99 464.59,474.79 473.29,475.46 475.60,479.63 481.58,482.27 507.86,479.45 510.74,474.96 522.77,471.38 530.46,460.24 550.76,453.21 564.75,451.60 572.46,454.88 584.24,443.35 592.95,444.40 591.04,441.80 595.69,439.94 593.69,436.66 603.17,432.28 616.08,434.54 623.66,440.89 636.54,437.45 649.76,438.91 677.31,431.31 695.47,433.72 719.79,442.44 727.60,457.12 734.74,461.48 751.91,464.48 756.90,462.50 756.28,458.84 768.62,469.99 774.06,469.43 772.99,471.23 783.37,480.21 823.19,489.41 828.32,495.12 837.21,497.49 839.70,501.83 857.27,512.30 886.74,537.54 896.83,542.30 899.75,547.87 921.50,554.69 923.70,563.14 927.95,566.08 931.72,564.30 944.23,569.86 963.08,570.86 970.37,577.25 975.41,576.34 982.68,589.79 1002.74,594.15 1015.81,629.58 1022.43,631.96 1025.97,629.18 1037.34,629.61 1058.09,636.29 1063.99,633.91 1063.74,635.53 1058.73,636.63 1037.15,629.72 1032.08,631.17 1025.46,629.58 1022.38,632.34 1016.78,630.30 1019.92,637.36 1019.50,634.09 1024.47,635.16 1020.72,637.07 1021.84,639.54 1020.14,637.62 1023.78,641.67 1024.74,656.38 1020.63,664.16 1012.25,669.43 1007.85,678.59 1000.42,685.03 975.56,696.98 959.16,700.34 953.67,705.32 941.82,709.38 930.84,709.54 915.41,717.14 907.35,714.00 895.31,714.11 890.05,711.09 881.06,711.46 865.69,704.03 856.57,707.88 848.33,705.92 824.94,710.49 818.06,714.58 811.94,713.06 805.55,716.88 793.84,717.39 788.74,714.96 761.85,712.23 755.10,707.68 755.30,703.38 748.29,702.02 742.24,708.71 736.43,709.33 721.90,701.42 705.53,699.39 702.62,692.49 693.69,688.48 678.58,685.36 670.51,693.13 661.51,694.32 643.36,679.96 642.30,669.02 638.27,664.79 631.36,661.58 605.21,668.59 585.67,662.88 572.99,648.96 575.12,642.74 581.11,642.33 571.68,641.68 568.02,637.39 563.19,637.04 558.37,643.77 548.20,647.42 532.41,645.24 519.46,647.63 454.59,642.29 422.32,653.17 403.33,655.34 392.15,661.25 383.24,662.61 373.68,670.44 323.53,689.89 324.10,696.85 318.43,702.52 297.29,706.33 279.94,705.41 247.27,696.86 241.72,701.38 230.18,702.24 178.57,695.35 172.15,696.53 136.27,687.57 112.04,677.72 100.15,668.57 93.36,657.39 91.68,652.75 97.52,651.49 95.89,644.01 76.69,626.61 79.74,622.87 74.12,619.07 75.30,615.92 70.61,615.84 68.56,612.58 60.55,614.66 56.02,612.44 61.27,605.97 70.04,606.12 69.13,601.06 76.12,599.05 75.16,595.77 86.90,596.26 86.05,573.59 90.00,564.48 69.85,563.17 93.43,561.47 99.59,550.87 103.90,548.69 117.70,548.10 125.14,551.71 134.78,539.53 131.74,530.24 133.77,522.02 129.30,521.49 133.37,521.35 138.80,509.32 136.82,503.25 140.67,501.45 135.76,501.61 138.01,499.67 139.43,501.20 137.69,497.00 141.47,501.12 135.61,490.91 136.77,486.55 140.28,486.53 136.10,486.43 138.69,485.06 140.60,486.71 167.64,457.44 198.76,452.68 202.94,449.14 192.10,442.82 187.52,444.58 187.01,441.85 182.36,442.86 180.04,438.26 173.67,437.56 176.09,436.01 173.80,433.77 170.31,433.66 169.89,436.04 151.94,427.36 147.45,428.58 143.57,425.47 118.70,420.05 108.00,409.11 112.63,410.51 117.52,419.06 142.14,425.56 147.19,424.34 144.29,421.52 147.64,417.95 157.43,421.72 160.19,416.71 172.77,413.97 176.85,410.63 195.60,410.15 202.23,414.31 209.82,410.54 210.06,408.96 205.17,410.29 202.08,408.25 212.58,399.80 211.03,398.76 217.61,397.22 213.31,399.51 237.86,385.50 221.69,394.80 216.95,394.71 214.60,391.17 220.79,389.92 220.91,387.58 224.51,390.92 223.85,384.14 225.95,388.70 227.59,379.68 233.07,386.84 237.17,379.04 238.42,385.25 249.12,377.78 253.82,369.63 256.38,371.21 250.70,376.06 260.83,368.16 258.06,368.08 252.83,359.50 238.75,354.15 235.70,350.82 238.40,347.38 244.64,346.76 247.86,353.05 250.69,348.13 251.22,353.19 256.64,355.12 257.33,359.93 263.31,363.67 260.86,367.97 274.80,351.97 271.25,350.18 272.07,347.25 274.65,351.52 279.72,347.86 279.05,336.97 297.20,332.87 296.45,328.78 297.73,332.68 308.19,330.77 320.00,332.64 329.28,326.49 325.33,319.03 330.61,324.03 336.22,316.63 330.45,328.35 325.20,330.89 333.64,332.62 339.59,329.27 350.29,331.97 356.51,330.04 358.94,323.86 355.56,319.69 363.63,311.00 357.51,309.45 361.11,305.35 354.36,305.20 357.16,299.14 346.95,291.08 349.00,286.60 345.65,284.61 349.07,286.44 347.17,291.08 353.83,294.36 353.10,292.83 353.73,297.54 358.09,299.25 354.41,303.68 356.64,305.53 363.10,304.81 359.92,309.58 359.94,309.71"/>
    <polyline fill="none" stroke="#8b3f5c" stroke-width="2.20" stroke-opacity="0.65" stroke-linejoin="round" stroke-linecap="round" points="359.95,309.72 364.61,309.24 365.80,311.04 358.82,319.90 362.67,328.56 371.32,332.02 373.57,335.53 380.95,333.20 390.20,336.18 441.20,320.06 456.80,320.78 451.12,322.57 440.99,320.38 411.14,328.52 395.17,339.09 383.44,340.15 385.86,341.59 392.91,339.93 388.80,341.88 374.22,338.75 365.56,340.35 347.48,336.24 335.67,336.90 331.04,334.16 344.15,343.90 346.97,340.17 365.86,343.21 367.66,347.31 349.47,351.37 349.14,355.28 355.50,355.30 357.00,351.85 362.08,355.80 369.21,356.38 380.78,361.83 379.37,364.21 367.51,361.70 391.69,367.09 400.81,368.77 416.09,364.95 433.51,365.69 434.44,362.66 440.84,364.76 446.80,358.69 445.39,365.93 450.81,364.25 450.90,367.98 454.04,365.50 460.13,371.10 465.59,371.27 465.33,368.12 470.01,368.10 466.22,365.00 472.88,363.50 473.46,376.83 482.92,377.65 477.75,379.37 477.87,383.74 473.17,380.65 468.42,384.30 464.26,383.14 449.57,389.74 443.01,387.62 441.14,392.11 424.58,398.16 419.83,400.90 419.34,404.35 415.85,405.04 417.37,402.83 403.65,408.31 396.50,414.01 397.50,417.43 408.22,419.49 416.83,415.98 430.50,418.71 426.65,416.54 430.96,417.32 445.54,410.88 435.96,415.68 433.18,419.98 430.86,418.84 449.06,430.75 457.63,427.52 461.65,428.69 472.27,440.27 472.75,449.48 468.87,452.00 466.11,466.16 471.68,466.98 462.24,467.27 459.51,470.27 457.26,469.00 464.59,474.79 473.28,475.48 475.60,479.63 481.58,482.27 507.86,479.46 510.75,474.97 522.77,471.38 530.48,460.25 550.76,453.22 564.74,451.62 572.47,454.88 584.24,443.37 592.95,444.40 591.05,441.81 595.69,439.94 593.71,436.66 603.17,432.30 616.07,434.55 623.66,440.89 636.54,437.46 649.77,438.91 677.31,431.32 695.46,433.73 719.79,442.45 727.60,457.12 734.74,461.48 751.91,464.49 756.90,462.50 756.28,458.85 768.62,470.00 774.05,469.44 772.99,471.23 783.37,480.22 823.17,489.42 828.32,495.12 837.20,497.50 839.70,501.83 857.26,512.30 886.73,537.55 896.82,542.31 899.75,547.87 921.49,554.69 923.70,563.14 927.95,566.08 931.72,564.31 944.22,569.87 963.07,570.87 970.37,577.25 975.41,576.34 982.68,589.79 1002.74,594.15 1015.81,629.58 1022.43,631.96 1025.97,629.18 1037.34,629.62 1058.09,636.29 1063.98,633.92 1063.74,635.53 1058.73,636.63 1037.15,629.72 1032.08,631.17 1025.47,629.59 1022.38,632.34 1016.78,630.30 1019.92,637.36 1019.50,634.09 1024.46,635.16 1020.72,637.07 1021.84,639.54 1020.14,637.63 1023.78,641.67 1024.74,656.38 1020.64,664.17 1012.25,669.44 1007.86,678.60 1000.42,685.04 975.57,696.99 959.17,700.35 953.67,705.32 941.82,709.38 930.85,709.55 915.41,717.15 907.34,714.01 895.31,714.11 890.04,711.10 881.05,711.46 865.69,704.05 856.57,707.88 848.32,705.93 824.94,710.49 818.06,714.58 811.94,713.07 805.55,716.88 793.84,717.40 788.73,714.96 761.85,712.23 755.10,707.68 755.30,703.38 748.29,702.02 742.24,708.71 736.43,709.33 721.89,701.43 705.53,699.40 702.62,692.50 693.69,688.48 678.59,685.38 670.51,693.13 661.51,694.32 643.35,679.96 642.29,669.02 638.26,664.79 631.36,661.60 605.21,668.60 585.66,662.88 572.99,648.96 575.12,642.74 581.08,642.34 571.68,641.69 568.01,637.41 563.20,637.05 558.37,643.77 548.20,647.42 532.42,645.25 519.45,647.64 454.59,642.30 422.32,653.18 403.34,655.35 392.16,661.25 383.24,662.62 373.68,670.45 323.54,689.90 324.10,696.85 318.43,702.52 297.29,706.33 279.94,705.41 247.27,696.87 241.72,701.38 230.18,702.24 178.58,695.35 172.15,696.53 136.27,687.58 112.04,677.72 100.15,668.57 93.36,657.39 91.69,652.75 97.52,651.49 95.88,644.01 76.69,626.61 79.73,622.87 74.12,619.07 75.28,615.93 70.60,615.84 68.56,612.58 60.56,614.67 56.03,612.44 61.28,605.98 70.04,606.12 69.14,601.07 76.12,599.05 75.17,595.78 86.90,596.26 86.05,573.59 89.99,564.48 69.87,563.18 93.43,561.47 99.60,550.88 103.91,548.70 117.70,548.11 125.14,551.71 134.78,539.53 131.74,530.24 133.76,522.02 129.30,521.49 133.38,521.35 138.80,509.32 136.83,503.25 140.66,501.45 135.76,501.61 138.01,499.68 139.43,501.20 137.69,497.01 141.46,501.12 135.61,490.91 136.77,486.55 140.28,486.53 136.10,486.43 138.68,485.07 140.60,486.71 167.64,457.45 198.76,452.68 202.94,449.14 192.10,442.82 187.52,444.58 187.00,441.86 182.36,442.86 180.04,438.26 173.67,437.56 176.08,436.01 173.80,433.77 170.31,433.66 169.89,436.04 151.94,427.36 147.45,428.58 143.57,425.47 118.70,420.05 108.00,409.11 112.63,410.52 117.52,419.06 142.14,425.56 147.19,424.34 144.29,421.52 147.64,417.96 157.43,421.72 160.20,416.72 172.77,413.97 176.86,410.64 195.59,410.16 202.23,414.31 209.82,410.54 210.06,408.97 205.17,410.30 202.08,408.25 212.58,399.80 211.04,398.76 217.61,397.22 213.31,399.51 237.86,385.50 221.69,394.80 216.95,394.71 214.61,391.17 220.79,389.92 220.91,387.59 224.51,390.92 223.86,384.14 225.95,388.70 227.60,379.70 233.07,386.84 237.17,379.05 238.42,385.25 249.12,377.78 253.82,369.64 256.38,371.21 250.70,376.06 260.83,368.16 258.06,368.08 252.83,359.50 238.75,354.15 235.70,350.82 238.40,347.39 244.63,346.77 247.86,353.05 250.69,348.17 251.22,353.19 256.64,355.12 257.33,359.93 263.31,363.67 260.86,367.97 274.80,351.97 271.25,350.18 272.07,347.26 274.65,351.52 279.72,347.86 279.07,336.98 297.20,332.87 296.46,328.82 297.73,332.68 308.19,330.78 320.00,332.65 329.29,326.50 325.34,319.04 330.61,324.03 336.22,316.63 330.45,328.35 325.20,330.89 333.64,332.62 339.59,329.29 350.29,331.97 356.52,330.04 358.94,323.86 355.58,319.69 363.63,311.00 357.51,309.44 361.11,305.35 354.36,305.20 357.16,299.14 346.95,291.08 348.99,286.60 345.67,284.62 349.06,286.44 347.16,291.08 353.82,294.37 353.10,292.83 353.73,297.54 358.08,299.25 354.42,303.68 356.64,305.53 363.08,304.82 359.92,309.58 359.95,309.72"/>
    <polyline fill="none" stroke="#6f5f1f" stroke-width="2.20" stroke-opacity="0.75" stroke-linejoin="round" stroke-linecap="round" points="359.95,309.72 364.59,309.26 365.80,311.04 358.82,319.90 362.67,328.56 371.31,332.03 373.57,335.53 380.95,333.22 390.21,336.18 441.20,320.07 456.78,320.79 451.12,322.57 440.99,320.38 411.15,328.53 395.17,339.09 383.45,340.15 385.86,341.59 392.91,339.93 388.80,341.88 374.22,338.75 365.56,340.35 347.48,336.24 335.67,336.90 331.04,334.16 344.15,343.90 346.97,340.18 365.86,343.21 367.66,347.31 349.47,351.37 349.14,355.28 355.50,355.30 357.00,351.85 362.08,355.80 369.21,356.39 380.77,361.83 379.37,364.21 367.52,361.71 391.68,367.09 400.81,368.78 416.09,364.96 433.51,365.69 434.45,362.68 440.85,364.76 446.79,358.73 445.39,365.93 450.79,364.27 450.90,367.98 454.04,365.52 460.12,371.10 465.59,371.27 465.35,368.13 470.01,368.10 466.24,365.01 472.87,363.51 473.45,376.83 482.89,377.67 477.76,379.37 477.87,383.74 473.17,380.66 468.42,384.31 464.26,383.14 449.58,389.74 443.02,387.63 441.14,392.11 424.58,398.17 419.84,400.91 419.34,404.35 415.85,405.04 417.36,402.84 403.65,408.31 396.51,414.01 397.50,417.43 408.22,419.50 416.83,415.99 430.50,418.72 426.66,416.55 430.96,417.32 445.54,410.88 435.96,415.68 433.18,419.98 430.86,418.84 449.06,430.75 457.62,427.53 461.64,428.69 472.26,440.28 472.75,449.48 468.87,452.00 466.11,466.16 471.68,466.98 462.25,467.28 459.51,470.27 457.26,469.00 464.58,474.79 473.27,475.49 475.59,479.63 481.58,482.28 507.86,479.46 510.76,474.97 522.78,471.38 530.49,460.26 550.76,453.23 564.74,451.63 572.47,454.88 584.25,443.39 592.95,444.40 591.07,441.81 595.69,439.94 593.72,436.67 603.18,432.32 616.06,434.56 623.66,440.89 636.55,437.47 649.77,438.92 677.31,431.33 695.46,433.74 719.78,442.45 727.60,457.12 734.74,461.49 751.90,464.49 756.90,462.50 756.28,458.87 768.61,470.00 774.03,469.45 772.99,471.23 783.37,480.22 823.16,489.43 828.31,495.12 837.19,497.51 839.70,501.84 857.26,512.31 886.72,537.55 896.81,542.31 899.75,547.87 921.47,554.70 923.70,563.14 927.95,566.08 931.73,564.32 944.22,569.87 963.07,570.88 970.37,577.25 975.40,576.35 982.68,589.79 1002.73,594.16 1015.81,629.58 1022.43,631.96 1025.98,629.19 1037.34,629.62 1058.09,636.29 1063.98,633.94 1063.74,635.53 1058.73,636.63 1037.15,629.72 1032.08,631.17 1025.47,629.60 1022.38,632.34 1016.79,630.31 1019.92,637.36 1019.50,634.09 1024.46,635.17 1020.72,637.07 1021.84,639.54 1020.14,637.63 1023.78,641.67 1024.74,656.38 1020.64,664.17 1012.26,669.44 1007.86,678.60 1000.42,685.04 975.57,696.99 959.18,700.36 953.67,705.33 941.82,709.38 930.85,709.56 915.42,717.15 907.34,714.01 895.31,714.11 890.04,711.11 881.05,711.47 865.69,704.07 856.57,707.88 848.31,705.94 824.95,710.50 818.06,714.58 811.95,713.08 805.55,716.89 793.84,717.40 788.73,714.97 761.85,712.24 755.10,707.68 755.29,703.38 748.30,702.03 742.24,708.71 736.43,709.33 721.89,701.44 705.53,699.40 702.61,692.50 693.68,688.48 678.60,685.40 670.51,693.13 661.50,694.32 643.35,679.96 642.28,669.03 638.25,664.80 631.35,661.61 605.21,668.60 585.66,662.89 572.99,648.96 575.12,642.74 581.06,642.35 571.68,641.69 568.00,637.42 563.21,637.07 558.37,643.77 548.20,647.43 532.42,645.27 519.44,647.64 454.60,642.32 422.33,653.18 403.35,655.36 392.16,661.26 383.25,662.63 373.68,670.46 323.56,689.90 324.11,696.85 318.43,702.53 297.29,706.33 279.94,705.42 247.28,696.87 241.72,701.38 230.17,702.25 178.58,695.36 172.14,696.53 136.27,687.58 112.04,677.72 100.15,668.58 93.35,657.39 91.70,652.76 97.52,651.49 95.87,644.01 76.69,626.61 79.72,622.87 74.12,619.07 75.27,615.93 70.60,615.84 68.55,612.59 60.56,614.67 56.04,612.44 61.29,605.99 70.04,606.12 69.15,601.07 76.12,599.05 75.18,595.79 86.90,596.26 86.05,573.60 89.99,564.48 69.89,563.18 93.43,561.47 99.60,550.88 103.91,548.70 117.69,548.11 125.14,551.71 134.78,539.53 131.74,530.24 133.76,522.02 129.30,521.49 133.38,521.35 138.80,509.32 136.83,503.25 140.66,501.45 135.76,501.61 138.01,499.69 139.43,501.20 137.70,497.03 141.46,501.12 135.61,490.91 136.77,486.55 140.28,486.53 136.10,486.43 138.68,485.08 140.61,486.71 167.64,457.45 198.76,452.68 202.93,449.14 192.10,442.83 187.52,444.58 186.99,441.87 182.36,442.86 180.03,438.27 173.67,437.56 176.08,436.01 173.80,433.78 170.32,433.67 169.89,436.04 151.94,427.37 147.45,428.58 143.57,425.47 118.70,420.05 108.00,409.11 112.62,410.52 117.52,419.06 142.14,425.56 147.19,424.34 144.30,421.52 147.65,417.97 157.43,421.72 160.20,416.72 172.77,413.97 176.87,410.64 195.59,410.17 202.23,414.31 209.82,410.54 210.06,408.97 205.17,410.30 202.09,408.25 212.58,399.80 211.05,398.77 217.60,397.22 213.31,399.51 237.86,385.50 221.69,394.80 216.94,394.71 214.62,391.17 220.79,389.92 220.91,387.60 224.51,390.92 223.86,384.15 225.95,388.70 227.60,379.71 233.07,386.84 237.17,379.07 238.42,385.25 249.12,377.78 253.82,369.64 256.38,371.21 250.70,376.06 260.83,368.16 258.06,368.08 252.83,359.51 238.75,354.15 235.70,350.82 238.41,347.39 244.62,346.78 247.86,353.05 250.68,348.20 251.22,353.20 256.63,355.12 257.33,359.93 263.30,363.67 260.87,367.97 274.80,351.97 271.25,350.18 272.07,347.27 274.65,351.52 279.72,347.86 279.09,336.99 297.20,332.88 296.48,328.85 297.73,332.68 308.19,330.79 320.00,332.65 329.29,326.50 325.36,319.05 330.61,324.03 336.22,316.63 330.45,328.35 325.20,330.89 333.64,332.62 339.60,329.30 350.28,331.97 356.52,330.04 358.94,323.86 355.59,319.69 363.63,311.00 357.52,309.44 361.11,305.35 354.36,305.20 357.16,299.14 346.95,291.08 348.98,286.60 345.69,284.63 349.05,286.44 347.16,291.08 353.82,294.37 353.10,292.83 353.73,297.54 358.07,299.25 354.43,303.68 356.64,305.53 363.05,304.83 359.92,309.58 359.95,309.72"/>
    <polyline fill="none" stroke="#3f6b4b" stroke-width="2.20" stroke-opacity="1.00" stroke-linejoin="round" stroke-linecap="round" points="359.95,309.72 364.58,309.28 365.80,311.04 358.82,319.90 362.67,328.57 371.30,332.03 373.57,335.53 380.95,333.23 390.21,336.19 441.19,320.08 456.75,320.81 451.12,322.57 440.99,320.38 411.15,328.53 395.17,339.09 383.45,340.15 385.86,341.59 392.91,339.93 388.80,341.88 374.22,338.75 365.56,340.35 347.48,336.24 335.67,336.90 331.04,334.16 344.15,343.90 346.97,340.18 365.86,343.21 367.66,347.31 349.48,351.37 349.14,355.28 355.50,355.30 357.00,351.85 362.08,355.80 369.21,356.39 380.76,361.83 379.37,364.21 367.52,361.71 391.68,367.10 400.82,368.78 416.09,364.97 433.51,365.69 434.46,362.70 440.85,364.76 446.77,358.76 445.39,365.93 450.77,364.29 450.90,367.98 454.03,365.55 460.12,371.11 465.59,371.27 465.36,368.14 470.01,368.10 466.26,365.01 472.86,363.52 473.45,376.83 482.86,377.68 477.76,379.37 477.87,383.75 473.17,380.67 468.42,384.31 464.26,383.15 449.58,389.74 443.03,387.65 441.14,392.11 424.59,398.17 419.85,400.91 419.34,404.35 415.85,405.04 417.36,402.86 403.66,408.32 396.52,414.01 397.50,417.43 408.22,419.50 416.83,415.99 430.50,418.72 426.67,416.55 430.97,417.32 445.54,410.89 435.96,415.68 433.18,419.98 430.86,418.84 449.05,430.76 457.62,427.54 461.64,428.70 472.25,440.28 472.75,449.48 468.88,452.01 466.11,466.16 471.68,466.98 462.26,467.29 459.51,470.28 457.26,469.00 464.58,474.79 473.25,475.50 475.59,479.63 481.59,482.28 507.85,479.46 510.77,474.98 522.78,471.38 530.50,460.26 550.77,453.24 564.73,451.65 572.47,454.88 584.26,443.40 592.95,444.41 591.09,441.82 595.69,439.94 593.74,436.67 603.18,432.34 616.05,434.57 623.66,440.89 636.55,437.49 649.78,438.92 677.31,431.35 695.46,433.75 719.78,442.45 727.59,457.12 734.74,461.49 751.90,464.50 756.90,462.50 756.27,458.88 768.61,470.00 774.02,469.46 772.99,471.24 783.37,480.22 823.15,489.43 828.31,495.12 837.18,497.51 839.70,501.84 857.25,512.31 886.72,537.55 896.80,542.31 899.75,547.88 921.46,554.70 923.69,563.14 927.95,566.08 931.73,564.34 944.22,569.87 963.06,570.89 970.36,577.25 975.40,576.36 982.68,589.80 1002.72,594.16 1015.80,629.57 1022.43,631.97 1025.99,629.20 1037.34,629.63 1058.08,636.29 1063.97,633.95 1063.74,635.53 1058.73,636.63 1037.15,629.72 1032.08,631.17 1025.47,629.61 1022.38,632.34 1016.79,630.31 1019.92,637.36 1019.51,634.10 1024.45,635.17 1020.72,637.07 1021.84,639.54 1020.14,637.63 1023.78,641.67 1024.74,656.37 1020.64,664.17 1012.27,669.44 1007.86,678.60 1000.42,685.04 975.57,696.99 959.20,700.37 953.67,705.33 941.82,709.39 930.85,709.57 915.42,717.15 907.33,714.02 895.31,714.12 890.03,711.12 881.05,711.47 865.69,704.09 856.57,707.88 848.31,705.96 824.96,710.50 818.06,714.58 811.95,713.10 805.55,716.89 793.84,717.41 788.72,714.97 761.85,712.24 755.10,707.68 755.28,703.39 748.30,702.04 742.24,708.71 736.42,709.33 721.88,701.45 705.53,699.40 702.61,692.50 693.68,688.48 678.61,685.42 670.52,693.13 661.50,694.32 643.35,679.97 642.28,669.03 638.24,664.81 631.34,661.63 605.21,668.60 585.66,662.89 572.99,648.96 575.12,642.74 581.04,642.36 571.68,641.69 567.99,637.43 563.22,637.08 558.37,643.78 548.20,647.43 532.42,645.28 519.44,647.65 454.61,642.33 422.33,653.19 403.36,655.37 392.17,661.26 383.26,662.64 373.68,670.46 323.57,689.91 324.11,696.85 318.43,702.53 297.29,706.33 279.94,705.42 247.28,696.88 241.72,701.39 230.17,702.25 178.59,695.36 172.14,696.53 136.27,687.58 112.04,677.73 100.15,668.58 93.35,657.40 91.71,652.76 97.52,651.49 95.87,644.01 76.69,626.61 79.71,622.87 74.12,619.07 75.26,615.94 70.60,615.84 68.55,612.60 60.56,614.67 56.05,612.43 61.29,606.00 70.04,606.12 69.16,601.08 76.12,599.05 75.19,595.80 86.90,596.26 86.05,573.60 89.98,564.49 69.91,563.18 93.43,561.47 99.61,550.89 103.92,548.71 117.69,548.12 125.14,551.71 134.78,539.53 131.74,530.24 133.75,522.03 129.30,521.49 133.39,521.35 138.80,509.32 136.84,503.25 140.66,501.45 135.76,501.61 138.01,499.70 139.43,501.20 137.70,497.04 141.46,501.12 135.61,490.91 136.77,486.55 140.28,486.53 136.10,486.43 138.68,485.09 140.61,486.71 167.64,457.45 198.76,452.68 202.92,449.14 192.10,442.84 187.52,444.58 186.99,441.87 182.36,442.86 180.03,438.27 173.67,437.56 176.08,436.01 173.79,433.78 170.32,433.67 169.88,436.04 151.94,427.37 147.44,428.58 143.57,425.47 118.70,420.05 108.00,409.11 112.62,410.53 117.52,419.06 142.14,425.56 147.19,424.34 144.30,421.52 147.65,417.98 157.43,421.72 160.21,416.73 172.77,413.97 176.87,410.65 195.58,410.17 202.23,414.31 209.82,410.54 210.06,408.97 205.17,410.30 202.10,408.25 212.58,399.80 211.06,398.77 217.60,397.23 213.31,399.51 237.86,385.50 221.69,394.80 216.94,394.71 214.63,391.18 220.79,389.92 220.91,387.61 224.51,390.92 223.87,384.15 225.95,388.70 227.61,379.73 233.07,386.84 237.17,379.08 238.42,385.25 249.12,377.78 253.83,369.65 256.38,371.21 250.70,376.06 260.83,368.16 258.06,368.08 252.82,359.51 238.75,354.15 235.71,350.82 238.41,347.40 244.62,346.78 247.85,353.05 250.68,348.24 251.21,353.20 256.63,355.13 257.33,359.93 263.30,363.67 260.87,367.97 274.80,351.97 271.25,350.18 272.07,347.28 274.65,351.52 279.72,347.86 279.11,337.00 297.20,332.88 296.49,328.88 297.73,332.69 308.19,330.80 320.00,332.65 329.29,326.50 325.37,319.06 330.61,324.03 336.22,316.63 330.45,328.35 325.20,330.89 333.64,332.62 339.60,329.31 350.28,331.97 356.52,330.04 358.94,323.86 355.60,319.69 363.63,311.00 357.52,309.44 361.11,305.35 354.37,305.20 357.16,299.14 346.96,291.08 348.97,286.61 345.71,284.63 349.04,286.45 347.16,291.08 353.81,294.37 353.10,292.83 353.73,297.54 358.06,299.26 354.44,303.68 356.64,305.53 363.03,304.84 359.92,309.58 359.95,309.72"/>
  </g>
  <g>
  </g>
  <g>
    <text x="1092" y="168" font-family="Helvetica, Arial, sans-serif" font-size="18" font-weight="700" fill="#16324f">Слои и длины</text>
    <line x1="1092" y1="206" x2="1126" y2="206" stroke="#7a8b99" stroke-width="1.80" stroke-opacity="0.85" stroke-dasharray="8 6"/>
    <text x="1138" y="204" font-family="Helvetica, Arial, sans-serif" font-size="13" fill="#16324f">Реальная загруженная</text>
    <text x="1138" y="219" font-family="Helvetica, Arial, sans-serif" font-size="13" fill="#16324f">полилиния (справочно)</text>
    <text x="1138" y="236" font-family="Helvetica, Arial, sans-serif" font-size="12" fill="#6b7a87">6391 км</text>
    <line x1="1092" y1="250" x2="1356" y2="250" stroke="#ddd6c8" stroke-width="1"/>
    <line x1="1092" y1="274" x2="1126" y2="274" stroke="#1f6f8b" stroke-width="2.20" stroke-opacity="0.35"/>
    <text x="1138" y="272" font-family="Helvetica, Arial, sans-serif" font-size="13" fill="#16324f">Эрозия шаг 0</text>
    <text x="1138" y="289" font-family="Helvetica, Arial, sans-serif" font-size="12" fill="#6b7a87">5334 км</text>
    <line x1="1092" y1="303" x2="1356" y2="303" stroke="#ddd6c8" stroke-width="1"/>
    <line x1="1092" y1="327" x2="1126" y2="327" stroke="#c06c3f" stroke-width="2.20" stroke-opacity="0.45"/>
    <text x="1138" y="325" font-family="Helvetica, Arial, sans-serif" font-size="13" fill="#16324f">Эрозия шаг 1</text>
    <text x="1138" y="342" font-family="Helvetica, Arial, sans-serif" font-size="12" fill="#6b7a87">5331 км</text>
    <line x1="1092" y1="356" x2="1356" y2="356" stroke="#ddd6c8" stroke-width="1"/>
    <line x1="1092" y1="380" x2="1126" y2="380" stroke="#2c7a7b" stroke-width="2.20" stroke-opacity="0.55"/>
    <text x="1138" y="378" font-family="Helvetica, Arial, sans-serif" font-size="13" fill="#16324f">Эрозия шаг 2</text>
    <text x="1138" y="395" font-family="Helvetica, Arial, sans-serif" font-size="12" fill="#6b7a87">5328 км</text>
    <line x1="1092" y1="409" x2="1356" y2="409" stroke="#ddd6c8" stroke-width="1"/>
    <line x1="1092" y1="433" x2="1126" y2="433" stroke="#8b3f5c" stroke-width="2.20" stroke-opacity="0.65"/>
    <text x="1138" y="431" font-family="Helvetica, Arial, sans-serif" font-size="13" fill="#16324f">Эрозия шаг 3</text>
    <text x="1138" y="448" font-family="Helvetica, Arial, sans-serif" font-size="12" fill="#6b7a87">5325 км</text>
    <line x1="1092" y1="462" x2="1356" y2="462" stroke="#ddd6c8" stroke-width="1"/>
    <line x1="1092" y1="486" x2="1126" y2="486" stroke="#6f5f1f" stroke-width="2.20" stroke-opacity="0.75"/>
    <text x="1138" y="484" font-family="Helvetica, Arial, sans-serif" font-size="13" fill="#16324f">Эрозия шаг 4</text>
    <text x="1138" y="501" font-family="Helvetica, Arial, sans-serif" font-size="12" fill="#6b7a87">5322 км</text>
    <line x1="1092" y1="515" x2="1356" y2="515" stroke="#ddd6c8" stroke-width="1"/>
    <line x1="1092" y1="539" x2="1126" y2="539" stroke="#3f6b4b" stroke-width="2.20" stroke-opacity="1.00"/>
    <text x="1138" y="537" font-family="Helvetica, Arial, sans-serif" font-size="13" fill="#16324f">Эрозия шаг 5</text>
    <text x="1138" y="554" font-family="Helvetica, Arial, sans-serif" font-size="12" fill="#6b7a87">5319 км</text>
  </g>
  <g>
    <rect x="1092" y="596" width="264" height="108" rx="18" fill="#f8f6ef" stroke="#d6d0c4"/>
    <text x="1106" y="616" font-family="Helvetica, Arial, sans-serif" font-size="14" font-weight="700" fill="#16324f">Контроль геометрии</text>
    <text x="1106" y="648" font-family="Helvetica, Arial, sans-serif" font-size="12" fill="#4f6d7a">Сегменты &gt; 450 км</text>
    <text x="1342" y="648" text-anchor="end" font-family="Helvetica, Arial, sans-serif" font-size="13" font-weight="700" fill="#3f6b4b">0</text>
    <line x1="1106" y1="652" x2="1342" y2="652" stroke="#e7e1d5" stroke-width="1"/>
    <text x="1106" y="670" font-family="Helvetica, Arial, sans-serif" font-size="12" fill="#4f6d7a">Повторы ориентиров</text>
    <text x="1342" y="670" text-anchor="end" font-family="Helvetica, Arial, sans-serif" font-size="13" font-weight="700" fill="#3f6b4b">0</text>
    <line x1="1106" y1="674" x2="1342" y2="674" stroke="#e7e1d5" stroke-width="1"/>
    <text x="1106" y="692" font-family="Helvetica, Arial, sans-serif" font-size="12" fill="#4f6d7a">Автоисправления</text>
    <text x="1342" y="692" text-anchor="end" font-family="Helvetica, Arial, sans-serif" font-size="13" font-weight="700" fill="#3f6b4b">0</text>
  </g>
  <g>
  </g>
  <g>
  </g>
  <g>
    <rect x="1092" y="766" width="264" height="274" rx="18" fill="#f8f6ef" stroke="#d6d0c4"/>
    <text x="1106" y="786" font-family="Helvetica, Arial, sans-serif" font-size="14" font-weight="700" fill="#16324f">Сводка</text>
    <text x="1106" y="808" font-family="Helvetica, Arial, sans-serif" font-size="12" fill="#4f6d7a">Реальная линия: 6391 км, 9635 т.</text>
    <line x1="1106" y1="828" x2="1342" y2="828" stroke="#e7e1d5" stroke-width="1"/>
    <text x="1106" y="836" font-family="Helvetica, Arial, sans-serif" font-size="12" fill="#4f6d7a">База модели: 5334 км, 391 т.</text>
    <text x="1106" y="852" font-family="Helvetica, Arial, sans-serif" font-size="12" fill="#4f6d7a">(-16.5% к реальной)</text>
    <line x1="1106" y1="872" x2="1342" y2="872" stroke="#e7e1d5" stroke-width="1"/>
    <text x="1106" y="880" font-family="Helvetica, Arial, sans-serif" font-size="12" fill="#4f6d7a">Шаг 5: 5319 км, 391 т. расчёт /</text>
    <text x="1106" y="896" font-family="Helvetica, Arial, sans-serif" font-size="12" fill="#4f6d7a">391 т. SVG</text>
    <line x1="1106" y1="916" x2="1342" y2="916" stroke="#e7e1d5" stroke-width="1"/>
    <text x="1106" y="924" font-family="Helvetica, Arial, sans-serif" font-size="12" fill="#4f6d7a">Площадь: 415783 км²</text>
    <line x1="1106" y1="944" x2="1342" y2="944" stroke="#e7e1d5" stroke-width="1"/>
    <text x="1106" y="952" font-family="Helvetica, Arial, sans-serif" font-size="12" fill="#4f6d7a">Эрозия: базовый отступ 30 м,</text>
    <text x="1106" y="968" font-family="Helvetica, Arial, sans-serif" font-size="12" fill="#4f6d7a">seed=42</text>
    <line x1="1106" y1="988" x2="1342" y2="988" stroke="#e7e1d5" stroke-width="1"/>
    <text x="1106" y="996" font-family="Helvetica, Arial, sans-serif" font-size="12" fill="#4f6d7a">Волны: 0° от севера, ветер 12.0</text>
    <text x="1106" y="1012" font-family="Helvetica, Arial, sans-serif" font-size="12" fill="#4f6d7a">м/с, сектор ±55°, fetch &lt;= 150 км</text>
  </g>
  <g>
    <line x1="56" y1="998" x2="479" y2="998" stroke="#16324f" stroke-width="3"/>
    <line x1="56" y1="991" x2="56" y2="1005" stroke="#16324f" stroke-width="6"/>
    <line x1="479" y1="991" x2="479" y2="1005" stroke="#16324f" stroke-width="6"/>
    <text x="56" y="984" font-family="Helvetica, Arial, sans-serif" font-size="13" fill="#16324f">Масштаб ≈ 500 км</text>  </g>
</svg>
