<?xml version="1.0" encoding="UTF-8"?>
<svg xmlns="http://www.w3.org/2000/svg" width="1440" height="1145" viewBox="0 0 1440 1145">
  <rect width="100%" height="100%" fill="#f7f4ea"/>
  <rect x="20" y="20" width="1400" height="1105" rx="28" fill="#fcfbf7" stroke="#d6d0c4"/>
  <rect x="1072" y="20" width="304" height="1105" rx="24" fill="#f0ece2" stroke="#d6d0c4"/>
  <g>
  <text x="56" y="58" font-family="Helvetica, Arial, sans-serif" font-size="30" font-weight="700" fill="#16324f">Фрактальная размерность (органическая модель) — итерация</text>
  <text x="56" y="92" font-family="Helvetica, Arial, sans-serif" font-size="30" font-weight="700" fill="#16324f">1</text>
  <text x="56" y="142" font-family="Helvetica, Arial, sans-serif" font-size="14" fill="#4f6d7a">Органическая модель: seed=42, угол ±18°, высота ±25%; серая пунктирная линия — реальная линия, цветные слои — от упрощённой</text>
  <text x="56" y="160" font-family="Helvetica, Arial, sans-serif" font-size="14" fill="#4f6d7a">базы</text>
  <text x="56" y="186" font-family="Helvetica, Arial, sans-serif" font-size="13" fill="#6b7a87">SVG содержит исходную полилинию, фрактальные итерации, масштаб и длину по слоям.</text>
  </g>
  <g>
    <polyline fill="none" stroke="#7a8b99" stroke-width="1.80" stroke-opacity="0.85" stroke-linejoin="round" stroke-linecap="round" stroke-dasharray="8 6" points="359.95,335.44 361.40,335.85 361.97,335.33 363.60,335.09 363.31,334.90 364.65,334.91 365.81,336.76 364.82,338.45 364.92,339.80 362.97,340.79 362.60,341.20 363.10,341.39 362.28,342.02 360.76,342.18 360.75,344.43 358.83,345.62 359.78,346.30 359.02,346.96 360.26,346.54 359.62,348.39 360.76,348.74 362.49,350.92 362.00,352.91 362.69,354.28 365.86,356.66 367.59,357.34 370.08,357.21 371.36,357.73 373.57,361.25 380.96,358.87 383.87,360.01 384.99,361.52 390.18,361.89 395.67,360.34 396.24,358.78 395.94,360.27 398.36,358.71 400.83,358.62 399.45,358.02 399.71,357.47 400.66,357.34 400.93,357.72 401.64,357.06 402.58,357.04 402.23,357.40 402.72,357.37 402.89,357.96 402.20,357.71 401.48,358.11 401.05,357.74 401.10,358.59 403.88,358.08 403.84,357.56 404.31,357.86 409.25,354.34 413.06,353.26 417.73,353.18 426.15,349.29 430.00,348.67 434.10,348.62 441.21,345.75 450.71,345.86 452.42,346.55 455.39,345.90 456.87,346.47 455.45,347.50 451.12,348.29 441.00,346.10 434.66,348.92 426.34,349.65 419.50,353.14 415.38,353.98 411.12,354.22 409.03,354.92 406.33,356.73 405.11,357.79 405.59,358.06 404.75,358.08 400.44,362.55 398.43,362.47 395.17,364.81 391.24,364.89 386.68,366.10 383.43,365.86 385.86,366.63 385.23,367.18 385.87,367.32 388.76,366.02 391.53,365.42 392.92,365.65 391.50,366.98 388.81,367.60 384.78,367.40 380.20,366.40 377.41,366.45 375.14,365.83 377.10,365.97 374.22,364.46 373.77,364.58 374.55,364.96 374.54,365.60 371.37,365.05 365.57,366.07 365.40,365.37 365.19,365.92 363.40,365.76 357.75,364.36 357.55,363.68 358.08,363.50 356.36,363.02 357.17,363.92 355.54,364.17 350.70,363.26 347.49,361.95 341.42,362.61 335.68,362.62 332.75,361.53 331.04,359.88 333.23,362.22 339.58,365.93 344.16,369.62 343.52,369.07 344.45,369.33 343.38,368.82 343.76,367.28 344.70,366.48 346.97,365.89 356.37,367.69 360.93,369.23 359.21,368.46 361.56,368.83 360.07,368.33 360.92,368.40 362.19,368.99 360.86,368.93 361.97,369.19 364.17,368.23 365.87,368.93 366.64,370.78 368.09,372.05 367.67,373.03 366.41,373.38 365.69,372.99 364.53,374.62 361.33,375.70 357.18,376.37 356.61,376.34 358.89,376.13 353.11,376.27 349.47,377.09 349.75,377.28 348.00,378.08 347.62,378.93 348.19,378.66 348.87,379.08 349.45,380.28 349.15,381.01 350.11,380.32 349.94,379.92 350.41,380.43 351.29,380.17 351.57,380.96 352.58,379.94 353.01,380.18 352.50,380.45 353.43,380.32 353.73,380.77 355.07,380.29 355.50,381.02 357.02,379.22 356.54,378.69 356.31,379.24 355.88,379.11 355.77,377.79 357.00,377.56 356.98,378.60 360.02,378.95 359.35,378.93 360.40,379.27 360.65,380.25 361.30,380.45 360.68,380.30 360.88,380.65 361.20,380.94 361.77,380.66 361.30,380.94 362.09,381.52 363.65,381.66 364.17,381.02 363.94,381.78 364.80,382.00 365.60,382.12 365.16,381.72 365.67,381.51 366.05,382.21 367.19,381.52 368.76,382.53 368.58,382.09 369.22,382.09 370.17,383.88 370.91,383.86 370.74,384.18 371.87,384.85 372.85,384.96 372.74,384.62 373.20,385.25 375.18,385.27 377.55,387.17 377.11,386.60 377.86,386.67 377.88,386.22 378.80,386.06 380.26,386.56 380.82,387.54 380.25,387.67 380.08,387.14 379.66,387.52 380.20,388.77 379.38,389.92 367.52,387.42 391.71,392.80 400.81,394.49 401.02,393.40 404.85,392.25 407.73,391.74 409.69,392.18 413.67,391.62 416.09,390.65 420.07,391.45 423.20,390.97 425.59,391.84 433.53,391.40 433.96,391.24 432.85,391.15 432.67,390.68 433.66,389.58 433.16,388.62 434.41,388.32 436.27,388.51 437.32,389.78 440.85,390.48 444.16,388.36 444.94,387.14 444.36,385.74 445.18,386.21 446.86,384.32 445.56,387.15 447.08,388.49 445.82,389.20 445.07,391.09 445.40,391.65 445.98,391.74 445.78,390.37 446.60,389.92 448.56,389.51 450.87,389.90 452.34,390.63 452.83,391.51 452.13,392.66 450.65,392.37 450.90,393.70 453.01,393.75 452.49,393.58 452.84,391.88 454.06,391.16 454.98,392.37 456.82,392.88 456.47,393.85 460.14,396.82 460.85,396.84 460.24,396.56 460.47,396.13 461.90,396.10 462.98,395.51 465.59,396.99 466.66,396.80 464.93,395.33 465.29,393.81 466.55,393.36 470.01,393.82 466.61,392.25 466.17,390.71 466.95,391.08 468.19,390.83 468.59,389.68 469.99,389.56 470.80,388.24 471.82,388.27 472.92,389.20 475.11,393.62 473.91,394.20 473.25,395.29 474.44,401.27 473.47,402.55 474.79,402.80 474.89,402.34 476.20,401.94 481.69,402.14 482.56,402.42 483.01,403.34 482.32,403.82 480.72,403.89 478.79,405.18 478.31,404.85 477.75,405.09 477.88,409.47 476.18,407.60 474.96,407.43 473.17,406.34 470.92,407.86 470.06,407.76 468.42,410.02 467.75,409.31 465.70,409.71 465.11,408.73 464.27,408.84 460.11,410.35 460.09,410.95 459.79,410.58 459.53,410.95 459.76,411.65 459.37,410.97 456.00,413.28 449.57,415.45 446.31,415.54 444.19,414.53 442.99,413.30 442.25,416.45 441.14,417.82 436.31,418.87 428.72,421.75 424.56,423.88 419.81,426.61 419.57,427.05 420.88,427.09 421.27,427.68 420.04,428.99 420.26,429.41 419.49,428.72 418.53,429.07 418.48,429.44 419.20,429.34 419.34,430.07 415.85,430.77 418.36,429.15 417.39,428.52 412.22,430.75 412.10,431.68 410.83,432.05 411.33,431.64 410.83,431.16 403.63,434.01 400.50,435.79 396.47,439.73 397.17,440.48 398.38,440.63 398.98,441.53 397.51,443.14 408.22,445.21 413.41,442.45 416.83,441.68 425.24,442.07 428.51,443.18 430.51,444.44 430.66,444.10 426.63,442.26 429.59,442.73 430.67,442.14 430.96,443.04 432.21,442.36 432.45,441.66 434.77,441.45 434.87,440.72 436.09,440.26 438.26,440.45 438.13,440.07 440.50,439.03 440.95,438.29 441.73,438.38 442.35,437.12 443.79,436.88 444.41,436.19 445.56,436.58 443.88,437.65 443.08,437.22 441.79,438.99 439.55,439.97 440.60,440.28 439.31,440.27 438.45,441.51 437.24,441.52 437.06,441.05 435.96,441.40 434.81,442.83 436.33,442.87 436.44,443.21 435.75,443.66 435.55,443.22 435.02,443.59 433.59,443.46 434.27,444.36 433.51,444.39 433.18,445.70 430.87,444.55 436.33,448.00 439.29,450.84 441.08,451.71 441.88,452.85 444.21,454.04 446.95,454.63 449.08,456.47 450.72,456.48 452.34,454.75 455.48,454.69 457.63,453.21 459.64,453.47 461.67,454.39 465.46,456.77 469.65,460.77 472.30,465.99 472.59,467.79 472.10,468.26 473.12,471.98 472.75,475.20 471.77,476.97 470.38,477.51 469.13,477.31 468.86,477.71 468.90,479.29 467.74,480.65 468.72,484.88 468.58,488.78 467.90,490.57 466.61,491.07 466.12,491.88 469.72,491.90 471.70,492.69 467.73,492.44 467.42,493.53 467.29,492.34 466.83,492.63 466.00,492.15 465.39,492.90 463.75,492.75 463.59,493.47 463.32,492.80 462.22,492.96 461.98,493.86 461.38,493.21 460.20,493.99 461.19,495.45 459.79,494.40 459.51,495.99 459.31,495.12 458.84,495.62 458.91,494.17 457.27,494.71 459.78,497.02 463.25,498.82 464.60,500.51 465.44,500.10 469.26,501.18 471.95,500.61 473.33,501.16 474.67,502.22 475.61,505.35 477.21,505.90 479.55,505.68 481.57,507.98 484.27,508.02 489.88,506.63 497.31,507.69 500.42,506.59 501.58,506.72 503.75,505.58 507.87,505.16 510.72,500.67 516.29,499.88 518.15,497.56 519.98,496.77 522.77,497.09 522.91,494.74 524.36,494.12 524.69,492.76 527.48,488.58 530.45,485.95 535.39,484.17 536.70,483.25 538.94,482.78 540.17,481.89 550.76,478.91 556.40,479.02 558.21,478.55 560.81,479.00 561.39,478.03 564.77,477.29 566.17,478.04 566.96,477.65 569.01,478.03 570.36,479.11 570.04,479.99 572.46,480.60 575.75,478.50 576.12,476.04 577.76,473.54 583.25,471.95 584.01,470.67 583.63,469.62 584.23,469.05 585.55,468.63 586.76,469.15 588.73,468.60 590.65,468.97 590.76,469.47 592.96,470.12 593.29,469.59 591.93,469.52 590.84,468.21 591.00,467.52 591.58,466.92 595.69,465.66 592.95,464.44 593.65,462.37 597.23,459.81 603.16,457.97 608.49,457.95 616.10,460.24 621.64,463.57 621.79,465.06 623.17,465.64 622.96,466.26 623.66,466.60 628.58,465.17 631.44,465.67 633.49,464.80 634.70,463.65 636.54,463.14 649.76,464.62 651.57,463.11 655.31,462.54 659.77,462.54 664.56,460.61 665.20,459.69 677.31,457.00 682.90,458.38 684.24,459.13 689.76,458.52 695.47,459.43 711.87,464.25 719.81,468.16 723.59,471.85 723.61,473.09 722.15,473.90 725.08,476.73 725.21,478.29 727.91,481.12 728.23,482.62 727.61,482.85 729.24,483.27 729.72,484.13 734.74,487.19 739.13,488.42 740.07,488.28 743.84,489.13 746.20,488.91 749.32,490.03 751.92,490.20 755.74,489.28 756.90,488.22 755.49,487.05 755.24,485.28 754.69,485.30 755.56,484.52 755.92,484.89 756.29,484.54 756.30,485.32 757.34,485.24 756.67,485.62 757.57,485.16 758.31,485.44 758.29,485.79 759.05,485.84 758.81,486.43 759.62,486.49 761.62,488.18 763.88,489.08 765.08,490.50 763.28,491.49 765.16,493.41 768.63,495.31 768.64,495.72 771.65,496.28 772.01,495.82 771.46,494.76 772.92,494.58 774.09,495.13 774.79,496.43 772.99,496.94 778.22,500.21 779.95,503.18 781.44,503.84 783.37,505.93 784.70,506.35 789.47,506.57 792.39,507.85 792.84,508.50 795.08,509.19 797.85,508.77 808.11,510.50 810.55,511.63 811.52,511.62 812.45,512.37 817.03,513.22 818.06,513.83 820.20,513.79 823.22,515.12 828.32,520.84 829.63,521.52 831.26,521.50 834.65,522.85 837.23,523.20 838.96,524.90 839.71,527.55 842.42,527.86 842.33,528.30 843.39,528.61 847.47,532.66 857.28,538.01 859.58,540.73 861.00,541.28 864.42,543.92 868.79,548.61 876.63,554.16 878.43,556.61 884.06,559.04 885.65,562.30 886.76,563.26 893.11,565.86 896.84,568.02 899.75,573.58 901.52,574.72 904.54,575.70 910.37,576.26 915.89,578.72 921.52,580.40 923.02,583.87 923.71,588.87 927.95,591.80 929.73,590.40 931.72,590.00 936.75,592.30 940.24,592.22 944.23,595.58 948.50,594.90 951.77,595.89 955.93,595.80 963.10,596.57 964.49,597.34 970.38,602.96 971.03,602.98 972.16,602.01 975.42,602.04 977.88,605.05 979.76,612.35 982.68,615.51 984.67,615.87 986.65,615.11 988.34,615.29 992.25,616.19 993.87,617.06 999.21,617.92 1001.09,619.38 1001.25,618.88 1001.28,619.31 1002.09,619.27 1002.76,619.86 1004.60,622.77 1007.30,629.38 1010.20,642.84 1010.54,642.20 1010.39,643.00 1012.58,644.07 1014.95,649.08 1016.01,652.89 1015.27,654.85 1015.82,655.30 1019.34,656.09 1022.43,657.68 1024.59,657.09 1024.79,656.77 1023.82,656.60 1023.68,656.13 1025.96,654.88 1028.30,655.79 1030.84,654.99 1032.10,656.62 1033.20,655.75 1035.00,656.31 1037.34,655.32 1037.64,656.09 1038.92,655.75 1041.11,656.72 1041.59,657.46 1042.36,656.77 1044.39,656.84 1045.77,657.60 1047.37,657.43 1048.32,658.51 1051.20,658.20 1052.51,658.85 1053.59,660.35 1058.10,662.00 1059.53,662.11 1060.66,660.73 1063.52,661.25 1063.19,659.95 1064.00,659.60 1063.31,660.01 1063.74,661.25 1062.34,661.40 1060.70,660.87 1060.14,662.10 1058.73,662.35 1053.65,660.68 1052.53,659.02 1051.51,658.60 1047.88,658.71 1047.25,657.62 1045.80,657.80 1044.48,657.02 1042.72,657.01 1041.57,657.64 1038.96,656.00 1037.56,656.27 1037.15,655.44 1035.00,656.67 1033.19,655.95 1032.08,656.89 1030.45,655.18 1028.84,656.12 1025.45,655.28 1024.03,656.42 1025.28,656.47 1025.16,657.30 1022.38,658.06 1019.12,656.11 1016.77,656.02 1015.98,657.14 1016.96,658.63 1016.33,659.23 1019.92,663.08 1020.67,662.68 1019.49,659.80 1023.62,660.04 1024.47,660.88 1023.75,661.05 1023.37,662.20 1020.71,662.79 1022.38,663.54 1021.93,664.81 1021.38,664.51 1021.84,665.27 1020.69,662.86 1020.69,663.46 1020.14,663.34 1023.40,667.97 1023.77,667.39 1025.17,678.69 1024.73,682.10 1020.63,689.88 1017.63,692.94 1016.26,693.18 1015.59,692.49 1012.24,695.15 1011.00,696.87 1010.54,700.10 1007.85,704.31 1004.60,705.77 1000.42,710.75 999.70,711.21 995.81,711.73 993.47,713.04 990.57,713.83 988.31,715.81 984.77,717.50 982.78,717.92 981.13,719.55 975.56,722.70 967.85,725.01 964.08,724.60 959.14,726.04 956.72,727.78 953.66,731.03 951.66,731.74 951.09,731.50 945.71,733.73 943.77,733.88 941.81,735.09 940.28,735.08 939.33,734.40 940.08,734.32 938.63,734.19 933.71,735.22 930.84,735.24 922.06,741.11 917.49,742.74 915.40,742.86 911.34,742.56 907.35,739.70 905.46,739.86 904.42,739.33 900.35,740.03 895.31,739.82 893.45,737.96 890.06,736.79 887.74,736.94 887.26,736.38 886.02,736.15 882.30,737.30 881.06,737.18 880.06,736.45 875.64,735.21 870.25,730.76 865.69,729.70 862.35,731.57 856.57,733.59 854.39,733.77 852.57,733.20 851.21,731.93 848.34,731.61 845.22,733.50 841.18,734.41 837.91,734.76 837.11,734.38 833.51,734.43 832.88,734.02 828.67,736.19 825.60,736.66 824.93,736.20 818.06,740.29 815.34,740.40 813.23,738.70 811.94,738.76 809.75,740.52 805.55,742.59 802.23,742.82 801.46,742.47 798.80,742.95 796.86,742.68 796.09,742.09 793.84,743.10 791.56,742.38 788.75,740.67 782.50,741.10 782.01,740.85 782.38,740.73 779.87,740.09 778.49,740.14 769.76,738.28 765.31,737.99 765.33,738.44 764.96,737.90 761.85,737.95 760.68,735.95 756.82,735.25 755.10,733.40 754.32,732.19 755.32,729.09 754.32,729.29 752.94,728.87 749.77,729.26 748.28,727.72 746.33,729.09 743.82,732.22 743.33,733.65 742.24,734.42 738.46,735.54 736.44,735.05 735.23,734.27 734.56,732.76 730.65,731.58 728.95,729.98 722.01,728.60 721.52,728.07 721.92,727.12 711.25,726.86 705.54,725.11 704.28,724.30 703.81,723.54 704.36,723.52 703.30,722.51 703.79,722.55 703.86,720.05 702.63,718.21 693.70,714.19 689.08,713.09 681.79,712.35 679.24,711.19 679.00,712.30 678.57,711.03 676.46,712.16 676.08,712.69 676.48,713.03 672.86,717.51 670.51,718.84 666.18,720.33 661.53,720.03 660.56,719.63 659.96,718.72 660.33,718.52 658.18,717.88 658.04,716.96 657.93,717.58 657.34,717.11 657.62,715.85 658.54,715.98 650.94,713.13 650.13,711.75 643.36,705.68 642.52,702.93 643.39,699.27 642.31,694.73 638.29,690.50 631.38,687.27 618.89,691.72 609.76,693.90 605.21,694.31 598.67,693.20 594.92,690.75 585.68,688.60 584.68,687.82 584.83,687.08 581.00,685.10 579.99,683.38 580.91,682.70 578.70,681.58 577.55,680.13 575.97,679.25 575.40,677.53 574.17,676.69 573.00,674.68 573.37,671.66 575.12,668.45 576.82,667.74 580.71,668.51 581.15,668.03 579.70,666.52 578.43,666.57 575.54,667.74 571.69,667.40 569.90,666.54 569.66,665.78 570.38,665.31 569.75,665.30 569.94,664.79 568.04,663.08 563.17,662.73 563.44,664.34 560.69,667.67 558.36,669.48 553.51,672.34 548.21,673.13 537.08,672.97 533.64,672.16 532.42,670.93 531.46,671.64 528.64,671.62 525.87,672.60 523.22,673.02 522.22,672.63 521.68,673.13 519.48,673.34 511.17,672.10 510.79,671.63 505.74,670.77 500.80,670.54 492.69,671.25 484.52,671.17 483.67,670.59 481.86,670.89 473.67,670.36 462.45,668.54 459.97,668.80 458.10,668.22 454.58,667.98 449.51,670.05 446.08,670.72 443.81,671.60 443.12,672.35 433.55,674.28 432.82,675.08 430.47,675.64 430.14,676.09 430.70,676.09 429.79,676.72 423.09,678.31 422.31,678.88 416.56,678.88 415.88,679.59 412.52,679.61 411.91,680.30 410.35,680.38 409.85,680.82 403.32,681.04 402.81,682.13 397.80,682.79 396.87,684.15 395.43,684.69 394.72,684.51 393.16,685.41 392.15,686.96 390.52,686.78 390.58,686.27 389.93,686.01 390.05,686.39 388.75,686.63 388.64,687.32 387.14,687.42 387.06,688.09 384.63,687.91 383.23,688.31 379.75,690.42 380.11,690.76 379.26,690.61 379.60,691.50 379.17,691.99 375.81,693.65 376.22,694.23 373.69,696.15 367.60,697.64 368.27,698.40 367.45,697.80 366.05,698.12 363.63,700.03 359.31,700.98 357.72,701.76 356.95,701.54 357.28,701.76 353.51,703.15 352.39,704.30 349.63,705.51 349.13,705.95 349.56,706.23 347.47,706.20 346.90,707.29 342.55,709.32 339.76,710.04 338.38,711.08 332.45,712.30 329.45,713.34 327.95,714.79 325.91,714.80 324.83,715.68 323.50,715.60 322.92,717.09 324.88,718.30 324.66,719.16 323.67,718.61 324.10,722.57 318.44,728.23 313.28,729.98 304.53,730.69 301.21,731.66 297.29,732.04 290.59,732.06 279.96,731.13 272.95,728.25 259.71,726.50 252.76,724.48 251.21,723.39 250.37,723.65 247.68,723.06 247.27,722.56 245.77,724.37 244.00,724.36 244.59,724.92 243.76,725.02 244.13,726.02 241.81,726.04 241.72,727.10 240.96,726.58 240.93,726.98 239.20,727.65 236.78,727.27 235.68,727.86 235.55,727.47 231.99,727.92 230.73,727.49 230.19,727.95 229.95,727.58 227.57,727.86 226.52,727.43 222.79,727.25 220.44,727.54 219.47,727.25 218.68,727.66 213.21,726.12 210.72,726.49 208.50,725.87 206.81,726.02 202.43,724.64 201.81,724.88 202.34,724.84 201.90,725.35 201.02,725.48 195.43,724.50 187.58,722.41 185.29,722.69 181.06,721.98 178.67,721.41 178.57,721.05 177.58,721.57 175.75,721.36 175.55,722.06 172.58,721.79 172.17,722.24 166.99,720.37 166.48,719.76 166.12,720.21 163.77,719.54 163.47,720.32 161.39,720.40 156.07,718.58 154.18,718.65 152.70,718.16 152.66,717.74 150.35,717.58 148.49,716.33 146.66,716.53 146.55,715.81 143.40,714.77 142.79,715.05 140.31,714.03 139.88,713.43 139.15,713.77 136.28,713.28 131.68,711.04 112.05,703.43 109.26,701.54 108.45,701.55 108.60,701.15 106.16,699.40 105.97,698.31 103.81,697.82 103.34,696.57 100.17,694.29 99.53,692.62 100.77,691.77 100.34,691.00 97.98,689.41 96.42,687.54 96.44,686.05 93.37,683.11 92.20,680.56 92.18,678.44 91.67,678.46 94.57,676.48 96.44,677.43 97.52,677.21 96.61,675.18 97.01,673.03 96.55,671.89 95.43,671.06 96.07,670.49 95.91,669.72 94.26,667.82 94.69,667.50 93.94,666.51 92.63,665.72 93.08,665.07 91.65,664.92 90.01,662.30 88.55,662.45 87.78,661.86 87.82,660.89 86.62,659.68 85.24,659.26 85.13,658.45 84.69,658.77 84.34,658.14 83.66,658.12 84.14,657.60 82.57,656.61 82.91,656.18 81.43,655.90 81.44,655.34 80.43,654.70 79.59,654.82 78.51,653.89 79.05,653.26 76.70,652.32 76.99,651.47 77.80,651.40 77.02,650.88 76.88,650.02 78.30,649.41 78.04,649.05 79.76,648.59 78.30,647.71 78.92,647.44 79.04,646.61 77.26,646.79 76.87,647.38 76.02,647.18 74.13,644.78 74.03,644.25 74.96,643.72 73.93,643.43 73.75,642.66 74.02,642.28 74.98,642.31 75.33,641.63 73.71,641.70 73.23,640.49 72.56,640.55 72.74,640.95 71.61,641.69 70.62,641.56 69.55,640.66 69.59,640.28 70.38,640.22 69.76,639.68 70.07,638.87 68.92,638.98 68.58,638.28 68.25,639.21 67.57,639.33 65.65,638.02 64.86,638.71 65.27,639.21 64.10,639.22 62.48,638.44 61.73,639.83 60.56,640.38 58.43,638.11 57.61,639.18 56.01,638.16 56.88,636.30 57.16,636.85 57.39,636.35 57.94,636.69 58.42,636.37 58.69,636.76 59.11,633.73 61.27,631.68 62.43,631.56 63.77,632.14 65.53,631.17 66.58,631.65 67.62,631.17 68.92,631.51 69.30,632.12 70.04,631.84 68.78,629.87 69.12,626.78 69.85,626.13 71.79,626.40 72.79,625.28 74.03,625.67 74.53,624.96 76.12,624.77 74.99,624.69 74.13,623.94 74.31,622.45 75.14,621.47 86.90,621.98 86.09,618.50 86.93,617.16 85.65,612.60 86.28,611.62 87.08,611.59 86.60,607.38 87.31,606.51 85.88,601.29 86.05,599.31 87.76,597.53 90.02,590.19 87.94,590.00 85.03,588.46 81.05,589.49 73.68,588.52 71.81,589.15 71.38,588.86 71.04,589.30 71.24,588.89 70.45,589.32 69.82,588.88 72.64,588.34 76.36,588.45 77.73,588.88 78.80,588.24 79.20,588.52 79.68,587.94 79.96,588.31 82.26,588.60 84.02,587.56 85.34,587.57 86.66,588.59 87.60,588.88 88.13,588.54 88.34,588.92 88.45,588.12 89.72,587.51 91.89,586.95 93.44,587.19 94.69,586.43 94.90,585.36 95.54,585.08 99.59,576.58 103.90,574.40 107.04,574.87 114.52,573.49 117.72,573.81 121.74,575.57 124.24,576.08 125.14,577.43 125.47,575.97 127.32,573.95 128.60,573.66 130.77,571.98 133.24,568.59 134.78,565.25 132.26,561.83 132.79,558.66 131.75,555.96 131.84,554.72 132.70,554.11 132.84,548.42 133.79,547.73 132.85,548.18 132.12,547.57 130.94,547.74 130.56,547.16 130.10,547.55 129.31,547.21 130.22,547.42 130.51,546.93 131.00,547.54 131.24,547.24 132.83,547.63 133.37,547.08 133.60,545.07 134.85,544.19 135.12,541.06 136.68,539.32 136.51,537.78 138.80,535.04 136.82,528.97 137.18,528.47 140.22,528.24 140.68,527.17 140.16,528.12 138.89,528.04 139.40,527.28 139.17,527.67 138.80,527.18 138.75,527.67 138.53,526.79 137.91,527.37 137.75,526.77 137.53,527.80 135.77,527.33 137.23,527.16 137.41,526.58 136.84,526.22 137.76,525.48 137.66,526.61 138.02,525.37 138.49,526.49 137.96,526.64 139.44,526.92 138.21,525.34 138.60,524.57 137.50,524.82 138.75,523.98 137.14,524.10 137.89,523.78 137.13,523.63 137.88,523.55 137.69,522.70 141.48,526.85 138.19,523.17 138.62,522.60 138.00,521.81 138.15,520.60 137.25,519.54 137.63,519.26 136.92,519.41 136.38,518.94 135.62,516.63 135.63,515.03 136.78,512.27 140.29,512.25 136.11,512.15 137.08,512.08 137.32,511.65 137.73,511.99 139.08,511.69 138.38,511.55 138.70,510.75 139.36,510.90 139.33,511.51 139.93,511.04 140.60,512.43 140.33,510.64 140.68,510.84 141.58,508.82 150.90,500.38 158.63,490.28 162.74,486.43 167.64,483.16 171.80,481.64 178.17,480.23 198.77,478.40 199.93,477.67 200.91,477.86 201.99,477.35 202.97,474.86 200.08,473.48 197.19,470.87 193.93,469.26 191.89,469.52 192.63,468.81 192.11,468.53 190.19,468.47 187.53,470.30 185.99,469.79 187.02,468.72 187.03,467.55 185.09,469.44 184.77,467.65 183.58,468.47 182.37,468.58 182.52,467.56 180.50,466.17 181.70,465.22 180.07,465.26 179.47,464.86 180.06,463.97 177.62,464.06 173.68,463.28 176.10,461.74 175.74,460.87 173.82,459.48 170.31,459.37 170.01,460.25 171.95,460.16 172.20,460.54 171.90,461.12 169.90,461.76 164.78,458.66 160.79,457.96 158.33,456.82 155.18,456.21 153.97,454.17 151.95,453.08 149.70,452.99 147.45,454.30 146.81,453.56 147.02,452.43 144.41,451.93 143.58,451.19 141.41,451.59 136.59,450.29 131.43,449.85 127.12,448.16 124.12,447.24 123.55,447.45 118.71,445.77 116.22,444.56 113.91,440.93 112.57,439.84 112.83,437.73 112.26,436.58 108.01,434.82 112.65,436.23 113.47,439.87 117.53,444.78 126.48,447.41 132.20,449.65 137.28,449.89 142.15,451.28 147.20,450.06 146.71,449.06 144.94,448.66 144.29,447.25 144.99,446.76 147.41,446.46 148.00,445.45 146.27,444.55 147.64,443.64 149.18,443.76 150.95,445.00 153.04,445.16 155.17,446.78 157.44,447.44 158.10,446.62 157.66,445.26 160.18,442.43 163.96,441.96 166.57,440.36 168.28,440.22 169.57,440.62 172.77,439.69 176.85,436.34 180.77,437.59 183.28,436.11 186.22,436.86 193.59,435.71 195.61,435.86 197.76,437.02 198.96,439.05 202.24,440.03 205.60,437.33 209.82,436.26 210.08,434.67 209.13,434.92 209.17,435.56 207.74,434.95 207.31,435.84 206.71,435.21 207.00,434.73 205.83,434.31 205.22,434.81 205.87,435.28 205.18,436.02 204.02,435.28 203.85,434.43 202.88,434.73 202.07,433.97 202.42,433.62 202.93,434.40 202.74,433.75 203.56,433.68 203.43,432.42 205.02,430.77 208.00,428.29 212.59,425.52 211.60,425.97 211.35,425.19 211.94,425.13 211.13,424.99 211.01,424.48 213.29,424.98 213.87,423.73 214.49,423.73 214.88,423.11 214.30,422.61 217.63,422.93 213.32,425.23 219.04,422.33 237.87,411.22 221.70,420.52 220.28,420.88 217.61,420.05 216.96,420.43 214.59,416.88 215.29,417.18 217.30,415.89 217.28,415.33 217.65,415.84 220.80,415.64 220.92,413.28 221.62,413.52 222.59,415.80 224.51,416.64 223.11,414.04 223.85,409.85 224.11,409.62 224.39,413.28 225.96,414.42 227.10,411.32 227.05,408.63 226.19,407.37 227.59,405.38 228.85,406.28 229.10,409.06 231.09,410.04 233.08,412.56 233.88,411.00 234.17,411.58 235.04,411.23 235.55,409.80 235.07,408.67 236.73,407.12 236.29,406.06 236.64,404.73 237.17,404.74 238.25,407.66 238.43,410.97 243.66,408.16 249.13,403.50 250.70,401.81 249.41,402.91 248.46,400.86 249.03,400.88 251.43,398.78 253.64,398.20 254.82,397.21 253.82,395.35 255.22,396.45 256.76,395.32 256.38,396.93 250.71,401.78 260.84,393.88 258.95,394.46 258.07,393.80 256.36,390.72 254.43,389.32 254.13,386.68 254.60,386.54 252.84,385.22 251.46,385.49 249.76,385.16 249.57,384.52 248.37,383.96 244.30,383.19 238.76,379.87 235.70,376.54 235.99,375.43 238.39,373.09 241.96,372.00 244.66,372.47 245.28,373.21 244.07,374.90 245.71,375.42 247.03,378.38 247.86,378.77 249.58,376.81 249.92,375.28 249.26,373.71 249.99,373.21 250.71,373.78 251.22,376.00 250.77,378.25 251.23,378.92 253.18,380.28 256.66,380.84 258.41,382.67 256.99,384.96 257.34,385.65 258.90,387.17 263.32,389.39 262.83,391.38 260.98,392.80 260.87,393.69 263.52,390.48 266.69,388.14 274.81,377.69 273.37,377.26 272.81,375.99 271.79,376.30 271.26,375.90 271.82,376.12 272.23,375.72 272.08,372.96 272.41,375.28 274.66,377.24 277.08,374.74 279.73,373.58 281.09,368.82 280.25,365.71 279.97,366.14 279.35,365.90 279.56,365.53 279.00,365.69 278.23,364.80 279.02,362.68 281.65,361.33 283.55,361.21 285.02,361.78 289.56,360.23 297.21,358.59 297.36,356.49 296.42,354.44 297.60,354.69 298.29,357.53 297.73,358.40 308.19,356.46 312.71,357.69 315.73,357.52 320.00,358.36 320.45,357.29 321.39,356.82 324.19,357.08 324.94,356.22 324.48,356.10 324.73,355.06 327.63,354.02 328.46,352.38 329.29,352.22 329.47,349.62 328.42,349.27 328.05,348.49 325.72,347.74 325.30,344.73 325.84,345.11 326.33,347.92 327.82,347.73 329.54,348.25 330.61,349.75 331.86,348.41 331.09,346.63 331.98,347.22 332.45,346.18 336.62,344.59 336.22,342.35 337.09,343.68 336.93,344.79 334.45,346.57 333.03,347.00 333.63,348.47 332.15,350.17 332.43,351.43 330.28,352.19 330.89,352.86 330.45,354.07 326.76,356.44 325.21,356.61 329.97,356.69 333.65,358.34 336.46,355.61 339.59,354.97 343.48,355.59 345.87,356.49 348.70,356.72 350.30,357.68 356.52,355.76 357.59,354.54 357.31,353.15 357.97,350.66 358.94,349.58 357.66,349.50 356.40,348.44 355.47,347.07 355.55,345.42 358.17,342.07 360.19,341.41 361.98,340.13 363.82,337.58 363.64,336.72 363.08,335.92 361.54,336.51 359.03,336.30 357.51,335.17 358.40,333.79 360.95,332.10 361.12,331.07 356.77,332.10 355.57,331.89 354.36,330.93 353.58,329.27 354.23,326.89 355.93,327.10 356.91,325.93 356.67,324.89 357.17,324.87 355.58,323.97 352.73,323.33 352.20,321.99 353.55,320.41 352.23,318.81 346.95,316.80 346.57,314.73 347.47,313.26 349.01,312.32 348.08,311.44 346.83,311.59 345.61,310.32 346.88,311.51 348.08,311.36 349.10,312.16 347.37,313.58 346.75,314.80 347.17,316.80 352.21,318.50 353.85,320.08 353.11,318.55 354.48,320.47 353.40,322.42 353.73,323.27 354.97,323.78 356.98,323.81 358.12,324.97 357.86,326.43 355.82,327.67 354.40,329.41 354.73,329.25 355.68,330.78 356.14,330.56 356.65,331.25 360.68,329.67 362.28,329.86 363.15,330.51 363.57,332.73 362.66,332.20 361.43,332.76 359.68,334.36 359.92,335.30 359.95,335.44"/>
    <polyline fill="none" stroke="#1f6f8b" stroke-width="2.10" stroke-opacity="0.38" stroke-linejoin="round" stroke-linecap="round" points="359.96,335.43 361.39,335.84 363.60,335.09 363.31,334.89 364.66,334.91 365.80,336.75 364.83,338.45 364.93,339.80 362.96,340.79 362.60,341.20 363.10,341.39 362.29,342.03 360.75,342.18 360.75,344.43 358.81,345.62 359.78,346.31 359.03,346.97 360.26,346.55 359.63,348.39 360.75,348.75 362.51,350.92 362.02,352.92 362.68,354.28 365.87,356.67 367.61,357.35 370.07,357.21 371.37,357.73 373.58,361.25 376.36,360.04 378.22,359.91 380.97,358.87 383.88,360.02 384.97,361.52 390.20,361.90 391.81,361.14 394.03,360.99 395.68,360.34 396.24,358.78 396.47,359.62 395.94,360.27 398.36,358.71 400.83,358.61 399.43,358.01 399.72,357.47 400.65,357.34 400.93,357.71 401.64,357.06 402.18,357.33 402.56,357.04 402.23,357.40 402.88,357.96 402.20,357.70 401.49,358.12 401.06,357.73 401.08,358.58 403.89,358.08 403.84,357.57 404.31,357.86 409.24,354.34 413.05,353.25 417.74,353.18 426.16,349.29 430.00,348.67 434.10,348.61 441.22,345.74 450.70,345.85 452.42,346.56 455.40,345.90 456.87,346.46 455.45,347.49 451.13,348.29 440.98,346.10 434.67,348.92 426.34,349.65 419.50,353.14 415.37,353.98 411.13,354.23 409.03,354.90 406.33,356.72 405.10,357.78 405.59,358.06 404.75,358.09 400.45,362.54 398.44,362.47 395.17,364.80 391.25,364.88 386.67,366.10 383.42,365.85 385.87,366.63 385.22,367.18 385.86,367.32 388.77,366.02 391.53,365.42 392.92,365.66 391.50,366.97 388.83,367.61 384.77,367.40 380.20,366.40 377.41,366.45 375.13,365.83 377.09,365.98 374.22,364.46 373.77,364.58 374.56,364.95 374.53,365.60 371.37,365.04 365.58,366.06 365.40,365.38 365.19,365.91 363.41,365.77 358.38,364.58 357.74,364.37 357.56,363.68 358.08,363.49 356.37,363.03 357.18,363.90 355.55,364.17 350.70,363.26 347.49,361.95 341.41,362.60 335.67,362.61 332.75,361.53 331.06,359.89 333.22,362.22 339.58,365.92 344.15,369.62 343.53,369.07 344.45,369.33 343.38,368.82 343.77,367.28 344.71,366.48 346.97,365.89 356.35,367.69 360.92,369.23 359.22,368.46 361.56,368.83 360.08,368.31 360.92,368.40 362.20,368.99 360.84,368.94 361.97,369.19 364.18,368.23 365.87,368.92 366.64,370.78 368.09,372.05 367.68,373.02 366.41,373.38 365.68,373.00 364.53,374.62 361.35,375.69 357.18,376.38 356.61,376.34 358.89,376.12 353.10,376.27 349.47,377.09 349.23,377.77 348.00,378.08 347.64,378.93 348.18,378.66 348.88,379.08 349.46,380.28 349.14,381.00 350.11,380.32 349.92,379.93 350.40,380.44 351.30,380.17 351.57,380.96 352.59,379.94 353.01,380.17 352.50,380.44 353.43,380.32 353.73,380.76 355.07,380.29 355.50,381.01 357.02,379.22 356.54,378.70 356.30,379.23 355.88,379.11 355.76,377.80 357.00,377.57 356.98,378.59 360.02,378.94 359.35,378.92 360.39,379.27 360.65,380.25 361.29,380.45 360.68,380.29 360.87,380.65 361.22,380.95 361.77,380.66 361.29,380.94 362.09,381.51 363.65,381.66 364.18,381.03 363.95,381.78 364.80,382.00 365.59,382.13 365.17,381.73 365.69,381.51 366.05,382.20 367.19,381.50 368.76,382.53 368.58,382.10 369.22,382.09 370.16,383.88 370.91,383.86 370.73,384.17 371.87,384.85 372.86,384.97 372.74,384.63 373.19,385.25 375.19,385.27 377.55,387.17 377.11,386.60 377.87,386.67 377.89,386.22 378.80,386.05 380.27,386.56 380.82,387.55 380.26,387.67 380.08,387.15 379.66,387.52 380.19,388.78 379.39,389.93 367.52,387.42 391.71,392.80 400.81,394.50 401.01,393.40 404.85,392.24 407.73,391.73 409.69,392.18 413.68,391.63 416.10,390.65 420.08,391.44 423.22,390.95 425.60,391.85 433.53,391.41 433.96,391.22 432.84,391.15 432.67,390.69 433.67,389.57 433.17,388.61 434.42,388.32 436.28,388.51 437.32,389.78 440.84,390.48 444.17,388.36 444.95,387.14 444.35,385.74 445.19,386.20 446.85,384.33 445.56,387.14 447.08,388.50 445.82,389.20 445.05,391.09 445.40,391.65 445.99,391.74 445.78,390.36 446.60,389.93 448.54,389.52 450.86,389.89 452.33,390.62 452.82,391.52 452.12,392.67 450.64,392.37 450.90,393.69 453.00,393.75 452.50,393.57 452.83,391.88 454.06,391.17 454.98,392.37 456.84,392.87 456.47,393.86 460.14,396.82 460.86,396.84 460.23,396.56 460.48,396.14 463.00,395.51 465.58,396.99 466.66,396.80 464.92,395.33 465.29,393.81 466.54,393.37 470.00,393.82 466.60,392.26 466.18,390.72 466.95,391.08 468.18,390.83 468.60,389.69 469.99,389.56 470.80,388.25 471.82,388.28 472.92,389.19 475.11,393.62 473.90,394.19 473.25,395.29 474.45,401.26 473.47,402.56 474.78,402.80 474.88,402.34 476.19,401.94 478.37,401.86 481.69,402.15 482.57,402.43 483.01,403.35 482.32,403.82 480.71,403.88 478.80,405.18 478.32,404.85 477.74,405.10 477.87,409.47 476.17,407.59 474.97,407.43 473.16,406.33 470.91,407.86 470.06,407.76 468.42,410.03 467.75,409.32 465.71,409.71 465.11,408.73 464.27,408.84 460.10,410.35 460.07,410.95 459.79,410.59 459.53,410.96 459.76,411.64 459.37,410.98 455.99,413.28 449.58,415.46 446.32,415.54 444.19,414.53 442.98,413.30 442.24,416.45 441.15,417.81 436.32,418.86 428.71,421.75 424.57,423.88 419.81,426.61 419.57,427.05 420.87,427.09 421.28,427.68 420.04,428.99 420.26,429.42 419.49,428.73 418.53,429.07 418.47,429.44 419.20,429.34 419.32,430.07 415.85,430.76 418.36,429.15 417.39,428.52 412.22,430.75 412.10,431.68 410.81,432.05 411.33,431.64 410.84,431.15 403.63,434.01 400.50,435.80 396.48,439.72 396.53,440.18 398.38,440.63 398.98,441.53 397.53,443.16 408.23,445.21 413.41,442.45 416.83,441.68 425.23,442.06 428.51,443.19 430.50,444.43 430.66,444.09 426.63,442.26 429.59,442.73 430.67,442.14 430.96,443.04 432.21,442.35 432.46,441.67 434.78,441.46 434.87,440.70 436.10,440.26 438.26,440.44 438.13,440.07 440.51,439.03 440.96,438.29 441.74,438.39 442.35,437.13 443.80,436.88 444.43,436.20 445.56,436.57 443.88,437.66 443.08,437.22 441.78,438.99 439.56,439.97 440.59,440.27 439.30,440.26 438.44,441.51 437.44,441.23 437.23,441.52 437.06,441.04 435.98,441.39 434.81,442.82 436.34,442.87 436.44,443.21 435.76,443.66 435.55,443.22 435.03,443.59 433.61,443.47 434.27,444.36 433.51,444.38 433.18,445.70 430.88,444.57 436.34,447.99 439.28,450.84 441.10,451.70 441.88,452.85 444.20,454.03 446.95,454.62 449.08,456.48 450.73,456.48 452.34,454.74 455.48,454.69 457.64,453.20 459.64,453.46 461.66,454.37 465.46,456.78 469.63,460.77 472.30,466.00 472.58,467.79 472.10,468.26 473.12,471.98 472.76,475.21 471.77,476.98 470.38,477.50 469.11,477.30 468.86,477.71 468.91,479.29 467.74,480.65 468.73,484.87 468.56,488.79 467.91,490.58 466.60,491.08 466.13,491.89 469.72,491.90 471.69,492.70 467.72,492.44 467.42,493.53 467.29,492.35 466.83,492.63 466.00,492.16 465.39,492.89 463.73,492.75 463.59,493.47 463.32,492.80 462.22,492.95 461.97,493.87 461.39,493.21 460.19,494.00 461.19,495.46 459.78,494.40 459.50,495.99 459.32,495.11 458.83,495.61 458.89,494.18 457.27,494.72 459.77,497.02 463.25,498.82 464.60,500.50 465.44,500.10 469.26,501.18 471.95,500.61 473.32,501.15 474.67,502.22 475.61,505.35 477.22,505.89 479.54,505.68 481.59,507.98 484.27,508.03 489.87,506.64 497.31,507.69 500.42,506.60 501.57,506.72 503.77,505.58 507.88,505.17 510.73,500.68 516.29,499.89 518.14,497.56 519.99,496.77 522.76,497.10 522.93,494.75 524.36,494.11 524.70,492.77 527.49,488.58 530.47,485.96 535.39,484.18 536.70,483.24 538.93,482.77 540.17,481.88 550.76,478.91 556.40,479.02 558.20,478.56 560.82,479.00 561.38,478.04 564.77,477.29 566.16,478.03 566.97,477.65 569.03,478.04 570.35,479.11 570.02,479.99 572.47,480.61 575.74,478.50 576.12,476.04 577.76,473.55 579.61,472.70 581.78,472.56 583.25,471.96 584.01,470.68 583.62,469.62 584.23,469.04 585.54,468.63 586.76,469.14 588.73,468.60 590.65,468.97 590.78,469.46 592.95,470.13 593.29,469.59 591.93,469.50 590.83,468.21 590.99,467.52 591.56,466.92 595.70,465.65 592.95,464.44 593.65,462.37 597.21,459.81 603.17,457.97 608.48,457.95 616.10,460.25 621.64,463.57 621.79,465.05 623.17,465.63 622.97,466.26 623.66,466.60 628.59,465.16 631.43,465.67 633.50,464.80 634.70,463.66 636.55,463.14 640.44,463.29 649.76,464.62 651.58,463.12 655.31,462.54 659.77,462.53 664.55,460.61 665.20,459.69 677.31,456.99 682.89,458.39 684.23,459.13 689.76,458.53 695.46,459.43 711.86,464.25 719.81,468.16 723.59,471.85 723.60,473.09 722.16,473.91 725.08,476.73 725.20,478.28 727.91,481.11 728.23,482.61 727.61,482.85 729.24,483.27 729.73,484.13 734.74,487.19 739.13,488.42 740.06,488.27 743.85,489.13 746.20,488.91 749.34,490.03 751.93,490.19 755.74,489.29 756.89,488.23 755.50,487.05 755.25,485.27 754.70,485.30 755.55,484.52 755.91,484.90 756.27,484.54 756.30,485.33 757.33,485.25 756.67,485.62 757.58,485.16 758.31,485.43 758.29,485.79 759.04,485.84 758.81,486.42 763.89,489.09 765.08,490.50 763.29,491.50 765.16,493.42 768.64,495.30 768.65,495.71 771.65,496.28 772.01,495.82 771.47,494.75 772.91,494.58 774.08,495.14 774.80,496.43 772.99,496.94 778.21,500.21 779.96,503.18 781.45,503.84 783.36,505.92 784.69,506.36 789.50,506.57 792.40,507.86 792.84,508.51 795.07,509.18 797.84,508.77 808.11,510.51 810.56,511.64 811.52,511.62 812.46,512.37 817.03,513.21 818.06,513.82 820.20,513.80 823.21,515.12 828.34,520.84 829.63,521.52 831.27,521.50 834.66,522.85 837.23,523.20 838.97,524.89 839.71,527.55 842.42,527.87 842.34,528.30 843.40,528.60 847.45,532.67 857.27,538.01 859.57,540.73 861.01,541.28 864.41,543.91 868.78,548.62 876.62,554.16 878.43,556.61 884.05,559.04 885.65,562.31 886.75,563.26 893.10,565.86 896.84,568.02 899.77,573.58 901.51,574.71 904.53,575.71 910.36,576.26 915.89,578.71 921.53,580.41 923.01,583.88 923.71,588.86 927.95,591.80 929.73,590.39 931.73,590.01 936.74,592.30 940.24,592.21 944.23,595.58 948.49,594.89 951.77,595.89 955.93,595.79 963.10,596.56 967.20,599.72 970.38,602.97 971.03,602.98 972.15,602.01 975.44,602.04 977.87,605.05 979.77,612.35 982.67,615.50 984.67,615.87 986.66,615.10 988.34,615.29 992.26,616.19 993.88,617.05 999.22,617.92 1001.08,619.39 1001.24,618.88 1001.27,619.32 1002.10,619.26 1002.75,619.85 1004.60,622.76 1007.30,629.37 1010.20,642.83 1010.54,642.19 1010.39,642.99 1012.57,644.07 1014.97,649.07 1016.01,652.89 1015.28,654.85 1015.82,655.29 1019.36,656.10 1022.44,657.68 1024.59,657.10 1024.80,656.77 1023.82,656.60 1023.69,656.13 1025.96,654.89 1028.29,655.79 1030.83,654.99 1032.10,656.62 1033.20,655.75 1035.01,656.30 1037.35,655.31 1037.65,656.08 1038.92,655.74 1041.11,656.72 1041.58,657.47 1042.36,656.77 1044.37,656.86 1045.77,657.59 1047.38,657.44 1048.31,658.51 1051.22,658.19 1052.51,658.86 1053.60,660.35 1058.09,662.00 1059.53,662.11 1060.68,660.73 1063.53,661.25 1063.20,659.95 1064.00,659.61 1063.31,660.00 1063.75,661.25 1062.34,661.40 1060.70,660.87 1060.14,662.10 1058.74,662.34 1053.64,660.68 1052.53,659.01 1051.51,658.61 1047.88,658.72 1047.25,657.62 1045.79,657.79 1044.49,657.02 1042.72,657.01 1041.57,657.63 1038.95,656.00 1037.56,656.27 1037.15,655.44 1035.01,656.67 1033.18,655.96 1032.09,656.89 1030.45,655.17 1028.85,656.11 1025.46,655.27 1024.04,656.43 1025.28,656.48 1025.16,657.31 1022.39,658.06 1019.13,656.10 1016.78,656.02 1015.98,657.14 1016.96,658.62 1016.33,659.23 1019.90,663.08 1020.65,662.69 1019.48,659.81 1023.62,660.04 1024.48,660.89 1023.74,661.05 1023.37,662.20 1020.96,662.43 1020.72,662.79 1022.38,663.53 1021.92,664.81 1021.38,664.51 1021.84,665.27 1020.67,662.87 1020.68,663.46 1020.14,663.33 1023.41,667.97 1023.78,667.39 1025.17,678.69 1024.74,682.10 1020.64,689.88 1017.63,692.94 1016.27,693.19 1015.60,692.49 1012.22,695.15 1011.01,696.86 1010.53,700.11 1007.84,704.32 1004.61,705.78 1000.41,710.74 999.68,711.22 995.81,711.74 993.47,713.04 990.56,713.82 988.30,715.81 984.78,717.51 982.77,717.92 981.12,719.55 975.57,722.71 967.84,725.02 964.08,724.60 959.14,726.03 956.72,727.77 953.66,731.03 951.67,731.75 951.09,731.50 945.71,733.73 943.77,733.88 941.81,735.08 940.28,735.08 939.34,734.41 940.07,734.33 938.63,734.19 933.70,735.23 930.83,735.24 922.07,741.11 917.49,742.74 915.39,742.86 911.34,742.55 907.34,739.70 905.46,739.87 904.42,739.35 900.35,740.04 895.30,739.82 893.45,737.96 890.06,736.78 887.74,736.94 886.02,736.15 882.30,737.31 881.07,737.18 880.06,736.44 875.63,735.21 870.23,730.76 865.69,729.71 862.34,731.57 856.57,733.59 854.39,733.76 852.57,733.20 851.21,731.93 848.32,731.62 845.22,733.50 841.17,734.42 837.91,734.76 837.12,734.39 833.52,734.43 832.89,734.02 828.67,736.19 825.60,736.65 824.95,736.20 818.07,740.30 815.34,740.39 813.23,738.71 811.94,738.76 809.76,740.52 805.56,742.59 802.24,742.82 801.46,742.47 798.80,742.94 796.85,742.69 796.08,742.09 793.83,743.10 791.55,742.38 788.76,740.66 782.49,741.11 781.99,740.85 782.39,740.73 779.87,740.08 778.47,740.14 769.75,738.28 765.32,737.99 765.32,738.44 764.96,737.91 761.84,737.95 760.67,735.95 756.82,735.24 755.11,733.40 754.33,732.20 755.35,729.08 754.31,729.29 752.95,728.87 749.77,729.26 748.27,727.73 746.33,729.10 743.82,732.22 743.33,733.64 742.22,734.43 738.46,735.55 736.43,735.06 735.22,734.27 734.56,732.76 730.63,731.58 728.96,729.98 722.01,728.60 721.52,728.08 721.91,727.11 716.29,727.27 711.25,726.86 705.54,725.12 704.28,724.30 703.82,723.54 704.38,723.54 703.30,722.52 703.79,722.55 703.86,720.05 702.64,718.22 693.69,714.19 689.08,713.09 681.79,712.36 679.23,711.19 679.02,712.29 678.56,711.04 676.45,712.15 676.48,713.02 672.86,717.51 670.49,718.85 666.17,720.33 661.55,720.04 660.56,719.63 660.33,718.53 658.18,717.88 658.04,716.97 657.94,717.58 657.33,717.11 657.59,715.85 658.53,715.98 650.94,713.13 650.14,711.75 643.36,705.69 642.52,702.92 643.39,699.28 642.32,694.74 638.30,690.49 631.38,687.26 618.91,691.72 609.77,693.91 605.22,694.31 598.66,693.20 594.93,690.75 585.67,688.60 584.68,687.83 584.83,687.08 580.99,685.10 579.98,683.37 580.04,682.93 580.92,682.69 578.71,681.58 577.55,680.13 575.97,679.26 575.41,677.53 574.17,676.69 573.00,674.67 573.36,671.66 575.13,668.46 576.80,667.75 580.71,668.50 581.16,668.04 579.70,666.52 578.44,666.56 575.55,667.74 571.70,667.41 569.90,666.54 569.67,665.79 570.39,665.31 569.76,665.29 569.94,664.80 568.02,663.09 563.18,662.73 563.44,664.34 560.69,667.68 558.37,669.49 553.52,672.34 548.20,673.13 537.08,672.96 533.65,672.16 532.41,670.93 531.46,671.65 528.64,671.63 525.86,672.60 523.22,673.03 522.22,672.63 521.66,673.14 519.46,673.33 511.17,672.09 510.56,671.93 510.79,671.64 505.74,670.76 500.79,670.53 492.71,671.25 484.53,671.17 483.67,670.59 481.85,670.89 473.68,670.36 462.45,668.54 459.98,668.79 458.10,668.22 454.58,667.99 449.51,670.04 443.81,671.59 443.12,672.35 433.55,674.27 432.82,675.08 430.46,675.63 430.14,676.09 430.71,676.08 429.79,676.72 423.09,678.31 422.31,678.88 416.56,678.88 415.89,679.59 412.53,679.61 411.91,680.29 410.35,680.37 409.85,680.82 403.33,681.04 402.81,682.12 397.81,682.78 396.87,684.15 395.43,684.69 394.71,684.51 393.16,685.41 392.16,686.97 390.52,686.77 389.94,686.01 390.06,686.39 388.75,686.63 388.62,687.32 387.15,687.42 387.06,688.09 384.63,687.92 383.23,688.30 379.75,690.42 380.12,690.76 379.26,690.61 379.60,691.51 379.18,691.99 375.82,693.64 376.21,694.22 373.68,696.15 367.61,697.64 368.26,698.41 367.45,697.80 366.06,698.12 363.62,700.03 357.71,701.75 356.94,701.55 357.30,701.76 353.52,703.14 352.39,704.31 349.65,705.51 349.15,705.95 349.57,706.23 347.46,706.20 346.90,707.29 342.55,709.32 339.77,710.04 338.39,711.08 332.45,712.29 329.46,713.33 327.96,714.78 325.90,714.80 324.82,715.68 323.49,715.61 322.92,717.10 324.86,718.30 324.66,719.16 323.66,718.61 324.10,722.57 318.46,728.22 313.28,729.98 304.52,730.70 301.20,731.66 297.29,732.04 290.58,732.05 279.96,731.13 272.94,728.25 259.71,726.50 252.77,724.49 251.20,723.39 250.36,723.65 247.69,723.06 247.26,722.56 245.77,724.37 244.00,724.35 244.60,724.91 243.76,725.02 244.13,726.02 241.80,726.06 241.73,727.10 240.96,726.59 240.92,726.99 239.19,727.65 236.78,727.27 235.69,727.87 235.55,727.48 231.99,727.93 230.73,727.49 230.19,727.96 229.96,727.58 227.56,727.86 222.79,727.24 220.44,727.54 219.47,727.25 218.67,727.65 213.21,726.12 210.72,726.49 208.50,725.87 206.82,726.01 202.42,724.65 201.81,724.88 202.34,724.84 201.90,725.35 201.02,725.47 195.43,724.51 187.57,722.42 185.29,722.70 181.05,721.97 178.58,721.07 177.58,721.57 175.74,721.37 175.57,722.06 172.59,721.79 172.17,722.24 166.99,720.37 166.48,719.76 166.12,720.22 163.78,719.54 163.47,720.32 161.40,720.39 156.07,718.58 154.18,718.65 152.71,718.16 152.64,717.74 150.36,717.58 148.49,716.34 146.66,716.54 146.53,715.80 143.41,714.77 142.80,715.05 139.88,713.43 139.14,713.76 136.28,713.29 131.68,711.04 112.05,703.43 109.27,701.54 108.45,701.54 108.58,701.15 106.17,699.39 105.96,698.32 103.82,697.82 103.34,696.58 100.16,694.29 99.53,692.62 100.77,691.77 100.35,691.00 97.98,689.42 96.40,687.53 96.46,686.06 93.37,683.11 92.19,680.57 92.18,678.45 91.66,678.46 94.57,676.48 96.44,677.42 97.53,677.22 96.60,675.18 97.00,673.03 96.55,671.89 95.43,671.06 96.07,670.49 95.90,669.72 94.26,667.81 94.68,667.51 93.92,666.51 92.63,665.72 93.08,665.06 91.67,664.92 90.02,662.30 88.55,662.45 87.79,661.87 87.84,660.89 86.61,659.68 85.24,659.27 85.13,658.44 84.69,658.77 84.35,658.14 83.66,658.12 84.15,657.60 83.56,657.61 83.26,656.73 82.55,656.59 82.91,656.19 81.42,655.89 81.44,655.35 80.43,654.70 79.59,654.80 78.52,653.89 79.06,653.26 76.70,652.33 77.00,651.48 77.81,651.41 77.01,650.87 76.89,650.03 78.31,649.41 78.04,649.06 79.76,648.59 78.31,647.71 79.05,646.61 77.25,646.78 76.87,647.40 76.03,647.18 74.14,644.78 74.05,644.25 74.95,643.71 73.94,643.44 73.75,642.65 74.99,642.32 75.33,641.63 73.72,641.70 72.99,640.88 73.24,640.49 72.57,640.54 72.75,640.96 71.61,641.69 70.62,641.56 69.55,640.66 69.59,640.28 70.38,640.22 69.74,639.68 70.07,638.87 68.92,638.98 68.58,638.27 68.23,639.20 67.57,639.33 65.66,638.02 64.86,638.72 65.25,639.22 64.11,639.23 62.47,638.43 61.72,639.84 60.56,640.39 58.44,638.12 57.63,639.19 56.01,638.16 56.87,636.30 57.15,636.85 57.39,636.35 57.94,636.67 58.43,636.36 58.69,636.76 59.10,633.72 61.26,631.68 62.41,631.57 63.78,632.15 65.52,631.18 66.58,631.65 67.62,631.17 68.94,631.52 69.31,632.13 70.04,631.85 68.78,629.86 69.12,626.77 69.86,626.13 71.79,626.40 72.79,625.27 74.04,625.68 74.53,624.96 76.12,624.77 74.99,624.70 74.12,623.94 74.29,622.46 75.14,621.47 86.89,621.98 86.08,618.51 86.92,617.16 85.66,612.60 86.27,611.62 87.06,611.59 86.61,607.39 87.31,606.50 85.89,601.29 86.06,599.31 87.76,597.52 90.02,590.20 87.93,589.99 85.02,588.46 81.06,589.48 73.67,588.52 71.83,589.14 71.40,588.85 71.04,589.31 71.24,588.89 70.44,589.34 69.85,588.90 72.65,588.34 76.36,588.45 77.72,588.89 78.80,588.24 79.21,588.53 79.67,587.94 79.95,588.31 82.26,588.60 84.02,587.56 85.34,587.56 86.66,588.59 87.61,588.87 88.14,588.55 88.35,588.92 88.46,588.12 89.73,587.52 91.87,586.95 93.45,587.17 94.68,586.43 94.89,585.36 95.53,585.07 99.60,576.58 103.90,574.40 107.05,574.87 114.52,573.49 117.70,573.80 121.75,575.57 124.24,576.09 125.14,577.43 125.48,575.96 127.33,573.95 128.60,573.65 130.76,571.97 133.25,568.59 134.77,565.25 132.26,561.83 132.77,558.66 131.75,555.95 131.84,554.72 132.71,554.11 132.84,548.42 133.78,547.75 132.85,548.18 132.12,547.58 130.95,547.74 130.54,547.16 130.10,547.55 129.31,547.21 130.23,547.43 130.51,546.92 131.02,547.54 131.23,547.25 132.82,547.64 133.36,547.07 133.62,545.06 134.86,544.19 135.11,541.07 136.67,539.32 136.52,537.79 138.80,535.05 136.84,528.97 137.19,528.46 140.23,528.24 140.68,527.17 140.16,528.13 138.88,528.04 139.40,527.27 139.19,527.67 138.80,527.18 138.74,527.66 138.53,526.79 137.91,527.37 137.73,526.78 137.53,527.79 135.77,527.32 137.23,527.16 137.40,526.57 136.83,526.23 137.22,526.34 137.21,525.58 137.75,525.49 137.68,526.61 138.02,525.37 138.50,526.48 137.95,526.64 139.46,526.92 138.20,525.34 138.60,524.56 137.50,524.83 138.75,523.98 137.14,524.09 137.88,523.77 137.12,523.63 137.87,523.55 137.70,522.71 141.47,526.84 138.18,523.17 138.63,522.60 137.25,519.54 137.65,519.26 136.93,519.41 136.40,518.93 135.61,516.63 135.62,515.03 136.78,512.28 140.28,512.24 136.11,512.14 137.32,511.65 137.73,511.99 139.10,511.69 138.36,511.55 138.70,510.76 139.36,510.90 139.35,511.51 139.93,511.04 140.60,512.43 140.32,510.65 140.69,510.84 141.59,508.83 150.90,500.38 158.63,490.28 162.74,486.42 167.64,483.16 171.80,481.64 178.16,480.24 198.76,478.40 199.93,477.67 200.91,477.87 201.99,477.35 202.98,474.85 200.07,473.48 197.18,470.87 193.93,469.27 191.89,469.52 192.62,468.82 192.10,468.53 190.19,468.46 187.53,470.30 186.00,469.78 187.02,468.72 187.03,467.55 185.07,469.45 184.78,467.65 183.58,468.47 182.38,468.58 182.53,467.55 180.50,466.18 181.72,465.22 180.07,465.28 179.49,464.86 180.05,463.98 177.61,464.07 173.68,463.28 176.10,461.74 175.73,460.87 173.81,459.48 170.30,459.38 170.02,460.25 171.95,460.16 172.20,460.54 171.91,461.13 169.88,461.77 164.79,458.67 160.78,457.96 158.33,456.81 155.18,456.20 153.96,454.17 151.96,453.08 149.70,452.99 147.45,454.29 146.82,453.57 147.03,452.43 144.41,451.93 143.59,451.19 141.42,451.60 136.59,450.29 131.43,449.85 118.72,445.77 116.24,444.56 113.90,440.93 112.57,439.85 112.81,437.75 112.27,436.59 108.01,434.83 112.65,436.23 113.46,439.87 117.52,444.78 126.49,447.41 132.20,449.65 137.28,449.88 142.16,451.27 147.21,450.06 146.71,449.06 144.93,448.66 144.29,447.25 144.99,446.76 147.41,446.45 148.01,445.45 146.25,444.56 147.64,443.65 149.19,443.76 150.96,445.00 153.04,445.16 155.18,446.77 157.43,447.43 158.10,446.62 157.68,445.26 160.20,442.42 163.97,441.95 166.56,440.37 168.29,440.21 169.58,440.63 172.76,439.69 176.87,436.34 180.77,437.59 183.30,436.10 186.21,436.85 193.59,435.71 195.61,435.86 197.76,437.02 198.97,439.05 202.24,440.03 205.58,437.34 209.83,436.26 210.08,434.67 209.12,434.91 209.14,435.56 207.75,434.94 207.31,435.85 206.71,435.20 206.99,434.74 205.82,434.31 205.22,434.82 205.86,435.28 205.18,436.02 204.05,435.28 203.85,434.44 202.87,434.74 202.06,433.97 202.42,433.61 202.94,434.40 202.73,433.75 203.56,433.67 203.43,432.41 205.02,430.78 208.03,428.29 212.59,425.51 211.60,425.98 211.35,425.17 211.94,425.11 211.12,425.00 211.02,424.48 213.29,424.98 213.87,424.62 213.86,423.73 214.49,423.73 214.88,423.11 214.30,422.62 217.64,422.93 213.33,425.23 219.05,422.34 237.87,411.22 236.09,411.88 221.70,420.52 220.29,420.87 217.60,420.05 216.96,420.43 214.59,416.89 215.29,417.18 217.30,415.90 217.27,415.34 217.66,415.85 220.81,415.64 220.92,413.27 221.62,413.52 222.60,415.80 224.51,416.65 223.11,414.04 223.85,409.85 224.10,409.62 224.38,413.29 225.96,414.42 227.10,411.33 227.05,408.63 226.18,407.36 227.59,405.38 228.86,406.28 229.10,409.06 231.09,410.03 233.09,412.56 233.89,411.00 234.17,411.57 235.03,411.22 235.56,409.80 235.06,408.67 236.73,407.12 236.28,406.07 236.64,404.72 237.16,404.74 238.25,407.66 238.42,410.97 243.66,408.15 249.11,403.48 250.71,401.82 249.40,402.92 248.47,400.86 249.04,400.88 251.43,398.77 253.63,398.20 254.82,397.21 253.81,395.35 255.22,396.44 256.76,395.32 256.39,396.93 250.70,401.78 260.83,393.87 258.96,394.46 258.07,393.81 256.37,390.73 254.45,389.31 254.13,386.69 254.62,386.54 252.85,385.22 251.46,385.48 249.75,385.17 249.57,384.52 248.36,383.96 244.30,383.20 238.76,379.87 235.70,376.54 236.00,375.42 238.39,373.08 241.96,372.01 244.66,372.48 245.26,373.20 244.06,374.90 245.71,375.42 247.02,378.38 247.86,378.78 249.58,376.81 249.92,375.28 249.26,373.72 249.99,373.21 250.72,373.77 251.22,375.99 250.77,378.24 251.23,378.92 253.20,380.28 256.65,380.84 258.43,382.67 256.98,384.97 257.34,385.66 258.90,387.16 263.32,389.39 262.84,391.38 260.99,392.80 260.87,393.70 263.53,390.48 266.70,388.14 274.81,377.68 273.37,377.27 272.81,375.99 271.81,376.31 271.25,375.90 271.82,376.12 272.22,375.71 272.10,372.96 272.42,375.28 274.66,377.23 277.08,374.73 279.72,373.57 281.09,368.82 280.26,365.71 279.95,366.13 279.35,365.89 279.56,365.53 279.00,365.69 278.22,364.80 279.02,362.68 281.65,361.33 283.56,361.21 285.02,361.80 289.58,360.24 297.23,358.57 297.34,356.49 296.41,354.44 297.60,354.69 298.29,357.52 297.72,358.40 308.18,356.46 312.72,357.68 315.73,357.52 320.01,358.37 320.45,357.28 321.38,356.82 324.18,357.07 324.93,356.22 324.47,356.09 324.72,355.06 327.64,354.02 328.47,352.38 329.29,352.22 329.45,349.61 328.43,349.27 328.05,348.48 325.73,347.73 325.30,344.73 325.84,345.12 326.32,347.92 327.81,347.73 329.55,348.24 330.61,349.76 331.87,348.41 331.09,346.62 331.97,347.20 332.46,346.17 336.63,344.60 336.22,342.33 337.09,343.68 336.93,344.79 334.45,346.57 333.04,347.00 333.63,348.47 332.17,350.17 332.41,351.43 330.29,352.19 330.89,352.88 330.46,354.08 326.78,356.45 325.20,356.61 329.98,356.70 333.65,358.34 336.45,355.61 339.59,354.97 343.48,355.58 345.87,356.49 348.68,356.72 350.29,357.68 356.53,355.77 357.60,354.55 357.30,353.15 357.97,350.66 358.95,349.58 357.65,349.51 356.41,348.43 355.46,347.07 355.56,345.42 358.17,342.07 360.17,341.41 361.99,340.13 363.82,337.59 363.65,336.72 363.07,335.92 361.55,336.50 359.03,336.29 357.51,335.16 358.40,333.79 360.96,332.10 361.13,331.08 356.77,332.10 355.57,331.89 354.36,330.93 353.58,329.26 354.25,326.89 355.92,327.10 356.92,325.92 356.67,324.90 357.16,324.87 355.57,323.98 352.72,323.34 352.20,321.99 353.55,320.42 352.24,318.82 346.96,316.81 346.56,314.72 347.47,313.26 349.01,312.33 348.08,311.43 346.83,311.58 345.61,310.32 346.88,311.51 348.08,311.35 349.11,312.16 346.75,314.79 347.17,316.80 352.21,318.49 353.84,320.07 353.12,318.55 354.47,320.47 353.39,322.42 353.74,323.26 354.97,323.78 356.97,323.82 358.12,324.97 357.87,326.43 355.82,327.67 354.41,329.41 354.76,329.26 355.67,330.78 356.13,330.55 356.65,331.25 360.67,329.67 362.27,329.86 363.14,330.50 363.58,332.74 362.66,332.20 361.43,332.76 359.68,334.36 359.92,335.30 359.96,335.43"/>
    <polyline fill="none" stroke="#2c7a7b" stroke-width="3.60" stroke-opacity="1.00" stroke-linejoin="round" stroke-linecap="round" points="359.95,335.44 361.39,335.85 364.05,334.61 365.93,336.22 364.15,340.93 360.76,342.17 361.07,344.14 359.90,345.83 358.84,345.62 359.03,346.96 359.97,346.35 360.66,347.20 359.62,348.39 362.26,349.25 362.68,354.27 363.74,355.09 365.04,354.08 364.80,355.86 367.60,357.35 368.86,356.50 370.77,357.09 373.64,359.13 373.57,361.24 374.82,359.63 375.44,360.45 378.24,359.91 379.20,358.58 381.92,359.25 382.98,358.55 385.00,361.53 388.29,361.91 388.65,360.95 390.18,361.91 390.83,361.00 394.01,360.98 396.23,358.78 395.93,360.26 396.44,358.75 397.54,359.24 399.81,357.87 400.83,358.62 399.44,358.02 400.19,357.21 403.02,357.59 401.05,357.75 401.09,358.57 402.67,357.59 403.88,358.08 410.86,352.87 411.79,353.62 414.59,352.38 415.84,353.46 420.21,352.35 422.19,351.33 422.55,348.69 424.18,350.32 428.31,347.79 428.71,348.87 432.09,347.87 434.10,348.62 437.63,347.05 438.20,345.52 439.42,346.40 442.73,344.88 446.14,345.94 449.95,345.38 452.42,346.55 453.63,345.11 454.41,346.12 456.78,346.23 456.28,347.63 454.02,347.76 453.40,348.95 452.56,348.03 450.07,348.79 447.74,347.32 446.13,348.07 444.02,346.73 443.49,347.50 443.05,346.43 441.01,346.10 438.89,347.04 438.07,349.28 436.79,347.98 432.39,349.83 431.76,349.02 428.99,349.25 428.54,350.39 426.34,349.66 421.81,352.11 422.01,353.66 420.65,352.62 418.12,353.42 417.76,355.12 416.76,353.70 413.94,354.77 413.48,353.95 411.11,354.21 408.12,355.52 407.99,356.71 406.31,356.73 401.28,362.36 397.33,363.25 397.34,364.80 396.26,364.02 393.12,365.76 392.57,364.85 389.73,365.29 389.14,367.16 388.19,365.70 383.44,365.86 385.28,366.13 385.87,367.32 387.81,365.85 392.92,365.65 390.11,368.07 387.48,367.54 386.49,368.55 386.14,367.46 383.26,367.06 382.36,368.24 381.74,366.73 380.18,366.40 378.75,367.32 376.64,366.23 376.18,367.04 375.31,365.60 377.09,365.98 374.79,365.55 374.29,364.45 374.83,365.51 372.64,366.07 371.36,365.04 366.45,366.15 365.40,365.37 364.42,366.47 359.51,365.28 356.64,362.99 357.18,363.91 353.83,363.80 352.81,364.75 352.16,363.44 348.80,363.34 347.49,361.95 345.80,362.92 345.36,362.04 343.32,362.25 342.96,363.40 342.36,362.43 339.98,363.16 337.99,362.50 337.79,363.56 334.70,362.26 333.78,363.10 331.04,359.87 335.34,363.45 337.37,362.71 337.46,364.69 341.10,367.17 342.99,365.97 342.63,368.40 344.17,369.62 343.26,367.86 345.55,365.33 350.09,366.50 351.28,363.82 353.23,367.10 357.89,368.20 358.93,367.28 359.40,368.72 361.20,369.19 359.34,368.75 362.06,368.71 361.34,369.29 362.76,368.12 365.21,368.08 368.08,372.93 365.70,372.99 362.86,376.12 362.41,375.34 359.94,375.93 359.39,377.20 358.56,376.16 356.61,376.34 357.82,375.62 358.89,376.14 355.05,376.33 354.36,377.23 353.10,376.26 349.46,377.09 347.62,378.93 348.68,378.66 349.14,381.01 349.94,379.92 351.56,380.96 352.87,379.88 352.50,380.47 355.52,381.02 357.01,379.22 355.63,377.90 357.00,377.56 356.98,378.61 359.65,378.44 362.10,381.54 364.17,381.02 364.80,382.00 367.67,381.39 368.76,382.54 369.60,382.06 370.32,384.00 373.20,385.26 374.19,384.53 377.35,387.21 379.56,385.92 380.87,386.76 379.66,387.52 380.02,389.61 376.98,389.33 375.25,390.61 374.55,388.75 371.41,388.08 371.12,388.79 367.44,387.25 375.58,389.22 380.95,382.25 383.64,391.01 394.12,393.26 396.44,391.43 396.55,393.73 400.81,394.48 402.95,391.55 403.56,392.63 406.85,391.32 409.68,392.19 410.44,391.21 413.66,391.62 414.99,390.33 420.06,391.45 421.51,390.03 422.15,391.13 424.51,390.84 425.60,391.84 427.51,390.36 428.06,391.55 430.71,391.40 431.75,390.32 432.12,391.40 433.73,391.42 432.62,390.98 433.16,388.62 435.50,387.95 437.31,389.78 440.85,390.49 442.71,388.37 444.16,388.36 444.12,385.94 445.20,386.20 446.84,384.33 445.55,387.16 447.07,388.48 445.40,391.64 447.34,389.06 450.04,389.17 452.83,390.86 452.40,392.59 450.65,392.36 450.90,393.70 453.03,393.76 452.12,392.65 454.07,391.16 457.70,394.84 459.34,394.74 460.15,396.82 461.08,395.79 463.99,395.52 465.60,397.01 466.66,396.79 464.59,394.78 465.68,393.30 467.66,392.82 470.00,393.82 468.88,393.30 468.01,394.09 466.18,390.71 468.18,390.82 470.14,388.40 472.72,388.31 475.12,393.62 473.25,395.29 475.17,398.41 473.47,402.55 474.78,402.81 477.12,401.06 477.65,401.89 479.84,401.19 480.04,402.14 483.09,402.69 482.67,403.88 477.73,405.08 477.87,409.47 473.16,406.34 471.75,407.75 470.05,407.77 468.43,410.02 467.20,409.19 465.71,409.71 465.12,408.74 462.88,409.35 462.80,410.74 461.49,409.84 460.10,410.34 459.76,411.65 459.37,410.96 458.25,411.74 458.64,412.76 457.13,412.51 455.00,414.72 454.06,414.05 451.95,414.79 451.77,416.03 450.76,415.11 448.59,416.11 444.96,415.45 442.98,413.30 442.02,417.50 428.70,421.75 427.16,423.96 425.96,423.17 422.97,424.79 423.23,426.29 421.39,425.71 419.81,426.61 421.30,428.04 419.98,429.51 418.52,429.07 419.51,429.69 417.78,431.12 415.84,430.77 416.78,429.24 418.36,429.16 417.39,428.52 415.66,429.28 415.54,431.05 413.95,429.99 411.59,432.20 410.83,431.16 408.44,432.12 407.79,434.08 406.03,433.06 403.60,434.02 402.73,435.79 400.50,435.79 396.47,439.72 398.88,440.87 397.50,443.14 399.18,443.41 400.22,441.67 400.87,443.69 406.78,444.99 407.17,444.31 408.22,445.22 410.90,442.98 411.44,443.60 414.02,441.81 418.60,441.67 419.56,440.70 420.41,441.67 423.77,441.25 426.33,442.43 427.02,441.55 430.51,444.44 429.32,443.49 427.77,444.11 427.98,442.88 426.63,442.26 430.66,442.14 430.94,443.04 435.53,440.29 438.27,440.46 442.97,436.57 445.56,436.56 444.21,437.69 443.07,437.22 443.06,438.47 438.45,441.50 435.96,441.40 434.81,442.84 436.43,443.21 433.59,443.45 433.19,445.70 431.59,445.48 430.85,444.56 432.70,445.70 434.34,444.07 434.51,446.85 437.05,448.60 437.96,447.98 437.76,449.18 441.86,452.85 448.42,455.09 449.07,456.47 450.72,456.47 451.09,454.99 453.77,453.87 455.49,454.69 458.88,452.76 462.92,455.17 464.68,454.64 464.20,455.97 466.85,458.10 468.58,458.15 470.54,462.51 472.25,462.37 471.42,464.24 473.97,473.87 471.19,477.73 468.86,477.72 467.74,480.65 469.43,487.00 468.90,489.80 466.14,491.89 468.93,491.54 471.69,492.70 467.73,492.44 467.64,493.53 465.98,492.15 463.57,493.48 462.23,492.96 460.20,494.00 461.19,495.44 459.79,494.39 459.50,496.00 458.89,494.17 457.26,494.71 459.19,495.20 460.92,497.62 462.01,496.80 464.58,500.52 468.22,499.83 469.26,501.19 472.61,500.47 474.28,501.23 475.61,505.35 477.21,505.91 478.15,505.09 480.84,506.20 481.57,507.98 487.17,507.38 489.15,506.25 490.75,506.73 491.32,505.78 491.62,506.83 493.43,507.17 494.05,506.38 494.35,507.42 497.30,507.70 501.58,506.72 502.88,505.27 504.28,505.67 506.53,504.56 507.85,505.16 508.40,502.20 509.76,502.17 511.14,500.33 514.54,500.04 514.72,499.03 516.29,499.89 516.40,498.86 521.35,495.88 522.77,497.09 523.11,494.26 524.37,494.12 526.30,489.54 528.46,487.70 527.86,486.34 529.44,486.83 531.40,484.58 535.38,484.17 537.54,482.21 538.95,482.77 542.04,480.77 544.58,480.91 545.94,478.89 547.25,479.81 551.86,478.09 554.48,478.81 555.17,477.94 555.45,478.91 560.81,479.00 562.60,476.62 563.64,477.54 570.04,478.16 570.04,479.98 572.46,480.61 575.74,478.50 576.26,474.12 577.22,474.37 578.26,472.62 582.77,472.33 584.78,468.33 586.75,469.15 590.26,468.55 592.97,470.12 590.69,467.77 592.97,466.50 593.03,465.01 594.30,466.07 595.70,465.66 593.17,464.82 593.18,462.58 595.15,460.07 596.04,460.67 600.98,457.65 601.78,458.35 603.95,457.36 606.27,457.79 606.92,456.90 607.37,457.87 609.96,458.31 611.12,457.52 611.46,458.66 614.99,458.89 617.23,460.83 618.16,460.04 618.38,461.40 621.10,462.06 621.79,465.07 623.66,466.61 625.30,466.12 625.23,464.65 626.94,465.65 629.04,464.89 631.44,465.67 635.33,462.77 637.83,463.19 638.79,462.05 639.13,463.25 642.92,463.59 644.04,462.07 645.39,463.89 649.07,463.84 649.75,464.62 653.17,461.94 656.80,462.54 657.16,461.12 658.30,462.55 659.77,462.54 661.92,460.51 662.95,461.25 669.25,458.81 669.84,455.39 673.27,457.90 679.18,457.46 680.84,456.42 681.03,457.92 684.24,459.14 686.77,458.73 687.12,457.32 688.27,458.62 691.68,458.83 692.74,457.82 693.56,459.13 700.94,461.03 705.37,458.88 706.41,462.64 714.50,465.56 716.64,463.89 717.16,466.86 720.76,468.93 721.82,468.53 723.94,472.36 722.16,473.91 723.12,474.85 724.37,474.33 725.20,478.27 726.09,479.24 727.15,478.87 728.44,481.84 727.61,482.85 731.01,483.97 732.94,486.38 737.98,487.32 739.11,488.42 741.92,488.87 742.37,487.96 743.85,489.14 747.29,488.53 749.33,490.03 750.49,489.33 751.94,490.20 756.91,488.23 754.68,485.29 756.28,484.54 756.67,485.63 757.96,485.22 764.95,489.32 765.08,490.50 763.29,491.49 768.62,495.72 770.15,495.07 771.65,496.29 772.05,494.15 773.71,494.45 774.94,496.21 772.98,496.94 776.31,498.80 777.69,498.43 777.27,499.51 779.95,501.05 779.96,503.18 782.82,504.14 783.37,505.92 787.93,506.32 788.27,505.56 795.07,509.19 796.60,508.28 802.74,509.60 803.42,508.64 803.82,509.86 807.05,509.64 812.43,512.37 813.42,511.95 818.05,513.82 819.18,513.11 821.21,514.23 821.97,513.44 825.51,517.95 828.20,518.90 828.33,520.84 832.37,521.19 834.65,522.86 836.52,522.42 837.82,523.77 838.63,523.26 839.70,527.54 845.30,529.30 847.46,532.66 848.94,532.57 849.12,533.61 854.76,535.90 855.85,537.34 856.60,536.70 858.04,538.91 859.24,538.36 859.57,540.73 862.14,542.16 863.33,541.69 865.89,545.49 867.88,544.98 867.33,547.05 871.40,550.47 875.12,549.83 874.00,552.31 877.98,554.98 878.44,556.61 880.88,556.27 880.91,557.52 883.37,558.10 886.76,563.27 888.86,564.13 890.63,562.08 890.99,565.00 894.45,566.01 898.74,569.52 897.79,570.33 899.75,573.58 904.53,575.70 906.48,575.88 907.35,574.66 908.42,576.06 911.94,576.24 915.88,578.72 917.64,578.06 917.96,579.16 922.28,580.76 923.25,585.54 925.13,585.82 923.47,587.20 923.71,588.87 927.96,591.79 930.84,589.65 936.73,592.30 938.74,591.14 942.82,593.25 944.24,595.58 945.09,594.85 946.87,595.32 946.90,594.55 949.60,595.23 950.10,594.38 951.77,595.90 954.29,594.76 954.54,595.83 957.50,595.40 959.23,596.19 959.48,595.51 961.40,596.28 961.96,595.51 970.39,602.96 972.96,601.61 977.88,603.26 978.50,607.48 981.21,607.91 979.14,609.93 979.77,612.33 981.43,612.89 982.70,615.50 984.67,615.88 987.64,614.66 989.65,615.60 990.33,614.48 990.95,615.89 995.65,617.35 996.87,615.52 997.43,617.62 1004.34,620.87 1005.51,624.97 1008.29,624.67 1006.40,627.17 1008.26,633.86 1012.88,636.42 1009.23,638.34 1010.20,642.83 1010.52,642.20 1010.38,643.00 1011.93,643.02 1013.38,645.75 1015.09,645.54 1014.16,647.41 1015.31,650.35 1016.50,650.54 1015.82,655.29 1020.97,656.06 1022.44,657.68 1023.39,656.72 1024.59,657.08 1023.58,656.44 1024.47,654.79 1027.83,654.78 1028.30,655.79 1030.44,654.82 1032.09,656.62 1036.65,655.05 1037.63,656.10 1040.36,655.43 1041.60,657.46 1043.42,656.42 1048.35,658.50 1049.96,657.57 1053.62,659.28 1053.59,660.35 1056.20,660.42 1058.10,662.00 1059.53,662.12 1060.66,660.73 1063.53,661.25 1063.50,659.59 1063.74,661.25 1063.17,661.85 1060.69,660.88 1059.63,662.60 1057.03,661.81 1056.06,662.92 1051.50,658.61 1049.29,659.26 1044.48,657.01 1041.56,657.63 1037.13,655.44 1035.91,656.58 1033.19,655.96 1032.31,656.98 1030.43,655.18 1028.20,656.40 1025.46,655.28 1024.05,656.42 1025.23,656.31 1025.17,657.29 1022.37,658.05 1020.20,657.90 1019.12,656.11 1018.04,656.72 1016.76,656.01 1016.34,659.22 1018.13,661.33 1019.11,660.76 1019.92,663.08 1019.50,659.82 1023.05,659.61 1024.49,660.89 1022.69,662.69 1020.72,662.79 1022.37,663.54 1021.85,665.26 1020.15,663.34 1022.14,664.70 1021.55,665.59 1023.41,667.98 1023.76,667.39 1024.07,671.72 1026.56,673.43 1024.63,675.20 1025.81,680.52 1019.75,692.05 1016.57,693.32 1015.59,692.50 1012.23,695.14 1009.28,703.57 1006.38,705.77 1004.61,705.76 1001.26,710.45 998.40,711.38 998.15,712.96 997.11,711.55 992.49,713.30 992.55,714.52 990.57,713.84 990.38,715.54 989.07,715.14 986.76,717.76 985.94,716.93 982.78,717.91 980.42,720.69 979.76,720.21 978.57,721.83 974.40,723.07 974.41,724.28 971.63,723.58 969.79,725.39 969.11,724.55 967.45,725.20 964.61,724.56 962.79,725.75 962.33,725.11 959.13,726.05 953.03,731.86 949.29,732.25 949.23,734.12 947.51,732.98 941.18,735.54 938.63,734.19 936.98,734.53 936.72,736.22 935.35,734.88 932.31,736.11 930.84,735.24 925.36,740.00 914.26,743.69 913.85,742.88 910.59,742.74 907.35,739.69 903.07,739.57 902.92,740.76 901.70,739.79 899.22,740.05 898.55,741.22 898.08,740.07 895.94,740.38 893.44,737.95 891.59,737.48 891.03,738.18 890.04,736.80 888.81,737.68 886.03,736.16 884.40,737.91 883.54,736.93 881.75,737.63 878.58,736.04 877.83,737.04 873.79,733.46 872.73,734.04 871.45,731.42 865.68,729.71 864.04,731.36 861.33,731.87 861.32,732.80 860.46,732.29 855.60,734.41 851.22,731.92 848.34,731.61 847.36,733.51 846.26,732.86 844.07,734.76 843.30,733.79 839.68,735.35 837.13,734.38 835.12,735.38 832.86,734.01 830.79,734.93 831.16,736.24 829.73,735.57 827.82,736.89 824.92,736.20 823.33,736.88 821.08,738.39 821.36,740.39 819.58,739.35 817.32,741.01 815.94,740.85 811.94,738.76 808.36,741.21 808.14,742.51 806.96,741.91 803.32,743.26 801.46,742.46 800.42,743.67 796.10,742.10 792.66,743.55 788.75,740.66 787.39,740.83 786.90,742.36 786.03,740.98 783.48,741.62 771.85,738.69 771.18,739.60 769.77,738.28 767.04,739.30 766.80,738.09 763.91,737.92 763.33,738.76 760.42,737.11 760.68,735.95 757.76,736.12 754.33,733.00 755.32,729.08 750.19,729.58 748.30,727.71 743.07,734.38 740.98,734.79 740.94,736.35 739.71,735.17 737.22,735.96 734.56,732.75 733.03,733.31 732.89,732.09 729.29,731.37 728.95,729.97 725.86,729.82 725.27,728.94 722.77,729.64 721.92,727.12 720.03,727.16 719.24,729.29 718.16,727.22 714.60,727.13 713.30,728.27 712.90,726.99 709.35,726.28 707.72,727.63 707.44,725.69 703.88,724.00 702.64,718.20 699.65,716.87 696.67,719.32 696.67,715.53 692.16,713.83 690.71,714.96 690.60,713.45 689.08,713.09 687.45,712.85 686.75,714.01 685.82,712.60 680.93,711.97 680.13,712.76 678.57,711.03 676.47,712.16 672.37,718.92 671.29,718.39 669.74,720.03 663.27,720.30 662.66,721.12 660.34,718.53 658.73,718.57 658.04,716.97 657.49,717.52 658.07,715.55 655.28,715.50 653.14,714.08 652.12,715.11 652.03,713.61 646.53,708.73 644.66,709.65 644.93,707.20 642.26,703.70 643.39,699.27 643.04,697.76 641.31,697.30 642.69,696.24 642.32,694.73 641.47,693.74 640.51,694.24 640.61,692.73 638.29,690.49 637.10,689.99 635.87,690.96 635.94,689.49 631.40,687.28 628.93,688.21 628.36,691.22 626.46,689.17 622.31,690.64 621.84,692.17 620.59,691.16 615.86,692.45 615.10,695.25 612.81,693.18 608.24,694.04 607.80,695.62 606.73,694.16 602.84,695.15 602.79,694.08 599.58,693.94 597.64,692.65 596.71,693.45 594.93,690.75 592.55,690.28 591.29,691.77 590.15,689.80 586.29,689.44 584.84,687.08 583.55,686.43 582.66,687.10 579.94,684.40 580.93,682.70 579.49,682.94 575.40,677.53 572.86,676.22 572.35,672.98 574.59,668.68 579.07,667.43 580.70,668.52 579.72,666.51 576.47,668.08 573.03,667.64 572.57,668.35 570.54,667.34 570.38,665.31 568.05,663.09 564.05,663.54 563.18,662.73 563.25,666.53 561.61,666.57 559.76,669.47 559.13,668.88 557.49,671.33 556.40,670.78 554.71,672.27 550.09,672.70 550.10,673.71 549.15,672.90 542.93,673.31 542.51,674.10 539.43,672.74 535.02,673.34 532.41,670.94 530.57,672.55 528.64,671.62 524.23,673.20 522.22,672.63 520.75,673.98 513.54,672.27 513.06,673.66 512.35,672.19 509.11,671.34 508.22,673.22 507.42,671.06 504.64,670.71 503.97,671.81 502.42,670.58 499.59,670.58 498.83,671.88 498.39,670.61 494.67,671.16 494.35,672.24 493.67,671.21 490.55,671.06 490.13,672.74 489.16,671.12 479.14,670.71 477.05,672.73 476.40,670.54 472.41,670.11 472.09,670.79 469.08,669.71 468.37,670.60 467.82,669.39 465.38,669.04 465.03,670.23 462.44,668.54 461.49,669.26 454.59,667.99 453.38,669.33 452.70,668.55 448.66,670.86 446.08,670.72 442.59,672.92 437.45,673.38 436.79,675.60 435.50,673.82 433.54,674.27 428.07,677.22 427.74,678.70 426.34,677.71 421.12,679.34 416.57,678.87 414.82,680.20 412.52,679.61 408.67,680.79 408.12,681.72 407.50,680.74 403.34,681.04 401.96,682.47 397.81,682.80 396.44,684.73 394.72,684.51 392.15,686.96 389.94,686.01 386.81,688.38 383.23,688.31 382.60,689.56 379.24,690.61 378.94,692.39 375.81,693.64 375.27,695.88 371.84,696.69 371.73,698.15 370.00,697.23 367.61,697.65 368.26,698.40 366.05,698.12 362.75,700.74 356.96,701.53 355.79,703.37 353.51,703.14 348.63,706.90 347.48,706.19 343.69,709.44 339.76,710.05 338.07,711.61 332.45,712.29 331.11,713.92 330.45,712.99 326.74,715.35 323.50,715.60 322.93,717.09 324.98,718.52 324.37,719.33 323.66,718.62 324.26,722.37 321.70,726.56 320.66,725.92 319.29,728.14 316.72,728.82 316.77,731.06 314.99,729.39 310.72,730.27 309.41,733.04 308.14,730.56 300.10,731.66 299.67,732.63 298.97,731.69 295.06,732.04 293.80,734.00 292.83,732.07 287.05,731.76 284.70,733.85 283.51,731.44 277.62,730.16 275.56,732.31 275.28,729.20 272.94,728.25 270.22,727.98 269.10,730.60 267.48,727.70 263.06,727.12 261.88,727.91 261.39,726.80 258.02,726.85 255.25,725.32 254.47,726.07 252.50,723.94 250.78,723.34 249.08,724.05 247.26,722.56 246.44,724.24 244.00,724.37 243.96,726.25 241.81,726.04 240.32,727.91 226.53,727.43 224.13,728.22 222.80,727.24 221.74,728.25 220.38,727.30 217.62,727.98 215.01,726.60 214.32,727.19 213.21,726.13 209.86,727.01 208.50,725.87 205.20,726.22 202.42,724.64 201.52,725.69 199.16,725.14 198.48,726.73 197.30,724.82 192.83,723.81 190.38,725.19 190.20,723.10 183.87,722.46 183.13,723.59 182.47,722.22 179.75,722.23 178.57,721.06 173.18,722.44 171.01,721.86 170.23,723.06 169.84,721.47 166.48,719.77 163.79,719.55 162.47,721.02 160.49,720.74 156.07,718.58 154.98,719.19 152.63,717.74 150.99,718.31 149.70,716.83 147.51,716.88 143.39,714.76 141.56,715.31 139.88,713.43 138.41,714.01 134.75,712.53 133.89,713.54 133.21,711.79 128.21,709.77 125.40,711.18 124.76,708.50 118.22,705.98 116.01,707.48 115.13,704.70 111.13,702.80 110.25,703.48 110.17,702.17 106.95,700.96 105.98,698.31 103.48,697.77 101.49,695.23 100.75,695.76 99.25,693.26 100.33,690.99 98.74,691.03 96.45,686.04 93.71,684.61 92.99,682.26 91.85,682.44 92.00,677.99 93.89,676.46 97.52,677.22 95.89,669.72 90.00,662.30 88.04,662.31 82.92,656.18 78.66,654.62 78.33,652.76 77.17,653.05 76.89,650.03 79.76,648.59 78.29,647.71 79.04,646.61 76.40,647.53 74.28,645.80 74.97,643.72 73.74,642.37 75.34,641.64 73.88,641.90 73.24,640.48 72.36,641.61 69.76,641.38 70.07,638.87 68.58,638.28 67.02,639.47 65.65,638.02 64.80,639.54 62.49,638.43 60.99,640.54 58.42,638.12 57.91,639.22 56.00,638.16 56.87,636.30 58.68,636.76 58.39,635.11 60.77,631.72 63.77,632.13 64.26,631.03 65.99,631.00 70.04,631.83 68.44,627.49 70.72,625.66 71.79,626.39 72.11,625.48 76.12,624.77 74.37,624.66 74.42,621.70 76.70,620.67 76.85,621.45 79.37,620.97 80.67,621.96 84.24,620.91 84.77,622.04 86.91,621.98 85.83,619.58 86.93,617.16 85.37,614.99 85.59,611.99 87.07,611.59 85.83,609.97 87.30,606.51 86.83,604.77 85.05,604.61 86.36,603.03 85.40,600.27 87.76,597.53 87.09,595.45 88.25,595.38 90.02,590.19 85.02,588.46 82.11,589.99 77.04,589.03 76.49,590.41 75.37,588.77 69.81,588.87 71.32,587.77 77.71,588.88 84.97,587.43 88.34,588.92 88.93,587.51 93.45,587.18 96.66,583.13 98.80,576.93 101.03,575.85 100.54,573.97 102.46,575.13 104.38,574.12 105.63,574.89 110.20,574.54 113.64,573.14 119.13,573.43 121.74,575.57 123.09,574.82 125.14,577.42 126.05,574.32 130.77,571.99 131.05,569.22 132.41,569.73 133.76,567.47 132.74,566.67 134.79,565.26 131.67,560.97 132.78,558.66 131.49,556.71 132.71,554.12 132.40,549.19 133.78,547.73 129.30,547.20 133.37,547.07 134.84,544.20 134.28,542.08 136.70,539.32 136.78,535.72 138.80,535.04 136.64,529.30 137.97,527.89 140.79,527.65 139.63,528.41 138.53,526.79 137.40,527.89 135.76,527.33 137.24,527.15 137.46,525.38 137.67,526.61 138.02,525.38 137.96,526.65 139.44,526.92 138.11,525.96 138.60,524.58 137.47,524.72 138.78,523.98 137.13,524.10 137.86,522.55 141.50,526.84 138.50,523.79 137.62,519.26 135.17,518.21 135.35,513.19 138.67,511.44 140.30,512.26 138.16,513.21 136.10,512.15 139.10,511.70 138.97,510.77 140.60,512.43 139.84,511.25 142.76,507.66 142.09,506.30 143.93,506.51 147.04,503.70 146.76,500.63 148.97,502.04 153.48,497.01 151.42,493.88 156.05,493.64 160.00,488.99 159.62,486.81 161.37,487.70 164.38,485.34 164.22,483.13 165.99,484.24 169.58,481.32 170.41,482.15 173.94,481.18 174.12,478.74 176.05,480.69 180.43,479.98 181.23,478.11 182.71,479.70 189.58,479.10 190.23,475.44 194.18,478.75 198.77,478.39 201.99,477.35 202.95,474.86 198.13,472.76 197.17,470.86 195.77,471.23 193.93,469.26 191.88,469.53 192.11,468.54 191.18,469.16 190.18,468.48 189.73,469.73 186.83,470.55 185.99,469.79 187.03,467.56 185.66,469.52 184.77,467.65 182.95,468.90 180.57,466.56 181.70,465.22 179.48,464.87 180.05,463.97 176.45,463.89 175.69,464.92 175.27,463.71 173.81,463.55 173.85,462.47 176.09,461.74 173.81,459.49 170.31,459.37 170.03,460.25 170.82,459.50 172.18,460.89 171.25,461.78 168.18,461.76 166.26,459.81 165.35,460.26 164.76,458.66 162.75,459.27 162.12,458.18 159.96,457.58 159.45,458.25 158.32,456.82 156.92,457.23 151.96,453.07 149.70,452.98 147.73,454.49 147.02,452.43 143.59,451.20 142.46,451.85 139.80,451.16 138.48,452.69 138.19,450.73 134.88,450.15 134.03,451.57 133.15,450.00 130.00,449.30 128.93,450.53 128.57,448.72 124.11,447.24 121.35,447.76 121.32,446.51 117.85,445.18 117.22,445.74 115.45,443.33 114.37,443.70 112.25,436.59 108.02,434.83 109.90,434.48 113.37,436.63 113.48,439.88 115.86,441.28 115.32,442.36 117.52,444.77 120.51,445.64 123.55,443.65 123.49,446.53 128.38,448.16 129.72,446.50 130.31,448.90 132.21,449.65 133.89,449.73 134.81,447.97 135.59,449.81 138.89,450.34 139.75,448.93 140.51,450.83 142.14,451.28 142.87,450.43 147.19,450.06 144.16,448.14 144.46,446.82 146.78,446.75 148.01,445.45 147.03,445.65 146.60,443.80 148.29,443.32 150.97,445.00 154.73,445.39 154.44,446.24 157.46,447.44 157.86,443.40 159.34,443.37 161.30,441.44 163.97,441.96 164.95,440.34 165.71,440.89 167.27,439.64 169.57,440.63 171.19,439.05 171.71,440.00 172.78,439.69 175.75,436.52 178.12,436.06 180.76,437.60 181.83,435.97 186.21,436.86 188.54,435.58 189.00,436.60 194.64,435.14 199.00,437.55 198.96,439.04 202.25,440.03 204.07,437.41 209.81,436.26 210.08,434.67 207.31,435.84 205.82,434.31 205.18,436.02 202.07,433.98 203.56,433.68 203.81,430.96 206.01,429.95 205.80,428.97 209.52,427.36 209.39,425.50 211.05,426.44 212.32,425.98 211.01,424.47 213.29,424.99 214.31,422.60 217.13,422.39 215.63,425.01 213.08,425.28 215.22,424.27 214.73,422.32 217.13,423.30 222.63,420.27 222.44,416.11 226.19,418.19 231.44,415.03 231.44,413.40 233.06,413.93 235.74,412.32 235.72,411.20 237.86,411.22 233.67,413.43 234.05,415.90 231.27,414.97 226.49,417.84 226.96,419.90 224.10,419.19 221.04,421.02 218.82,421.11 216.35,419.68 215.27,420.08 214.57,416.89 217.29,415.32 220.80,415.64 220.92,413.28 224.52,416.65 222.37,412.19 224.11,409.61 225.32,411.83 224.39,413.28 225.95,414.42 226.76,405.78 228.74,405.89 229.08,409.06 232.81,410.81 233.10,412.56 233.88,411.00 235.03,411.23 237.15,404.73 239.18,409.84 238.43,410.97 240.17,410.03 240.03,408.43 241.90,409.10 245.47,406.61 245.22,403.66 247.30,405.04 250.71,401.81 250.26,402.69 248.59,402.62 248.47,400.86 254.83,397.22 253.83,395.34 255.23,396.45 256.76,395.31 256.99,396.20 254.48,398.55 254.83,401.34 252.59,400.17 250.71,401.78 253.16,399.74 252.86,397.35 255.63,397.72 258.99,395.08 258.59,393.93 260.85,393.88 258.40,394.37 256.26,392.51 256.37,390.72 254.77,390.38 253.89,388.52 254.59,386.53 252.84,385.22 250.39,385.72 247.88,383.79 243.38,383.30 237.74,378.76 235.87,378.71 236.60,373.71 241.14,371.69 244.21,371.96 245.28,373.20 244.07,374.90 246.24,375.83 247.86,378.78 249.59,376.81 249.39,373.24 250.44,373.27 251.53,374.59 251.22,378.92 258.19,381.84 257.33,385.65 260.38,387.91 262.06,386.90 261.85,388.65 263.35,389.39 263.64,390.55 260.87,393.69 262.02,392.52 261.08,391.30 262.76,391.49 264.13,389.23 264.76,389.71 266.69,388.14 268.67,383.84 270.93,382.92 270.90,381.24 274.81,377.68 272.82,375.98 271.46,376.27 272.09,372.96 272.41,375.28 274.67,377.24 277.58,373.68 279.72,373.58 281.09,368.81 280.25,365.72 278.07,364.54 279.32,361.89 282.48,360.54 285.04,361.78 286.54,361.26 286.65,359.75 288.06,360.76 291.16,359.92 291.39,358.48 292.75,359.65 295.69,358.28 297.21,358.59 296.16,354.48 298.27,355.90 297.73,358.41 299.66,358.04 300.87,356.33 301.58,357.67 309.55,355.94 312.71,357.70 314.25,357.01 317.15,357.80 318.06,356.59 320.00,358.38 320.74,356.73 324.20,357.08 325.31,354.11 326.56,354.54 329.29,352.21 329.47,349.62 324.43,346.50 325.30,344.73 326.33,347.92 328.67,347.47 330.61,349.74 331.87,348.41 331.07,346.64 331.99,347.23 334.86,344.42 336.62,344.59 336.23,342.35 337.31,344.20 333.04,347.00 332.44,351.42 330.28,352.18 330.98,353.58 328.39,355.87 325.19,356.60 327.66,355.71 328.39,356.66 333.08,357.04 333.65,358.34 337.76,354.36 340.89,355.17 342.05,354.12 342.18,355.39 346.81,356.56 347.48,355.61 350.30,357.69 353.64,355.54 354.69,356.27 356.50,355.76 358.94,349.59 356.58,349.36 354.93,346.22 356.64,342.88 361.98,340.13 363.65,336.74 363.08,335.92 360.16,337.32 359.87,336.37 357.79,336.06 357.58,334.13 361.13,331.07 356.21,332.38 353.47,330.15 354.23,326.89 355.94,327.09 357.17,324.87 352.05,322.91 353.55,320.60 352.22,318.81 349.38,318.99 349.29,317.85 346.32,316.48 346.70,313.62 349.02,312.33 345.62,310.31 349.15,312.32 346.74,314.80 347.16,316.80 349.50,317.73 350.73,316.77 350.85,318.11 353.63,318.80 353.87,320.10 352.75,318.53 353.75,318.65 354.67,321.73 353.74,323.27 357.98,324.07 358.37,326.00 354.39,329.41 356.64,331.26 361.45,329.39 363.80,330.84 363.57,332.74 361.42,332.76 359.93,335.39 359.95,335.44"/>
  </g>
  <g>
  </g>
  <g>
    <text x="1092" y="220" font-family="Helvetica, Arial, sans-serif" font-size="18" font-weight="700" fill="#16324f">Слои и длины</text>
    <line x1="1092" y1="258" x2="1126" y2="258" stroke="#7a8b99" stroke-width="1.80" stroke-opacity="0.85" stroke-dasharray="8 6"/>
    <text x="1138" y="256" font-family="Helvetica, Arial, sans-serif" font-size="13" fill="#16324f">Реальная загруженная</text>
    <text x="1138" y="271" font-family="Helvetica, Arial, sans-serif" font-size="13" fill="#16324f">полилиния (справочно)</text>
    <text x="1138" y="288" font-family="Helvetica, Arial, sans-serif" font-size="12" fill="#6b7a87">6391 км</text>
    <line x1="1092" y1="302" x2="1356" y2="302" stroke="#ddd6c8" stroke-width="1"/>
    <line x1="1092" y1="326" x2="1126" y2="326" stroke="#1f6f8b" stroke-width="2.10" stroke-opacity="0.38"/>
    <text x="1138" y="324" font-family="Helvetica, Arial, sans-serif" font-size="13" fill="#16324f">Упрощённая база модели</text>
    <text x="1138" y="339" font-family="Helvetica, Arial, sans-serif" font-size="13" fill="#16324f">(итерация 0)</text>
    <text x="1138" y="356" font-family="Helvetica, Arial, sans-serif" font-size="12" fill="#6b7a87">6135 км</text>
    <line x1="1092" y1="370" x2="1356" y2="370" stroke="#ddd6c8" stroke-width="1"/>
    <line x1="1092" y1="394" x2="1126" y2="394" stroke="#2c7a7b" stroke-width="3.60" stroke-opacity="1.00"/>
    <text x="1138" y="392" font-family="Helvetica, Arial, sans-serif" font-size="13" fill="#16324f">Синтетическая итерация 1</text>
    <text x="1138" y="409" font-family="Helvetica, Arial, sans-serif" font-size="12" fill="#6b7a87">8573 км</text>
  </g>
  <g>
    <rect x="1092" y="451" width="264" height="108" rx="18" fill="#f8f6ef" stroke="#d6d0c4"/>
    <text x="1106" y="471" font-family="Helvetica, Arial, sans-serif" font-size="14" font-weight="700" fill="#16324f">Контроль геометрии</text>
    <text x="1106" y="503" font-family="Helvetica, Arial, sans-serif" font-size="12" fill="#4f6d7a">Сегменты &gt; 450 км</text>
    <text x="1342" y="503" text-anchor="end" font-family="Helvetica, Arial, sans-serif" font-size="13" font-weight="700" fill="#3f6b4b">0</text>
    <line x1="1106" y1="507" x2="1342" y2="507" stroke="#e7e1d5" stroke-width="1"/>
    <text x="1106" y="525" font-family="Helvetica, Arial, sans-serif" font-size="12" fill="#4f6d7a">Повторы ориентиров</text>
    <text x="1342" y="525" text-anchor="end" font-family="Helvetica, Arial, sans-serif" font-size="13" font-weight="700" fill="#3f6b4b">0</text>
    <line x1="1106" y1="529" x2="1342" y2="529" stroke="#e7e1d5" stroke-width="1"/>
    <text x="1106" y="547" font-family="Helvetica, Arial, sans-serif" font-size="12" fill="#4f6d7a">Автоисправления</text>
    <text x="1342" y="547" text-anchor="end" font-family="Helvetica, Arial, sans-serif" font-size="13" font-weight="700" fill="#3f6b4b">0</text>
  </g>
  <g>
    <rect x="1092" y="577" width="264" height="118" rx="18" fill="#fcfbf7" stroke="#d6d0c4"/>
    <text x="1106" y="597" font-family="Helvetica, Arial, sans-serif" font-size="14" font-weight="700" fill="#16324f">Длина по итерациям</text>
    <line x1="1106" y1="608" x2="1122" y2="608" stroke="#1f6f8b" stroke-width="2.2"/>
    <text x="1128" y="612" font-family="Helvetica, Arial, sans-serif" font-size="11" fill="#4f6d7a">Измерено</text>
    <line x1="1106" y1="621.00" x2="1342" y2="621.00" stroke="#ddd6c8" stroke-width="1"/>
    <line x1="1106" y1="647.00" x2="1342" y2="647.00" stroke="#ddd6c8" stroke-width="1"/>
    <line x1="1106" y1="673.00" x2="1342" y2="673.00" stroke="#ddd6c8" stroke-width="1"/>
    <line x1="1106" y1="673" x2="1342" y2="673" stroke="#8a9aa6" stroke-width="1.4"/>
    <text x="1106" y="615" font-family="Helvetica, Arial, sans-serif" font-size="11" fill="#6b7a87">8769</text>
    <text x="1106" y="687" font-family="Helvetica, Arial, sans-serif" font-size="11" fill="#6b7a87">5940</text>
    <text x="1106" y="685" font-family="Helvetica, Arial, sans-serif" font-size="11" fill="#6b7a87">0</text>
    <text x="1342" y="685" text-anchor="end" font-family="Helvetica, Arial, sans-serif" font-size="11" fill="#6b7a87">1</text>
    <polyline fill="none" stroke="#1f6f8b" stroke-width="2.4" stroke-linecap="round" stroke-linejoin="round" points="1106.00,669.41 1342.00,624.59"/>
    <circle cx="1106.00" cy="669.41" r="2.8" fill="#1f6f8b"/>
    <circle cx="1342.00" cy="624.59" r="2.8" fill="#1f6f8b"/>
    <rect x="1092" y="713" width="264" height="118" rx="18" fill="#fcfbf7" stroke="#d6d0c4"/>
    <text x="1106" y="733" font-family="Helvetica, Arial, sans-serif" font-size="14" font-weight="700" fill="#16324f">Размерность D</text>
    <line x1="1106" y1="744" x2="1122" y2="744" stroke="#8b3f5c" stroke-width="2.2"/>
    <text x="1128" y="748" font-family="Helvetica, Arial, sans-serif" font-size="11" fill="#4f6d7a">Оценка</text>
    <line x1="1204" y1="744" x2="1220" y2="744" stroke="#6f5f1f" stroke-width="2.2" stroke-dasharray="5 4"/>
    <text x="1226" y="748" font-family="Helvetica, Arial, sans-serif" font-size="11" fill="#4f6d7a">Теория</text>
    <line x1="1106" y1="757.00" x2="1342" y2="757.00" stroke="#ddd6c8" stroke-width="1"/>
    <line x1="1106" y1="783.00" x2="1342" y2="783.00" stroke="#ddd6c8" stroke-width="1"/>
    <line x1="1106" y1="809.00" x2="1342" y2="809.00" stroke="#ddd6c8" stroke-width="1"/>
    <line x1="1106" y1="809" x2="1342" y2="809" stroke="#8a9aa6" stroke-width="1.4"/>
    <text x="1106" y="751" font-family="Helvetica, Arial, sans-serif" font-size="11" fill="#6b7a87">1.275</text>
    <text x="1106" y="823" font-family="Helvetica, Arial, sans-serif" font-size="11" fill="#6b7a87">1.088</text>
    <text x="1106" y="821" font-family="Helvetica, Arial, sans-serif" font-size="11" fill="#6b7a87">0</text>
    <text x="1342" y="821" text-anchor="end" font-family="Helvetica, Arial, sans-serif" font-size="11" fill="#6b7a87">1</text>
    <polyline fill="none" stroke="#8b3f5c" stroke-width="2.4" stroke-linecap="round" stroke-linejoin="round" points="1106.00,805.41 1342.00,796.95"/>
    <circle cx="1106.00" cy="805.41" r="2.8" fill="#8b3f5c"/>
    <circle cx="1342.00" cy="796.95" r="2.8" fill="#8b3f5c"/>
    <polyline fill="none" stroke="#6f5f1f" stroke-width="2.4" stroke-linecap="round" stroke-linejoin="round" stroke-dasharray="5 4" points="1106.00,760.59 1342.00,760.59"/>
    <circle cx="1106.00" cy="760.59" r="2.8" fill="#6f5f1f"/>
    <circle cx="1342.00" cy="760.59" r="2.8" fill="#6f5f1f"/>
  </g>
  <g>
  </g>
  <g>
    <rect x="1092" y="875" width="264" height="214" rx="18" fill="#f8f6ef" stroke="#d6d0c4"/>
    <text x="1106" y="895" font-family="Helvetica, Arial, sans-serif" font-size="14" font-weight="700" fill="#16324f">Сводка</text>
    <text x="1106" y="917" font-family="Helvetica, Arial, sans-serif" font-size="12" fill="#4f6d7a">Реальная линия: 6391 км, 9635 т.</text>
    <line x1="1106" y1="937" x2="1342" y2="937" stroke="#e7e1d5" stroke-width="1"/>
    <text x="1106" y="945" font-family="Helvetica, Arial, sans-serif" font-size="12" fill="#4f6d7a">База модели: 6135 км, 3071 т.</text>
    <text x="1106" y="961" font-family="Helvetica, Arial, sans-serif" font-size="12" fill="#4f6d7a">(-4.0% к реальной)</text>
    <line x1="1106" y1="981" x2="1342" y2="981" stroke="#e7e1d5" stroke-width="1"/>
    <text x="1106" y="989" font-family="Helvetica, Arial, sans-serif" font-size="12" fill="#4f6d7a">Текущий слой: 8573 км, 12281 т.</text>
    <text x="1106" y="1005" font-family="Helvetica, Arial, sans-serif" font-size="12" fill="#4f6d7a">расчёт / 1800 т. SVG</text>
    <line x1="1106" y1="1025" x2="1342" y2="1025" stroke="#e7e1d5" stroke-width="1"/>
    <text x="1106" y="1033" font-family="Helvetica, Arial, sans-serif" font-size="12" fill="#4f6d7a">D: 1.13094, R²=1.0000, стаб=true</text>
    <line x1="1106" y1="1053" x2="1342" y2="1053" stroke="#e7e1d5" stroke-width="1"/>
    <text x="1106" y="1061" font-family="Helvetica, Arial, sans-serif" font-size="12" fill="#4f6d7a">Эрозия: σ=10 м, seed=42</text>
  </g>
  <g>
    <line x1="56" y1="1047" x2="479" y2="1047" stroke="#16324f" stroke-width="3"/>
    <line x1="56" y1="1040" x2="56" y2="1054" stroke="#16324f" stroke-width="6"/>
    <line x1="479" y1="1040" x2="479" y2="1054" stroke="#16324f" stroke-width="6"/>
    <text x="56" y="1033" font-family="Helvetica, Arial, sans-serif" font-size="13" fill="#16324f">Масштаб ≈ 500 км</text>  </g>
</svg>
