<?xml version="1.0" encoding="UTF-8"?>
<svg xmlns="http://www.w3.org/2000/svg" width="1440" height="1092" viewBox="0 0 1440 1092">
  <rect width="100%" height="100%" fill="#f7f4ea"/>
  <rect x="20" y="20" width="1400" height="1052" rx="28" fill="#fcfbf7" stroke="#d6d0c4"/>
  <rect x="1072" y="20" width="304" height="1052" rx="24" fill="#f0ece2" stroke="#d6d0c4"/>
  <g>
  <text x="56" y="58" font-family="Helvetica, Arial, sans-serif" font-size="30" font-weight="700" fill="#16324f">Фрактальная размерность (органическая модель) — итерация</text>
  <text x="56" y="92" font-family="Helvetica, Arial, sans-serif" font-size="30" font-weight="700" fill="#16324f">0</text>
  <text x="56" y="142" font-family="Helvetica, Arial, sans-serif" font-size="14" fill="#4f6d7a">Органическая модель: seed=42, угол ±18°, высота ±25%; серая пунктирная линия — реальная линия, цветные слои — от упрощённой</text>
  <text x="56" y="160" font-family="Helvetica, Arial, sans-serif" font-size="14" fill="#4f6d7a">базы</text>
  <text x="56" y="186" font-family="Helvetica, Arial, sans-serif" font-size="13" fill="#6b7a87">SVG содержит исходную полилинию, фрактальные итерации, масштаб и длину по слоям.</text>
  </g>
  <g>
    <polyline fill="none" stroke="#7a8b99" stroke-width="1.80" stroke-opacity="0.85" stroke-linejoin="round" stroke-linecap="round" stroke-dasharray="8 6" points="359.94,335.72 361.39,336.14 361.97,335.62 363.59,335.38 363.30,335.19 364.65,335.20 365.80,337.05 364.81,338.74 364.92,340.08 362.96,341.08 362.59,341.49 363.10,341.67 362.28,342.31 360.75,342.46 360.74,344.72 358.82,345.91 359.78,346.59 359.01,347.25 360.26,346.83 359.61,348.67 360.75,349.03 362.49,351.21 362.00,353.20 362.68,354.57 365.85,356.95 367.59,357.63 370.07,357.50 371.36,358.02 373.57,361.54 380.95,359.16 383.86,360.30 384.98,361.81 390.18,362.18 395.67,360.63 396.23,359.07 395.94,360.56 398.35,359.00 400.82,358.90 399.44,358.30 399.70,357.76 400.65,357.63 400.92,358.01 401.64,357.35 402.58,357.33 402.23,357.69 402.71,357.66 402.88,358.25 402.19,358.00 401.47,358.40 401.05,358.03 401.09,358.88 403.88,358.37 403.84,357.84 404.30,358.15 409.24,354.63 413.05,353.55 417.72,353.47 426.15,349.58 430.00,348.96 434.09,348.91 441.21,346.04 450.70,346.15 452.42,346.84 455.39,346.19 456.86,346.76 455.45,347.78 451.12,348.58 440.99,346.39 434.66,349.21 426.33,349.94 419.50,353.43 415.37,354.27 411.11,354.51 409.03,355.21 406.32,357.02 405.10,358.07 405.59,358.35 404.75,358.37 400.43,362.83 398.42,362.75 395.16,365.10 391.24,365.18 386.67,366.39 383.42,366.15 385.86,366.92 385.23,367.47 385.86,367.60 388.75,366.31 391.52,365.71 392.91,365.94 391.50,367.27 388.80,367.89 384.77,367.69 380.19,366.69 377.40,366.74 375.13,366.12 377.09,366.26 374.22,364.75 373.76,364.87 374.55,365.24 374.53,365.89 371.36,365.33 365.56,366.36 365.40,365.66 365.19,366.21 363.40,366.05 357.74,364.65 357.55,363.97 358.07,363.79 356.35,363.31 357.17,364.20 355.54,364.46 350.69,363.55 347.48,362.24 341.41,362.90 335.67,362.91 332.75,361.82 331.04,360.17 333.22,362.51 339.58,366.22 344.15,369.91 343.52,369.36 344.44,369.61 343.37,369.11 343.76,367.57 344.69,366.77 346.96,366.18 356.36,367.98 360.92,369.52 359.21,368.75 361.55,369.12 360.06,368.62 360.91,368.69 362.18,369.28 360.85,369.22 361.97,369.48 364.17,368.52 365.87,369.21 366.63,371.07 368.08,372.34 367.67,373.32 366.41,373.67 365.69,373.28 364.52,374.91 361.33,375.99 357.18,376.66 356.60,376.63 358.89,376.41 353.11,376.55 349.46,377.38 349.75,377.57 347.99,378.37 347.62,379.22 348.19,378.95 348.87,379.37 349.45,380.57 349.14,381.29 350.11,380.61 349.93,380.21 350.40,380.72 351.29,380.45 351.56,381.25 352.57,380.23 353.00,380.47 352.50,380.74 353.42,380.61 353.73,381.06 355.07,380.58 355.50,381.31 357.01,379.51 356.54,378.98 356.30,379.52 355.87,379.40 355.76,378.08 356.99,377.85 356.97,378.89 360.02,379.24 359.34,379.21 360.39,379.56 360.64,380.54 361.29,380.74 360.67,380.59 360.87,380.94 361.20,381.23 361.76,380.95 361.30,381.23 362.08,381.81 363.64,381.95 364.17,381.31 363.94,382.07 364.80,382.29 365.59,382.41 365.15,382.01 365.67,381.80 366.04,382.50 367.19,381.81 368.75,382.82 368.57,382.38 369.22,382.38 370.16,384.16 370.91,384.15 370.73,384.47 371.86,385.14 372.85,385.25 372.73,384.91 373.20,385.54 375.17,385.56 377.54,387.46 377.10,386.89 377.85,386.96 377.87,386.51 378.79,386.35 380.26,386.85 380.82,387.83 380.24,387.96 380.07,387.43 379.66,387.80 380.19,389.06 379.38,390.21 367.51,387.71 391.70,393.09 400.80,394.78 401.01,393.69 404.84,392.54 407.72,392.03 409.69,392.47 413.67,391.91 416.08,390.94 420.06,391.74 423.20,391.25 425.59,392.13 433.52,391.69 433.96,391.53 432.84,391.44 432.67,390.97 433.66,389.87 433.16,388.90 434.40,388.61 436.26,388.80 437.32,390.07 440.84,390.77 444.15,388.65 444.94,387.43 444.35,386.03 445.18,386.50 446.85,384.61 445.56,387.44 447.07,388.78 445.81,389.49 445.07,391.38 445.40,391.94 445.98,392.03 445.77,390.66 446.60,390.21 448.55,389.80 450.87,390.19 452.33,390.91 452.82,391.80 452.12,392.95 450.65,392.66 450.90,393.99 453.01,394.04 452.49,393.87 452.83,392.17 454.05,391.45 454.98,392.66 456.81,393.17 456.47,394.14 460.14,397.11 460.85,397.13 460.23,396.85 460.47,396.42 461.89,396.39 462.98,395.80 465.59,397.28 466.65,397.09 464.93,395.62 465.29,394.10 466.55,393.65 470.01,394.11 466.60,392.54 466.17,391.00 466.94,391.37 468.19,391.12 468.59,389.97 469.99,389.85 470.80,388.53 471.82,388.56 472.92,389.49 475.11,393.90 473.90,394.49 473.25,395.58 474.43,401.56 473.46,402.84 474.78,403.09 474.88,402.63 476.19,402.23 481.69,402.42 482.56,402.71 483.01,403.63 482.32,404.11 480.71,404.18 478.79,405.47 478.31,405.14 477.74,405.37 477.87,409.76 476.17,407.89 474.96,407.72 473.17,406.63 470.91,408.15 470.05,408.05 468.42,410.31 467.75,409.60 465.70,410.00 465.11,409.02 464.26,409.13 460.10,410.64 460.08,411.24 459.79,410.87 459.53,411.24 459.75,411.94 459.37,411.26 455.99,413.57 449.57,415.74 446.30,415.83 444.18,414.82 442.98,413.59 442.25,416.74 441.14,418.11 436.31,419.16 428.71,422.04 424.55,424.17 419.80,426.90 419.56,427.34 420.87,427.38 421.26,427.97 420.03,429.28 420.26,429.70 419.48,429.01 418.52,429.36 418.47,429.73 419.19,429.63 419.33,430.36 415.85,431.05 418.35,429.44 417.38,428.81 412.22,431.04 412.10,431.97 410.82,432.34 411.33,431.93 410.83,431.45 403.62,434.30 400.49,436.08 396.46,440.01 397.17,440.77 398.37,440.92 398.98,441.82 397.50,443.43 408.22,445.50 413.40,442.74 416.82,441.96 425.23,442.36 428.50,443.47 430.51,444.72 430.65,444.39 426.63,442.55 429.58,443.02 430.66,442.43 430.95,443.33 432.20,442.65 432.45,441.95 434.77,441.74 434.87,441.01 436.09,440.55 438.25,440.74 438.13,440.36 440.50,439.32 440.95,438.58 441.73,438.67 442.34,437.41 443.79,437.17 444.41,436.48 445.55,436.87 443.87,437.94 443.07,437.51 441.78,439.28 439.55,440.26 440.60,440.57 439.30,440.56 438.44,441.80 437.23,441.81 437.05,441.34 435.96,441.69 434.81,443.12 436.33,443.16 436.43,443.50 435.74,443.95 435.54,443.51 435.01,443.88 433.59,443.75 434.27,444.65 433.51,444.68 433.18,445.99 430.86,444.84 436.33,448.29 439.28,451.13 441.08,452.00 441.87,453.14 444.20,454.33 446.95,454.92 449.07,456.76 450.72,456.77 452.34,455.04 455.48,454.98 457.63,453.50 459.64,453.76 461.66,454.67 465.45,457.06 469.65,461.06 472.30,466.28 472.58,468.08 472.09,468.55 473.11,472.27 472.75,475.49 471.76,477.26 470.37,477.80 469.12,477.60 468.86,478.00 468.90,479.58 467.74,480.94 468.71,485.17 468.58,489.07 467.90,490.86 466.60,491.36 466.12,492.17 469.71,492.19 471.69,492.98 467.72,492.73 467.42,493.82 467.28,492.63 466.82,492.92 465.99,492.44 465.38,493.19 463.74,493.04 463.58,493.76 463.31,493.09 462.21,493.25 461.98,494.15 461.37,493.50 460.19,494.28 461.18,495.74 459.78,494.69 459.50,496.29 459.30,495.41 458.83,495.91 458.90,494.46 457.26,495.00 459.77,497.31 463.24,499.11 464.59,500.80 465.44,500.39 469.25,501.47 471.94,500.90 473.32,501.45 474.67,502.51 475.61,505.64 477.21,506.19 479.54,505.97 481.57,508.27 484.27,508.31 489.88,506.92 497.30,507.98 500.41,506.88 501.57,507.01 503.75,505.87 507.87,505.46 510.71,500.96 516.28,500.17 518.14,497.85 519.97,497.06 522.76,497.38 522.91,495.03 524.35,494.41 524.69,493.05 527.47,488.87 530.44,486.24 535.39,484.46 536.70,483.54 538.93,483.07 540.16,482.18 550.76,479.20 556.39,479.31 558.21,478.84 560.81,479.29 561.38,478.32 564.76,477.58 566.16,478.33 566.96,477.94 569.01,478.32 570.36,479.40 570.03,480.28 572.46,480.89 575.74,478.79 576.12,476.33 577.76,473.83 583.24,472.24 584.00,470.96 583.62,469.91 584.22,469.34 585.55,468.92 586.75,469.44 588.73,468.89 590.65,469.26 590.76,469.76 592.95,470.41 593.29,469.88 591.93,469.81 590.83,468.50 591.00,467.81 591.57,467.21 595.68,465.95 592.94,464.73 593.65,462.66 597.22,460.10 603.16,458.26 608.48,458.24 616.10,460.53 621.64,463.86 621.78,465.35 623.17,465.93 622.96,466.55 623.66,466.89 628.58,465.46 631.44,465.96 633.48,465.09 634.70,463.94 636.54,463.43 649.75,464.91 651.57,463.40 655.31,462.83 659.76,462.83 664.56,460.90 665.19,459.98 677.31,457.29 682.89,458.67 684.24,459.42 689.76,458.81 695.47,459.72 711.87,464.54 719.80,468.45 723.58,472.14 723.60,473.38 722.15,474.19 725.07,477.02 725.20,478.58 727.90,481.41 728.23,482.91 727.60,483.14 729.24,483.56 729.72,484.42 734.74,487.48 739.13,488.71 740.07,488.57 743.84,489.42 746.20,489.20 749.32,490.32 751.92,490.49 755.74,489.57 756.90,488.51 755.49,487.34 755.24,485.57 754.69,485.59 755.56,484.81 755.91,485.18 756.28,484.83 756.29,485.61 757.34,485.53 756.67,485.91 757.57,485.45 758.31,485.73 758.29,486.08 759.05,486.13 758.81,486.72 759.61,486.78 761.61,488.47 763.88,489.37 765.08,490.79 763.28,491.78 765.16,493.70 768.63,495.60 768.64,496.01 771.64,496.57 772.01,496.11 771.45,495.05 772.92,494.87 774.09,495.42 774.79,496.72 772.99,497.23 778.22,500.50 779.95,503.48 781.44,504.13 783.36,506.22 784.69,506.64 789.47,506.86 792.39,508.15 792.84,508.79 795.08,509.48 797.84,509.06 808.11,510.79 810.54,511.92 811.52,511.91 812.45,512.66 817.03,513.51 818.06,514.12 820.20,514.08 823.22,515.41 828.32,521.13 829.62,521.81 831.25,521.79 834.65,523.14 837.23,523.49 838.96,525.19 839.71,527.84 842.41,528.15 842.33,528.59 843.39,528.90 847.46,532.95 857.28,538.30 859.58,541.02 861.00,541.57 864.42,544.21 868.78,548.90 876.63,554.45 878.43,556.90 884.06,559.33 885.65,562.59 886.75,563.55 893.11,566.15 896.84,568.31 899.75,573.87 901.52,575.01 904.54,575.99 910.37,576.55 915.89,579.01 921.52,580.69 923.02,584.16 923.71,589.16 927.95,592.09 929.73,590.69 931.72,590.29 936.75,592.59 940.23,592.51 944.23,595.87 948.50,595.19 951.77,596.18 955.93,596.09 963.10,596.86 964.49,597.63 970.38,603.26 971.03,603.28 972.16,602.30 975.42,602.34 977.87,605.34 979.76,612.64 982.68,615.80 984.67,616.16 986.65,615.40 988.34,615.58 992.25,616.49 993.87,617.35 999.21,618.21 1001.09,619.67 1001.25,619.17 1001.28,619.60 1002.09,619.56 1002.76,620.15 1004.60,623.06 1007.30,629.67 1010.20,643.13 1010.54,642.49 1010.39,643.29 1012.58,644.36 1014.95,649.37 1016.01,653.18 1015.27,655.14 1015.82,655.59 1019.34,656.38 1022.43,657.97 1024.59,657.38 1024.79,657.06 1023.82,656.89 1023.68,656.42 1025.96,655.17 1028.30,656.08 1030.84,655.29 1032.10,656.91 1033.20,656.04 1035.00,656.60 1037.34,655.61 1037.64,656.38 1038.92,656.04 1041.11,657.01 1041.59,657.75 1042.36,657.06 1044.39,657.13 1045.77,657.89 1047.37,657.72 1048.32,658.80 1051.20,658.49 1052.51,659.14 1053.59,660.64 1058.10,662.29 1059.53,662.40 1060.66,661.02 1063.52,661.54 1063.19,660.24 1064.00,659.90 1063.31,660.30 1063.74,661.54 1062.34,661.69 1060.70,661.16 1060.14,662.39 1058.73,662.64 1053.64,660.98 1052.53,659.31 1051.51,658.89 1047.88,659.00 1047.25,657.91 1045.80,658.09 1044.48,657.31 1042.72,657.30 1041.57,657.93 1038.96,656.29 1037.56,656.56 1037.15,655.73 1035.00,656.96 1033.19,656.24 1032.08,657.18 1030.45,655.47 1028.84,656.41 1025.45,655.57 1024.03,656.71 1025.28,656.77 1025.16,657.59 1022.38,658.35 1019.12,656.40 1016.76,656.31 1015.98,657.44 1016.96,658.92 1016.33,659.52 1019.92,663.37 1020.67,662.97 1019.49,660.10 1023.62,660.34 1024.47,661.17 1023.75,661.34 1023.37,662.49 1020.71,663.08 1022.38,663.83 1021.93,665.10 1021.38,664.80 1021.84,665.56 1020.69,663.15 1020.69,663.75 1020.14,663.63 1023.40,668.26 1023.77,667.68 1025.17,678.99 1024.73,682.39 1020.63,690.17 1017.63,693.24 1016.26,693.48 1015.59,692.79 1012.24,695.44 1011.00,697.16 1010.54,700.39 1007.85,704.60 1004.60,706.06 1000.42,711.04 999.70,711.51 995.81,712.02 993.47,713.33 990.57,714.12 988.31,716.10 984.77,717.80 982.78,718.22 981.13,719.84 975.56,722.99 967.85,725.31 964.08,724.90 959.13,726.33 956.72,728.07 953.66,731.32 951.66,732.04 951.09,731.79 945.71,734.02 943.76,734.17 941.81,735.38 940.28,735.37 939.33,734.70 940.08,734.61 938.63,734.48 933.71,735.51 930.84,735.54 922.06,741.40 917.49,743.03 915.40,743.15 911.34,742.85 907.35,739.99 905.46,740.15 904.42,739.63 900.34,740.32 895.31,740.11 893.45,738.25 890.06,737.08 887.74,737.23 887.26,736.67 886.02,736.44 882.30,737.59 881.06,737.47 880.06,736.74 875.64,735.51 870.25,731.05 865.69,730.00 862.35,731.86 856.57,733.89 854.39,734.06 852.57,733.49 851.21,732.22 848.34,731.90 845.22,733.79 841.18,734.71 837.90,735.06 837.11,734.67 833.51,734.72 832.87,734.31 828.67,736.48 825.60,736.95 824.93,736.49 818.05,740.58 815.34,740.69 813.23,738.99 811.94,739.05 809.75,740.81 805.55,742.88 802.23,743.11 801.46,742.76 798.79,743.24 796.86,742.97 796.09,742.38 793.83,743.40 791.56,742.67 788.75,740.96 782.49,741.39 782.00,741.14 782.38,741.02 779.86,740.38 778.49,740.43 769.75,738.57 765.31,738.28 765.33,738.74 764.96,738.19 761.85,738.24 760.67,736.24 756.82,735.54 755.10,733.69 754.32,732.48 755.32,729.38 754.32,729.58 752.94,729.16 749.77,729.55 748.28,728.01 746.33,729.38 743.82,732.51 743.32,733.94 742.23,734.72 738.45,735.84 736.44,735.34 735.23,734.57 734.56,733.05 730.64,731.87 728.94,730.27 722.00,728.89 721.52,728.37 721.91,727.41 711.25,727.15 705.54,725.40 704.28,724.59 703.81,723.83 704.36,723.82 703.30,722.80 703.79,722.84 703.86,720.34 702.63,718.50 693.69,714.48 689.07,713.39 681.78,712.64 679.24,711.48 679.00,712.59 678.56,711.33 676.45,712.45 676.07,712.98 676.48,713.32 672.85,717.81 670.50,719.14 666.18,720.62 661.53,720.33 660.56,719.92 659.96,719.01 660.32,718.81 658.17,718.18 658.04,717.25 657.92,717.88 657.34,717.41 657.62,716.14 658.54,716.28 650.93,713.42 650.13,712.04 643.36,705.97 642.52,703.22 643.39,699.56 642.31,695.03 638.29,690.79 631.38,687.56 618.89,692.01 609.76,694.20 605.20,694.60 598.67,693.49 594.92,691.04 585.67,688.89 584.67,688.12 584.82,687.38 581.00,685.39 579.99,683.67 580.91,682.99 578.70,681.87 577.54,680.42 575.97,679.54 575.40,677.82 574.17,676.98 573.00,674.97 573.37,671.95 575.12,668.75 576.82,668.03 580.71,668.80 581.15,668.32 579.70,666.81 578.43,666.86 575.54,668.03 571.68,667.69 569.90,666.83 569.65,666.07 570.38,665.61 569.74,665.60 569.94,665.08 568.04,663.38 563.17,663.02 563.44,664.63 560.69,667.96 558.36,669.78 553.51,672.63 548.20,673.42 537.08,673.26 533.64,672.45 532.41,671.23 531.46,671.93 528.64,671.91 525.87,672.89 523.22,673.32 522.21,672.92 521.67,673.42 519.47,673.63 511.16,672.39 510.79,671.92 505.73,671.06 500.80,670.83 492.69,671.54 484.51,671.46 483.66,670.88 481.85,671.18 473.66,670.65 462.44,668.83 459.96,669.09 458.09,668.51 454.58,668.28 449.51,670.34 446.08,671.01 443.81,671.89 443.11,672.65 433.54,674.57 432.82,675.37 430.46,675.93 430.13,676.38 430.69,676.39 429.79,677.01 423.09,678.61 422.31,679.17 416.55,679.17 415.88,679.88 412.52,679.90 411.91,680.59 410.34,680.67 409.84,681.11 403.32,681.33 402.80,682.42 397.79,683.08 396.86,684.44 395.42,684.98 394.71,684.81 393.15,685.70 392.14,687.25 390.52,687.07 390.57,686.56 389.92,686.30 390.04,686.68 388.74,686.92 388.63,687.61 387.13,687.71 387.05,688.39 384.63,688.21 383.22,688.60 379.75,690.72 380.11,691.05 379.26,690.90 379.59,691.79 379.16,692.28 375.80,693.94 376.21,694.52 373.68,696.44 367.60,697.94 368.26,698.70 367.44,698.09 366.05,698.41 363.63,700.32 359.31,701.27 357.71,702.06 356.94,701.83 357.28,702.05 353.51,703.44 352.38,704.59 349.63,705.80 349.13,706.24 349.55,706.52 347.46,706.49 346.89,707.58 342.54,709.61 339.76,710.33 338.37,711.38 332.44,712.60 329.44,713.63 327.95,715.08 325.90,715.09 324.82,715.97 323.49,715.90 322.91,717.38 324.88,718.59 324.65,719.45 323.66,718.90 324.10,722.86 318.43,728.52 313.27,730.27 304.52,730.99 301.20,731.95 297.29,732.33 290.58,732.36 279.95,731.42 272.94,728.54 259.71,726.79 252.76,724.78 251.20,723.68 250.36,723.94 247.67,723.35 247.26,722.86 245.77,724.66 243.99,724.65 244.58,725.21 243.75,725.32 244.12,726.31 241.80,726.34 241.72,727.39 240.96,726.87 240.92,727.28 239.19,727.94 236.77,727.56 235.67,728.15 235.54,727.76 231.98,728.21 230.73,727.78 230.19,728.25 229.95,727.87 227.56,728.15 226.51,727.73 222.79,727.54 220.44,727.83 219.46,727.54 218.67,727.95 213.20,726.41 210.71,726.78 208.49,726.16 206.80,726.31 202.42,724.93 201.80,725.17 202.34,725.13 201.90,725.64 201.02,725.77 195.43,724.80 187.58,722.71 185.28,722.98 181.05,722.27 178.67,721.70 178.57,721.35 177.57,721.86 175.74,721.65 175.55,722.35 172.57,722.08 172.16,722.53 166.98,720.66 166.47,720.05 166.11,720.50 163.77,719.83 163.46,720.61 161.39,720.69 156.06,718.88 154.17,718.94 152.70,718.46 152.65,718.03 150.34,717.87 148.49,716.62 146.65,716.83 146.54,716.10 143.39,715.06 142.79,715.34 140.31,714.33 139.87,713.72 139.14,714.06 136.27,713.58 131.67,711.33 112.04,703.72 109.26,701.84 108.44,701.84 108.59,701.45 106.15,699.69 105.96,698.60 103.80,698.11 103.33,696.87 100.16,694.58 99.53,692.91 100.76,692.06 100.33,691.29 97.97,689.70 96.41,687.83 96.44,686.34 93.36,683.40 92.19,680.85 92.17,678.74 91.66,678.75 94.56,676.77 96.43,677.72 97.52,677.50 96.60,675.47 97.00,673.32 96.54,672.18 95.42,671.35 96.06,670.78 95.90,670.02 94.25,668.11 94.68,667.79 93.93,666.80 92.63,666.01 93.07,665.36 91.64,665.21 90.01,662.59 88.54,662.75 87.77,662.16 87.81,661.18 86.61,659.98 85.23,659.55 85.12,658.74 84.68,659.07 84.33,658.43 83.65,658.41 84.13,657.89 82.56,656.90 82.90,656.47 81.43,656.19 81.43,655.63 80.42,655.00 79.58,655.11 78.50,654.18 79.05,653.55 76.69,652.62 76.98,651.76 77.80,651.69 77.01,651.17 76.87,650.31 78.29,649.70 78.03,649.34 79.75,648.88 78.29,648.00 78.91,647.73 79.04,646.90 77.25,647.08 76.86,647.67 76.01,647.47 74.13,645.08 74.02,644.54 74.95,644.01 73.92,643.72 73.74,642.95 74.01,642.57 74.97,642.61 75.32,641.92 73.71,641.99 73.22,640.78 72.55,640.84 72.73,641.25 71.60,641.98 70.61,641.85 69.54,640.95 69.58,640.57 70.38,640.52 69.75,639.97 70.06,639.16 68.91,639.27 68.57,638.57 68.24,639.50 67.56,639.62 65.64,638.31 64.85,639.01 65.26,639.51 64.09,639.51 62.47,638.73 61.72,640.13 60.55,640.67 58.42,638.40 57.60,639.48 56.00,638.45 56.87,636.59 57.15,637.14 57.38,636.64 57.93,636.98 58.41,636.66 58.68,637.05 59.10,634.02 61.26,631.97 62.42,631.86 63.76,632.43 65.52,631.47 66.57,631.94 67.61,631.46 68.91,631.80 69.29,632.41 70.04,632.13 68.77,630.16 69.11,627.07 69.84,626.42 71.78,626.69 72.78,625.57 74.02,625.96 74.52,625.25 76.12,625.06 74.98,624.98 74.12,624.24 74.30,622.75 75.13,621.76 86.89,622.27 86.08,618.79 86.92,617.45 85.64,612.89 86.27,611.92 87.07,611.88 86.59,607.68 87.30,606.80 85.87,601.58 86.04,599.60 87.76,597.82 90.01,590.48 87.93,590.29 85.02,588.75 81.04,589.78 73.67,588.81 71.80,589.44 71.37,589.15 71.03,589.59 71.23,589.18 70.44,589.61 69.81,589.17 72.63,588.63 76.35,588.74 77.72,589.17 78.80,588.53 79.19,588.82 79.67,588.23 79.96,588.60 82.25,588.89 84.01,587.85 85.33,587.86 86.65,588.88 87.59,589.17 88.12,588.83 88.34,589.21 88.45,588.41 89.71,587.81 91.88,587.24 93.43,587.48 94.68,586.72 94.89,585.65 95.54,585.37 99.58,576.87 103.89,574.69 107.04,575.16 114.51,573.78 117.71,574.10 121.73,575.86 124.23,576.37 125.13,577.72 125.46,576.26 127.32,574.24 128.59,573.95 130.76,572.27 133.24,568.88 134.77,565.54 132.25,562.12 132.78,558.95 131.74,556.25 131.83,555.01 132.70,554.40 132.83,548.71 133.78,548.02 132.85,548.47 132.11,547.86 130.93,548.03 130.55,547.45 130.09,547.84 129.30,547.50 130.21,547.71 130.50,547.22 131.00,547.83 131.23,547.53 132.82,547.92 133.37,547.37 133.59,545.36 134.84,544.48 135.11,541.35 136.67,539.61 136.50,538.07 138.79,535.33 136.82,529.26 137.17,528.76 140.21,528.53 140.67,527.46 140.15,528.41 138.88,528.33 139.39,527.57 139.16,527.96 138.79,527.47 138.74,527.96 138.52,527.08 137.90,527.66 137.74,527.06 137.52,528.09 135.76,527.62 137.22,527.45 137.40,526.87 136.83,526.51 137.75,525.77 137.66,526.90 138.01,525.66 138.48,526.78 137.95,526.93 139.43,527.21 138.21,525.63 138.59,524.86 137.50,525.11 138.75,524.27 137.13,524.39 137.88,524.07 137.13,523.92 137.87,523.84 137.68,522.99 141.47,527.14 138.18,523.46 138.61,522.89 138.00,522.10 138.14,520.89 137.24,519.83 137.62,519.55 136.91,519.70 136.37,519.23 135.61,516.92 135.62,515.32 136.77,512.56 140.28,512.54 136.10,512.44 137.07,512.37 137.31,511.94 137.72,512.28 139.07,511.98 138.37,511.84 138.69,511.05 139.35,511.19 139.32,511.80 139.92,511.33 140.60,512.72 140.32,510.94 140.67,511.13 141.57,509.11 150.90,500.67 158.62,490.57 162.74,486.72 167.63,483.45 171.80,481.93 178.16,480.52 198.76,478.69 199.92,477.96 200.91,478.15 201.98,477.64 202.96,475.15 200.07,473.77 197.18,471.16 193.93,469.55 191.88,469.81 192.62,469.10 192.10,468.82 190.18,468.76 187.52,470.59 185.98,470.08 187.01,469.01 187.02,467.84 185.08,469.73 184.76,467.94 183.57,468.76 182.36,468.87 182.51,467.85 180.49,466.46 181.69,465.51 180.06,465.55 179.46,465.15 180.05,464.26 177.61,464.35 173.67,463.57 176.09,462.03 175.73,461.16 173.81,459.77 170.30,459.66 170.00,460.54 171.94,460.45 172.19,460.83 171.90,461.41 169.89,462.05 164.77,458.95 160.78,458.25 158.32,457.11 155.17,456.50 153.96,454.46 151.94,453.37 149.69,453.28 147.45,454.59 146.80,453.85 147.01,452.72 144.40,452.22 143.58,451.48 141.40,451.88 136.58,450.58 131.43,450.14 127.11,448.45 124.11,447.53 123.54,447.74 118.70,446.06 116.22,444.84 113.90,441.21 112.56,440.13 112.83,438.02 112.26,436.87 108.01,435.11 112.64,436.52 113.46,440.16 117.52,445.07 126.47,447.70 132.20,449.94 137.27,450.18 142.14,451.57 147.19,450.35 146.71,449.35 144.93,448.95 144.28,447.54 144.98,447.05 147.40,446.74 148.00,445.74 146.26,444.84 147.63,443.93 149.17,444.05 150.94,445.28 153.03,445.45 155.16,447.07 157.43,447.73 158.09,446.91 157.65,445.55 160.17,442.72 163.96,442.25 166.56,440.65 168.28,440.51 169.56,440.91 172.77,439.98 176.84,436.63 180.76,437.88 183.27,436.40 186.21,437.14 193.58,436.00 195.60,436.15 197.75,437.31 198.95,439.34 202.23,440.32 205.59,437.62 209.82,436.55 210.07,434.96 209.12,435.21 209.16,435.85 207.73,435.24 207.30,436.13 206.71,435.50 206.99,435.02 205.83,434.60 205.21,435.10 205.86,435.57 205.17,436.31 204.02,435.57 203.85,434.72 202.87,435.02 202.06,434.26 202.41,433.90 202.92,434.69 202.74,434.04 203.55,433.97 203.42,432.71 205.01,431.06 207.99,428.58 212.58,425.81 211.59,426.26 211.34,425.48 211.93,425.42 211.13,425.28 211.01,424.76 213.28,425.27 213.87,424.02 214.48,424.02 214.87,423.40 214.29,422.90 217.62,423.22 213.31,425.52 219.03,422.62 237.86,411.51 221.69,420.81 220.28,421.17 217.60,420.34 216.95,420.72 214.58,417.17 215.28,417.47 217.29,416.18 217.27,415.62 217.65,416.13 220.79,415.93 220.91,413.57 221.61,413.81 222.59,416.09 224.51,416.93 223.10,414.33 223.84,410.14 224.10,409.91 224.38,413.57 225.95,414.71 227.09,411.61 227.04,408.92 226.18,407.66 227.58,405.67 228.84,406.57 229.09,409.35 231.09,410.33 233.07,412.85 233.88,411.29 234.16,411.87 235.03,411.52 235.54,410.09 235.06,408.96 236.72,407.40 236.28,406.35 236.63,405.01 237.16,405.03 238.24,407.95 238.42,411.26 243.65,408.45 249.12,403.79 250.69,402.10 249.41,403.20 248.45,401.15 249.03,401.17 251.42,399.07 253.64,398.49 254.81,397.50 253.81,395.64 255.21,396.74 256.75,395.61 256.38,397.22 250.70,402.07 260.83,394.17 258.94,394.74 258.06,394.09 256.35,391.01 254.42,389.61 254.12,386.97 254.59,386.82 252.83,385.51 251.45,385.78 249.76,385.45 249.57,384.81 248.37,384.25 244.29,383.48 238.75,380.16 235.69,376.83 235.98,375.71 238.38,373.38 241.96,372.29 244.65,372.76 245.27,373.50 244.06,375.19 245.71,375.71 247.02,378.67 247.86,379.06 249.57,377.10 249.91,375.57 249.25,374.00 249.99,373.50 250.70,374.07 251.21,376.29 250.76,378.54 251.22,379.20 253.17,380.57 256.65,381.12 258.41,382.96 256.99,385.24 257.33,385.94 258.89,387.46 263.32,389.68 262.82,391.67 260.97,393.09 260.86,393.98 263.51,390.77 266.68,388.43 274.80,377.98 273.36,377.55 272.80,376.28 271.78,376.59 271.26,376.19 271.82,376.41 272.22,376.00 272.08,373.24 272.40,375.57 274.65,377.53 277.07,375.03 279.72,373.87 281.09,369.11 280.24,366.00 279.96,366.42 279.34,366.19 279.56,365.82 278.99,365.98 278.22,365.09 279.02,362.97 281.64,361.62 283.54,361.50 285.02,362.07 289.55,360.52 297.20,358.88 297.35,356.78 296.41,354.73 297.59,354.98 298.28,357.81 297.73,358.69 308.19,356.75 312.71,357.98 315.73,357.81 319.99,358.65 320.45,357.58 321.38,357.11 324.18,357.37 324.94,356.51 324.47,356.38 324.72,355.35 327.63,354.30 328.45,352.67 329.28,352.51 329.46,349.91 328.41,349.56 328.05,348.77 325.71,348.03 325.29,345.02 325.83,345.39 326.32,348.20 327.82,348.02 329.53,348.54 330.60,350.04 331.85,348.70 331.09,346.92 331.97,347.51 332.45,346.47 336.61,344.88 336.22,342.64 337.08,343.97 336.92,345.08 334.45,346.86 333.03,347.29 333.62,348.76 332.14,350.46 332.42,351.71 330.28,352.48 330.88,353.15 330.45,354.36 326.76,356.73 325.20,356.90 329.97,356.97 333.64,358.63 336.46,355.90 339.58,355.26 343.47,355.88 345.86,356.78 348.69,357.01 350.29,357.97 356.51,356.05 357.58,354.83 357.30,353.44 357.96,350.95 358.94,349.87 357.66,349.79 356.40,348.72 355.47,347.36 355.54,345.71 358.16,342.36 360.18,341.70 361.97,340.42 363.81,337.87 363.63,337.01 363.07,336.21 361.53,336.80 359.02,336.59 357.50,335.46 358.39,334.08 360.94,332.39 361.11,331.36 356.76,332.39 355.57,332.17 354.35,331.21 353.57,329.56 354.23,327.18 355.92,327.39 356.91,326.22 356.66,325.17 357.16,325.16 355.57,324.26 352.72,323.62 352.20,322.28 353.55,320.70 352.22,319.10 346.95,317.09 346.57,315.02 347.47,313.55 349.00,312.61 348.07,311.73 346.82,311.88 345.61,310.60 346.88,311.80 348.07,311.64 349.09,312.45 347.36,313.86 346.74,315.09 347.17,317.09 352.20,318.79 353.85,320.37 353.11,318.84 354.47,320.76 353.39,322.71 353.73,323.55 354.96,324.07 356.97,324.10 358.12,325.26 357.86,326.72 355.82,327.96 354.39,329.69 354.72,329.53 355.68,331.07 356.13,330.85 356.64,331.54 360.67,329.96 362.27,330.15 363.15,330.79 363.56,333.02 362.66,332.49 361.43,333.05 359.68,334.65 359.91,335.59 359.94,335.72"/>
    <polyline fill="none" stroke="#1f6f8b" stroke-width="3.60" stroke-opacity="1.00" stroke-linejoin="round" stroke-linecap="round" points="359.95,335.72 361.38,336.13 363.59,335.38 363.31,335.18 364.65,335.20 365.80,337.04 364.82,338.74 364.92,340.09 362.95,341.08 362.59,341.49 363.10,341.68 362.28,342.32 360.75,342.47 360.74,344.72 358.81,345.91 359.78,346.59 359.02,347.26 360.26,346.83 359.63,348.68 360.74,349.04 362.50,351.21 362.01,353.20 362.68,354.57 365.86,356.96 367.60,357.64 370.07,357.50 371.36,358.02 373.57,361.54 376.35,360.33 378.22,360.20 380.97,359.16 383.87,360.31 384.97,361.81 390.19,362.19 391.80,361.43 394.02,361.27 395.67,360.63 396.24,359.07 396.46,359.91 395.93,360.56 398.36,359.00 400.82,358.90 399.42,358.30 399.71,357.76 400.65,357.63 400.93,358.00 401.63,357.35 402.17,357.62 402.55,357.32 402.23,357.69 402.88,358.24 402.19,357.99 401.48,358.41 401.05,358.02 401.08,358.87 403.88,358.37 403.83,357.85 404.31,358.15 409.23,354.63 413.05,353.54 417.73,353.47 426.15,349.57 430.00,348.96 434.09,348.90 441.22,346.03 450.69,346.14 452.41,346.85 455.39,346.18 456.87,346.75 455.45,347.78 451.12,348.58 440.98,346.39 434.67,349.21 426.33,349.94 419.50,353.43 415.37,354.27 411.12,354.51 409.02,355.19 406.32,357.01 405.09,358.07 405.59,358.35 404.75,358.38 400.44,362.83 398.44,362.76 395.17,365.09 391.24,365.17 386.66,366.39 383.42,366.14 385.87,366.92 385.22,367.47 385.86,367.61 388.76,366.31 391.53,365.71 392.91,365.95 391.49,367.25 388.82,367.90 384.77,367.69 380.20,366.69 377.40,366.74 375.12,366.12 377.08,366.27 374.22,364.75 373.76,364.87 374.55,365.24 374.53,365.89 371.36,365.33 365.57,366.35 365.40,365.67 365.19,366.20 363.41,366.06 358.37,364.87 357.73,364.66 357.55,363.97 358.08,363.78 356.36,363.31 357.17,364.19 355.54,364.45 350.69,363.55 347.48,362.24 341.41,362.89 335.67,362.90 332.74,361.81 331.05,360.17 333.21,362.51 339.57,366.21 344.15,369.91 343.52,369.36 344.45,369.62 343.37,369.11 343.76,367.57 344.70,366.77 346.96,366.18 356.34,367.98 360.91,369.52 359.21,368.75 361.55,369.12 360.07,368.60 360.91,368.69 362.20,369.28 360.83,369.22 361.96,369.48 364.17,368.51 365.87,369.21 366.64,371.07 368.09,372.34 367.67,373.31 366.40,373.67 365.68,373.29 364.52,374.90 361.34,375.98 357.18,376.67 356.60,376.63 358.88,376.41 353.10,376.56 349.47,377.38 349.22,378.06 347.99,378.37 347.63,379.22 348.18,378.95 348.87,379.37 349.46,380.57 349.13,381.29 350.11,380.61 349.91,380.22 350.39,380.73 351.29,380.46 351.57,381.25 352.58,380.23 353.00,380.46 352.49,380.73 353.43,380.61 353.72,381.05 355.06,380.58 355.50,381.30 357.01,379.51 356.54,378.98 356.30,379.52 355.87,379.39 355.76,378.09 356.99,377.86 356.98,378.88 360.02,379.23 359.35,379.20 360.38,379.56 360.64,380.53 361.28,380.74 360.67,380.58 360.86,380.93 361.21,381.24 361.76,380.95 361.29,381.23 362.08,381.80 363.65,381.95 364.18,381.32 363.95,382.07 364.79,382.29 365.58,382.42 365.16,382.02 365.68,381.80 366.04,382.49 367.19,381.79 368.75,382.82 368.57,382.39 369.21,382.37 370.16,384.17 370.90,384.15 370.72,384.46 371.86,385.14 372.85,385.26 372.74,384.92 373.19,385.54 375.18,385.56 377.54,387.46 377.11,386.89 377.87,386.96 377.89,386.51 378.79,386.34 380.27,386.85 380.82,387.84 380.25,387.96 380.07,387.44 379.66,387.81 380.19,389.07 379.38,390.22 367.52,387.71 391.70,393.09 400.80,394.79 401.01,393.69 404.84,392.53 407.72,392.02 409.68,392.47 413.68,391.92 416.10,390.94 420.07,391.73 423.21,391.24 425.60,392.13 433.52,391.70 433.96,391.51 432.83,391.44 432.67,390.98 433.67,389.86 433.16,388.90 434.42,388.61 436.27,388.80 437.31,390.07 440.83,390.77 444.16,388.65 444.94,387.43 444.34,386.03 445.18,386.49 446.85,384.62 445.55,387.43 447.07,388.78 445.81,389.48 445.05,391.38 445.40,391.94 445.98,392.02 445.78,390.65 446.59,390.22 448.53,389.81 450.85,390.18 452.33,390.91 452.81,391.81 452.12,392.96 450.64,392.66 450.89,393.98 453.00,394.04 452.49,393.86 452.83,392.17 454.06,391.46 454.97,392.66 456.83,393.16 456.46,394.14 460.14,397.11 460.85,397.13 460.22,396.85 460.47,396.43 463.00,395.80 465.58,397.28 466.65,397.09 464.92,395.62 465.28,394.10 466.54,393.66 469.99,394.11 466.59,392.55 466.17,391.01 466.94,391.37 468.18,391.12 468.60,389.98 469.98,389.85 470.80,388.53 471.82,388.57 472.91,389.48 475.11,393.91 473.90,394.48 473.25,395.58 474.44,401.55 473.46,402.85 474.77,403.09 474.88,402.63 476.19,402.23 478.37,402.15 481.69,402.43 482.57,402.72 483.00,403.64 482.32,404.11 480.71,404.17 478.80,405.47 478.32,405.14 477.74,405.38 477.87,409.76 476.17,407.88 474.97,407.72 473.16,406.62 470.91,408.15 470.05,408.05 468.41,410.32 467.75,409.61 465.70,410.00 465.10,409.02 464.27,409.13 460.09,410.64 460.06,411.24 459.78,410.88 459.52,411.25 459.75,411.93 459.36,411.27 455.99,413.57 449.57,415.75 446.31,415.83 444.18,414.82 442.97,413.59 442.24,416.74 441.15,418.10 436.32,419.15 428.71,422.03 424.56,424.17 419.80,426.90 419.56,427.34 420.86,427.38 421.27,427.97 420.04,429.28 420.25,429.71 419.48,429.02 418.53,429.36 418.47,429.73 419.20,429.63 419.31,430.36 415.85,431.05 418.36,429.44 417.38,428.81 412.21,431.04 412.09,431.97 410.81,432.34 411.33,431.93 410.83,431.44 403.62,434.30 400.49,436.09 396.47,440.01 396.53,440.47 398.37,440.92 398.98,441.82 397.52,443.45 408.22,445.50 413.40,442.74 416.82,441.96 425.22,442.35 428.50,443.48 430.50,444.72 430.65,444.38 426.62,442.55 429.58,443.02 430.67,442.43 430.95,443.33 432.20,442.64 432.45,441.96 434.78,441.75 434.87,440.99 436.10,440.55 438.26,440.73 438.12,440.36 440.51,439.32 440.95,438.58 441.73,438.68 442.35,437.42 443.79,437.17 444.42,436.49 445.55,436.86 443.87,437.95 443.07,437.51 441.77,439.28 439.55,440.26 440.58,440.56 439.29,440.55 438.43,441.80 437.44,441.52 437.23,441.81 437.05,441.33 435.97,441.68 434.81,443.11 436.34,443.16 436.43,443.50 435.75,443.95 435.54,443.51 435.02,443.88 433.60,443.76 434.26,444.65 433.50,444.67 433.18,445.99 430.87,444.86 436.33,448.28 439.27,451.13 441.10,451.99 441.87,453.14 444.20,454.32 446.94,454.91 449.08,456.77 450.72,456.77 452.34,455.03 455.48,454.98 457.63,453.49 459.64,453.75 461.66,454.66 465.45,457.07 469.63,461.06 472.29,466.29 472.58,468.08 472.10,468.55 473.11,472.27 472.76,475.50 471.76,477.27 470.37,477.79 469.11,477.59 468.86,478.00 468.90,479.58 467.73,480.94 468.73,485.16 468.56,489.08 467.90,490.87 466.60,491.37 466.12,492.18 469.72,492.19 471.69,492.99 467.71,492.73 467.42,493.82 467.28,492.64 466.82,492.92 465.99,492.45 465.39,493.18 463.73,493.04 463.59,493.76 463.31,493.09 462.21,493.24 461.96,494.16 461.38,493.50 460.19,494.29 461.18,495.75 459.77,494.69 459.50,496.28 459.31,495.40 458.83,495.90 458.89,494.47 457.26,495.01 459.77,497.31 463.25,499.11 464.60,500.79 465.43,500.39 469.25,501.47 471.94,500.90 473.31,501.44 474.66,502.51 475.61,505.64 477.21,506.18 479.53,505.97 481.58,508.27 484.26,508.32 489.87,506.93 497.30,507.98 500.42,506.89 501.57,507.01 503.76,505.87 507.87,505.46 510.73,500.97 516.29,500.18 518.14,497.85 519.98,497.06 522.76,497.39 522.93,495.04 524.35,494.40 524.69,493.06 527.49,488.87 530.46,486.25 535.39,484.47 536.69,483.53 538.93,483.06 540.16,482.17 550.75,479.20 556.40,479.31 558.20,478.85 560.81,479.29 561.37,478.33 564.76,477.58 566.16,478.32 566.97,477.94 569.03,478.33 570.35,479.40 570.02,480.28 572.46,480.90 575.73,478.79 576.12,476.33 577.75,473.84 579.61,472.99 581.78,472.85 583.24,472.25 584.00,470.97 583.62,469.91 584.23,469.33 585.54,468.92 586.76,469.43 588.72,468.89 590.64,469.26 590.78,469.75 592.94,470.42 593.28,469.88 591.93,469.79 590.83,468.50 590.99,467.81 591.55,467.21 595.70,465.94 592.94,464.73 593.64,462.66 597.21,460.10 603.16,458.26 608.48,458.24 616.09,460.54 621.63,463.86 621.78,465.34 623.16,465.92 622.97,466.55 623.66,466.89 628.59,465.45 631.42,465.96 633.49,465.09 634.70,463.95 636.55,463.43 640.44,463.58 649.76,464.91 651.57,463.41 655.31,462.83 659.77,462.82 664.55,460.90 665.19,459.98 677.31,457.28 682.89,458.68 684.23,459.42 689.76,458.82 695.46,459.72 711.85,464.54 719.81,468.45 723.59,472.14 723.59,473.38 722.15,474.20 725.08,477.02 725.20,478.57 727.90,481.40 728.23,482.90 727.60,483.14 729.24,483.56 729.72,484.42 734.74,487.48 739.12,488.71 740.06,488.56 743.85,489.42 746.20,489.20 749.34,490.32 751.92,490.48 755.73,489.58 756.88,488.52 755.49,487.34 755.25,485.56 754.69,485.59 755.55,484.81 755.91,485.19 756.27,484.83 756.29,485.62 757.33,485.54 756.67,485.91 757.58,485.45 758.30,485.72 758.28,486.08 759.04,486.13 758.81,486.71 763.88,489.38 765.08,490.79 763.29,491.79 765.16,493.71 768.64,495.60 768.64,496.00 771.65,496.57 772.00,496.11 771.47,495.04 772.91,494.87 774.08,495.43 774.80,496.72 772.99,497.23 778.21,500.50 779.96,503.47 781.45,504.13 783.35,506.21 784.68,506.65 789.49,506.86 792.40,508.15 792.84,508.80 795.07,509.47 797.84,509.06 808.11,510.80 810.56,511.93 811.52,511.92 812.46,512.66 817.03,513.50 818.06,514.11 820.20,514.09 823.21,515.42 828.34,521.13 829.63,521.81 831.26,521.79 834.66,523.14 837.23,523.49 838.97,525.18 839.70,527.84 842.42,528.16 842.33,528.59 843.40,528.89 847.45,532.96 857.27,538.30 859.57,541.02 861.01,541.57 864.40,544.20 868.78,548.91 876.62,554.45 878.43,556.90 884.05,559.33 885.65,562.60 886.75,563.55 893.10,566.16 896.84,568.31 899.76,573.87 901.51,575.01 904.53,576.00 910.36,576.56 915.89,579.01 921.53,580.70 923.01,584.17 923.71,589.15 927.95,592.09 929.73,590.68 931.73,590.30 936.74,592.59 940.23,592.50 944.23,595.87 948.49,595.18 951.77,596.18 955.93,596.08 963.09,596.85 967.20,600.01 970.38,603.27 971.03,603.27 972.15,602.30 975.44,602.33 977.87,605.34 979.77,612.65 982.67,615.79 984.67,616.16 986.66,615.39 988.34,615.58 992.26,616.48 993.88,617.34 999.22,618.21 1001.08,619.68 1001.23,619.17 1001.27,619.61 1002.10,619.55 1002.75,620.14 1004.60,623.05 1007.30,629.66 1010.20,643.13 1010.54,642.48 1010.39,643.29 1012.57,644.36 1014.97,649.36 1016.01,653.18 1015.28,655.14 1015.82,655.58 1019.36,656.39 1022.44,657.97 1024.59,657.39 1024.80,657.06 1023.82,656.89 1023.69,656.42 1025.96,655.18 1028.29,656.08 1030.83,655.28 1032.10,656.92 1033.20,656.04 1035.01,656.59 1037.35,655.61 1037.65,656.37 1038.92,656.03 1041.11,657.01 1041.58,657.76 1042.36,657.06 1044.37,657.15 1045.77,657.89 1047.38,657.73 1048.31,658.81 1051.22,658.49 1052.51,659.16 1053.60,660.64 1058.09,662.29 1059.53,662.40 1060.68,661.02 1063.53,661.54 1063.20,660.24 1064.00,659.90 1063.31,660.29 1063.75,661.54 1062.34,661.69 1060.70,661.16 1060.14,662.39 1058.74,662.63 1053.64,660.97 1052.53,659.30 1051.51,658.90 1047.88,659.01 1047.25,657.91 1045.79,658.08 1044.49,657.31 1042.72,657.30 1041.57,657.92 1038.95,656.29 1037.56,656.56 1037.15,655.73 1035.01,656.96 1033.18,656.25 1032.09,657.19 1030.45,655.46 1028.85,656.41 1025.46,655.57 1024.04,656.72 1025.28,656.77 1025.16,657.60 1022.39,658.35 1019.13,656.40 1016.78,656.31 1015.98,657.44 1016.96,658.91 1016.32,659.53 1019.90,663.37 1020.65,662.98 1019.48,660.10 1023.62,660.33 1024.48,661.19 1023.74,661.34 1023.37,662.49 1020.96,662.73 1020.72,663.08 1022.37,663.82 1021.92,665.10 1021.38,664.81 1021.84,665.56 1020.67,663.16 1020.67,663.75 1020.14,663.62 1023.40,668.26 1023.78,667.68 1025.17,678.98 1024.74,682.39 1020.64,690.17 1017.63,693.24 1016.27,693.48 1015.60,692.78 1012.22,695.44 1011.01,697.15 1010.53,700.40 1007.84,704.61 1004.61,706.07 1000.41,711.04 999.68,711.51 995.81,712.03 993.47,713.33 990.56,714.12 988.30,716.10 984.78,717.80 982.77,718.21 981.12,719.84 975.57,723.00 967.84,725.31 964.08,724.89 959.14,726.32 956.72,728.06 953.66,731.32 951.67,732.04 951.09,731.79 945.71,734.02 943.77,734.17 941.81,735.38 940.28,735.37 939.34,734.70 940.07,734.62 938.63,734.48 933.70,735.52 930.83,735.53 922.07,741.41 917.49,743.04 915.39,743.15 911.34,742.84 907.34,739.99 905.46,740.16 904.42,739.64 900.35,740.33 895.30,740.11 893.45,738.25 890.06,737.08 887.73,737.23 886.02,736.44 882.29,737.60 881.06,737.47 880.06,736.73 875.63,735.51 870.23,731.06 865.69,730.00 862.34,731.86 856.57,733.89 854.39,734.05 852.57,733.50 851.21,732.22 848.32,731.91 845.22,733.79 841.17,734.71 837.91,735.05 837.12,734.68 833.52,734.72 832.89,734.31 828.67,736.48 825.59,736.94 824.94,736.49 818.07,740.59 815.34,740.68 813.23,739.00 811.94,739.05 809.76,740.82 805.55,742.88 802.23,743.11 801.46,742.76 798.80,743.24 796.85,742.98 796.08,742.39 793.83,743.40 791.55,742.67 788.75,740.95 782.49,741.40 781.99,741.14 782.38,741.02 779.87,740.38 778.47,740.44 769.75,738.57 765.31,738.28 765.32,738.74 764.96,738.20 761.84,738.24 760.67,736.24 756.82,735.53 755.11,733.69 754.33,732.49 755.34,729.37 754.31,729.59 752.94,729.16 749.77,729.55 748.27,728.02 746.33,729.39 743.81,732.52 743.33,733.94 742.22,734.72 738.45,735.84 736.43,735.35 735.22,734.56 734.56,733.05 730.63,731.87 728.95,730.27 722.00,728.89 721.52,728.38 721.91,727.41 716.29,727.56 711.24,727.15 705.53,725.41 704.28,724.59 703.82,723.83 704.37,723.83 703.30,722.81 703.79,722.84 703.85,720.34 702.64,718.51 693.69,714.48 689.08,713.38 681.78,712.65 679.22,711.48 679.02,712.59 678.56,711.33 676.44,712.45 676.47,713.31 672.85,717.80 670.48,719.14 666.17,720.62 661.55,720.33 660.56,719.92 660.33,718.82 658.17,718.17 658.04,717.26 657.93,717.87 657.32,717.40 657.59,716.14 658.52,716.27 650.94,713.42 650.13,712.04 643.36,705.98 642.52,703.21 643.38,699.57 642.31,695.03 638.30,690.78 631.38,687.55 618.91,692.01 609.76,694.20 605.22,694.60 598.65,693.50 594.93,691.04 585.67,688.89 584.67,688.13 584.83,687.37 580.99,685.39 579.97,683.66 580.04,683.22 580.91,682.98 578.70,681.88 577.55,680.42 575.96,679.55 575.40,677.82 574.16,676.98 572.99,674.96 573.36,671.95 575.12,668.75 576.80,668.04 580.71,668.80 581.15,668.33 579.70,666.81 578.43,666.85 575.55,668.03 571.69,667.70 569.89,666.83 569.67,666.08 570.38,665.61 569.75,665.58 569.94,665.09 568.02,663.38 563.17,663.02 563.43,664.63 560.68,667.97 558.36,669.78 553.51,672.63 548.19,673.43 537.07,673.26 533.65,672.45 532.41,671.23 531.46,671.94 528.64,671.92 525.86,672.89 523.21,673.33 522.21,672.92 521.66,673.43 519.46,673.62 511.16,672.38 510.56,672.22 510.79,671.93 505.74,671.05 500.78,670.82 492.70,671.54 484.52,671.46 483.67,670.88 481.85,671.18 473.67,670.65 462.45,668.83 459.98,669.09 458.09,668.51 454.57,668.28 449.50,670.33 443.80,671.88 443.11,672.64 433.54,674.56 432.81,675.37 430.46,675.93 430.13,676.38 430.70,676.38 429.78,677.01 423.09,678.61 422.31,679.17 416.55,679.17 415.88,679.88 412.52,679.91 411.91,680.58 410.34,680.66 409.84,681.11 403.32,681.33 402.81,682.41 397.80,683.07 396.87,684.44 395.42,684.98 394.70,684.80 393.15,685.70 392.15,687.26 390.51,687.07 389.93,686.30 390.05,686.69 388.75,686.92 388.61,687.62 387.14,687.71 387.06,688.38 384.63,688.21 383.23,688.59 379.75,690.71 380.12,691.05 379.26,690.90 379.59,691.80 379.17,692.28 375.81,693.94 376.21,694.52 373.68,696.45 367.60,697.93 368.26,698.70 367.44,698.09 366.05,698.41 363.61,700.32 357.70,702.05 356.93,701.84 357.30,702.05 353.51,703.43 352.38,704.60 349.64,705.80 349.14,706.24 349.56,706.52 347.45,706.49 346.89,707.58 342.54,709.62 339.76,710.33 338.38,711.37 332.44,712.59 329.45,713.62 327.96,715.07 325.89,715.09 324.82,715.97 323.48,715.90 322.91,717.39 324.86,718.59 324.65,719.45 323.66,718.90 324.09,722.86 318.45,728.51 313.28,730.28 304.52,730.99 301.20,731.96 297.28,732.34 290.58,732.35 279.95,731.42 272.93,728.54 259.70,726.79 252.76,724.78 251.19,723.69 250.36,723.94 247.68,723.35 247.25,722.85 245.76,724.67 243.99,724.64 244.59,725.21 243.75,725.31 244.12,726.31 241.79,726.35 241.72,727.39 240.95,726.88 240.91,727.28 239.18,727.94 236.77,727.56 235.68,728.16 235.54,727.77 231.98,728.22 230.72,727.78 230.18,728.25 229.95,727.87 227.56,728.16 222.78,727.53 220.43,727.83 219.46,727.54 218.67,727.94 213.20,726.41 210.72,726.78 208.49,726.16 206.81,726.30 202.41,724.94 201.80,725.17 202.33,725.13 201.90,725.64 201.02,725.76 195.42,724.80 187.57,722.71 185.28,722.99 181.04,722.26 178.58,721.36 177.58,721.86 175.73,721.67 175.56,722.35 172.58,722.09 172.16,722.53 166.98,720.66 166.47,720.05 166.11,720.51 163.77,719.83 163.46,720.61 161.40,720.68 156.06,718.87 154.17,718.94 152.70,718.46 152.63,718.03 150.35,717.87 148.49,716.63 146.66,716.83 146.52,716.10 143.40,715.07 142.79,715.34 139.87,713.72 139.13,714.06 136.27,713.58 131.67,711.33 112.05,703.73 109.26,701.83 108.44,701.84 108.57,701.44 106.16,699.69 105.95,698.61 103.81,698.11 103.33,696.87 100.15,694.59 99.53,692.91 100.77,692.06 100.34,691.29 97.97,689.71 96.39,687.83 96.45,686.35 93.36,683.40 92.18,680.86 92.17,678.74 91.65,678.75 94.56,676.77 96.44,677.72 97.52,677.51 96.59,675.48 96.99,673.32 96.54,672.18 95.43,671.35 96.06,670.79 95.89,670.01 94.25,668.10 94.67,667.80 93.91,666.80 92.62,666.01 93.07,665.36 91.66,665.21 90.01,662.59 88.54,662.74 87.78,662.16 87.83,661.18 86.60,659.97 85.24,659.56 85.13,658.74 84.68,659.06 84.34,658.43 83.65,658.41 84.14,657.89 83.55,657.90 83.25,657.02 82.55,656.89 82.90,656.48 81.41,656.18 81.43,655.64 80.42,654.99 79.58,655.09 78.52,654.18 79.05,653.55 76.69,652.62 76.99,651.77 77.80,651.70 77.00,651.16 76.88,650.32 78.30,649.70 78.03,649.35 79.75,648.88 78.30,648.00 79.05,646.90 77.24,647.07 76.87,647.69 76.02,647.47 74.13,645.07 74.04,644.54 74.94,644.00 73.93,643.73 73.74,642.95 74.98,642.61 75.32,641.92 73.71,641.99 72.98,641.17 73.23,640.78 72.56,640.84 72.74,641.25 71.60,641.98 70.61,641.85 69.54,640.95 69.58,640.57 70.37,640.51 69.73,639.97 70.06,639.16 68.91,639.27 68.57,638.56 68.22,639.49 67.56,639.62 65.65,638.31 64.85,639.01 65.24,639.51 64.10,639.53 62.46,638.73 61.71,640.13 60.55,640.68 58.43,638.41 57.62,639.48 56.00,638.45 56.86,636.59 57.15,637.14 57.38,636.64 57.93,636.97 58.42,636.65 58.68,637.06 59.09,634.01 61.25,631.97 62.40,631.86 63.77,632.44 65.51,631.47 66.57,631.94 67.61,631.46 68.93,631.81 69.30,632.42 70.03,632.14 68.77,630.15 69.11,627.06 69.85,626.42 71.78,626.69 72.78,625.56 74.03,625.97 74.53,625.25 76.11,625.06 74.98,624.99 74.11,624.23 74.28,622.75 75.13,621.77 86.88,622.27 86.07,618.80 86.91,617.45 85.65,612.89 86.26,611.91 87.05,611.88 86.60,607.68 87.30,606.79 85.88,601.58 86.06,599.60 87.75,597.81 90.02,590.49 87.92,590.29 85.01,588.76 81.05,589.77 73.67,588.81 71.82,589.44 71.39,589.14 71.03,589.60 71.23,589.18 70.43,589.63 69.84,589.19 72.64,588.63 76.35,588.74 77.71,589.18 78.79,588.53 79.20,588.82 79.66,588.23 79.94,588.60 82.25,588.89 84.01,587.85 85.33,587.85 86.65,588.88 87.60,589.16 88.13,588.84 88.34,589.21 88.45,588.41 89.72,587.81 91.86,587.24 93.44,587.47 94.67,586.72 94.88,585.65 95.53,585.36 99.59,576.87 103.89,574.69 107.04,575.16 114.51,573.78 117.69,574.09 121.74,575.86 124.24,576.38 125.13,577.72 125.47,576.25 127.32,574.24 128.59,573.94 130.76,572.26 133.25,568.88 134.76,565.54 132.25,562.12 132.76,558.95 131.74,556.24 131.83,555.01 132.70,554.40 132.84,548.71 133.77,548.04 132.85,548.47 132.11,547.87 130.94,548.03 130.53,547.45 130.09,547.84 129.30,547.50 130.22,547.72 130.50,547.21 131.02,547.84 131.23,547.54 132.82,547.93 133.35,547.36 133.61,545.35 134.85,544.48 135.10,541.36 136.66,539.61 136.51,538.08 138.79,535.34 136.83,529.26 137.18,528.75 140.22,528.53 140.67,527.46 140.15,528.42 138.88,528.33 139.39,527.56 139.18,527.96 138.79,527.47 138.74,527.95 138.52,527.08 137.90,527.66 137.72,527.07 137.52,528.08 135.76,527.61 137.22,527.45 137.39,526.87 136.82,526.52 137.21,526.63 137.20,525.87 137.74,525.78 137.67,526.90 138.01,525.66 138.49,526.77 137.95,526.94 139.45,527.21 138.20,525.63 138.59,524.85 137.50,525.12 138.74,524.27 137.13,524.38 137.87,524.06 137.11,523.92 137.86,523.84 137.70,523.00 141.46,527.14 138.17,523.46 138.63,522.89 137.24,519.83 137.64,519.55 136.92,519.70 136.39,519.22 135.60,516.92 135.62,515.32 136.77,512.57 140.27,512.53 136.10,512.43 137.31,511.94 137.72,512.28 139.09,511.98 138.36,511.84 138.69,511.05 139.35,511.19 139.34,511.80 139.92,511.33 140.59,512.72 140.31,510.94 140.68,511.13 141.58,509.12 150.89,500.67 158.62,490.57 162.73,486.71 167.63,483.45 171.79,481.93 178.15,480.53 198.75,478.69 199.93,477.96 200.90,478.16 201.98,477.64 202.97,475.14 200.06,473.77 197.17,471.16 193.93,469.56 191.88,469.81 192.61,469.11 192.09,468.82 190.18,468.75 187.52,470.59 185.99,470.07 187.01,469.01 187.02,467.84 185.07,469.74 184.77,467.94 183.57,468.76 182.37,468.87 182.52,467.84 180.49,466.47 181.71,465.51 180.07,465.57 179.48,465.15 180.04,464.27 177.61,464.36 173.67,463.57 176.09,462.03 175.73,461.16 173.81,459.77 170.30,459.67 170.01,460.54 171.94,460.45 172.19,460.83 171.90,461.42 169.88,462.06 164.78,458.96 160.77,458.25 158.32,457.10 155.17,456.49 153.95,454.46 151.95,453.37 149.69,453.28 147.44,454.58 146.81,453.86 147.02,452.72 144.40,452.22 143.58,451.48 141.41,451.89 136.58,450.58 131.43,450.14 118.71,446.06 116.23,444.85 113.90,441.22 112.56,440.14 112.81,438.03 112.26,436.88 108.00,435.12 112.65,436.52 113.46,440.16 117.51,445.07 126.48,447.70 132.19,449.94 137.28,450.17 142.15,451.56 147.20,450.35 146.70,449.35 144.92,448.95 144.28,447.54 144.98,447.05 147.40,446.74 148.00,445.74 146.24,444.85 147.63,443.94 149.18,444.05 150.95,445.29 153.03,445.45 155.17,447.06 157.43,447.72 158.09,446.91 157.67,445.55 160.19,442.71 163.96,442.24 166.56,440.66 168.28,440.50 169.57,440.92 172.75,439.98 176.86,436.63 180.76,437.88 183.29,436.39 186.21,437.14 193.58,436.00 195.60,436.15 197.75,437.31 198.96,439.34 202.23,440.32 205.58,437.63 209.83,436.55 210.07,434.96 209.11,435.20 209.13,435.85 207.74,435.23 207.30,436.14 206.71,435.49 206.98,435.03 205.82,434.60 205.21,435.11 205.85,435.57 205.17,436.31 204.04,435.57 203.85,434.73 202.86,435.03 202.05,434.26 202.41,433.90 202.93,434.69 202.72,434.04 203.55,433.96 203.42,432.70 205.01,431.07 208.03,428.58 212.58,425.80 211.59,426.27 211.35,425.46 211.93,425.40 211.11,425.29 211.01,424.77 213.28,425.27 213.86,424.91 213.85,424.02 214.48,424.02 214.87,423.40 214.30,422.90 217.63,423.22 213.33,425.52 219.05,422.63 237.86,411.51 236.08,412.17 221.69,420.81 220.28,421.16 217.60,420.34 216.95,420.72 214.58,417.18 215.28,417.47 217.29,416.19 217.26,415.63 217.65,416.14 220.80,415.93 220.91,413.56 221.61,413.81 222.59,416.09 224.50,416.94 223.10,414.33 223.84,410.14 224.10,409.91 224.38,413.58 225.95,414.71 227.09,411.62 227.04,408.92 226.17,407.65 227.58,405.67 228.85,406.57 229.09,409.35 231.09,410.32 233.08,412.85 233.88,411.29 234.16,411.86 235.02,411.51 235.55,410.09 235.05,408.96 236.72,407.41 236.28,406.36 236.64,405.01 237.15,405.02 238.24,407.95 238.41,411.26 243.65,408.44 249.11,403.77 250.70,402.11 249.39,403.21 248.46,401.15 249.04,401.17 251.42,399.06 253.62,398.49 254.82,397.50 253.80,395.64 255.21,396.73 256.76,395.61 256.38,397.22 250.69,402.07 260.83,394.16 258.95,394.75 258.06,394.09 256.36,391.02 254.44,389.60 254.12,386.98 254.61,386.83 252.85,385.51 251.45,385.77 249.75,385.46 249.57,384.81 248.36,384.25 244.29,383.49 238.75,380.16 235.69,376.83 236.00,375.71 238.38,373.37 241.95,372.30 244.65,372.77 245.26,373.49 244.05,375.19 245.71,375.71 247.02,378.67 247.85,379.07 249.57,377.10 249.91,375.57 249.25,374.01 249.98,373.50 250.72,374.06 251.21,376.28 250.76,378.53 251.22,379.21 253.19,380.57 256.65,381.13 258.42,382.96 256.98,385.26 257.34,385.95 258.90,387.45 263.31,389.68 262.84,391.67 260.99,393.09 260.86,393.98 263.52,390.77 266.69,388.43 274.80,377.97 273.36,377.56 272.80,376.28 271.80,376.59 271.25,376.19 271.81,376.41 272.22,376.00 272.09,373.25 272.41,375.57 274.65,377.52 277.08,375.02 279.72,373.86 281.08,369.11 280.25,366.00 279.94,366.42 279.34,366.18 279.55,365.82 278.99,365.98 278.21,365.09 279.02,362.97 281.64,361.62 283.55,361.50 285.01,362.09 289.57,360.53 297.22,358.86 297.34,356.78 296.41,354.73 297.59,354.98 298.28,357.81 297.72,358.69 308.18,356.75 312.71,357.97 315.73,357.81 320.00,358.66 320.44,357.57 321.37,357.11 324.18,357.36 324.92,356.51 324.46,356.38 324.71,355.35 327.64,354.31 328.46,352.67 329.28,352.51 329.45,349.90 328.42,349.56 328.05,348.77 325.73,348.02 325.29,345.02 325.84,345.40 326.31,348.21 327.81,348.02 329.54,348.53 330.60,350.05 331.86,348.69 331.08,346.91 331.96,347.49 332.46,346.46 336.62,344.89 336.21,342.62 337.09,343.97 336.93,345.08 334.44,346.85 333.03,347.29 333.62,348.76 332.16,350.46 332.41,351.72 330.29,352.48 330.89,353.17 330.45,354.37 326.78,356.74 325.19,356.90 329.97,356.99 333.64,358.63 336.44,355.90 339.59,355.26 343.47,355.87 345.86,356.78 348.67,357.01 350.29,357.97 356.52,356.06 357.59,354.84 357.30,353.44 357.97,350.95 358.95,349.87 357.65,349.80 356.40,348.72 355.45,347.36 355.55,345.71 358.17,342.36 360.17,341.70 361.98,340.42 363.81,337.88 363.64,337.01 363.06,336.21 361.54,336.79 359.02,336.58 357.50,335.45 358.39,334.08 360.95,332.39 361.12,331.37 356.76,332.38 355.56,332.18 354.36,331.22 353.58,329.55 354.24,327.18 355.92,327.39 356.92,326.21 356.66,325.19 357.16,325.16 355.56,324.26 352.72,323.63 352.19,322.27 353.54,320.71 352.23,319.11 346.96,317.10 346.56,315.01 347.46,313.54 349.00,312.62 348.08,311.72 346.82,311.87 345.60,310.61 346.87,311.80 348.07,311.64 349.10,312.45 346.74,315.08 347.17,317.09 352.20,318.78 353.84,320.36 353.11,318.84 354.46,320.76 353.38,322.71 353.73,323.55 354.96,324.07 356.97,324.11 358.12,325.26 357.86,326.72 355.82,327.96 354.40,329.70 354.75,329.55 355.67,331.07 356.13,330.84 356.64,331.54 360.67,329.96 362.27,330.15 363.13,330.79 363.57,333.03 362.65,332.49 361.43,333.05 359.68,334.65 359.91,335.59 359.95,335.72"/>
  </g>
  <g>
  </g>
  <g>
    <text x="1092" y="220" font-family="Helvetica, Arial, sans-serif" font-size="18" font-weight="700" fill="#16324f">Слои и длины</text>
    <line x1="1092" y1="258" x2="1126" y2="258" stroke="#7a8b99" stroke-width="1.80" stroke-opacity="0.85" stroke-dasharray="8 6"/>
    <text x="1138" y="256" font-family="Helvetica, Arial, sans-serif" font-size="13" fill="#16324f">Реальная загруженная</text>
    <text x="1138" y="271" font-family="Helvetica, Arial, sans-serif" font-size="13" fill="#16324f">полилиния (справочно)</text>
    <text x="1138" y="288" font-family="Helvetica, Arial, sans-serif" font-size="12" fill="#6b7a87">6391 км</text>
    <line x1="1092" y1="302" x2="1356" y2="302" stroke="#ddd6c8" stroke-width="1"/>
    <line x1="1092" y1="326" x2="1126" y2="326" stroke="#1f6f8b" stroke-width="3.60" stroke-opacity="1.00"/>
    <text x="1138" y="324" font-family="Helvetica, Arial, sans-serif" font-size="13" fill="#16324f">Упрощённая база модели</text>
    <text x="1138" y="339" font-family="Helvetica, Arial, sans-serif" font-size="13" fill="#16324f">(итерация 0)</text>
    <text x="1138" y="356" font-family="Helvetica, Arial, sans-serif" font-size="12" fill="#6b7a87">6135 км</text>
  </g>
  <g>
    <rect x="1092" y="398" width="264" height="108" rx="18" fill="#f8f6ef" stroke="#d6d0c4"/>
    <text x="1106" y="418" font-family="Helvetica, Arial, sans-serif" font-size="14" font-weight="700" fill="#16324f">Контроль геометрии</text>
    <text x="1106" y="450" font-family="Helvetica, Arial, sans-serif" font-size="12" fill="#4f6d7a">Сегменты &gt; 450 км</text>
    <text x="1342" y="450" text-anchor="end" font-family="Helvetica, Arial, sans-serif" font-size="13" font-weight="700" fill="#3f6b4b">0</text>
    <line x1="1106" y1="454" x2="1342" y2="454" stroke="#e7e1d5" stroke-width="1"/>
    <text x="1106" y="472" font-family="Helvetica, Arial, sans-serif" font-size="12" fill="#4f6d7a">Повторы ориентиров</text>
    <text x="1342" y="472" text-anchor="end" font-family="Helvetica, Arial, sans-serif" font-size="13" font-weight="700" fill="#3f6b4b">0</text>
    <line x1="1106" y1="476" x2="1342" y2="476" stroke="#e7e1d5" stroke-width="1"/>
    <text x="1106" y="494" font-family="Helvetica, Arial, sans-serif" font-size="12" fill="#4f6d7a">Автоисправления</text>
    <text x="1342" y="494" text-anchor="end" font-family="Helvetica, Arial, sans-serif" font-size="13" font-weight="700" fill="#3f6b4b">0</text>
  </g>
  <g>
    <rect x="1092" y="524" width="264" height="118" rx="18" fill="#fcfbf7" stroke="#d6d0c4"/>
    <text x="1106" y="544" font-family="Helvetica, Arial, sans-serif" font-size="14" font-weight="700" fill="#16324f">Длина по итерациям</text>
    <line x1="1106" y1="555" x2="1122" y2="555" stroke="#1f6f8b" stroke-width="2.2"/>
    <text x="1128" y="559" font-family="Helvetica, Arial, sans-serif" font-size="11" fill="#4f6d7a">Измерено</text>
    <line x1="1106" y1="568.00" x2="1342" y2="568.00" stroke="#ddd6c8" stroke-width="1"/>
    <line x1="1106" y1="594.00" x2="1342" y2="594.00" stroke="#ddd6c8" stroke-width="1"/>
    <line x1="1106" y1="620.00" x2="1342" y2="620.00" stroke="#ddd6c8" stroke-width="1"/>
    <line x1="1106" y1="620" x2="1342" y2="620" stroke="#8a9aa6" stroke-width="1.4"/>
    <text x="1106" y="562" font-family="Helvetica, Arial, sans-serif" font-size="11" fill="#6b7a87">6442</text>
    <text x="1106" y="634" font-family="Helvetica, Arial, sans-serif" font-size="11" fill="#6b7a87">5828</text>
    <text x="1106" y="632" font-family="Helvetica, Arial, sans-serif" font-size="11" fill="#6b7a87">0</text>
    <text x="1342" y="632" text-anchor="end" font-family="Helvetica, Arial, sans-serif" font-size="11" fill="#6b7a87">0</text>
    <polyline fill="none" stroke="#1f6f8b" stroke-width="2.4" stroke-linecap="round" stroke-linejoin="round" points="1106.00,594.00"/>
    <circle cx="1106.00" cy="594.00" r="2.8" fill="#1f6f8b"/>
    <rect x="1092" y="660" width="264" height="118" rx="18" fill="#fcfbf7" stroke="#d6d0c4"/>
    <text x="1106" y="680" font-family="Helvetica, Arial, sans-serif" font-size="14" font-weight="700" fill="#16324f">Размерность D</text>
    <line x1="1106" y1="691" x2="1122" y2="691" stroke="#8b3f5c" stroke-width="2.2"/>
    <text x="1128" y="695" font-family="Helvetica, Arial, sans-serif" font-size="11" fill="#4f6d7a">Оценка</text>
    <line x1="1204" y1="691" x2="1220" y2="691" stroke="#6f5f1f" stroke-width="2.2" stroke-dasharray="5 4"/>
    <text x="1226" y="695" font-family="Helvetica, Arial, sans-serif" font-size="11" fill="#4f6d7a">Теория</text>
    <line x1="1106" y1="704.00" x2="1342" y2="704.00" stroke="#ddd6c8" stroke-width="1"/>
    <line x1="1106" y1="730.00" x2="1342" y2="730.00" stroke="#ddd6c8" stroke-width="1"/>
    <line x1="1106" y1="756.00" x2="1342" y2="756.00" stroke="#ddd6c8" stroke-width="1"/>
    <line x1="1106" y1="756" x2="1342" y2="756" stroke="#8a9aa6" stroke-width="1.4"/>
    <text x="1106" y="698" font-family="Helvetica, Arial, sans-serif" font-size="11" fill="#6b7a87">1.275</text>
    <text x="1106" y="770" font-family="Helvetica, Arial, sans-serif" font-size="11" fill="#6b7a87">1.088</text>
    <text x="1106" y="768" font-family="Helvetica, Arial, sans-serif" font-size="11" fill="#6b7a87">0</text>
    <text x="1342" y="768" text-anchor="end" font-family="Helvetica, Arial, sans-serif" font-size="11" fill="#6b7a87">0</text>
    <polyline fill="none" stroke="#8b3f5c" stroke-width="2.4" stroke-linecap="round" stroke-linejoin="round" points="1106.00,752.41"/>
    <circle cx="1106.00" cy="752.41" r="2.8" fill="#8b3f5c"/>
    <polyline fill="none" stroke="#6f5f1f" stroke-width="2.4" stroke-linecap="round" stroke-linejoin="round" stroke-dasharray="5 4" points="1106.00,707.59"/>
    <circle cx="1106.00" cy="707.59" r="2.8" fill="#6f5f1f"/>
  </g>
  <g>
  </g>
  <g>
    <rect x="1092" y="822" width="264" height="214" rx="18" fill="#f8f6ef" stroke="#d6d0c4"/>
    <text x="1106" y="842" font-family="Helvetica, Arial, sans-serif" font-size="14" font-weight="700" fill="#16324f">Сводка</text>
    <text x="1106" y="864" font-family="Helvetica, Arial, sans-serif" font-size="12" fill="#4f6d7a">Реальная линия: 6391 км, 9635 т.</text>
    <line x1="1106" y1="884" x2="1342" y2="884" stroke="#e7e1d5" stroke-width="1"/>
    <text x="1106" y="892" font-family="Helvetica, Arial, sans-serif" font-size="12" fill="#4f6d7a">База модели: 6135 км, 3071 т.</text>
    <text x="1106" y="908" font-family="Helvetica, Arial, sans-serif" font-size="12" fill="#4f6d7a">(-4.0% к реальной)</text>
    <line x1="1106" y1="928" x2="1342" y2="928" stroke="#e7e1d5" stroke-width="1"/>
    <text x="1106" y="936" font-family="Helvetica, Arial, sans-serif" font-size="12" fill="#4f6d7a">Текущий слой: 6135 км, 3071 т.</text>
    <text x="1106" y="952" font-family="Helvetica, Arial, sans-serif" font-size="12" fill="#4f6d7a">расчёт / 1800 т. SVG</text>
    <line x1="1106" y1="972" x2="1342" y2="972" stroke="#e7e1d5" stroke-width="1"/>
    <text x="1106" y="980" font-family="Helvetica, Arial, sans-serif" font-size="12" fill="#4f6d7a">D: 1.10049, R²=0.9999, стаб=true</text>
    <line x1="1106" y1="1000" x2="1342" y2="1000" stroke="#e7e1d5" stroke-width="1"/>
    <text x="1106" y="1008" font-family="Helvetica, Arial, sans-serif" font-size="12" fill="#4f6d7a">Эрозия: σ=10 м, seed=42</text>
  </g>
  <g>
    <line x1="56" y1="994" x2="479" y2="994" stroke="#16324f" stroke-width="3"/>
    <line x1="56" y1="987" x2="56" y2="1001" stroke="#16324f" stroke-width="6"/>
    <line x1="479" y1="987" x2="479" y2="1001" stroke="#16324f" stroke-width="6"/>
    <text x="56" y="980" font-family="Helvetica, Arial, sans-serif" font-size="13" fill="#16324f">Масштаб ≈ 500 км</text>  </g>
</svg>
