<?xml version="1.0" encoding="UTF-8"?>
<svg xmlns="http://www.w3.org/2000/svg" width="1440" height="1117" viewBox="0 0 1440 1117">
  <rect width="100%" height="100%" fill="#f7f4ea"/>
  <rect x="20" y="20" width="1400" height="1077" rx="28" fill="#fcfbf7" stroke="#d6d0c4"/>
  <rect x="1072" y="20" width="304" height="1077" rx="24" fill="#f0ece2" stroke="#d6d0c4"/>
  <g>
  <text x="56" y="58" font-family="Helvetica, Arial, sans-serif" font-size="30" font-weight="700" fill="#16324f">Фрактальная размерность (органическая модель) — итерация</text>
  <text x="56" y="92" font-family="Helvetica, Arial, sans-serif" font-size="30" font-weight="700" fill="#16324f">1</text>
  <text x="56" y="142" font-family="Helvetica, Arial, sans-serif" font-size="14" fill="#4f6d7a">Органическая модель: seed=42, угол ±18°, высота ±25%; серая пунктирная линия — реальная линия, цветные слои — от упрощённой</text>
  <text x="56" y="160" font-family="Helvetica, Arial, sans-serif" font-size="14" fill="#4f6d7a">базы</text>
  <text x="56" y="186" font-family="Helvetica, Arial, sans-serif" font-size="13" fill="#6b7a87">SVG содержит исходную полилинию, фрактальные итерации, масштаб и длину по слоям.</text>
  </g>
  <g>
    <polyline fill="none" stroke="#7a8b99" stroke-width="1.80" stroke-opacity="0.85" stroke-linejoin="round" stroke-linecap="round" stroke-dasharray="8 6" points="359.85,332.89 361.31,333.30 361.88,332.79 363.50,332.55 363.21,332.35 364.56,332.36 365.71,334.21 364.72,335.91 364.83,337.25 362.87,338.24 362.50,338.65 363.01,338.84 362.19,339.47 360.66,339.63 360.65,341.88 358.73,343.07 359.69,343.75 358.93,344.41 360.17,343.99 359.52,345.83 360.66,346.19 362.40,348.37 361.91,350.36 362.59,351.73 365.76,354.11 367.49,354.79 369.98,354.66 371.27,355.17 373.47,358.70 380.86,356.32 383.77,357.46 384.89,358.97 390.08,359.34 395.57,357.79 396.13,356.23 395.84,357.71 398.25,356.16 400.72,356.06 399.34,355.46 399.60,354.92 400.55,354.79 400.82,355.17 401.54,354.51 402.48,354.49 402.12,354.84 402.61,354.82 402.78,355.40 402.09,355.16 401.37,355.56 400.95,355.19 400.99,356.03 403.78,355.53 403.74,355.00 404.20,355.31 409.14,351.78 412.95,350.71 417.62,350.63 426.04,346.74 429.89,346.12 433.98,346.07 441.09,343.20 450.59,343.31 452.30,344.00 455.27,343.35 456.75,343.92 455.33,344.95 451.00,345.74 440.88,343.56 434.55,346.37 426.23,347.10 419.39,350.59 415.27,351.43 411.01,351.67 408.92,352.36 406.22,354.17 405.00,355.23 405.49,355.51 404.64,355.53 400.33,359.99 398.32,359.91 395.06,362.25 391.14,362.33 386.57,363.55 383.33,363.30 385.76,364.07 385.13,364.63 385.76,364.76 388.65,363.46 391.42,362.86 392.81,363.10 391.40,364.42 388.71,365.05 384.67,364.84 380.10,363.85 377.31,363.89 375.04,363.27 377.00,363.42 374.12,361.91 373.67,362.02 374.46,362.40 374.44,363.05 371.27,362.49 365.47,363.52 365.31,362.82 365.10,363.37 363.31,363.20 357.65,361.81 357.46,361.12 357.98,360.94 356.26,360.46 357.08,361.36 355.45,361.62 350.60,360.70 347.40,359.40 341.33,360.05 335.59,360.06 332.67,358.98 330.96,357.33 333.14,359.66 339.49,363.37 344.07,367.07 343.43,366.52 344.36,366.77 343.29,366.27 343.67,364.72 344.61,363.92 346.88,363.34 356.27,365.13 360.84,366.67 359.12,365.90 361.46,366.27 359.97,365.77 360.82,365.85 362.09,366.43 360.76,366.37 361.88,366.63 364.08,365.67 365.78,366.37 366.54,368.23 367.99,369.49 367.57,370.48 366.32,370.82 365.60,370.44 364.43,372.06 361.24,373.14 357.09,373.82 356.52,373.78 358.80,373.57 353.02,373.71 349.38,374.53 349.66,374.72 347.91,375.52 347.53,376.37 348.10,376.10 348.78,376.52 349.36,377.72 349.06,378.45 350.02,377.76 349.85,377.36 350.31,377.87 351.20,377.61 351.48,378.40 352.49,377.38 352.91,377.62 352.41,377.89 353.34,377.76 353.64,378.21 354.98,377.73 355.41,378.47 356.92,376.66 356.45,376.13 356.21,376.68 355.78,376.55 355.67,375.23 356.91,375.00 356.88,376.04 359.93,376.39 359.25,376.37 360.30,376.71 360.55,377.69 361.20,377.89 360.58,377.74 360.78,378.09 361.11,378.38 361.67,378.11 361.21,378.38 361.99,378.96 363.55,379.10 364.08,378.46 363.85,379.22 364.71,379.44 365.50,379.56 365.06,379.16 365.58,378.95 365.95,379.65 367.10,378.96 368.66,379.97 368.48,379.54 369.13,379.53 370.07,381.32 370.82,381.30 370.64,381.62 371.77,382.29 372.75,382.40 372.64,382.06 373.10,382.69 375.08,382.71 377.45,384.61 377.01,384.04 377.76,384.11 377.78,383.66 378.70,383.50 380.16,384.00 380.72,384.98 380.15,385.11 379.98,384.58 379.56,384.95 380.10,386.21 379.28,387.36 367.42,384.86 391.61,390.24 400.70,391.92 400.91,390.84 404.74,389.69 407.62,389.18 409.59,389.62 413.56,389.06 415.98,388.08 419.96,388.89 423.09,388.40 425.48,389.28 433.41,388.84 433.85,388.68 432.73,388.59 432.56,388.12 433.55,387.02 433.05,386.05 434.29,385.76 436.15,385.95 437.20,387.22 440.73,387.92 444.04,385.80 444.83,384.58 444.24,383.18 445.07,383.65 446.74,381.76 445.44,384.59 446.96,385.92 445.70,386.63 444.95,388.53 445.29,389.09 445.86,389.18 445.66,387.81 446.48,387.36 448.44,386.95 450.75,387.34 452.22,388.06 452.71,388.95 452.01,390.10 450.53,389.81 450.78,391.13 452.89,391.19 452.37,391.02 452.72,389.32 453.94,388.60 454.86,389.81 456.69,390.31 456.35,391.29 460.02,394.26 460.73,394.28 460.12,394.00 460.35,393.57 461.77,393.53 462.86,392.95 465.47,394.43 466.53,394.23 464.81,392.76 465.17,391.25 466.43,390.80 469.89,391.26 466.48,389.69 466.05,388.15 466.82,388.52 468.07,388.27 468.47,387.12 469.87,387.00 470.68,385.68 471.70,385.71 472.80,386.63 474.99,391.05 473.78,391.64 473.12,392.73 474.31,398.71 473.34,399.99 474.66,400.24 474.76,399.77 476.07,399.38 481.56,399.57 482.43,399.86 482.88,400.78 482.19,401.25 480.59,401.32 478.66,402.61 478.18,402.28 477.62,402.52 477.75,406.90 476.05,405.03 474.84,404.86 473.04,403.78 470.79,405.30 469.93,405.19 468.30,407.46 467.63,406.74 465.58,407.15 464.99,406.17 464.14,406.27 459.98,407.79 459.96,408.39 459.67,408.01 459.41,408.39 459.63,409.09 459.25,408.40 455.88,410.71 449.45,412.88 446.19,412.97 444.07,411.96 442.87,410.73 442.14,413.88 441.03,415.25 436.20,416.30 428.60,419.18 424.45,421.30 419.69,424.04 419.45,424.47 420.76,424.52 421.16,425.11 419.93,426.41 420.15,426.83 419.38,426.15 418.42,426.50 418.37,426.86 419.09,426.77 419.23,427.49 415.74,428.19 418.25,426.58 417.28,425.95 412.11,428.18 411.99,429.11 410.72,429.47 411.23,429.06 410.72,428.59 403.52,431.44 400.39,433.22 396.36,437.15 397.07,437.90 398.27,438.06 398.88,438.96 397.40,440.57 408.11,442.63 413.30,439.88 416.72,439.10 425.12,439.49 428.39,440.61 430.40,441.86 430.54,441.52 426.52,439.68 429.48,440.15 430.55,439.57 430.84,440.46 432.09,439.78 432.34,439.08 434.66,438.88 434.76,438.14 435.98,437.68 438.14,437.87 438.02,437.49 440.39,436.45 440.83,435.72 441.62,435.81 442.23,434.54 443.68,434.30 444.29,433.61 445.44,434.00 443.76,435.07 442.96,434.65 441.67,436.41 439.43,437.40 440.49,437.71 439.19,437.69 438.33,438.93 437.12,438.94 436.94,438.47 435.84,438.82 434.70,440.25 436.22,440.29 436.32,440.64 435.63,441.08 435.43,440.64 434.90,441.01 433.48,440.88 434.16,441.79 433.40,441.81 433.07,443.13 430.76,441.98 436.21,445.42 439.17,448.27 440.97,449.13 441.76,450.27 444.09,451.46 446.83,452.05 448.96,453.89 450.60,453.90 452.22,452.17 455.36,452.11 457.51,450.63 459.52,450.89 461.54,451.80 465.33,454.19 469.53,458.19 472.18,463.41 472.46,465.21 471.97,465.68 472.99,469.40 472.63,472.61 471.64,474.39 470.25,474.92 469.00,474.72 468.74,475.13 468.78,476.71 467.62,478.06 468.59,482.29 468.46,486.19 467.78,487.98 466.48,488.48 466.00,489.29 469.59,489.31 471.57,490.10 467.60,489.85 467.30,490.94 467.16,489.75 466.71,490.03 465.87,489.56 465.26,490.31 463.62,490.16 463.46,490.88 463.19,490.21 462.09,490.37 461.86,491.27 461.26,490.62 460.08,491.40 461.07,492.86 459.67,491.81 459.39,493.40 459.18,492.53 458.72,493.03 458.78,491.58 457.14,492.12 459.65,494.43 463.13,496.23 464.47,497.91 465.32,497.50 469.13,498.59 471.82,498.02 473.20,498.56 474.55,499.62 475.48,502.75 477.09,503.31 479.42,503.09 481.44,505.39 484.14,505.43 489.75,504.03 497.17,505.10 500.28,504.00 501.44,504.12 503.62,502.98 507.74,502.57 510.58,498.07 516.15,497.29 518.01,494.97 519.84,494.18 522.63,494.50 522.77,492.15 524.22,491.53 524.55,490.17 527.34,485.99 530.30,483.36 535.25,481.58 536.56,480.66 538.79,480.19 540.02,479.30 550.61,476.33 556.25,476.43 558.06,475.97 560.66,476.41 561.24,475.45 564.61,474.71 566.02,475.45 566.81,475.06 568.86,475.44 570.21,476.52 569.88,477.40 572.30,478.01 575.59,475.92 575.96,473.45 577.61,470.95 583.09,469.37 583.85,468.09 583.47,467.04 584.07,466.46 585.39,466.05 586.60,466.57 588.58,466.02 590.49,466.39 590.60,466.89 592.80,467.54 593.13,467.00 591.77,466.93 590.68,465.63 590.84,464.93 591.42,464.34 595.53,463.07 592.79,461.85 593.49,459.79 597.07,457.23 603.00,455.39 608.32,455.37 615.94,457.66 621.47,460.99 621.62,462.47 623.01,463.05 622.80,463.67 623.49,464.02 628.41,462.58 631.27,463.09 633.31,462.22 634.53,461.07 636.37,460.56 649.58,462.04 651.39,460.53 655.13,459.96 659.59,459.96 664.38,458.03 665.02,457.11 677.13,454.42 682.71,455.80 684.05,456.55 689.57,455.94 695.28,456.84 711.67,461.67 719.61,465.57 723.39,469.26 723.41,470.50 721.95,471.32 724.88,474.14 725.01,475.70 727.71,478.53 728.03,480.03 727.41,480.26 729.04,480.68 729.52,481.54 734.54,484.60 738.93,485.83 739.87,485.69 743.64,486.54 746.00,486.32 749.12,487.44 751.72,487.61 755.53,486.69 756.70,485.63 755.28,484.46 755.03,482.69 754.48,482.71 755.35,481.94 755.71,482.30 756.08,481.95 756.09,482.73 757.14,482.65 756.46,483.03 757.37,482.57 758.10,482.85 758.08,483.20 758.84,483.25 758.61,483.84 759.41,483.90 761.41,485.59 763.68,486.49 764.87,487.91 763.08,488.90 764.96,490.82 768.42,492.72 768.43,493.12 771.44,493.68 771.80,493.23 771.24,492.17 772.71,491.98 773.88,492.53 774.58,493.84 772.78,494.35 778.01,497.62 779.74,500.59 781.23,501.24 783.15,503.33 784.48,503.76 789.25,503.97 792.18,505.26 792.62,505.91 794.86,506.59 797.63,506.18 807.89,507.90 810.32,509.03 811.30,509.02 812.23,509.78 816.80,510.62 817.84,511.23 819.98,511.20 822.99,512.52 828.10,518.24 829.40,518.92 831.03,518.90 834.42,520.25 837.00,520.60 838.73,522.30 839.48,524.95 842.19,525.26 842.10,525.70 843.16,526.01 847.23,530.06 857.04,535.40 859.35,538.13 860.77,538.68 864.18,541.32 868.55,546.01 876.39,551.55 878.19,554.00 883.82,556.43 885.41,559.69 886.51,560.65 892.86,563.25 896.60,565.40 899.51,570.97 901.27,572.10 904.30,573.08 910.12,573.64 915.64,576.10 921.27,577.78 922.77,581.25 923.45,586.25 927.70,589.18 929.47,587.78 931.47,587.38 936.49,589.68 939.98,589.60 943.97,592.96 948.24,592.28 951.51,593.27 955.67,593.18 962.83,593.95 964.23,594.72 970.11,600.34 970.76,600.36 971.89,599.39 975.16,599.42 977.61,602.43 979.49,609.73 982.41,612.88 984.40,613.24 986.38,612.48 988.07,612.66 991.97,613.57 993.60,614.43 998.94,615.29 1000.82,616.75 1000.98,616.26 1001.00,616.69 1001.82,616.64 1002.48,617.23 1004.32,620.14 1007.02,626.75 1009.93,640.21 1010.26,639.56 1010.11,640.37 1012.30,641.43 1014.67,646.44 1015.73,650.26 1014.99,652.21 1015.54,652.66 1019.06,653.46 1022.15,655.04 1024.31,654.45 1024.50,654.13 1023.54,653.96 1023.40,653.49 1025.67,652.24 1028.01,653.16 1030.55,652.36 1031.82,653.98 1032.91,653.12 1034.71,653.67 1037.05,652.68 1037.35,653.46 1038.64,653.11 1040.82,654.08 1041.31,654.82 1042.08,654.13 1044.10,654.20 1045.49,654.96 1047.08,654.80 1048.04,655.87 1050.91,655.56 1052.22,656.21 1053.30,657.71 1057.81,659.36 1059.23,659.47 1060.37,658.09 1063.23,658.61 1062.90,657.31 1063.71,656.97 1063.02,657.37 1063.45,658.61 1062.05,658.76 1060.40,658.23 1059.84,659.46 1058.44,659.71 1053.35,658.05 1052.24,656.38 1051.22,655.96 1047.59,656.07 1046.96,654.98 1045.51,655.16 1044.19,654.38 1042.43,654.37 1041.28,655.00 1038.67,653.36 1037.27,653.64 1036.86,652.81 1034.72,654.03 1032.90,653.31 1031.80,654.25 1030.16,652.54 1028.56,653.48 1025.17,652.64 1023.75,653.78 1024.99,653.84 1024.88,654.66 1022.10,655.42 1018.84,653.47 1016.49,653.38 1015.70,654.51 1016.68,655.99 1016.05,656.59 1019.64,660.44 1020.38,660.04 1019.21,657.17 1023.34,657.41 1024.19,658.24 1023.47,658.41 1023.09,659.56 1020.43,660.15 1022.10,660.90 1021.64,662.17 1021.10,661.87 1021.56,662.63 1020.41,660.22 1020.41,660.82 1019.86,660.70 1023.12,665.33 1023.49,664.75 1024.89,676.05 1024.45,679.45 1020.35,687.24 1017.35,690.30 1015.98,690.54 1015.31,689.85 1011.96,692.50 1010.72,694.22 1010.26,697.45 1007.57,701.66 1004.33,703.11 1000.14,708.09 999.42,708.56 995.54,709.08 993.19,710.39 990.30,711.17 988.04,713.16 984.50,714.85 982.51,715.27 980.86,716.90 975.29,720.04 967.58,722.36 963.82,721.95 958.87,723.38 956.46,725.12 953.40,728.37 951.40,729.09 950.83,728.84 945.45,731.07 943.51,731.22 941.55,732.43 940.02,732.42 939.07,731.74 939.82,731.66 938.38,731.53 933.45,732.56 930.59,732.58 921.81,738.44 917.24,740.07 915.15,740.20 911.09,739.90 907.11,737.04 905.21,737.20 904.17,736.67 900.10,737.37 895.06,737.16 893.20,735.30 889.82,734.13 887.50,734.28 887.02,733.72 885.78,733.49 882.06,734.64 880.82,734.52 879.82,733.79 875.40,732.55 870.01,728.10 865.45,727.05 862.11,728.91 856.34,730.93 854.15,731.11 852.34,730.54 850.98,729.27 848.10,728.95 844.99,730.84 840.95,731.75 837.68,732.10 836.88,731.72 833.28,731.77 832.65,731.36 828.44,733.53 825.37,734.00 824.70,733.54 817.83,737.63 815.12,737.73 813.01,736.04 811.72,736.10 809.53,737.86 805.33,739.93 802.01,740.16 801.24,739.81 798.58,740.29 796.64,740.02 795.87,739.43 793.62,740.44 791.34,739.72 788.54,738.01 782.28,738.44 781.79,738.19 782.17,738.07 779.65,737.43 778.28,737.48 769.55,735.62 765.10,735.33 765.12,735.78 764.75,735.24 761.64,735.29 760.47,733.29 756.62,732.59 754.90,730.74 754.12,729.53 755.12,726.43 754.12,726.63 752.73,726.21 749.57,726.60 748.08,725.06 746.13,726.43 743.62,729.56 743.12,730.99 742.03,731.76 738.25,732.88 736.24,732.39 735.03,731.61 734.36,730.10 730.45,728.92 728.75,727.32 721.81,725.94 721.33,725.42 721.72,724.46 711.06,724.20 705.35,722.45 704.09,721.64 703.62,720.88 704.17,720.87 703.11,719.85 703.60,719.89 703.67,717.39 702.44,715.55 693.51,711.54 688.89,710.44 681.60,709.70 679.06,708.53 678.82,709.64 678.38,708.38 676.27,709.50 675.89,710.04 676.30,710.38 672.67,714.86 670.32,716.19 666.00,717.68 661.35,717.38 660.38,716.97 659.78,716.06 660.15,715.87 658.00,715.23 657.86,714.31 657.75,714.93 657.16,714.46 657.44,713.20 658.36,713.33 650.76,710.48 649.95,709.10 643.19,703.02 642.35,700.28 643.22,696.62 642.14,692.09 638.12,687.85 631.21,684.62 618.73,689.07 609.60,691.26 605.04,691.66 598.51,690.55 594.76,688.11 585.52,685.95 584.52,685.18 584.67,684.44 580.85,682.46 579.83,680.73 580.76,680.05 578.55,678.93 577.39,677.48 575.81,676.61 575.25,674.89 574.01,674.05 572.85,672.03 573.22,669.02 574.97,665.81 576.67,665.10 580.55,665.87 581.00,665.38 579.55,663.88 578.28,663.93 575.39,665.10 571.53,664.76 569.75,663.90 569.50,663.14 570.23,662.67 569.60,662.66 569.79,662.15 567.89,660.45 563.02,660.09 563.29,661.70 560.54,665.03 558.21,666.84 553.36,669.70 548.06,670.49 536.94,670.32 533.50,669.52 532.27,668.29 531.32,669.00 528.50,668.98 525.73,669.96 523.08,670.38 522.08,669.99 521.54,670.48 519.34,670.70 511.03,669.45 510.65,668.99 505.60,668.13 500.67,667.90 492.56,668.61 484.39,668.53 483.54,667.94 481.73,668.24 473.54,667.72 462.32,665.90 459.84,666.16 457.98,665.58 454.46,665.34 449.39,667.41 445.96,668.08 443.70,668.96 443.00,669.71 433.43,671.63 432.71,672.44 430.35,672.99 430.03,673.45 430.59,673.45 429.68,674.08 422.98,675.67 422.20,676.24 416.45,676.23 415.77,676.94 412.41,676.97 411.80,677.66 410.24,677.73 409.74,678.18 403.22,678.39 402.70,679.48 397.69,680.14 396.77,681.50 395.32,682.04 394.62,681.87 393.06,682.76 392.05,684.32 390.42,684.13 390.47,683.62 389.83,683.36 389.95,683.75 388.65,683.99 388.53,684.68 387.04,684.77 386.96,685.45 384.53,685.27 383.13,685.66 379.65,687.78 380.01,688.11 379.16,687.97 379.50,688.85 379.07,689.34 375.71,691.00 376.12,691.58 373.59,693.50 367.51,694.99 368.17,695.75 367.35,695.15 365.96,695.47 363.54,697.38 359.22,698.33 357.63,699.11 356.85,698.89 357.19,699.11 353.42,700.50 352.30,701.65 349.54,702.86 349.04,703.30 349.47,703.58 347.38,703.55 346.80,704.64 342.46,706.67 339.67,707.38 338.29,708.43 332.36,709.65 329.36,710.69 327.87,712.14 325.83,712.14 324.74,713.02 323.41,712.95 322.84,714.44 324.80,715.64 324.57,716.50 323.58,715.96 324.02,719.91 318.36,725.57 313.20,727.32 304.45,728.04 301.13,729.00 297.22,729.38 290.52,729.41 279.88,728.47 272.87,725.59 259.65,723.84 252.70,721.83 251.14,720.73 250.30,720.99 247.61,720.40 247.21,719.91 245.71,721.71 243.94,721.70 244.52,722.26 243.70,722.37 244.07,723.37 241.74,723.39 241.66,724.44 240.90,723.92 240.87,724.33 239.14,724.99 236.72,724.61 235.62,725.20 235.49,724.81 231.93,725.27 230.68,724.83 230.14,725.30 229.90,724.92 227.51,725.20 226.46,724.78 222.74,724.59 220.39,724.88 219.42,724.59 218.62,725.00 213.15,723.46 210.67,723.83 208.45,723.21 206.76,723.36 202.38,721.98 201.76,722.22 202.29,722.18 201.85,722.69 200.97,722.82 195.39,721.85 187.54,719.76 185.24,720.04 181.01,719.32 178.63,718.76 178.53,718.40 177.54,718.91 175.70,718.71 175.51,719.41 172.54,719.14 172.13,719.59 166.95,717.71 166.44,717.11 166.08,717.55 163.73,716.89 163.43,717.66 161.35,717.74 156.03,715.93 154.14,715.99 152.67,715.51 152.62,715.09 150.31,714.93 148.46,713.68 146.63,713.88 146.52,713.16 143.36,712.11 142.76,712.40 140.28,711.38 139.85,710.78 139.11,711.11 136.25,710.63 131.65,708.39 112.03,700.78 109.24,698.89 108.43,698.90 108.57,698.50 106.13,696.75 105.95,695.66 103.79,695.17 103.32,693.92 100.14,691.64 99.51,689.98 100.75,689.12 100.32,688.35 97.96,686.76 96.40,684.89 96.42,683.40 93.35,680.46 92.18,677.91 92.16,675.80 91.65,675.82 94.55,673.84 96.42,674.78 97.50,674.57 96.59,672.53 96.99,670.39 96.53,669.25 95.41,668.42 96.05,667.85 95.89,667.08 94.24,665.18 94.67,664.86 93.92,663.87 92.61,663.08 93.06,662.43 91.63,662.28 90.00,659.66 88.53,659.81 87.76,659.23 87.80,658.25 86.60,657.05 85.22,656.62 85.11,655.81 84.67,656.14 84.33,655.50 83.64,655.48 84.12,654.96 82.55,653.97 82.90,653.54 81.42,653.27 81.42,652.70 80.42,652.07 79.57,652.18 78.50,651.25 79.04,650.62 76.69,649.69 76.97,648.83 77.79,648.76 77.00,648.24 76.87,647.39 78.29,646.77 78.02,646.42 79.75,645.95 78.29,645.07 78.91,644.80 79.03,643.98 77.24,644.15 76.86,644.74 76.01,644.55 74.12,642.15 74.02,641.61 74.95,641.08 73.92,640.80 73.74,640.03 74.01,639.65 74.97,639.68 75.31,638.99 73.70,639.06 73.22,637.85 72.54,637.92 72.73,638.32 71.60,639.05 70.60,638.92 69.54,638.03 69.57,637.65 70.37,637.59 69.74,637.05 70.06,636.24 68.91,636.35 68.57,635.65 68.23,636.57 67.56,636.70 65.63,635.38 64.85,636.08 65.26,636.58 64.08,636.59 62.47,635.81 61.72,637.20 60.55,637.75 58.42,635.48 57.60,636.55 56.00,635.53 56.87,633.67 57.15,634.21 57.38,633.72 57.93,634.05 58.41,633.74 58.68,634.13 59.10,631.10 61.26,629.05 62.41,628.93 63.76,629.51 65.52,628.54 66.56,629.02 67.61,628.54 68.91,628.88 69.29,629.49 70.03,629.21 68.76,627.24 69.11,624.15 69.84,623.50 71.78,623.77 72.77,622.65 74.02,623.04 74.51,622.33 76.11,622.14 74.97,622.06 74.12,621.32 74.29,619.83 75.13,618.85 86.88,619.35 86.07,615.87 86.91,614.54 85.63,609.97 86.26,609.00 87.06,608.96 86.58,604.76 87.29,603.88 85.87,598.67 86.04,596.69 87.75,594.91 90.00,587.57 87.92,587.38 85.01,585.84 81.04,586.87 73.66,585.90 71.80,586.53 71.37,586.24 71.02,586.68 71.22,586.27 70.44,586.70 69.81,586.26 72.62,585.72 76.34,585.83 77.71,586.27 78.79,585.62 79.18,585.91 79.66,585.32 79.95,585.69 82.25,585.98 84.00,584.94 85.32,584.95 86.64,585.97 87.58,586.26 88.11,585.92 88.33,586.30 88.44,585.50 89.70,584.90 91.87,584.33 93.42,584.57 94.67,583.81 94.88,582.74 95.52,582.46 99.56,573.97 103.87,571.78 107.02,572.26 114.49,570.88 117.69,571.19 121.71,572.95 124.21,573.47 125.11,574.81 125.44,573.35 127.29,571.33 128.57,571.04 130.74,569.36 133.21,565.98 134.75,562.64 132.23,559.22 132.76,556.05 131.72,553.35 131.81,552.11 132.67,551.50 132.81,545.81 133.76,545.13 132.82,545.57 132.09,544.96 130.91,545.13 130.53,544.56 130.07,544.95 129.28,544.60 130.19,544.82 130.47,544.33 130.97,544.93 131.21,544.64 132.80,545.02 133.34,544.47 133.57,542.46 134.82,541.58 135.08,538.45 136.65,536.71 136.48,535.17 138.77,532.43 136.79,526.37 137.15,525.87 140.19,525.64 140.64,524.57 140.12,525.52 138.86,525.44 139.37,524.68 139.14,525.07 138.76,524.58 138.71,525.07 138.50,524.19 137.88,524.77 137.72,524.17 137.50,525.20 135.74,524.73 137.20,524.56 137.38,523.98 136.80,523.62 137.73,522.88 137.63,524.01 137.99,522.77 138.46,523.89 137.92,524.04 139.40,524.32 138.18,522.74 138.57,521.97 137.47,522.22 138.72,521.38 137.11,521.50 137.85,521.18 137.10,521.03 137.84,520.95 137.66,520.10 141.45,524.25 138.16,520.57 138.59,520.00 137.97,519.21 138.11,518.00 137.22,516.94 137.59,516.67 136.89,516.81 136.35,516.34 135.59,514.03 135.60,512.43 136.74,509.67 140.26,509.65 136.07,509.56 137.05,509.48 137.28,509.05 137.69,509.40 139.05,509.10 138.35,508.96 138.66,508.16 139.32,508.30 139.30,508.91 139.89,508.44 140.57,509.83 140.30,508.05 140.65,508.25 141.54,506.23 150.87,497.79 158.59,487.69 162.71,483.85 167.60,480.57 171.76,479.05 178.12,477.65 198.72,475.81 199.88,475.09 200.86,475.28 201.94,474.76 202.92,472.27 200.03,470.90 197.14,468.28 193.89,466.67 191.84,466.94 192.58,466.22 192.06,465.94 190.15,465.89 187.48,467.72 185.94,467.21 186.98,466.13 186.98,464.97 185.04,466.86 184.73,465.06 183.53,465.88 182.32,465.99 182.48,464.97 180.46,463.59 181.66,462.64 180.02,462.68 179.43,462.28 180.02,461.39 177.58,461.48 173.63,460.70 176.06,459.15 175.70,458.29 173.77,456.90 170.27,456.79 169.97,457.67 171.90,457.57 172.16,457.96 171.86,458.54 169.86,459.18 164.74,456.08 160.75,455.38 158.29,454.24 155.14,453.63 153.93,451.59 151.92,450.50 149.67,450.41 147.42,451.72 146.77,450.98 146.99,449.85 144.37,449.35 143.55,448.62 141.37,449.01 136.56,447.71 131.40,447.27 127.09,445.58 124.09,444.66 123.52,444.87 118.68,443.20 116.20,441.98 113.88,438.35 112.54,437.27 112.81,435.16 112.24,434.01 107.99,432.25 112.62,433.65 113.45,437.30 117.50,442.20 126.45,444.83 132.17,447.07 137.24,447.31 142.11,448.70 147.16,447.48 146.68,446.48 144.90,446.08 144.25,444.67 144.96,444.18 147.38,443.88 147.97,442.88 146.24,441.97 147.61,441.07 149.14,441.18 150.91,442.42 153.00,442.58 155.13,444.20 157.40,444.86 158.06,444.04 157.62,442.68 160.14,439.85 163.92,439.38 166.53,437.79 168.24,437.64 169.53,438.04 172.73,437.11 176.81,433.77 180.73,435.02 183.23,433.53 186.18,434.28 193.54,433.13 195.56,433.29 197.71,434.44 198.91,436.47 202.19,437.45 205.55,434.76 209.77,433.68 210.03,432.10 209.08,432.34 209.11,432.99 207.68,432.37 207.26,433.26 206.66,432.63 206.94,432.16 205.78,431.74 205.17,432.23 205.82,432.71 205.13,433.44 203.97,432.71 203.80,431.86 202.83,432.16 202.02,431.39 202.37,431.04 202.88,431.83 202.69,431.18 203.51,431.10 203.38,429.84 204.97,428.20 207.95,425.72 212.53,422.94 211.55,423.40 211.30,422.62 211.88,422.56 211.08,422.42 210.96,421.90 213.24,422.41 213.82,421.16 214.43,421.16 214.83,420.54 214.25,420.04 217.57,420.36 213.26,422.66 218.99,419.76 237.80,408.65 221.64,417.95 220.23,418.31 217.55,417.48 216.90,417.86 214.54,414.31 215.24,414.61 217.25,413.32 217.23,412.76 217.60,413.27 220.74,413.07 220.86,410.71 221.56,410.95 222.54,413.23 224.46,414.07 223.06,411.47 223.79,407.28 224.06,407.05 224.33,410.71 225.90,411.86 227.04,408.76 226.99,406.06 226.13,404.80 227.53,402.81 228.79,403.71 229.04,406.49 231.04,407.47 233.02,409.99 233.82,408.43 234.11,409.01 234.98,408.66 235.49,407.23 235.01,406.10 236.67,404.55 236.23,403.50 236.58,402.16 237.11,402.18 238.19,405.09 238.36,408.40 243.59,405.59 249.06,400.93 250.64,399.24 249.35,400.35 248.40,398.30 248.97,398.32 251.36,396.21 253.58,395.64 254.76,394.65 253.76,392.78 255.15,393.88 256.69,392.75 256.32,394.37 250.64,399.21 260.77,391.31 258.89,391.89 258.00,391.24 256.30,388.16 254.36,386.76 254.06,384.12 254.54,383.97 252.77,382.66 251.39,382.93 249.70,382.60 249.51,381.96 248.31,381.40 244.24,380.63 238.70,377.31 235.64,373.98 235.93,372.87 238.33,370.53 241.90,369.45 244.59,369.91 245.22,370.65 244.01,372.34 245.65,372.87 246.96,375.82 247.80,376.21 249.51,374.25 249.86,372.72 249.20,371.15 249.93,370.66 250.65,371.22 251.16,373.44 250.70,375.69 251.17,376.36 253.12,377.73 256.60,378.28 258.35,380.11 256.93,382.39 257.27,383.09 258.83,384.61 263.26,386.83 262.76,388.82 260.91,390.24 260.80,391.13 263.45,387.92 266.62,385.58 274.74,375.13 273.30,374.71 272.74,373.43 271.72,373.74 271.19,373.35 271.75,373.56 272.16,373.16 272.01,370.40 272.34,372.73 274.59,374.68 277.01,372.18 279.65,371.02 281.02,366.26 280.18,363.16 279.89,363.58 279.28,363.34 279.49,362.98 278.93,363.13 278.16,362.24 278.95,360.12 281.58,358.77 283.48,358.66 284.95,359.23 289.49,357.68 297.13,356.03 297.28,353.93 296.34,351.88 297.52,352.14 298.21,354.97 297.66,355.85 308.11,353.91 312.63,355.14 315.65,354.96 319.92,355.81 320.37,354.74 321.30,354.27 324.10,354.52 324.86,353.67 324.39,353.54 324.64,352.50 327.55,351.46 328.37,349.83 329.20,349.67 329.38,347.07 328.33,346.72 327.97,345.94 325.63,345.19 325.22,342.18 325.76,342.56 326.24,345.37 327.74,345.18 329.46,345.70 330.52,347.20 331.77,345.86 331.01,344.08 331.89,344.67 332.36,343.63 336.53,342.04 336.14,339.80 337.00,341.13 336.84,342.24 334.37,344.02 332.95,344.45 333.54,345.92 332.06,347.62 332.34,348.87 330.20,349.64 330.80,350.31 330.37,351.52 326.68,353.89 325.12,354.06 329.89,354.13 333.56,355.79 336.37,353.06 339.50,352.42 343.39,353.04 345.78,353.94 348.61,354.17 350.21,355.13 356.42,353.21 357.49,351.99 357.22,350.60 357.87,348.11 358.85,347.03 357.57,346.95 356.31,345.89 355.38,344.52 355.46,342.87 358.08,339.52 360.09,338.86 361.88,337.58 363.72,335.03 363.54,334.17 362.98,333.37 361.45,333.97 358.93,333.75 357.41,332.62 358.30,331.25 360.85,329.56 361.02,328.53 356.68,329.55 355.48,329.34 354.26,328.38 353.49,326.72 354.14,324.35 355.83,324.55 356.82,323.39 356.57,322.34 357.08,322.32 355.48,321.43 352.64,320.79 352.11,319.45 353.46,317.87 352.13,316.27 346.86,314.26 346.48,312.19 347.38,310.72 348.92,309.78 347.98,308.90 346.74,309.05 345.52,307.78 346.79,308.97 347.99,308.82 349.01,309.62 347.28,311.04 346.65,312.26 347.08,314.26 352.12,315.96 353.76,317.54 353.02,316.01 354.39,317.93 353.30,319.88 353.64,320.72 354.87,321.24 356.89,321.27 358.03,322.42 357.77,323.89 355.73,325.12 354.30,326.86 354.63,326.70 355.59,328.24 356.04,328.01 356.55,328.71 360.58,327.13 362.18,327.31 363.06,327.96 363.47,330.19 362.57,329.66 361.34,330.21 359.59,331.81 359.83,332.76 359.85,332.89"/>
    <polyline fill="none" stroke="#1f6f8b" stroke-width="2.10" stroke-opacity="0.38" stroke-linejoin="round" stroke-linecap="round" points="359.85,332.89 364.56,332.36 365.71,334.21 358.73,343.07 362.59,351.73 371.27,355.17 373.47,358.70 380.86,356.32 390.08,359.34 441.09,343.20 456.75,343.92 451.00,345.74 440.88,343.56 411.01,351.67 395.06,362.25 383.33,363.30 385.76,364.76 392.81,363.10 388.71,365.05 374.12,361.91 365.47,363.52 347.40,359.40 335.59,360.06 330.96,357.33 344.07,367.07 346.88,363.34 365.78,366.37 367.57,370.48 349.38,374.53 349.06,378.45 355.41,378.47 356.91,375.00 361.99,378.96 369.13,379.53 380.72,384.98 379.28,387.36 367.42,384.86 391.61,390.24 400.70,391.92 415.98,388.08 433.41,388.84 434.29,385.76 440.73,387.92 446.74,381.76 445.29,389.09 450.75,387.34 450.78,391.13 453.94,388.60 460.02,394.26 465.47,394.43 465.17,391.25 469.89,391.26 466.05,388.15 472.80,386.63 473.34,399.99 482.88,400.78 477.62,402.52 477.75,406.90 473.04,403.78 468.30,407.46 464.14,406.27 449.45,412.88 442.87,410.73 441.03,415.25 424.45,421.30 419.69,424.04 419.23,427.49 415.74,428.19 417.28,425.95 403.52,431.44 396.36,437.15 397.40,440.57 408.11,442.63 416.72,439.10 430.40,441.86 426.52,439.68 430.84,440.46 445.44,434.00 435.84,438.82 433.07,443.13 430.76,441.98 448.96,453.89 457.51,450.63 461.54,451.80 472.18,463.41 472.63,472.61 468.74,475.13 466.00,489.29 471.57,490.10 462.09,490.37 459.39,493.40 457.14,492.12 464.47,497.91 473.20,498.56 475.48,502.75 481.44,505.39 507.74,502.57 510.58,498.07 522.63,494.50 530.30,483.36 550.61,476.33 564.61,474.71 572.30,478.01 584.07,466.46 592.80,467.54 590.84,464.93 595.53,463.07 593.49,459.79 603.00,455.39 615.94,457.66 623.49,464.02 636.37,460.56 649.58,462.04 677.13,454.42 695.28,456.84 719.61,465.57 727.41,480.26 734.54,484.60 751.72,487.61 756.70,485.63 756.08,481.95 768.43,493.12 773.88,492.53 772.78,494.35 783.15,503.33 822.99,512.52 828.10,518.24 837.00,520.60 839.48,524.95 857.04,535.40 886.51,560.65 896.60,565.40 899.51,570.97 921.27,577.78 923.45,586.25 927.70,589.18 931.47,587.38 943.97,592.96 962.83,593.95 970.11,600.34 975.16,599.42 982.41,612.88 1002.48,617.23 1015.54,652.66 1022.15,655.04 1025.67,652.24 1037.05,652.68 1057.81,659.36 1063.71,656.97 1063.45,658.61 1058.44,659.71 1036.86,652.81 1031.80,654.25 1025.17,652.64 1022.10,655.42 1016.49,653.38 1019.64,660.44 1019.21,657.17 1024.19,658.24 1020.43,660.15 1021.56,662.63 1019.86,660.70 1023.49,664.75 1024.45,679.45 1020.35,687.24 1011.96,692.50 1007.57,701.66 1000.14,708.09 975.29,720.04 958.87,723.38 953.40,728.37 941.55,732.43 930.59,732.58 915.15,740.20 907.11,737.04 895.06,737.16 889.82,734.13 880.82,734.52 865.45,727.05 856.34,730.93 848.10,728.95 824.70,733.54 817.83,737.63 811.72,736.10 805.33,739.93 793.62,740.44 788.54,738.01 761.64,735.29 754.90,730.74 755.12,726.43 748.08,725.06 742.03,731.76 736.24,732.39 721.72,724.46 705.35,722.45 702.44,715.55 693.51,711.54 678.38,708.38 670.32,716.19 661.35,717.38 643.19,703.02 642.14,692.09 638.12,687.85 631.21,684.62 605.04,691.66 585.52,685.95 572.85,672.03 574.97,665.81 581.00,665.38 571.53,664.76 567.89,660.45 563.02,660.09 558.21,666.84 548.06,670.49 532.27,668.29 519.34,670.70 454.46,665.34 422.20,676.24 403.22,678.39 392.05,684.32 383.13,685.66 373.59,693.50 323.41,712.95 324.02,719.91 318.36,725.57 297.22,729.38 279.88,728.47 247.21,719.91 241.66,724.44 230.14,725.30 178.53,718.40 172.13,719.59 136.25,710.63 112.03,700.78 100.14,691.64 93.35,680.46 91.65,675.82 97.50,674.57 95.89,667.08 76.69,649.69 79.75,645.95 74.12,642.15 75.31,638.99 70.60,638.92 68.57,635.65 60.55,637.75 56.00,635.53 61.26,629.05 70.03,629.21 69.11,624.15 76.11,622.14 75.13,618.85 86.88,619.35 86.04,596.69 90.00,587.57 69.81,586.26 93.42,584.57 99.56,573.97 103.87,571.78 117.69,571.19 125.11,574.81 134.75,562.64 131.72,553.35 133.76,545.13 129.28,544.60 133.34,544.47 138.77,532.43 136.79,526.37 140.64,524.57 135.74,524.73 137.99,522.77 139.40,524.32 137.66,520.10 141.45,524.25 135.59,514.03 136.74,509.67 140.26,509.65 136.07,509.56 138.66,508.16 140.57,509.83 167.60,480.57 198.72,475.81 202.92,472.27 192.06,465.94 187.48,467.72 186.98,464.97 182.32,465.99 180.02,461.39 173.63,460.70 176.06,459.15 173.77,456.90 170.27,456.79 169.86,459.18 151.92,450.50 147.42,451.72 143.55,448.62 118.68,443.20 107.99,432.25 112.62,433.65 117.50,442.20 142.11,448.70 147.16,447.48 144.25,444.67 147.61,441.07 157.40,444.86 160.14,439.85 172.73,437.11 176.81,433.77 195.56,433.29 202.19,437.45 209.77,433.68 210.03,432.10 205.13,433.44 202.02,431.39 212.53,422.94 210.96,421.90 217.57,420.36 213.26,422.66 237.80,408.65 221.64,417.95 216.90,417.86 214.54,414.31 220.74,413.07 220.86,410.71 224.46,414.07 223.79,407.28 225.90,411.86 227.53,402.81 233.02,409.99 237.11,402.18 238.36,408.40 249.06,400.93 253.76,392.78 256.32,394.37 250.64,399.21 260.77,391.31 258.00,391.24 252.77,382.66 238.70,377.31 235.64,373.98 238.33,370.53 244.59,369.91 247.80,376.21 250.65,371.22 251.17,376.36 256.60,378.28 257.27,383.09 263.26,386.83 260.80,391.13 274.74,375.13 271.19,373.35 272.01,370.40 274.59,374.68 279.65,371.02 278.95,360.12 297.13,356.03 296.34,351.88 297.66,355.85 308.11,353.91 319.92,355.81 329.20,349.67 325.22,342.18 330.52,347.20 336.14,339.80 330.37,351.52 325.12,354.06 333.56,355.79 339.50,352.42 350.21,355.13 356.42,353.21 358.85,347.03 355.46,342.87 363.54,334.17 357.41,332.62 361.02,328.53 354.26,328.38 357.08,322.32 346.86,314.26 348.92,309.78 345.52,307.78 349.01,309.62 347.08,314.26 353.76,317.54 353.02,316.01 353.64,320.72 358.03,322.42 354.30,326.86 356.55,328.71 363.06,327.96 359.83,332.76 359.85,332.89"/>
    <polyline fill="none" stroke="#2c7a7b" stroke-width="3.60" stroke-opacity="1.00" stroke-linejoin="round" stroke-linecap="round" points="359.85,332.89 361.42,332.71 362.00,331.62 362.99,332.54 364.56,332.36 364.94,332.98 365.56,332.92 365.33,333.59 365.71,334.21 363.38,337.16 363.71,340.69 361.06,340.12 358.73,343.07 360.02,345.96 362.98,345.68 361.31,348.84 362.59,351.73 365.48,352.88 368.25,351.01 368.37,354.03 371.27,355.17 372.00,356.35 373.17,356.13 372.74,357.52 373.47,358.70 375.93,357.90 376.55,355.90 378.39,357.11 380.86,356.32 383.93,357.33 386.07,354.97 387.01,358.33 390.08,359.34 407.08,353.96 408.74,334.27 424.09,348.58 441.09,343.20 446.31,343.44 448.17,337.26 451.53,343.68 456.75,343.92 454.83,344.52 454.02,346.18 452.92,345.13 451.00,345.74 447.63,345.01 445.35,346.93 444.25,344.28 440.88,343.56 430.92,346.26 429.63,354.11 420.97,348.96 411.01,351.67 405.69,355.19 407.38,360.11 400.38,358.72 395.06,362.25 391.15,362.60 389.64,365.61 387.24,362.95 383.33,363.30 384.14,363.79 385.10,363.36 384.95,364.27 385.76,364.76 388.11,364.21 388.25,361.19 390.46,363.65 392.81,363.10 391.45,363.75 390.80,365.51 390.08,364.40 388.71,365.05 383.85,364.00 381.24,369.25 378.98,362.95 374.12,361.91 371.24,362.44 369.59,365.09 368.36,362.98 365.47,363.52 359.45,362.14 355.54,367.92 353.42,360.77 347.40,359.40 343.46,359.62 341.68,362.11 339.52,359.84 335.59,360.06 334.04,359.15 332.56,360.26 332.50,358.24 330.96,357.33 335.33,360.57 339.86,357.35 339.70,363.82 344.07,367.07 345.01,365.82 344.25,364.21 345.94,364.58 346.88,363.34 353.18,364.35 357.30,360.94 359.48,365.36 365.78,366.37 366.38,367.74 368.07,367.46 366.98,369.11 367.57,370.48 361.51,371.83 360.00,377.00 355.44,373.18 349.38,374.53 349.27,375.83 350.21,376.53 349.16,377.14 349.06,378.45 351.18,378.45 352.53,377.18 353.29,378.46 355.41,378.47 355.91,377.31 354.83,376.46 356.41,376.16 356.91,375.00 358.60,376.32 360.95,375.90 360.30,377.64 361.99,378.96 364.37,379.15 366.02,377.78 366.75,379.34 369.13,379.53 372.99,381.35 376.92,379.27 376.86,383.16 380.72,384.98 380.24,385.77 380.99,386.58 379.76,386.57 379.28,387.36 375.33,386.53 371.88,389.34 371.37,385.69 367.42,384.86 375.48,386.65 382.36,379.58 383.54,388.44 391.61,390.24 394.64,390.80 396.47,388.24 397.67,391.36 400.70,391.92 405.80,390.64 407.07,386.65 410.89,389.36 415.98,388.08 421.79,388.34 425.57,382.56 427.60,388.59 433.41,388.84 433.71,387.81 432.58,387.14 434.00,386.79 434.29,385.76 436.44,386.48 438.55,385.09 438.58,387.20 440.73,387.92 442.73,385.86 441.99,382.79 444.73,383.81 446.74,381.76 446.25,384.21 448.04,385.23 445.77,386.65 445.29,389.09 447.11,388.51 447.95,386.48 448.93,387.92 450.75,387.34 450.76,388.60 452.01,389.57 450.77,389.87 450.78,391.13 451.83,390.29 451.41,389.23 452.88,389.44 453.94,388.60 455.96,390.49 458.54,389.37 457.99,392.37 460.02,394.26 461.84,394.32 463.21,392.56 463.65,394.37 465.47,394.43 465.37,393.37 464.39,392.86 465.27,392.31 465.17,391.25 466.74,391.25 468.18,389.94 468.32,391.26 469.89,391.26 468.61,390.22 467.31,390.58 467.33,389.19 466.05,388.15 468.30,387.65 468.41,384.86 470.55,387.14 472.80,386.63 472.98,391.09 476.62,392.91 473.16,395.54 473.34,399.99 476.52,400.25 478.02,397.19 479.70,400.51 482.88,400.78 481.13,401.36 480.57,403.27 479.37,401.94 477.62,402.52 477.66,403.98 478.63,404.81 477.71,405.44 477.75,406.90 476.18,405.86 474.52,407.16 474.61,404.82 473.04,403.78 471.46,405.00 471.50,406.51 469.88,406.23 468.30,407.46 466.91,407.06 465.45,407.91 465.53,406.67 464.14,406.27 459.25,408.48 457.99,412.54 454.35,410.68 449.45,412.88 447.26,412.17 445.86,414.27 445.06,411.45 442.87,410.73 442.26,412.24 443.19,414.04 441.64,413.75 441.03,415.25 435.50,417.27 433.04,422.39 429.97,419.29 424.45,421.30 422.86,422.22 422.32,424.37 421.28,423.13 419.69,424.04 419.54,425.19 420.47,425.87 419.38,426.34 419.23,427.49 418.07,427.73 417.52,428.61 416.90,427.96 415.74,428.19 416.25,427.44 415.69,426.80 416.76,426.70 417.28,425.95 412.69,427.78 411.45,431.67 408.11,429.61 403.52,431.44 401.14,433.34 401.88,435.76 398.75,435.25 396.36,437.15 396.71,438.29 398.00,438.46 397.06,439.43 397.40,440.57 400.97,441.26 403.14,438.53 404.54,441.94 408.11,442.63 410.98,441.46 412.56,438.02 413.85,440.28 416.72,439.10 421.28,440.02 424.33,435.50 425.84,440.94 430.40,441.86 429.11,441.13 428.21,441.92 427.81,440.41 426.52,439.68 427.96,439.94 428.55,438.66 429.40,440.20 430.84,440.46 435.71,438.31 437.36,433.35 440.57,436.16 445.44,434.00 442.24,435.61 441.60,439.38 439.04,437.22 435.84,438.82 434.92,440.26 435.51,441.79 433.99,441.69 433.07,443.13 432.30,442.74 431.84,443.23 431.53,442.36 430.76,441.98 436.82,445.95 443.21,442.68 442.89,449.92 448.96,453.89 451.81,452.80 451.57,449.96 454.66,451.71 457.51,450.63 458.86,451.02 459.59,449.82 460.20,451.41 461.54,451.80 465.09,455.67 470.97,454.47 468.63,459.54 472.18,463.41 472.33,466.48 475.18,467.70 472.48,469.55 472.63,472.61 471.33,473.45 471.21,475.24 470.03,474.29 468.74,475.13 467.82,479.85 472.23,483.35 466.91,484.57 466.00,489.29 467.85,489.56 468.93,487.70 469.71,489.83 471.57,490.10 468.41,490.19 466.97,492.55 465.25,490.28 462.09,490.37 461.19,491.38 461.73,492.90 460.29,492.39 459.39,493.40 458.64,492.97 458.09,493.41 457.89,492.55 457.14,492.12 459.59,494.05 462.73,493.21 462.03,495.98 464.47,497.91 467.38,498.13 469.59,495.44 470.29,498.35 473.20,498.56 473.96,499.96 475.81,500.45 474.72,501.36 475.48,502.75 477.47,503.63 479.03,502.99 479.46,504.51 481.44,505.39 490.21,504.45 494.38,498.56 498.97,503.51 507.74,502.57 508.68,501.07 508.23,499.61 509.63,499.57 510.58,498.07 514.59,496.88 516.08,492.99 518.61,495.69 522.63,494.50 525.19,490.79 522.43,487.81 527.74,487.07 530.30,483.36 537.07,481.01 538.69,474.75 543.84,478.67 550.61,476.33 555.28,475.79 558.47,472.07 559.95,475.25 564.61,474.71 567.18,475.81 570.01,474.41 569.74,476.91 572.30,478.01 576.23,474.16 573.58,468.00 580.15,470.31 584.07,466.46 586.98,466.82 588.29,464.88 589.89,467.18 592.80,467.54 592.15,466.67 590.85,467.00 591.49,465.80 590.84,464.93 592.40,464.31 592.47,462.67 593.97,463.69 595.53,463.07 594.85,461.98 593.57,462.40 594.17,460.88 593.49,459.79 596.66,458.32 597.27,455.49 599.83,456.86 603.00,455.39 607.31,456.15 609.52,451.87 611.62,456.90 615.94,457.66 618.45,459.78 621.23,459.38 620.97,461.90 623.49,464.02 627.78,462.87 629.45,458.94 632.08,461.71 636.37,460.56 640.77,461.05 642.90,456.00 645.18,461.55 649.58,462.04 658.76,459.50 661.98,451.45 667.95,456.96 677.13,454.42 683.18,455.23 685.61,450.44 689.23,456.04 695.28,456.84 703.39,459.75 710.23,456.76 711.50,462.66 719.61,465.57 722.21,470.47 728.88,471.11 724.81,475.36 727.41,480.26 729.78,481.70 731.74,480.02 732.16,483.15 734.54,484.60 740.27,485.60 743.98,482.99 745.99,486.60 751.72,487.61 753.38,486.95 754.08,485.24 755.04,486.29 756.70,485.63 756.49,484.40 755.67,483.80 756.29,483.18 756.08,481.95 760.20,485.67 764.99,484.08 764.31,489.40 768.43,493.12 770.24,492.93 771.42,491.15 772.06,492.73 773.88,492.53 773.51,493.14 774.10,493.78 773.15,493.74 772.78,494.35 776.24,497.34 781.04,494.35 779.70,500.34 783.15,503.33 796.43,506.40 806.51,492.90 809.71,509.46 822.99,512.52 824.69,514.43 827.23,513.92 826.40,516.33 828.10,518.24 831.06,519.03 832.36,516.57 834.03,519.82 837.00,520.60 837.83,522.05 839.20,521.77 838.65,523.50 839.48,524.95 845.33,528.43 852.49,526.10 851.19,531.92 857.04,535.40 866.87,543.82 880.26,540.37 876.69,552.24 886.51,560.65 889.87,562.24 892.04,559.56 893.24,563.82 896.60,565.40 897.57,567.26 899.23,567.85 898.54,569.11 899.51,570.97 906.76,573.24 910.79,568.39 914.01,575.51 921.27,577.78 921.99,580.61 924.90,582.43 922.72,583.43 923.45,586.25 924.87,587.22 926.81,586.72 926.28,588.20 927.70,589.18 928.95,588.58 929.36,587.20 930.21,587.98 931.47,587.38 935.63,589.24 940.24,586.53 939.80,591.10 943.97,592.96 950.26,593.29 954.11,589.11 956.54,593.62 962.83,593.95 965.26,596.08 969.11,594.92 967.68,598.21 970.11,600.34 971.79,600.04 972.56,598.85 973.47,599.73 975.16,599.42 977.57,603.91 982.42,605.18 979.99,608.40 982.41,612.88 989.10,614.33 993.76,607.31 995.79,615.78 1002.48,617.23 1006.83,629.04 1019.23,632.95 1011.19,640.85 1015.54,652.66 1017.74,653.46 1019.29,651.73 1019.95,654.25 1022.15,655.04 1023.32,654.11 1023.30,652.79 1024.50,653.18 1025.67,652.24 1029.47,652.39 1031.40,650.05 1033.26,652.53 1037.05,652.68 1043.97,654.91 1051.52,651.18 1050.89,657.13 1057.81,659.36 1059.77,658.56 1060.29,656.78 1061.74,657.76 1063.71,656.97 1063.62,657.51 1064.00,657.79 1063.53,658.06 1063.45,658.61 1061.78,658.98 1061.69,660.97 1060.11,659.34 1058.44,659.71 1051.24,657.41 1047.71,662.19 1044.05,655.11 1036.86,652.81 1035.17,653.29 1034.23,655.01 1033.48,653.77 1031.80,654.25 1029.59,653.72 1027.89,655.30 1027.38,653.18 1025.17,652.64 1024.15,653.57 1024.44,654.98 1023.13,654.49 1022.10,655.42 1020.23,654.74 1018.88,655.46 1018.36,654.06 1016.49,653.38 1017.54,655.73 1020.14,656.70 1018.59,658.09 1019.64,660.44 1019.50,659.35 1018.25,659.23 1019.36,658.26 1019.21,657.17 1020.87,657.53 1022.13,656.53 1022.53,657.89 1024.19,658.24 1022.94,658.88 1023.05,660.30 1021.69,659.52 1020.43,660.15 1020.81,660.98 1021.75,661.29 1021.19,661.80 1021.56,662.63 1020.99,661.99 1020.09,661.99 1020.43,661.34 1019.86,660.70 1021.07,662.05 1022.71,661.56 1022.28,663.40 1023.49,664.75 1023.81,669.65 1028.70,672.14 1024.13,674.55 1024.45,679.45 1023.08,682.05 1025.65,684.39 1021.72,684.64 1020.35,687.24 1017.55,688.99 1017.59,691.86 1014.76,690.74 1011.96,692.50 1010.50,695.55 1011.82,699.37 1009.03,698.61 1007.57,701.66 1005.10,703.81 1006.54,707.45 1002.62,705.95 1000.14,708.09 991.86,712.08 992.93,720.45 983.57,716.06 975.29,720.04 969.82,721.16 967.88,727.25 964.34,722.27 958.87,723.38 957.05,725.05 958.21,727.85 955.22,726.71 953.40,728.37 949.45,729.72 947.87,732.90 945.50,731.07 941.55,732.43 937.90,732.48 935.18,735.54 934.24,732.53 930.59,732.58 925.44,735.12 923.92,740.51 920.30,737.66 915.15,740.20 912.47,739.15 910.75,740.85 909.79,738.09 907.11,737.04 903.09,737.08 901.90,740.22 899.08,737.12 895.06,737.16 893.31,736.15 891.74,736.57 891.56,735.14 889.82,734.13 886.82,734.26 885.12,736.62 883.82,734.39 880.82,734.52 875.70,732.03 869.08,734.19 870.58,729.54 865.45,727.05 862.41,728.34 861.06,731.90 859.37,729.64 856.34,730.93 853.59,730.27 852.00,732.44 850.85,729.61 848.10,728.95 840.30,730.48 836.68,736.15 832.50,732.01 824.70,733.54 822.41,734.90 821.84,737.27 820.12,736.27 817.83,737.63 815.79,737.12 814.51,738.84 813.75,736.61 811.72,736.10 809.59,737.38 809.10,739.61 807.46,738.65 805.33,739.93 801.43,740.10 799.37,743.30 797.52,740.27 793.62,740.44 791.93,739.63 790.61,740.76 790.23,738.82 788.54,738.01 779.57,737.10 776.59,746.22 770.61,736.19 761.64,735.29 759.39,733.77 757.61,735.17 757.15,732.26 754.90,730.74 754.97,729.30 754.14,728.31 755.05,727.87 755.12,726.43 752.77,725.97 750.62,727.59 750.43,725.52 748.08,725.06 746.06,727.30 746.78,730.73 744.05,729.53 742.03,731.76 740.10,731.97 739.08,733.28 738.17,732.18 736.24,732.39 731.40,729.75 727.55,733.93 726.56,727.10 721.72,724.46 716.26,723.79 714.36,727.82 710.80,723.12 705.35,722.45 704.38,720.15 701.65,720.45 703.41,717.85 702.44,715.55 699.47,714.21 697.29,716.21 696.49,712.87 693.51,711.54 688.47,710.48 685.44,715.94 683.42,709.43 678.38,708.38 675.70,710.98 675.81,714.97 673.01,713.59 670.32,716.19 667.33,716.59 666.26,719.08 664.34,716.98 661.35,717.38 655.30,712.59 649.07,714.27 649.24,707.81 643.19,703.02 642.84,699.38 639.22,697.50 642.49,695.73 642.14,692.09 640.80,690.67 639.12,690.92 639.46,689.26 638.12,687.85 635.81,686.77 634.00,687.43 633.51,685.70 631.21,684.62 622.49,686.97 619.94,693.73 613.76,689.31 605.04,691.66 598.54,689.76 592.00,695.07 592.03,687.85 585.52,685.95 581.29,681.31 576.07,681.91 577.07,676.67 572.85,672.03 573.55,669.96 572.25,668.08 574.26,667.89 574.97,665.81 576.98,665.67 577.98,663.37 578.99,665.53 581.00,665.38 577.84,665.18 574.96,667.76 574.69,664.97 571.53,664.76 570.32,663.32 568.72,664.09 569.10,661.88 567.89,660.45 566.27,660.33 565.26,662.00 564.64,660.21 563.02,660.09 561.42,662.34 562.08,665.29 559.82,664.59 558.21,666.84 554.83,668.06 554.45,672.33 551.45,669.27 548.06,670.49 542.80,669.76 538.70,673.80 537.54,669.02 532.27,668.29 527.96,669.09 526.11,672.45 523.65,669.90 519.34,670.70 497.71,668.91 487.93,691.49 476.09,667.13 454.46,665.34 443.71,668.98 439.01,680.34 432.95,672.61 422.20,676.24 415.87,676.96 414.08,684.40 409.55,677.67 403.22,678.39 399.49,680.37 399.36,683.96 395.77,682.34 392.05,684.32 389.07,684.76 387.68,687.95 386.10,685.21 383.13,685.66 379.95,688.27 381.56,691.74 376.77,690.89 373.59,693.50 356.86,699.98 349.02,719.94 340.14,706.47 323.41,712.95 323.62,715.27 325.60,715.55 323.82,717.59 324.02,719.91 322.13,721.80 323.49,724.77 320.24,723.68 318.36,725.57 311.31,726.84 310.99,733.39 304.26,728.11 297.22,729.38 291.44,729.08 288.73,733.29 285.66,728.77 279.88,728.47 268.99,725.62 263.89,735.12 258.10,722.76 247.21,719.91 245.36,721.42 246.01,723.76 243.51,722.93 241.66,724.44 237.82,724.73 235.49,727.95 233.98,725.01 230.14,725.30 212.93,723.00 205.86,740.64 195.73,720.70 178.53,718.40 176.40,718.80 175.05,720.59 174.26,719.19 172.13,719.59 160.17,716.60 153.31,724.93 148.21,713.62 136.25,710.63 128.17,707.35 119.76,710.87 120.10,704.07 112.03,700.78 108.07,697.74 104.66,699.63 104.11,694.69 100.14,691.64 97.88,687.92 94.69,688.98 95.62,684.19 93.35,680.46 92.78,678.91 91.27,678.84 92.22,677.37 91.65,675.82 93.60,675.40 94.62,673.20 95.55,674.98 97.50,674.57 96.96,672.07 94.38,671.78 96.43,669.58 95.89,667.08 89.49,661.28 81.83,664.65 83.09,655.49 76.69,649.69 77.71,648.44 77.08,647.05 78.73,647.20 79.75,645.95 77.87,644.69 75.87,645.68 76.00,643.42 74.12,642.15 74.52,641.10 74.06,640.06 74.92,640.05 75.31,638.99 73.74,638.97 73.02,640.60 72.17,638.95 70.60,638.92 69.92,637.83 68.91,638.01 69.25,636.74 68.57,635.65 65.90,636.35 64.80,639.04 63.22,637.05 60.55,637.75 59.04,637.01 57.72,637.72 57.52,636.27 56.00,635.53 57.75,633.37 56.95,630.83 59.50,631.21 61.26,629.05 64.18,629.10 66.39,626.72 67.11,629.15 70.03,629.21 69.72,627.52 68.15,626.34 69.41,625.83 69.11,624.15 71.44,623.48 72.12,621.15 73.78,622.81 76.11,622.14 75.78,621.04 74.45,620.70 75.45,619.94 75.13,618.85 79.05,619.01 81.82,616.09 82.97,619.18 86.88,619.35 86.60,611.80 81.23,609.37 86.32,604.25 86.04,596.69 87.36,593.65 86.06,590.63 88.68,590.61 90.00,587.57 83.27,587.14 78.22,593.18 76.54,586.70 69.81,586.26 77.68,585.70 79.89,577.78 85.55,585.13 93.42,584.57 95.47,581.03 92.46,578.07 97.52,577.50 99.56,573.97 101.00,573.24 101.37,572.07 102.44,572.51 103.87,571.78 108.48,571.59 110.15,567.14 113.09,571.39 117.69,571.19 120.17,572.40 122.08,570.04 122.64,573.61 125.11,574.81 128.32,570.75 126.02,567.40 131.54,566.70 134.75,562.64 133.74,559.54 131.10,558.70 132.73,556.45 131.72,553.35 132.40,550.61 130.49,548.61 133.08,547.87 133.76,545.13 132.27,544.95 131.72,546.08 130.77,544.78 129.28,544.60 130.63,544.56 131.23,543.24 131.99,544.51 133.34,544.47 135.15,540.46 132.26,537.07 136.96,536.45 138.77,532.43 138.11,530.41 135.53,530.60 137.45,528.39 136.79,526.37 138.08,525.77 138.34,524.11 139.36,525.17 140.64,524.57 139.01,524.62 138.08,525.89 137.37,524.68 135.74,524.73 136.49,524.08 136.00,523.08 137.24,523.42 137.99,522.77 138.46,523.28 139.04,523.34 138.93,523.80 139.40,524.32 138.82,522.91 137.06,522.28 138.24,521.51 137.66,520.10 138.92,521.48 140.72,521.57 140.19,522.86 141.45,524.25 139.50,520.84 135.54,521.41 137.54,517.43 135.59,514.03 135.98,512.58 135.34,511.61 136.36,511.13 136.74,509.67 137.92,509.67 138.37,508.58 139.09,509.66 140.26,509.65 138.86,509.62 138.31,511.17 137.47,509.59 136.07,509.56 136.94,509.09 137.05,507.96 137.80,508.62 138.66,508.16 139.30,508.72 140.16,508.59 139.94,509.28 140.57,509.83 149.58,500.08 144.60,490.10 158.59,490.32 167.60,480.57 177.97,478.98 179.86,466.11 188.35,477.40 198.72,475.81 200.12,474.63 200.05,473.16 201.52,473.45 202.92,472.27 199.30,470.16 196.55,472.51 195.68,468.05 192.06,465.94 190.54,466.53 190.25,468.51 189.01,467.13 187.48,467.72 187.32,466.80 186.40,466.26 187.15,465.89 186.98,464.97 185.43,465.31 185.15,466.84 183.88,465.65 182.32,465.99 181.56,464.46 180.26,464.78 180.79,462.92 180.02,461.39 177.89,461.16 175.95,462.98 175.76,460.93 173.63,460.70 174.44,460.18 174.45,459.13 175.25,459.67 176.06,459.15 175.30,458.40 174.03,458.71 174.54,457.65 173.77,456.90 172.60,456.86 172.26,457.79 171.44,456.83 170.27,456.79 170.13,457.59 170.91,458.19 169.99,458.38 169.86,459.18 163.88,456.28 157.55,459.59 157.90,453.39 151.92,450.50 150.42,450.91 149.97,452.58 148.92,451.31 147.42,451.72 146.13,450.69 144.41,451.18 144.84,449.65 143.55,448.62 135.26,446.81 129.60,452.92 126.97,445.00 118.68,443.20 115.12,439.55 109.69,439.66 111.55,435.90 107.99,432.25 109.53,432.72 110.23,431.45 111.08,433.18 112.62,433.65 114.25,436.50 117.56,436.44 115.87,439.35 117.50,442.20 125.71,444.37 134.42,438.63 133.91,446.53 142.11,448.70 143.80,448.29 144.74,446.37 145.48,447.89 147.16,447.48 146.19,446.54 144.68,447.01 145.22,445.61 144.25,444.67 145.37,443.47 145.26,442.04 146.49,442.27 147.61,441.07 150.87,442.33 153.36,440.71 154.14,443.60 157.40,444.86 158.32,443.19 157.59,441.82 159.23,441.52 160.14,439.85 164.34,438.94 164.32,433.94 168.54,438.02 172.73,437.11 174.09,436.00 173.95,433.90 175.45,434.88 176.81,433.77 183.06,433.61 185.81,427.85 189.31,433.45 195.56,433.29 197.77,434.68 200.64,433.42 199.98,436.06 202.19,437.45 204.72,436.20 204.62,434.03 207.24,434.94 209.77,433.68 209.86,433.16 209.51,432.79 209.94,432.63 210.03,432.10 208.39,432.55 208.07,434.46 206.76,432.99 205.13,433.44 204.09,432.76 203.26,433.42 203.05,432.08 202.02,431.39 205.52,428.58 205.17,424.83 209.03,425.76 212.53,422.94 212.01,422.60 211.44,422.79 211.49,422.25 210.96,421.90 213.17,421.39 214.33,419.64 215.37,420.87 217.57,420.36 216.14,421.13 216.05,422.38 214.70,421.89 213.26,422.66 221.44,417.99 222.56,408.41 229.62,413.32 237.80,408.65 232.42,411.75 232.52,416.63 227.03,414.85 221.64,417.95 220.06,417.92 219.29,418.85 218.48,417.89 216.90,417.86 216.11,416.68 214.75,416.63 215.32,415.49 214.54,414.31 216.60,413.90 217.42,411.83 218.67,413.48 220.74,413.07 220.78,412.28 220.31,411.84 220.82,411.50 220.86,410.71 222.06,411.83 223.75,411.59 223.26,412.95 224.46,414.07 224.23,411.81 222.24,411.50 224.01,409.55 223.79,407.28 224.49,408.81 226.45,409.17 225.20,410.33 225.90,411.86 226.44,408.84 224.69,406.99 226.99,405.83 227.53,402.81 229.36,405.21 232.61,405.03 231.19,407.60 233.02,409.99 234.38,407.39 232.54,405.85 235.75,404.78 237.11,402.18 237.53,404.25 239.89,404.67 237.95,406.33 238.36,408.40 241.93,405.91 240.53,402.02 245.50,403.42 249.06,400.93 250.63,398.22 248.79,396.42 252.19,395.50 253.76,392.78 254.61,393.31 255.63,392.68 255.46,393.84 256.32,394.37 254.43,395.98 254.39,397.93 252.54,397.60 250.64,399.21 254.02,396.58 253.91,391.99 257.39,393.95 260.77,391.31 259.85,391.29 259.20,391.86 258.93,391.26 258.00,391.24 256.26,388.38 252.54,388.40 254.52,385.52 252.77,382.66 248.08,380.88 244.36,383.21 243.39,379.09 238.70,377.31 237.68,376.20 236.30,376.16 236.66,375.09 235.64,373.98 236.54,372.83 235.70,371.38 237.43,371.68 238.33,370.53 240.42,370.33 240.60,368.75 242.51,370.12 244.59,369.91 245.66,372.01 248.36,372.11 246.73,374.11 247.80,376.21 248.75,374.55 247.92,372.51 249.70,372.89 250.65,371.22 250.82,372.93 252.36,373.67 250.99,374.65 251.17,376.36 252.98,377.00 253.96,375.49 254.79,377.64 256.60,378.28 256.82,379.88 258.28,380.29 257.05,381.49 257.27,383.09 259.27,384.34 261.45,383.82 261.26,385.58 263.26,386.83 262.44,388.26 262.82,389.77 261.62,389.70 260.80,391.13 265.45,385.80 262.78,377.68 270.09,380.47 274.74,375.13 273.55,374.54 272.81,375.33 272.37,373.94 271.19,373.35 271.47,372.36 270.43,371.70 271.74,371.38 272.01,370.40 272.87,371.83 274.22,371.56 273.73,373.25 274.59,374.68 276.28,373.46 275.76,371.33 277.97,372.24 279.65,371.02 279.42,367.39 276.02,364.97 279.19,363.76 278.95,360.12 285.01,358.76 285.44,351.50 291.07,357.40 297.13,356.03 296.87,354.65 295.68,354.10 296.61,353.27 296.34,351.88 296.78,353.21 298.14,353.28 297.22,354.53 297.66,355.85 301.14,355.20 302.07,351.07 304.63,354.56 308.11,353.91 312.05,354.54 314.31,351.65 315.98,355.18 319.92,355.81 323.01,353.76 321.70,349.47 326.11,351.71 329.20,349.67 327.87,347.17 324.71,346.45 326.54,344.68 325.22,342.18 326.99,343.85 329.83,343.80 328.76,345.53 330.52,347.20 332.40,344.73 331.84,342.37 334.27,342.27 336.14,339.80 334.21,343.71 336.39,348.35 332.29,347.61 330.37,351.52 328.62,352.37 328.62,353.94 326.87,353.21 325.12,354.06 327.94,354.63 329.77,353.12 330.75,355.21 333.56,355.79 335.54,354.66 335.35,352.87 337.52,353.54 339.50,352.42 343.07,353.32 344.90,349.64 346.64,354.23 350.21,355.13 352.28,354.49 353.23,352.38 354.35,353.85 356.42,353.21 357.23,351.15 356.21,348.78 358.04,349.09 358.85,347.03 357.72,345.64 355.57,345.73 356.59,344.26 355.46,342.87 358.15,339.97 356.95,335.30 360.84,337.07 363.54,334.17 361.50,333.66 360.36,334.82 359.45,333.14 357.41,332.62 358.61,331.26 358.50,329.47 359.82,329.89 361.02,328.53 358.77,328.48 357.48,329.95 356.52,328.43 354.26,328.38 355.20,326.36 353.45,324.78 356.14,324.34 357.08,322.32 353.67,319.64 350.09,320.64 350.27,316.95 346.86,314.26 347.55,312.77 346.61,311.07 348.23,311.27 348.92,309.78 347.79,309.11 346.63,309.90 346.65,308.44 345.52,307.78 346.68,308.39 348.15,307.82 347.84,309.00 349.01,309.62 348.36,311.16 349.51,312.54 347.72,312.71 347.08,314.26 349.31,315.35 351.77,314.24 351.53,316.45 353.76,317.54 353.51,317.03 353.01,317.05 353.27,316.52 353.02,316.01 353.23,317.58 354.81,318.26 353.43,319.15 353.64,320.72 355.10,321.29 356.77,320.40 356.56,321.86 358.03,322.42 356.79,323.90 357.03,325.67 355.55,325.38 354.30,326.86 355.05,327.48 356.24,327.42 355.80,328.09 356.55,328.71 358.72,328.46 359.44,326.05 360.89,328.21 363.06,327.96 361.98,329.56 362.42,331.84 360.90,331.16 359.83,332.76 359.83,332.80 359.88,332.80 359.84,332.84 359.85,332.89"/>
  </g>
  <g>
  </g>
  <g>
    <text x="1092" y="220" font-family="Helvetica, Arial, sans-serif" font-size="18" font-weight="700" fill="#16324f">Слои и длины</text>
    <line x1="1092" y1="258" x2="1126" y2="258" stroke="#7a8b99" stroke-width="1.80" stroke-opacity="0.85" stroke-dasharray="8 6"/>
    <text x="1138" y="256" font-family="Helvetica, Arial, sans-serif" font-size="13" fill="#16324f">Реальная загруженная</text>
    <text x="1138" y="271" font-family="Helvetica, Arial, sans-serif" font-size="13" fill="#16324f">полилиния (справочно)</text>
    <text x="1138" y="288" font-family="Helvetica, Arial, sans-serif" font-size="12" fill="#6b7a87">6391 км</text>
    <line x1="1092" y1="302" x2="1356" y2="302" stroke="#ddd6c8" stroke-width="1"/>
    <line x1="1092" y1="326" x2="1126" y2="326" stroke="#1f6f8b" stroke-width="2.10" stroke-opacity="0.38"/>
    <text x="1138" y="324" font-family="Helvetica, Arial, sans-serif" font-size="13" fill="#16324f">Упрощённая база модели</text>
    <text x="1138" y="339" font-family="Helvetica, Arial, sans-serif" font-size="13" fill="#16324f">(итерация 0)</text>
    <text x="1138" y="356" font-family="Helvetica, Arial, sans-serif" font-size="12" fill="#6b7a87">5334 км</text>
    <line x1="1092" y1="370" x2="1356" y2="370" stroke="#ddd6c8" stroke-width="1"/>
    <line x1="1092" y1="394" x2="1126" y2="394" stroke="#2c7a7b" stroke-width="3.60" stroke-opacity="1.00"/>
    <text x="1138" y="392" font-family="Helvetica, Arial, sans-serif" font-size="13" fill="#16324f">Синтетическая итерация 1</text>
    <text x="1138" y="409" font-family="Helvetica, Arial, sans-serif" font-size="12" fill="#6b7a87">7544 км</text>
  </g>
  <g>
    <rect x="1092" y="451" width="264" height="108" rx="18" fill="#f8f6ef" stroke="#d6d0c4"/>
    <text x="1106" y="471" font-family="Helvetica, Arial, sans-serif" font-size="14" font-weight="700" fill="#16324f">Контроль геометрии</text>
    <text x="1106" y="503" font-family="Helvetica, Arial, sans-serif" font-size="12" fill="#4f6d7a">Сегменты &gt; 450 км</text>
    <text x="1342" y="503" text-anchor="end" font-family="Helvetica, Arial, sans-serif" font-size="13" font-weight="700" fill="#3f6b4b">0</text>
    <line x1="1106" y1="507" x2="1342" y2="507" stroke="#e7e1d5" stroke-width="1"/>
    <text x="1106" y="525" font-family="Helvetica, Arial, sans-serif" font-size="12" fill="#4f6d7a">Повторы ориентиров</text>
    <text x="1342" y="525" text-anchor="end" font-family="Helvetica, Arial, sans-serif" font-size="13" font-weight="700" fill="#3f6b4b">0</text>
    <line x1="1106" y1="529" x2="1342" y2="529" stroke="#e7e1d5" stroke-width="1"/>
    <text x="1106" y="547" font-family="Helvetica, Arial, sans-serif" font-size="12" fill="#4f6d7a">Автоисправления</text>
    <text x="1342" y="547" text-anchor="end" font-family="Helvetica, Arial, sans-serif" font-size="13" font-weight="700" fill="#3f6b4b">0</text>
  </g>
  <g>
    <rect x="1092" y="577" width="264" height="118" rx="18" fill="#fcfbf7" stroke="#d6d0c4"/>
    <text x="1106" y="597" font-family="Helvetica, Arial, sans-serif" font-size="14" font-weight="700" fill="#16324f">Длина по итерациям</text>
    <line x1="1106" y1="608" x2="1122" y2="608" stroke="#1f6f8b" stroke-width="2.2"/>
    <text x="1128" y="612" font-family="Helvetica, Arial, sans-serif" font-size="11" fill="#4f6d7a">Измерено</text>
    <line x1="1106" y1="621.00" x2="1342" y2="621.00" stroke="#ddd6c8" stroke-width="1"/>
    <line x1="1106" y1="647.00" x2="1342" y2="647.00" stroke="#ddd6c8" stroke-width="1"/>
    <line x1="1106" y1="673.00" x2="1342" y2="673.00" stroke="#ddd6c8" stroke-width="1"/>
    <line x1="1106" y1="673" x2="1342" y2="673" stroke="#8a9aa6" stroke-width="1.4"/>
    <text x="1106" y="615" font-family="Helvetica, Arial, sans-serif" font-size="11" fill="#6b7a87">7721</text>
    <text x="1106" y="687" font-family="Helvetica, Arial, sans-serif" font-size="11" fill="#6b7a87">5157</text>
    <text x="1106" y="685" font-family="Helvetica, Arial, sans-serif" font-size="11" fill="#6b7a87">0</text>
    <text x="1342" y="685" text-anchor="end" font-family="Helvetica, Arial, sans-serif" font-size="11" fill="#6b7a87">1</text>
    <polyline fill="none" stroke="#1f6f8b" stroke-width="2.4" stroke-linecap="round" stroke-linejoin="round" points="1106.00,669.41 1342.00,624.59"/>
    <circle cx="1106.00" cy="669.41" r="2.8" fill="#1f6f8b"/>
    <circle cx="1342.00" cy="624.59" r="2.8" fill="#1f6f8b"/>
    <rect x="1092" y="713" width="264" height="118" rx="18" fill="#fcfbf7" stroke="#d6d0c4"/>
    <text x="1106" y="733" font-family="Helvetica, Arial, sans-serif" font-size="14" font-weight="700" fill="#16324f">Размерность D</text>
    <line x1="1106" y1="744" x2="1122" y2="744" stroke="#8b3f5c" stroke-width="2.2"/>
    <text x="1128" y="748" font-family="Helvetica, Arial, sans-serif" font-size="11" fill="#4f6d7a">Оценка</text>
    <line x1="1204" y1="744" x2="1220" y2="744" stroke="#6f5f1f" stroke-width="2.2" stroke-dasharray="5 4"/>
    <text x="1226" y="748" font-family="Helvetica, Arial, sans-serif" font-size="11" fill="#4f6d7a">Теория</text>
    <line x1="1106" y1="757.00" x2="1342" y2="757.00" stroke="#ddd6c8" stroke-width="1"/>
    <line x1="1106" y1="783.00" x2="1342" y2="783.00" stroke="#ddd6c8" stroke-width="1"/>
    <line x1="1106" y1="809.00" x2="1342" y2="809.00" stroke="#ddd6c8" stroke-width="1"/>
    <line x1="1106" y1="809" x2="1342" y2="809" stroke="#8a9aa6" stroke-width="1.4"/>
    <text x="1106" y="751" font-family="Helvetica, Arial, sans-serif" font-size="11" fill="#6b7a87">1.276</text>
    <text x="1106" y="823" font-family="Helvetica, Arial, sans-serif" font-size="11" fill="#6b7a87">1.071</text>
    <text x="1106" y="821" font-family="Helvetica, Arial, sans-serif" font-size="11" fill="#6b7a87">0</text>
    <text x="1342" y="821" text-anchor="end" font-family="Helvetica, Arial, sans-serif" font-size="11" fill="#6b7a87">1</text>
    <polyline fill="none" stroke="#8b3f5c" stroke-width="2.4" stroke-linecap="round" stroke-linejoin="round" points="1106.00,805.41 1342.00,786.58"/>
    <circle cx="1106.00" cy="805.41" r="2.8" fill="#8b3f5c"/>
    <circle cx="1342.00" cy="786.58" r="2.8" fill="#8b3f5c"/>
    <polyline fill="none" stroke="#6f5f1f" stroke-width="2.4" stroke-linecap="round" stroke-linejoin="round" stroke-dasharray="5 4" points="1106.00,760.59 1342.00,760.59"/>
    <circle cx="1106.00" cy="760.59" r="2.8" fill="#6f5f1f"/>
    <circle cx="1342.00" cy="760.59" r="2.8" fill="#6f5f1f"/>
  </g>
  <g>
  </g>
  <g>
    <rect x="1092" y="875" width="264" height="186" rx="18" fill="#f8f6ef" stroke="#d6d0c4"/>
    <text x="1106" y="895" font-family="Helvetica, Arial, sans-serif" font-size="14" font-weight="700" fill="#16324f">Сводка</text>
    <text x="1106" y="917" font-family="Helvetica, Arial, sans-serif" font-size="12" fill="#4f6d7a">Реальная линия: 6391 км, 9635 т.</text>
    <line x1="1106" y1="937" x2="1342" y2="937" stroke="#e7e1d5" stroke-width="1"/>
    <text x="1106" y="945" font-family="Helvetica, Arial, sans-serif" font-size="12" fill="#4f6d7a">База модели: 5334 км, 391 т.</text>
    <text x="1106" y="961" font-family="Helvetica, Arial, sans-serif" font-size="12" fill="#4f6d7a">(-16.5% к реальной)</text>
    <line x1="1106" y1="981" x2="1342" y2="981" stroke="#e7e1d5" stroke-width="1"/>
    <text x="1106" y="989" font-family="Helvetica, Arial, sans-serif" font-size="12" fill="#4f6d7a">Текущий слой: 7544 км, 1561 т.</text>
    <text x="1106" y="1005" font-family="Helvetica, Arial, sans-serif" font-size="12" fill="#4f6d7a">расчёт / 1561 т. SVG</text>
    <line x1="1106" y1="1025" x2="1342" y2="1025" stroke="#e7e1d5" stroke-width="1"/>
    <text x="1106" y="1033" font-family="Helvetica, Arial, sans-serif" font-size="12" fill="#4f6d7a">D: 1.15912, R²=0.9999, стаб=true</text>
  </g>
  <g>
    <line x1="56" y1="1019" x2="479" y2="1019" stroke="#16324f" stroke-width="3"/>
    <line x1="56" y1="1012" x2="56" y2="1026" stroke="#16324f" stroke-width="6"/>
    <line x1="479" y1="1012" x2="479" y2="1026" stroke="#16324f" stroke-width="6"/>
    <text x="56" y="1005" font-family="Helvetica, Arial, sans-serif" font-size="13" fill="#16324f">Масштаб ≈ 500 км</text>  </g>
</svg>
