<?xml version="1.0" encoding="UTF-8"?>
<svg xmlns="http://www.w3.org/2000/svg" width="1440" height="1064" viewBox="0 0 1440 1064">
  <rect width="100%" height="100%" fill="#f7f4ea"/>
  <rect x="20" y="20" width="1400" height="1024" rx="28" fill="#fcfbf7" stroke="#d6d0c4"/>
  <rect x="1072" y="20" width="304" height="1024" rx="24" fill="#f0ece2" stroke="#d6d0c4"/>
  <g>
  <text x="56" y="58" font-family="Helvetica, Arial, sans-serif" font-size="30" font-weight="700" fill="#16324f">Фрактальная размерность (органическая модель) — итерация</text>
  <text x="56" y="92" font-family="Helvetica, Arial, sans-serif" font-size="30" font-weight="700" fill="#16324f">0</text>
  <text x="56" y="142" font-family="Helvetica, Arial, sans-serif" font-size="14" fill="#4f6d7a">Органическая модель: seed=42, угол ±18°, высота ±25%; серая пунктирная линия — реальная линия, цветные слои — от упрощённой</text>
  <text x="56" y="160" font-family="Helvetica, Arial, sans-serif" font-size="14" fill="#4f6d7a">базы</text>
  <text x="56" y="186" font-family="Helvetica, Arial, sans-serif" font-size="13" fill="#6b7a87">SVG содержит исходную полилинию, фрактальные итерации, масштаб и длину по слоям.</text>
  </g>
  <g>
    <polyline fill="none" stroke="#7a8b99" stroke-width="1.80" stroke-opacity="0.85" stroke-linejoin="round" stroke-linecap="round" stroke-dasharray="8 6" points="359.94,335.72 361.39,336.14 361.97,335.62 363.59,335.38 363.30,335.19 364.65,335.20 365.80,337.05 364.81,338.74 364.92,340.08 362.96,341.08 362.59,341.49 363.10,341.67 362.28,342.31 360.75,342.46 360.74,344.72 358.82,345.91 359.78,346.59 359.01,347.25 360.26,346.83 359.61,348.67 360.75,349.03 362.49,351.21 362.00,353.20 362.68,354.57 365.85,356.95 367.59,357.63 370.07,357.50 371.36,358.02 373.57,361.54 380.95,359.16 383.86,360.30 384.98,361.81 390.18,362.18 395.67,360.63 396.23,359.07 395.94,360.56 398.35,359.00 400.82,358.90 399.44,358.30 399.70,357.76 400.65,357.63 400.92,358.01 401.64,357.35 402.58,357.33 402.23,357.69 402.71,357.66 402.88,358.25 402.19,358.00 401.47,358.40 401.05,358.03 401.09,358.88 403.88,358.37 403.84,357.84 404.30,358.15 409.24,354.63 413.05,353.55 417.72,353.47 426.15,349.58 430.00,348.96 434.09,348.91 441.21,346.04 450.70,346.15 452.42,346.84 455.39,346.19 456.86,346.76 455.45,347.78 451.12,348.58 440.99,346.39 434.66,349.21 426.33,349.94 419.50,353.43 415.37,354.27 411.11,354.51 409.03,355.21 406.32,357.02 405.10,358.07 405.59,358.35 404.75,358.37 400.43,362.83 398.42,362.75 395.16,365.10 391.24,365.18 386.67,366.39 383.42,366.15 385.86,366.92 385.23,367.47 385.86,367.60 388.75,366.31 391.52,365.71 392.91,365.94 391.50,367.27 388.80,367.89 384.77,367.69 380.19,366.69 377.40,366.74 375.13,366.12 377.09,366.26 374.22,364.75 373.76,364.87 374.55,365.24 374.53,365.89 371.36,365.33 365.56,366.36 365.40,365.66 365.19,366.21 363.40,366.05 357.74,364.65 357.55,363.97 358.07,363.79 356.35,363.31 357.17,364.20 355.54,364.46 350.69,363.55 347.48,362.24 341.41,362.90 335.67,362.91 332.75,361.82 331.04,360.17 333.22,362.51 339.58,366.22 344.15,369.91 343.52,369.36 344.44,369.61 343.37,369.11 343.76,367.57 344.69,366.77 346.96,366.18 356.36,367.98 360.92,369.52 359.21,368.75 361.55,369.12 360.06,368.62 360.91,368.69 362.18,369.28 360.85,369.22 361.97,369.48 364.17,368.52 365.87,369.21 366.63,371.07 368.08,372.34 367.67,373.32 366.41,373.67 365.69,373.28 364.52,374.91 361.33,375.99 357.18,376.66 356.60,376.63 358.89,376.41 353.11,376.55 349.46,377.38 349.75,377.57 347.99,378.37 347.62,379.22 348.19,378.95 348.87,379.37 349.45,380.57 349.14,381.29 350.11,380.61 349.93,380.21 350.40,380.72 351.29,380.45 351.56,381.25 352.57,380.23 353.00,380.47 352.50,380.74 353.42,380.61 353.73,381.06 355.07,380.58 355.50,381.31 357.01,379.51 356.54,378.98 356.30,379.52 355.87,379.40 355.76,378.08 356.99,377.85 356.97,378.89 360.02,379.24 359.34,379.21 360.39,379.56 360.64,380.54 361.29,380.74 360.67,380.59 360.87,380.94 361.20,381.23 361.76,380.95 361.30,381.23 362.08,381.81 363.64,381.95 364.17,381.31 363.94,382.07 364.80,382.29 365.59,382.41 365.15,382.01 365.67,381.80 366.04,382.50 367.19,381.81 368.75,382.82 368.57,382.38 369.22,382.38 370.16,384.16 370.91,384.15 370.73,384.47 371.86,385.14 372.85,385.25 372.73,384.91 373.20,385.54 375.17,385.56 377.54,387.46 377.10,386.89 377.85,386.96 377.87,386.51 378.79,386.35 380.26,386.85 380.82,387.83 380.24,387.96 380.07,387.43 379.66,387.80 380.19,389.06 379.38,390.21 367.51,387.71 391.70,393.09 400.80,394.78 401.01,393.69 404.84,392.54 407.72,392.03 409.69,392.47 413.67,391.91 416.08,390.94 420.06,391.74 423.20,391.25 425.59,392.13 433.52,391.69 433.96,391.53 432.84,391.44 432.67,390.97 433.66,389.87 433.16,388.90 434.40,388.61 436.26,388.80 437.32,390.07 440.84,390.77 444.15,388.65 444.94,387.43 444.35,386.03 445.18,386.50 446.85,384.61 445.56,387.44 447.07,388.78 445.81,389.49 445.07,391.38 445.40,391.94 445.98,392.03 445.77,390.66 446.60,390.21 448.55,389.80 450.87,390.19 452.33,390.91 452.82,391.80 452.12,392.95 450.65,392.66 450.90,393.99 453.01,394.04 452.49,393.87 452.83,392.17 454.05,391.45 454.98,392.66 456.81,393.17 456.47,394.14 460.14,397.11 460.85,397.13 460.23,396.85 460.47,396.42 461.89,396.39 462.98,395.80 465.59,397.28 466.65,397.09 464.93,395.62 465.29,394.10 466.55,393.65 470.01,394.11 466.60,392.54 466.17,391.00 466.94,391.37 468.19,391.12 468.59,389.97 469.99,389.85 470.80,388.53 471.82,388.56 472.92,389.49 475.11,393.90 473.90,394.49 473.25,395.58 474.43,401.56 473.46,402.84 474.78,403.09 474.88,402.63 476.19,402.23 481.69,402.42 482.56,402.71 483.01,403.63 482.32,404.11 480.71,404.18 478.79,405.47 478.31,405.14 477.74,405.37 477.87,409.76 476.17,407.89 474.96,407.72 473.17,406.63 470.91,408.15 470.05,408.05 468.42,410.31 467.75,409.60 465.70,410.00 465.11,409.02 464.26,409.13 460.10,410.64 460.08,411.24 459.79,410.87 459.53,411.24 459.75,411.94 459.37,411.26 455.99,413.57 449.57,415.74 446.30,415.83 444.18,414.82 442.98,413.59 442.25,416.74 441.14,418.11 436.31,419.16 428.71,422.04 424.55,424.17 419.80,426.90 419.56,427.34 420.87,427.38 421.26,427.97 420.03,429.28 420.26,429.70 419.48,429.01 418.52,429.36 418.47,429.73 419.19,429.63 419.33,430.36 415.85,431.05 418.35,429.44 417.38,428.81 412.22,431.04 412.10,431.97 410.82,432.34 411.33,431.93 410.83,431.45 403.62,434.30 400.49,436.08 396.46,440.01 397.17,440.77 398.37,440.92 398.98,441.82 397.50,443.43 408.22,445.50 413.40,442.74 416.82,441.96 425.23,442.36 428.50,443.47 430.51,444.72 430.65,444.39 426.63,442.55 429.58,443.02 430.66,442.43 430.95,443.33 432.20,442.65 432.45,441.95 434.77,441.74 434.87,441.01 436.09,440.55 438.25,440.74 438.13,440.36 440.50,439.32 440.95,438.58 441.73,438.67 442.34,437.41 443.79,437.17 444.41,436.48 445.55,436.87 443.87,437.94 443.07,437.51 441.78,439.28 439.55,440.26 440.60,440.57 439.30,440.56 438.44,441.80 437.23,441.81 437.05,441.34 435.96,441.69 434.81,443.12 436.33,443.16 436.43,443.50 435.74,443.95 435.54,443.51 435.01,443.88 433.59,443.75 434.27,444.65 433.51,444.68 433.18,445.99 430.86,444.84 436.33,448.29 439.28,451.13 441.08,452.00 441.87,453.14 444.20,454.33 446.95,454.92 449.07,456.76 450.72,456.77 452.34,455.04 455.48,454.98 457.63,453.50 459.64,453.76 461.66,454.67 465.45,457.06 469.65,461.06 472.30,466.28 472.58,468.08 472.09,468.55 473.11,472.27 472.75,475.49 471.76,477.26 470.37,477.80 469.12,477.60 468.86,478.00 468.90,479.58 467.74,480.94 468.71,485.17 468.58,489.07 467.90,490.86 466.60,491.36 466.12,492.17 469.71,492.19 471.69,492.98 467.72,492.73 467.42,493.82 467.28,492.63 466.82,492.92 465.99,492.44 465.38,493.19 463.74,493.04 463.58,493.76 463.31,493.09 462.21,493.25 461.98,494.15 461.37,493.50 460.19,494.28 461.18,495.74 459.78,494.69 459.50,496.29 459.30,495.41 458.83,495.91 458.90,494.46 457.26,495.00 459.77,497.31 463.24,499.11 464.59,500.80 465.44,500.39 469.25,501.47 471.94,500.90 473.32,501.45 474.67,502.51 475.61,505.64 477.21,506.19 479.54,505.97 481.57,508.27 484.27,508.31 489.88,506.92 497.30,507.98 500.41,506.88 501.57,507.01 503.75,505.87 507.87,505.46 510.71,500.96 516.28,500.17 518.14,497.85 519.97,497.06 522.76,497.38 522.91,495.03 524.35,494.41 524.69,493.05 527.47,488.87 530.44,486.24 535.39,484.46 536.70,483.54 538.93,483.07 540.16,482.18 550.76,479.20 556.39,479.31 558.21,478.84 560.81,479.29 561.38,478.32 564.76,477.58 566.16,478.33 566.96,477.94 569.01,478.32 570.36,479.40 570.03,480.28 572.46,480.89 575.74,478.79 576.12,476.33 577.76,473.83 583.24,472.24 584.00,470.96 583.62,469.91 584.22,469.34 585.55,468.92 586.75,469.44 588.73,468.89 590.65,469.26 590.76,469.76 592.95,470.41 593.29,469.88 591.93,469.81 590.83,468.50 591.00,467.81 591.57,467.21 595.68,465.95 592.94,464.73 593.65,462.66 597.22,460.10 603.16,458.26 608.48,458.24 616.10,460.53 621.64,463.86 621.78,465.35 623.17,465.93 622.96,466.55 623.66,466.89 628.58,465.46 631.44,465.96 633.48,465.09 634.70,463.94 636.54,463.43 649.75,464.91 651.57,463.40 655.31,462.83 659.76,462.83 664.56,460.90 665.19,459.98 677.31,457.29 682.89,458.67 684.24,459.42 689.76,458.81 695.47,459.72 711.87,464.54 719.80,468.45 723.58,472.14 723.60,473.38 722.15,474.19 725.07,477.02 725.20,478.58 727.90,481.41 728.23,482.91 727.60,483.14 729.24,483.56 729.72,484.42 734.74,487.48 739.13,488.71 740.07,488.57 743.84,489.42 746.20,489.20 749.32,490.32 751.92,490.49 755.74,489.57 756.90,488.51 755.49,487.34 755.24,485.57 754.69,485.59 755.56,484.81 755.91,485.18 756.28,484.83 756.29,485.61 757.34,485.53 756.67,485.91 757.57,485.45 758.31,485.73 758.29,486.08 759.05,486.13 758.81,486.72 759.61,486.78 761.61,488.47 763.88,489.37 765.08,490.79 763.28,491.78 765.16,493.70 768.63,495.60 768.64,496.01 771.64,496.57 772.01,496.11 771.45,495.05 772.92,494.87 774.09,495.42 774.79,496.72 772.99,497.23 778.22,500.50 779.95,503.48 781.44,504.13 783.36,506.22 784.69,506.64 789.47,506.86 792.39,508.15 792.84,508.79 795.08,509.48 797.84,509.06 808.11,510.79 810.54,511.92 811.52,511.91 812.45,512.66 817.03,513.51 818.06,514.12 820.20,514.08 823.22,515.41 828.32,521.13 829.62,521.81 831.25,521.79 834.65,523.14 837.23,523.49 838.96,525.19 839.71,527.84 842.41,528.15 842.33,528.59 843.39,528.90 847.46,532.95 857.28,538.30 859.58,541.02 861.00,541.57 864.42,544.21 868.78,548.90 876.63,554.45 878.43,556.90 884.06,559.33 885.65,562.59 886.75,563.55 893.11,566.15 896.84,568.31 899.75,573.87 901.52,575.01 904.54,575.99 910.37,576.55 915.89,579.01 921.52,580.69 923.02,584.16 923.71,589.16 927.95,592.09 929.73,590.69 931.72,590.29 936.75,592.59 940.23,592.51 944.23,595.87 948.50,595.19 951.77,596.18 955.93,596.09 963.10,596.86 964.49,597.63 970.38,603.26 971.03,603.28 972.16,602.30 975.42,602.34 977.87,605.34 979.76,612.64 982.68,615.80 984.67,616.16 986.65,615.40 988.34,615.58 992.25,616.49 993.87,617.35 999.21,618.21 1001.09,619.67 1001.25,619.17 1001.28,619.60 1002.09,619.56 1002.76,620.15 1004.60,623.06 1007.30,629.67 1010.20,643.13 1010.54,642.49 1010.39,643.29 1012.58,644.36 1014.95,649.37 1016.01,653.18 1015.27,655.14 1015.82,655.59 1019.34,656.38 1022.43,657.97 1024.59,657.38 1024.79,657.06 1023.82,656.89 1023.68,656.42 1025.96,655.17 1028.30,656.08 1030.84,655.29 1032.10,656.91 1033.20,656.04 1035.00,656.60 1037.34,655.61 1037.64,656.38 1038.92,656.04 1041.11,657.01 1041.59,657.75 1042.36,657.06 1044.39,657.13 1045.77,657.89 1047.37,657.72 1048.32,658.80 1051.20,658.49 1052.51,659.14 1053.59,660.64 1058.10,662.29 1059.53,662.40 1060.66,661.02 1063.52,661.54 1063.19,660.24 1064.00,659.90 1063.31,660.30 1063.74,661.54 1062.34,661.69 1060.70,661.16 1060.14,662.39 1058.73,662.64 1053.64,660.98 1052.53,659.31 1051.51,658.89 1047.88,659.00 1047.25,657.91 1045.80,658.09 1044.48,657.31 1042.72,657.30 1041.57,657.93 1038.96,656.29 1037.56,656.56 1037.15,655.73 1035.00,656.96 1033.19,656.24 1032.08,657.18 1030.45,655.47 1028.84,656.41 1025.45,655.57 1024.03,656.71 1025.28,656.77 1025.16,657.59 1022.38,658.35 1019.12,656.40 1016.76,656.31 1015.98,657.44 1016.96,658.92 1016.33,659.52 1019.92,663.37 1020.67,662.97 1019.49,660.10 1023.62,660.34 1024.47,661.17 1023.75,661.34 1023.37,662.49 1020.71,663.08 1022.38,663.83 1021.93,665.10 1021.38,664.80 1021.84,665.56 1020.69,663.15 1020.69,663.75 1020.14,663.63 1023.40,668.26 1023.77,667.68 1025.17,678.99 1024.73,682.39 1020.63,690.17 1017.63,693.24 1016.26,693.48 1015.59,692.79 1012.24,695.44 1011.00,697.16 1010.54,700.39 1007.85,704.60 1004.60,706.06 1000.42,711.04 999.70,711.51 995.81,712.02 993.47,713.33 990.57,714.12 988.31,716.10 984.77,717.80 982.78,718.22 981.13,719.84 975.56,722.99 967.85,725.31 964.08,724.90 959.13,726.33 956.72,728.07 953.66,731.32 951.66,732.04 951.09,731.79 945.71,734.02 943.76,734.17 941.81,735.38 940.28,735.37 939.33,734.70 940.08,734.61 938.63,734.48 933.71,735.51 930.84,735.54 922.06,741.40 917.49,743.03 915.40,743.15 911.34,742.85 907.35,739.99 905.46,740.15 904.42,739.63 900.34,740.32 895.31,740.11 893.45,738.25 890.06,737.08 887.74,737.23 887.26,736.67 886.02,736.44 882.30,737.59 881.06,737.47 880.06,736.74 875.64,735.51 870.25,731.05 865.69,730.00 862.35,731.86 856.57,733.89 854.39,734.06 852.57,733.49 851.21,732.22 848.34,731.90 845.22,733.79 841.18,734.71 837.90,735.06 837.11,734.67 833.51,734.72 832.87,734.31 828.67,736.48 825.60,736.95 824.93,736.49 818.05,740.58 815.34,740.69 813.23,738.99 811.94,739.05 809.75,740.81 805.55,742.88 802.23,743.11 801.46,742.76 798.79,743.24 796.86,742.97 796.09,742.38 793.83,743.40 791.56,742.67 788.75,740.96 782.49,741.39 782.00,741.14 782.38,741.02 779.86,740.38 778.49,740.43 769.75,738.57 765.31,738.28 765.33,738.74 764.96,738.19 761.85,738.24 760.67,736.24 756.82,735.54 755.10,733.69 754.32,732.48 755.32,729.38 754.32,729.58 752.94,729.16 749.77,729.55 748.28,728.01 746.33,729.38 743.82,732.51 743.32,733.94 742.23,734.72 738.45,735.84 736.44,735.34 735.23,734.57 734.56,733.05 730.64,731.87 728.94,730.27 722.00,728.89 721.52,728.37 721.91,727.41 711.25,727.15 705.54,725.40 704.28,724.59 703.81,723.83 704.36,723.82 703.30,722.80 703.79,722.84 703.86,720.34 702.63,718.50 693.69,714.48 689.07,713.39 681.78,712.64 679.24,711.48 679.00,712.59 678.56,711.33 676.45,712.45 676.07,712.98 676.48,713.32 672.85,717.81 670.50,719.14 666.18,720.62 661.53,720.33 660.56,719.92 659.96,719.01 660.32,718.81 658.17,718.18 658.04,717.25 657.92,717.88 657.34,717.41 657.62,716.14 658.54,716.28 650.93,713.42 650.13,712.04 643.36,705.97 642.52,703.22 643.39,699.56 642.31,695.03 638.29,690.79 631.38,687.56 618.89,692.01 609.76,694.20 605.20,694.60 598.67,693.49 594.92,691.04 585.67,688.89 584.67,688.12 584.82,687.38 581.00,685.39 579.99,683.67 580.91,682.99 578.70,681.87 577.54,680.42 575.97,679.54 575.40,677.82 574.17,676.98 573.00,674.97 573.37,671.95 575.12,668.75 576.82,668.03 580.71,668.80 581.15,668.32 579.70,666.81 578.43,666.86 575.54,668.03 571.68,667.69 569.90,666.83 569.65,666.07 570.38,665.61 569.74,665.60 569.94,665.08 568.04,663.38 563.17,663.02 563.44,664.63 560.69,667.96 558.36,669.78 553.51,672.63 548.20,673.42 537.08,673.26 533.64,672.45 532.41,671.23 531.46,671.93 528.64,671.91 525.87,672.89 523.22,673.32 522.21,672.92 521.67,673.42 519.47,673.63 511.16,672.39 510.79,671.92 505.73,671.06 500.80,670.83 492.69,671.54 484.51,671.46 483.66,670.88 481.85,671.18 473.66,670.65 462.44,668.83 459.96,669.09 458.09,668.51 454.58,668.28 449.51,670.34 446.08,671.01 443.81,671.89 443.11,672.65 433.54,674.57 432.82,675.37 430.46,675.93 430.13,676.38 430.69,676.39 429.79,677.01 423.09,678.61 422.31,679.17 416.55,679.17 415.88,679.88 412.52,679.90 411.91,680.59 410.34,680.67 409.84,681.11 403.32,681.33 402.80,682.42 397.79,683.08 396.86,684.44 395.42,684.98 394.71,684.81 393.15,685.70 392.14,687.25 390.52,687.07 390.57,686.56 389.92,686.30 390.04,686.68 388.74,686.92 388.63,687.61 387.13,687.71 387.05,688.39 384.63,688.21 383.22,688.60 379.75,690.72 380.11,691.05 379.26,690.90 379.59,691.79 379.16,692.28 375.80,693.94 376.21,694.52 373.68,696.44 367.60,697.94 368.26,698.70 367.44,698.09 366.05,698.41 363.63,700.32 359.31,701.27 357.71,702.06 356.94,701.83 357.28,702.05 353.51,703.44 352.38,704.59 349.63,705.80 349.13,706.24 349.55,706.52 347.46,706.49 346.89,707.58 342.54,709.61 339.76,710.33 338.37,711.38 332.44,712.60 329.44,713.63 327.95,715.08 325.90,715.09 324.82,715.97 323.49,715.90 322.91,717.38 324.88,718.59 324.65,719.45 323.66,718.90 324.10,722.86 318.43,728.52 313.27,730.27 304.52,730.99 301.20,731.95 297.29,732.33 290.58,732.36 279.95,731.42 272.94,728.54 259.71,726.79 252.76,724.78 251.20,723.68 250.36,723.94 247.67,723.35 247.26,722.86 245.77,724.66 243.99,724.65 244.58,725.21 243.75,725.32 244.12,726.31 241.80,726.34 241.72,727.39 240.96,726.87 240.92,727.28 239.19,727.94 236.77,727.56 235.67,728.15 235.54,727.76 231.98,728.21 230.73,727.78 230.19,728.25 229.95,727.87 227.56,728.15 226.51,727.73 222.79,727.54 220.44,727.83 219.46,727.54 218.67,727.95 213.20,726.41 210.71,726.78 208.49,726.16 206.80,726.31 202.42,724.93 201.80,725.17 202.34,725.13 201.90,725.64 201.02,725.77 195.43,724.80 187.58,722.71 185.28,722.98 181.05,722.27 178.67,721.70 178.57,721.35 177.57,721.86 175.74,721.65 175.55,722.35 172.57,722.08 172.16,722.53 166.98,720.66 166.47,720.05 166.11,720.50 163.77,719.83 163.46,720.61 161.39,720.69 156.06,718.88 154.17,718.94 152.70,718.46 152.65,718.03 150.34,717.87 148.49,716.62 146.65,716.83 146.54,716.10 143.39,715.06 142.79,715.34 140.31,714.33 139.87,713.72 139.14,714.06 136.27,713.58 131.67,711.33 112.04,703.72 109.26,701.84 108.44,701.84 108.59,701.45 106.15,699.69 105.96,698.60 103.80,698.11 103.33,696.87 100.16,694.58 99.53,692.91 100.76,692.06 100.33,691.29 97.97,689.70 96.41,687.83 96.44,686.34 93.36,683.40 92.19,680.85 92.17,678.74 91.66,678.75 94.56,676.77 96.43,677.72 97.52,677.50 96.60,675.47 97.00,673.32 96.54,672.18 95.42,671.35 96.06,670.78 95.90,670.02 94.25,668.11 94.68,667.79 93.93,666.80 92.63,666.01 93.07,665.36 91.64,665.21 90.01,662.59 88.54,662.75 87.77,662.16 87.81,661.18 86.61,659.98 85.23,659.55 85.12,658.74 84.68,659.07 84.33,658.43 83.65,658.41 84.13,657.89 82.56,656.90 82.90,656.47 81.43,656.19 81.43,655.63 80.42,655.00 79.58,655.11 78.50,654.18 79.05,653.55 76.69,652.62 76.98,651.76 77.80,651.69 77.01,651.17 76.87,650.31 78.29,649.70 78.03,649.34 79.75,648.88 78.29,648.00 78.91,647.73 79.04,646.90 77.25,647.08 76.86,647.67 76.01,647.47 74.13,645.08 74.02,644.54 74.95,644.01 73.92,643.72 73.74,642.95 74.01,642.57 74.97,642.61 75.32,641.92 73.71,641.99 73.22,640.78 72.55,640.84 72.73,641.25 71.60,641.98 70.61,641.85 69.54,640.95 69.58,640.57 70.38,640.52 69.75,639.97 70.06,639.16 68.91,639.27 68.57,638.57 68.24,639.50 67.56,639.62 65.64,638.31 64.85,639.01 65.26,639.51 64.09,639.51 62.47,638.73 61.72,640.13 60.55,640.67 58.42,638.40 57.60,639.48 56.00,638.45 56.87,636.59 57.15,637.14 57.38,636.64 57.93,636.98 58.41,636.66 58.68,637.05 59.10,634.02 61.26,631.97 62.42,631.86 63.76,632.43 65.52,631.47 66.57,631.94 67.61,631.46 68.91,631.80 69.29,632.41 70.04,632.13 68.77,630.16 69.11,627.07 69.84,626.42 71.78,626.69 72.78,625.57 74.02,625.96 74.52,625.25 76.12,625.06 74.98,624.98 74.12,624.24 74.30,622.75 75.13,621.76 86.89,622.27 86.08,618.79 86.92,617.45 85.64,612.89 86.27,611.92 87.07,611.88 86.59,607.68 87.30,606.80 85.87,601.58 86.04,599.60 87.76,597.82 90.01,590.48 87.93,590.29 85.02,588.75 81.04,589.78 73.67,588.81 71.80,589.44 71.37,589.15 71.03,589.59 71.23,589.18 70.44,589.61 69.81,589.17 72.63,588.63 76.35,588.74 77.72,589.17 78.80,588.53 79.19,588.82 79.67,588.23 79.96,588.60 82.25,588.89 84.01,587.85 85.33,587.86 86.65,588.88 87.59,589.17 88.12,588.83 88.34,589.21 88.45,588.41 89.71,587.81 91.88,587.24 93.43,587.48 94.68,586.72 94.89,585.65 95.54,585.37 99.58,576.87 103.89,574.69 107.04,575.16 114.51,573.78 117.71,574.10 121.73,575.86 124.23,576.37 125.13,577.72 125.46,576.26 127.32,574.24 128.59,573.95 130.76,572.27 133.24,568.88 134.77,565.54 132.25,562.12 132.78,558.95 131.74,556.25 131.83,555.01 132.70,554.40 132.83,548.71 133.78,548.02 132.85,548.47 132.11,547.86 130.93,548.03 130.55,547.45 130.09,547.84 129.30,547.50 130.21,547.71 130.50,547.22 131.00,547.83 131.23,547.53 132.82,547.92 133.37,547.37 133.59,545.36 134.84,544.48 135.11,541.35 136.67,539.61 136.50,538.07 138.79,535.33 136.82,529.26 137.17,528.76 140.21,528.53 140.67,527.46 140.15,528.41 138.88,528.33 139.39,527.57 139.16,527.96 138.79,527.47 138.74,527.96 138.52,527.08 137.90,527.66 137.74,527.06 137.52,528.09 135.76,527.62 137.22,527.45 137.40,526.87 136.83,526.51 137.75,525.77 137.66,526.90 138.01,525.66 138.48,526.78 137.95,526.93 139.43,527.21 138.21,525.63 138.59,524.86 137.50,525.11 138.75,524.27 137.13,524.39 137.88,524.07 137.13,523.92 137.87,523.84 137.68,522.99 141.47,527.14 138.18,523.46 138.61,522.89 138.00,522.10 138.14,520.89 137.24,519.83 137.62,519.55 136.91,519.70 136.37,519.23 135.61,516.92 135.62,515.32 136.77,512.56 140.28,512.54 136.10,512.44 137.07,512.37 137.31,511.94 137.72,512.28 139.07,511.98 138.37,511.84 138.69,511.05 139.35,511.19 139.32,511.80 139.92,511.33 140.60,512.72 140.32,510.94 140.67,511.13 141.57,509.11 150.90,500.67 158.62,490.57 162.74,486.72 167.63,483.45 171.80,481.93 178.16,480.52 198.76,478.69 199.92,477.96 200.91,478.15 201.98,477.64 202.96,475.15 200.07,473.77 197.18,471.16 193.93,469.55 191.88,469.81 192.62,469.10 192.10,468.82 190.18,468.76 187.52,470.59 185.98,470.08 187.01,469.01 187.02,467.84 185.08,469.73 184.76,467.94 183.57,468.76 182.36,468.87 182.51,467.85 180.49,466.46 181.69,465.51 180.06,465.55 179.46,465.15 180.05,464.26 177.61,464.35 173.67,463.57 176.09,462.03 175.73,461.16 173.81,459.77 170.30,459.66 170.00,460.54 171.94,460.45 172.19,460.83 171.90,461.41 169.89,462.05 164.77,458.95 160.78,458.25 158.32,457.11 155.17,456.50 153.96,454.46 151.94,453.37 149.69,453.28 147.45,454.59 146.80,453.85 147.01,452.72 144.40,452.22 143.58,451.48 141.40,451.88 136.58,450.58 131.43,450.14 127.11,448.45 124.11,447.53 123.54,447.74 118.70,446.06 116.22,444.84 113.90,441.21 112.56,440.13 112.83,438.02 112.26,436.87 108.01,435.11 112.64,436.52 113.46,440.16 117.52,445.07 126.47,447.70 132.20,449.94 137.27,450.18 142.14,451.57 147.19,450.35 146.71,449.35 144.93,448.95 144.28,447.54 144.98,447.05 147.40,446.74 148.00,445.74 146.26,444.84 147.63,443.93 149.17,444.05 150.94,445.28 153.03,445.45 155.16,447.07 157.43,447.73 158.09,446.91 157.65,445.55 160.17,442.72 163.96,442.25 166.56,440.65 168.28,440.51 169.56,440.91 172.77,439.98 176.84,436.63 180.76,437.88 183.27,436.40 186.21,437.14 193.58,436.00 195.60,436.15 197.75,437.31 198.95,439.34 202.23,440.32 205.59,437.62 209.82,436.55 210.07,434.96 209.12,435.21 209.16,435.85 207.73,435.24 207.30,436.13 206.71,435.50 206.99,435.02 205.83,434.60 205.21,435.10 205.86,435.57 205.17,436.31 204.02,435.57 203.85,434.72 202.87,435.02 202.06,434.26 202.41,433.90 202.92,434.69 202.74,434.04 203.55,433.97 203.42,432.71 205.01,431.06 207.99,428.58 212.58,425.81 211.59,426.26 211.34,425.48 211.93,425.42 211.13,425.28 211.01,424.76 213.28,425.27 213.87,424.02 214.48,424.02 214.87,423.40 214.29,422.90 217.62,423.22 213.31,425.52 219.03,422.62 237.86,411.51 221.69,420.81 220.28,421.17 217.60,420.34 216.95,420.72 214.58,417.17 215.28,417.47 217.29,416.18 217.27,415.62 217.65,416.13 220.79,415.93 220.91,413.57 221.61,413.81 222.59,416.09 224.51,416.93 223.10,414.33 223.84,410.14 224.10,409.91 224.38,413.57 225.95,414.71 227.09,411.61 227.04,408.92 226.18,407.66 227.58,405.67 228.84,406.57 229.09,409.35 231.09,410.33 233.07,412.85 233.88,411.29 234.16,411.87 235.03,411.52 235.54,410.09 235.06,408.96 236.72,407.40 236.28,406.35 236.63,405.01 237.16,405.03 238.24,407.95 238.42,411.26 243.65,408.45 249.12,403.79 250.69,402.10 249.41,403.20 248.45,401.15 249.03,401.17 251.42,399.07 253.64,398.49 254.81,397.50 253.81,395.64 255.21,396.74 256.75,395.61 256.38,397.22 250.70,402.07 260.83,394.17 258.94,394.74 258.06,394.09 256.35,391.01 254.42,389.61 254.12,386.97 254.59,386.82 252.83,385.51 251.45,385.78 249.76,385.45 249.57,384.81 248.37,384.25 244.29,383.48 238.75,380.16 235.69,376.83 235.98,375.71 238.38,373.38 241.96,372.29 244.65,372.76 245.27,373.50 244.06,375.19 245.71,375.71 247.02,378.67 247.86,379.06 249.57,377.10 249.91,375.57 249.25,374.00 249.99,373.50 250.70,374.07 251.21,376.29 250.76,378.54 251.22,379.20 253.17,380.57 256.65,381.12 258.41,382.96 256.99,385.24 257.33,385.94 258.89,387.46 263.32,389.68 262.82,391.67 260.97,393.09 260.86,393.98 263.51,390.77 266.68,388.43 274.80,377.98 273.36,377.55 272.80,376.28 271.78,376.59 271.26,376.19 271.82,376.41 272.22,376.00 272.08,373.24 272.40,375.57 274.65,377.53 277.07,375.03 279.72,373.87 281.09,369.11 280.24,366.00 279.96,366.42 279.34,366.19 279.56,365.82 278.99,365.98 278.22,365.09 279.02,362.97 281.64,361.62 283.54,361.50 285.02,362.07 289.55,360.52 297.20,358.88 297.35,356.78 296.41,354.73 297.59,354.98 298.28,357.81 297.73,358.69 308.19,356.75 312.71,357.98 315.73,357.81 319.99,358.65 320.45,357.58 321.38,357.11 324.18,357.37 324.94,356.51 324.47,356.38 324.72,355.35 327.63,354.30 328.45,352.67 329.28,352.51 329.46,349.91 328.41,349.56 328.05,348.77 325.71,348.03 325.29,345.02 325.83,345.39 326.32,348.20 327.82,348.02 329.53,348.54 330.60,350.04 331.85,348.70 331.09,346.92 331.97,347.51 332.45,346.47 336.61,344.88 336.22,342.64 337.08,343.97 336.92,345.08 334.45,346.86 333.03,347.29 333.62,348.76 332.14,350.46 332.42,351.71 330.28,352.48 330.88,353.15 330.45,354.36 326.76,356.73 325.20,356.90 329.97,356.97 333.64,358.63 336.46,355.90 339.58,355.26 343.47,355.88 345.86,356.78 348.69,357.01 350.29,357.97 356.51,356.05 357.58,354.83 357.30,353.44 357.96,350.95 358.94,349.87 357.66,349.79 356.40,348.72 355.47,347.36 355.54,345.71 358.16,342.36 360.18,341.70 361.97,340.42 363.81,337.87 363.63,337.01 363.07,336.21 361.53,336.80 359.02,336.59 357.50,335.46 358.39,334.08 360.94,332.39 361.11,331.36 356.76,332.39 355.57,332.17 354.35,331.21 353.57,329.56 354.23,327.18 355.92,327.39 356.91,326.22 356.66,325.17 357.16,325.16 355.57,324.26 352.72,323.62 352.20,322.28 353.55,320.70 352.22,319.10 346.95,317.09 346.57,315.02 347.47,313.55 349.00,312.61 348.07,311.73 346.82,311.88 345.61,310.60 346.88,311.80 348.07,311.64 349.09,312.45 347.36,313.86 346.74,315.09 347.17,317.09 352.20,318.79 353.85,320.37 353.11,318.84 354.47,320.76 353.39,322.71 353.73,323.55 354.96,324.07 356.97,324.10 358.12,325.26 357.86,326.72 355.82,327.96 354.39,329.69 354.72,329.53 355.68,331.07 356.13,330.85 356.64,331.54 360.67,329.96 362.27,330.15 363.15,330.79 363.56,333.02 362.66,332.49 361.43,333.05 359.68,334.65 359.91,335.59 359.94,335.72"/>
    <polyline fill="none" stroke="#1f6f8b" stroke-width="3.60" stroke-opacity="1.00" stroke-linejoin="round" stroke-linecap="round" points="359.94,335.72 364.65,335.20 365.80,337.05 358.82,345.91 362.68,354.57 371.36,358.02 373.57,361.54 380.95,359.16 390.18,362.18 441.21,346.04 456.86,346.76 451.12,348.58 440.99,346.39 411.11,354.51 395.16,365.10 383.42,366.15 385.86,367.60 392.91,365.94 388.80,367.89 374.22,364.75 365.56,366.36 347.48,362.24 335.67,362.91 331.04,360.17 344.15,369.91 346.96,366.18 365.87,369.21 367.67,373.32 349.46,377.38 349.14,381.29 355.50,381.31 356.99,377.85 362.08,381.81 369.22,382.38 380.82,387.83 379.38,390.21 367.51,387.71 391.70,393.09 400.80,394.78 416.08,390.94 433.52,391.69 434.40,388.61 440.84,390.77 446.85,384.61 445.40,391.94 450.87,390.19 450.90,393.99 454.05,391.45 460.14,397.11 465.59,397.28 465.29,394.10 470.01,394.11 466.17,391.00 472.92,389.49 473.46,402.84 483.01,403.63 477.74,405.37 477.87,409.76 473.17,406.63 468.42,410.31 464.26,409.13 449.57,415.74 442.98,413.59 441.14,418.11 424.55,424.17 419.80,426.90 419.33,430.36 415.85,431.05 417.38,428.81 403.62,434.30 396.46,440.01 397.50,443.43 408.22,445.50 416.82,441.96 430.51,444.72 426.63,442.55 430.95,443.33 445.55,436.87 435.96,441.69 433.18,445.99 430.86,444.84 449.07,456.76 457.63,453.50 461.66,454.67 472.30,466.28 472.75,475.49 468.86,478.00 466.12,492.17 471.69,492.98 462.21,493.25 459.50,496.29 457.26,495.00 464.59,500.80 473.32,501.45 475.61,505.64 481.57,508.27 507.87,505.46 510.71,500.96 522.76,497.38 530.44,486.24 550.76,479.20 564.76,477.58 572.46,480.89 584.22,469.34 592.95,470.41 591.00,467.81 595.68,465.95 593.65,462.66 603.16,458.26 616.10,460.53 623.66,466.89 636.54,463.43 649.75,464.91 677.31,457.29 695.47,459.72 719.80,468.45 727.60,483.14 734.74,487.48 751.92,490.49 756.90,488.51 756.28,484.83 768.64,496.01 774.09,495.42 772.99,497.23 783.36,506.22 823.22,515.41 828.32,521.13 837.23,523.49 839.71,527.84 857.28,538.30 886.75,563.55 896.84,568.31 899.75,573.87 921.52,580.69 923.71,589.16 927.95,592.09 931.72,590.29 944.23,595.87 963.10,596.86 970.38,603.26 975.42,602.34 982.68,615.80 1002.76,620.15 1015.82,655.59 1022.43,657.97 1025.96,655.17 1037.34,655.61 1058.10,662.29 1064.00,659.90 1063.74,661.54 1058.73,662.64 1037.15,655.73 1032.08,657.18 1025.45,655.57 1022.38,658.35 1016.76,656.31 1019.92,663.37 1019.49,660.10 1024.47,661.17 1020.71,663.08 1021.84,665.56 1020.14,663.63 1023.77,667.68 1024.73,682.39 1020.63,690.17 1012.24,695.44 1007.85,704.60 1000.42,711.04 975.56,722.99 959.13,726.33 953.66,731.32 941.81,735.38 930.84,735.54 915.40,743.15 907.35,739.99 895.31,740.11 890.06,737.08 881.06,737.47 865.69,730.00 856.57,733.89 848.34,731.90 824.93,736.49 818.05,740.58 811.94,739.05 805.55,742.88 793.83,743.40 788.75,740.96 761.85,738.24 755.10,733.69 755.32,729.38 748.28,728.01 742.23,734.72 736.44,735.34 721.91,727.41 705.54,725.40 702.63,718.50 693.69,714.48 678.56,711.33 670.50,719.14 661.53,720.33 643.36,705.97 642.31,695.03 638.29,690.79 631.38,687.56 605.20,694.60 585.67,688.89 573.00,674.97 575.12,668.75 581.15,668.32 571.68,667.69 568.04,663.38 563.17,663.02 558.36,669.78 548.20,673.42 532.41,671.23 519.47,673.63 454.58,668.28 422.31,679.17 403.32,681.33 392.14,687.25 383.22,688.60 373.68,696.44 323.49,715.90 324.10,722.86 318.43,728.52 297.29,732.33 279.95,731.42 247.26,722.86 241.72,727.39 230.19,728.25 178.57,721.35 172.16,722.53 136.27,713.58 112.04,703.72 100.16,694.58 93.36,683.40 91.66,678.75 97.52,677.50 95.90,670.02 76.69,652.62 79.75,648.88 74.13,645.08 75.32,641.92 70.61,641.85 68.57,638.57 60.55,640.67 56.00,638.45 61.26,631.97 70.04,632.13 69.11,627.07 76.12,625.06 75.13,621.76 86.89,622.27 86.04,599.60 90.01,590.48 69.81,589.17 93.43,587.48 99.58,576.87 103.89,574.69 117.71,574.10 125.13,577.72 134.77,565.54 131.74,556.25 133.78,548.02 129.30,547.50 133.37,547.37 138.79,535.33 136.82,529.26 140.67,527.46 135.76,527.62 138.01,525.66 139.43,527.21 137.68,522.99 141.47,527.14 135.61,516.92 136.77,512.56 140.28,512.54 136.10,512.44 138.69,511.05 140.60,512.72 167.63,483.45 198.76,478.69 202.96,475.15 192.10,468.82 187.52,470.59 187.02,467.84 182.36,468.87 180.05,464.26 173.67,463.57 176.09,462.03 173.81,459.77 170.30,459.66 169.89,462.05 151.94,453.37 147.45,454.59 143.58,451.48 118.70,446.06 108.01,435.11 112.64,436.52 117.52,445.07 142.14,451.57 147.19,450.35 144.28,447.54 147.63,443.93 157.43,447.73 160.17,442.72 172.77,439.98 176.84,436.63 195.60,436.15 202.23,440.32 209.82,436.55 210.07,434.96 205.17,436.31 202.06,434.26 212.58,425.81 211.01,424.76 217.62,423.22 213.31,425.52 237.86,411.51 221.69,420.81 216.95,420.72 214.58,417.17 220.79,415.93 220.91,413.57 224.51,416.93 223.84,410.14 225.95,414.71 227.58,405.67 233.07,412.85 237.16,405.03 238.42,411.26 249.12,403.79 253.81,395.64 256.38,397.22 250.70,402.07 260.83,394.17 258.06,394.09 252.83,385.51 238.75,380.16 235.69,376.83 238.38,373.38 244.65,372.76 247.86,379.06 250.70,374.07 251.22,379.20 256.65,381.12 257.33,385.94 263.32,389.68 260.86,393.98 274.80,377.98 271.26,376.19 272.08,373.24 274.65,377.53 279.72,373.87 279.02,362.97 297.20,358.88 296.41,354.73 297.73,358.69 308.19,356.75 319.99,358.65 329.28,352.51 325.29,345.02 330.60,350.04 336.22,342.64 330.45,354.36 325.20,356.90 333.64,358.63 339.58,355.26 350.29,357.97 356.51,356.05 358.94,349.87 355.54,345.71 363.63,337.01 357.50,335.46 361.11,331.36 354.35,331.21 357.16,325.16 346.95,317.09 349.00,312.61 345.61,310.60 349.09,312.45 347.17,317.09 353.85,320.37 353.11,318.84 353.73,323.55 358.12,325.26 354.39,329.69 356.64,331.54 363.15,330.79 359.91,335.59 359.94,335.72"/>
  </g>
  <g>
  </g>
  <g>
    <text x="1092" y="220" font-family="Helvetica, Arial, sans-serif" font-size="18" font-weight="700" fill="#16324f">Слои и длины</text>
    <line x1="1092" y1="258" x2="1126" y2="258" stroke="#7a8b99" stroke-width="1.80" stroke-opacity="0.85" stroke-dasharray="8 6"/>
    <text x="1138" y="256" font-family="Helvetica, Arial, sans-serif" font-size="13" fill="#16324f">Реальная загруженная</text>
    <text x="1138" y="271" font-family="Helvetica, Arial, sans-serif" font-size="13" fill="#16324f">полилиния (справочно)</text>
    <text x="1138" y="288" font-family="Helvetica, Arial, sans-serif" font-size="12" fill="#6b7a87">6391 км</text>
    <line x1="1092" y1="302" x2="1356" y2="302" stroke="#ddd6c8" stroke-width="1"/>
    <line x1="1092" y1="326" x2="1126" y2="326" stroke="#1f6f8b" stroke-width="3.60" stroke-opacity="1.00"/>
    <text x="1138" y="324" font-family="Helvetica, Arial, sans-serif" font-size="13" fill="#16324f">Упрощённая база модели</text>
    <text x="1138" y="339" font-family="Helvetica, Arial, sans-serif" font-size="13" fill="#16324f">(итерация 0)</text>
    <text x="1138" y="356" font-family="Helvetica, Arial, sans-serif" font-size="12" fill="#6b7a87">5334 км</text>
  </g>
  <g>
    <rect x="1092" y="398" width="264" height="108" rx="18" fill="#f8f6ef" stroke="#d6d0c4"/>
    <text x="1106" y="418" font-family="Helvetica, Arial, sans-serif" font-size="14" font-weight="700" fill="#16324f">Контроль геометрии</text>
    <text x="1106" y="450" font-family="Helvetica, Arial, sans-serif" font-size="12" fill="#4f6d7a">Сегменты &gt; 450 км</text>
    <text x="1342" y="450" text-anchor="end" font-family="Helvetica, Arial, sans-serif" font-size="13" font-weight="700" fill="#3f6b4b">0</text>
    <line x1="1106" y1="454" x2="1342" y2="454" stroke="#e7e1d5" stroke-width="1"/>
    <text x="1106" y="472" font-family="Helvetica, Arial, sans-serif" font-size="12" fill="#4f6d7a">Повторы ориентиров</text>
    <text x="1342" y="472" text-anchor="end" font-family="Helvetica, Arial, sans-serif" font-size="13" font-weight="700" fill="#3f6b4b">0</text>
    <line x1="1106" y1="476" x2="1342" y2="476" stroke="#e7e1d5" stroke-width="1"/>
    <text x="1106" y="494" font-family="Helvetica, Arial, sans-serif" font-size="12" fill="#4f6d7a">Автоисправления</text>
    <text x="1342" y="494" text-anchor="end" font-family="Helvetica, Arial, sans-serif" font-size="13" font-weight="700" fill="#3f6b4b">0</text>
  </g>
  <g>
    <rect x="1092" y="524" width="264" height="118" rx="18" fill="#fcfbf7" stroke="#d6d0c4"/>
    <text x="1106" y="544" font-family="Helvetica, Arial, sans-serif" font-size="14" font-weight="700" fill="#16324f">Длина по итерациям</text>
    <line x1="1106" y1="555" x2="1122" y2="555" stroke="#1f6f8b" stroke-width="2.2"/>
    <text x="1128" y="559" font-family="Helvetica, Arial, sans-serif" font-size="11" fill="#4f6d7a">Измерено</text>
    <line x1="1106" y1="568.00" x2="1342" y2="568.00" stroke="#ddd6c8" stroke-width="1"/>
    <line x1="1106" y1="594.00" x2="1342" y2="594.00" stroke="#ddd6c8" stroke-width="1"/>
    <line x1="1106" y1="620.00" x2="1342" y2="620.00" stroke="#ddd6c8" stroke-width="1"/>
    <line x1="1106" y1="620" x2="1342" y2="620" stroke="#8a9aa6" stroke-width="1.4"/>
    <text x="1106" y="562" font-family="Helvetica, Arial, sans-serif" font-size="11" fill="#6b7a87">5601</text>
    <text x="1106" y="634" font-family="Helvetica, Arial, sans-serif" font-size="11" fill="#6b7a87">5067</text>
    <text x="1106" y="632" font-family="Helvetica, Arial, sans-serif" font-size="11" fill="#6b7a87">0</text>
    <text x="1342" y="632" text-anchor="end" font-family="Helvetica, Arial, sans-serif" font-size="11" fill="#6b7a87">0</text>
    <polyline fill="none" stroke="#1f6f8b" stroke-width="2.4" stroke-linecap="round" stroke-linejoin="round" points="1106.00,594.00"/>
    <circle cx="1106.00" cy="594.00" r="2.8" fill="#1f6f8b"/>
    <rect x="1092" y="660" width="264" height="118" rx="18" fill="#fcfbf7" stroke="#d6d0c4"/>
    <text x="1106" y="680" font-family="Helvetica, Arial, sans-serif" font-size="14" font-weight="700" fill="#16324f">Размерность D</text>
    <line x1="1106" y1="691" x2="1122" y2="691" stroke="#8b3f5c" stroke-width="2.2"/>
    <text x="1128" y="695" font-family="Helvetica, Arial, sans-serif" font-size="11" fill="#4f6d7a">Оценка</text>
    <line x1="1204" y1="691" x2="1220" y2="691" stroke="#6f5f1f" stroke-width="2.2" stroke-dasharray="5 4"/>
    <text x="1226" y="695" font-family="Helvetica, Arial, sans-serif" font-size="11" fill="#4f6d7a">Теория</text>
    <line x1="1106" y1="704.00" x2="1342" y2="704.00" stroke="#ddd6c8" stroke-width="1"/>
    <line x1="1106" y1="730.00" x2="1342" y2="730.00" stroke="#ddd6c8" stroke-width="1"/>
    <line x1="1106" y1="756.00" x2="1342" y2="756.00" stroke="#ddd6c8" stroke-width="1"/>
    <line x1="1106" y1="756" x2="1342" y2="756" stroke="#8a9aa6" stroke-width="1.4"/>
    <text x="1106" y="698" font-family="Helvetica, Arial, sans-serif" font-size="11" fill="#6b7a87">1.276</text>
    <text x="1106" y="770" font-family="Helvetica, Arial, sans-serif" font-size="11" fill="#6b7a87">1.071</text>
    <text x="1106" y="768" font-family="Helvetica, Arial, sans-serif" font-size="11" fill="#6b7a87">0</text>
    <text x="1342" y="768" text-anchor="end" font-family="Helvetica, Arial, sans-serif" font-size="11" fill="#6b7a87">0</text>
    <polyline fill="none" stroke="#8b3f5c" stroke-width="2.4" stroke-linecap="round" stroke-linejoin="round" points="1106.00,752.41"/>
    <circle cx="1106.00" cy="752.41" r="2.8" fill="#8b3f5c"/>
    <polyline fill="none" stroke="#6f5f1f" stroke-width="2.4" stroke-linecap="round" stroke-linejoin="round" stroke-dasharray="5 4" points="1106.00,707.59"/>
    <circle cx="1106.00" cy="707.59" r="2.8" fill="#6f5f1f"/>
  </g>
  <g>
  </g>
  <g>
    <rect x="1092" y="822" width="264" height="186" rx="18" fill="#f8f6ef" stroke="#d6d0c4"/>
    <text x="1106" y="842" font-family="Helvetica, Arial, sans-serif" font-size="14" font-weight="700" fill="#16324f">Сводка</text>
    <text x="1106" y="864" font-family="Helvetica, Arial, sans-serif" font-size="12" fill="#4f6d7a">Реальная линия: 6391 км, 9635 т.</text>
    <line x1="1106" y1="884" x2="1342" y2="884" stroke="#e7e1d5" stroke-width="1"/>
    <text x="1106" y="892" font-family="Helvetica, Arial, sans-serif" font-size="12" fill="#4f6d7a">База модели: 5334 км, 391 т.</text>
    <text x="1106" y="908" font-family="Helvetica, Arial, sans-serif" font-size="12" fill="#4f6d7a">(-16.5% к реальной)</text>
    <line x1="1106" y1="928" x2="1342" y2="928" stroke="#e7e1d5" stroke-width="1"/>
    <text x="1106" y="936" font-family="Helvetica, Arial, sans-serif" font-size="12" fill="#4f6d7a">Текущий слой: 5334 км, 391 т.</text>
    <text x="1106" y="952" font-family="Helvetica, Arial, sans-serif" font-size="12" fill="#4f6d7a">расчёт / 391 т. SVG</text>
    <line x1="1106" y1="972" x2="1342" y2="972" stroke="#e7e1d5" stroke-width="1"/>
    <text x="1106" y="980" font-family="Helvetica, Arial, sans-serif" font-size="12" fill="#4f6d7a">D: 1.08469, R²=0.9999, стаб=true</text>
  </g>
  <g>
    <line x1="56" y1="966" x2="479" y2="966" stroke="#16324f" stroke-width="3"/>
    <line x1="56" y1="959" x2="56" y2="973" stroke="#16324f" stroke-width="6"/>
    <line x1="479" y1="959" x2="479" y2="973" stroke="#16324f" stroke-width="6"/>
    <text x="56" y="952" font-family="Helvetica, Arial, sans-serif" font-size="13" fill="#16324f">Масштаб ≈ 500 км</text>  </g>
</svg>
