<?xml version="1.0" encoding="UTF-8"?>
<svg xmlns="http://www.w3.org/2000/svg" width="1440" height="927" viewBox="0 0 1440 927">
  <rect width="100%" height="100%" fill="#f7f4ea"/>
  <rect x="20" y="20" width="1400" height="887" rx="28" fill="#fcfbf7" stroke="#d6d0c4"/>
  <rect x="1072" y="20" width="304" height="887" rx="24" fill="#f0ece2" stroke="#d6d0c4"/>
  <g>
  <text x="56" y="58" font-family="Helvetica, Arial, sans-serif" font-size="30" font-weight="700" fill="#16324f">Органическая кривая Коха — итерация 1</text>
  <text x="56" y="108" font-family="Helvetica, Arial, sans-serif" font-size="14" fill="#4f6d7a">Органическая модель: seed=42, угол ±18°, высота ±25%; серая пунктирная линия — реальная линия, цветные слои — от упрощённой</text>
  <text x="56" y="126" font-family="Helvetica, Arial, sans-serif" font-size="14" fill="#4f6d7a">базы</text>
  <text x="56" y="152" font-family="Helvetica, Arial, sans-serif" font-size="13" fill="#6b7a87">SVG содержит исходную полилинию, фрактальные итерации, масштаб и длину по слоям.</text>
  </g>
  <g>
    <polyline fill="none" stroke="#7a8b99" stroke-width="1.80" stroke-opacity="0.85" stroke-linejoin="round" stroke-linecap="round" stroke-dasharray="8 6" points="359.85,315.89 361.31,316.30 361.88,315.79 363.50,315.55 363.21,315.35 364.56,315.36 365.71,317.21 364.72,318.91 364.83,320.25 362.87,321.24 362.50,321.65 363.01,321.84 362.19,322.47 360.66,322.63 360.65,324.88 358.73,326.07 359.69,326.75 358.93,327.41 360.17,326.99 359.52,328.83 360.66,329.19 362.40,331.37 361.91,333.36 362.59,334.73 365.76,337.11 367.49,337.79 369.98,337.66 371.27,338.17 373.47,341.70 380.86,339.32 383.77,340.46 384.89,341.97 390.08,342.34 395.57,340.79 396.13,339.23 395.84,340.71 398.25,339.16 400.72,339.06 399.34,338.46 399.60,337.92 400.55,337.79 400.82,338.17 401.54,337.51 402.48,337.49 402.12,337.84 402.61,337.82 402.78,338.40 402.09,338.16 401.37,338.56 400.95,338.19 400.99,339.03 403.78,338.53 403.74,338.00 404.20,338.31 409.14,334.78 412.95,333.71 417.62,333.63 426.04,329.74 429.89,329.12 433.98,329.07 441.09,326.20 450.59,326.31 452.30,327.00 455.27,326.35 456.75,326.92 455.33,327.95 451.00,328.74 440.88,326.56 434.55,329.37 426.23,330.10 419.39,333.59 415.27,334.43 411.01,334.67 408.92,335.36 406.22,337.17 405.00,338.23 405.49,338.51 404.64,338.53 400.33,342.99 398.32,342.91 395.06,345.25 391.14,345.33 386.57,346.55 383.33,346.30 385.76,347.07 385.13,347.63 385.76,347.76 388.65,346.46 391.42,345.86 392.81,346.10 391.40,347.42 388.71,348.05 384.67,347.84 380.10,346.85 377.31,346.89 375.04,346.27 377.00,346.42 374.12,344.91 373.67,345.02 374.46,345.40 374.44,346.05 371.27,345.49 365.47,346.52 365.31,345.82 365.10,346.37 363.31,346.20 357.65,344.81 357.46,344.12 357.98,343.94 356.26,343.46 357.08,344.36 355.45,344.62 350.60,343.70 347.40,342.40 341.33,343.05 335.59,343.06 332.67,341.98 330.96,340.33 333.14,342.66 339.49,346.37 344.07,350.07 343.43,349.52 344.36,349.77 343.29,349.27 343.67,347.72 344.61,346.92 346.88,346.34 356.27,348.13 360.84,349.67 359.12,348.90 361.46,349.27 359.97,348.77 360.82,348.85 362.09,349.43 360.76,349.37 361.88,349.63 364.08,348.67 365.78,349.37 366.54,351.23 367.99,352.49 367.57,353.48 366.32,353.82 365.60,353.44 364.43,355.06 361.24,356.14 357.09,356.82 356.52,356.78 358.80,356.57 353.02,356.71 349.38,357.53 349.66,357.72 347.91,358.52 347.53,359.37 348.10,359.10 348.78,359.52 349.36,360.72 349.06,361.45 350.02,360.76 349.85,360.36 350.31,360.87 351.20,360.61 351.48,361.40 352.49,360.38 352.91,360.62 352.41,360.89 353.34,360.76 353.64,361.21 354.98,360.73 355.41,361.47 356.92,359.66 356.45,359.13 356.21,359.68 355.78,359.55 355.67,358.23 356.91,358.00 356.88,359.04 359.93,359.39 359.25,359.37 360.30,359.71 360.55,360.69 361.20,360.89 360.58,360.74 360.78,361.09 361.11,361.38 361.67,361.11 361.21,361.38 361.99,361.96 363.55,362.10 364.08,361.46 363.85,362.22 364.71,362.44 365.50,362.56 365.06,362.16 365.58,361.95 365.95,362.65 367.10,361.96 368.66,362.97 368.48,362.54 369.13,362.53 370.07,364.32 370.82,364.30 370.64,364.62 371.77,365.29 372.75,365.40 372.64,365.06 373.10,365.69 375.08,365.71 377.45,367.61 377.01,367.04 377.76,367.11 377.78,366.66 378.70,366.50 380.16,367.00 380.72,367.98 380.15,368.11 379.98,367.58 379.56,367.95 380.10,369.21 379.28,370.36 367.42,367.86 391.61,373.24 400.70,374.92 400.91,373.84 404.74,372.69 407.62,372.18 409.59,372.62 413.56,372.06 415.98,371.08 419.96,371.89 423.09,371.40 425.48,372.28 433.41,371.84 433.85,371.68 432.73,371.59 432.56,371.12 433.55,370.02 433.05,369.05 434.29,368.76 436.15,368.95 437.20,370.22 440.73,370.92 444.04,368.80 444.83,367.58 444.24,366.18 445.07,366.65 446.74,364.76 445.44,367.59 446.96,368.92 445.70,369.63 444.95,371.53 445.29,372.09 445.86,372.18 445.66,370.81 446.48,370.36 448.44,369.95 450.75,370.34 452.22,371.06 452.71,371.95 452.01,373.10 450.53,372.81 450.78,374.13 452.89,374.19 452.37,374.02 452.72,372.32 453.94,371.60 454.86,372.81 456.69,373.31 456.35,374.29 460.02,377.26 460.73,377.28 460.12,377.00 460.35,376.57 461.77,376.53 462.86,375.95 465.47,377.43 466.53,377.23 464.81,375.76 465.17,374.25 466.43,373.80 469.89,374.26 466.48,372.69 466.05,371.15 466.82,371.52 468.07,371.27 468.47,370.12 469.87,370.00 470.68,368.68 471.70,368.71 472.80,369.63 474.99,374.05 473.78,374.64 473.12,375.73 474.31,381.71 473.34,382.99 474.66,383.24 474.76,382.77 476.07,382.38 481.56,382.57 482.43,382.86 482.88,383.78 482.19,384.25 480.59,384.32 478.66,385.61 478.18,385.28 477.62,385.52 477.75,389.90 476.05,388.03 474.84,387.86 473.04,386.78 470.79,388.30 469.93,388.19 468.30,390.46 467.63,389.74 465.58,390.15 464.99,389.17 464.14,389.27 459.98,390.79 459.96,391.39 459.67,391.01 459.41,391.39 459.63,392.09 459.25,391.40 455.88,393.71 449.45,395.88 446.19,395.97 444.07,394.96 442.87,393.73 442.14,396.88 441.03,398.25 436.20,399.30 428.60,402.18 424.45,404.30 419.69,407.04 419.45,407.47 420.76,407.52 421.16,408.11 419.93,409.41 420.15,409.83 419.38,409.15 418.42,409.50 418.37,409.86 419.09,409.77 419.23,410.49 415.74,411.19 418.25,409.58 417.28,408.95 412.11,411.18 411.99,412.11 410.72,412.47 411.23,412.06 410.72,411.59 403.52,414.44 400.39,416.22 396.36,420.15 397.07,420.90 398.27,421.06 398.88,421.96 397.40,423.57 408.11,425.63 413.30,422.88 416.72,422.10 425.12,422.49 428.39,423.61 430.40,424.86 430.54,424.52 426.52,422.68 429.48,423.15 430.55,422.57 430.84,423.46 432.09,422.78 432.34,422.08 434.66,421.88 434.76,421.14 435.98,420.68 438.14,420.87 438.02,420.49 440.39,419.45 440.83,418.72 441.62,418.81 442.23,417.54 443.68,417.30 444.29,416.61 445.44,417.00 443.76,418.07 442.96,417.65 441.67,419.41 439.43,420.40 440.49,420.71 439.19,420.69 438.33,421.93 437.12,421.94 436.94,421.47 435.84,421.82 434.70,423.25 436.22,423.29 436.32,423.64 435.63,424.08 435.43,423.64 434.90,424.01 433.48,423.88 434.16,424.79 433.40,424.81 433.07,426.13 430.76,424.98 436.21,428.42 439.17,431.27 440.97,432.13 441.76,433.27 444.09,434.46 446.83,435.05 448.96,436.89 450.60,436.90 452.22,435.17 455.36,435.11 457.51,433.63 459.52,433.89 461.54,434.80 465.33,437.19 469.53,441.19 472.18,446.41 472.46,448.21 471.97,448.68 472.99,452.40 472.63,455.61 471.64,457.39 470.25,457.92 469.00,457.72 468.74,458.13 468.78,459.71 467.62,461.06 468.59,465.29 468.46,469.19 467.78,470.98 466.48,471.48 466.00,472.29 469.59,472.31 471.57,473.10 467.60,472.85 467.30,473.94 467.16,472.75 466.71,473.03 465.87,472.56 465.26,473.31 463.62,473.16 463.46,473.88 463.19,473.21 462.09,473.37 461.86,474.27 461.26,473.62 460.08,474.40 461.07,475.86 459.67,474.81 459.39,476.40 459.18,475.53 458.72,476.03 458.78,474.58 457.14,475.12 459.65,477.43 463.13,479.23 464.47,480.91 465.32,480.50 469.13,481.59 471.82,481.02 473.20,481.56 474.55,482.62 475.48,485.75 477.09,486.31 479.42,486.09 481.44,488.39 484.14,488.43 489.75,487.03 497.17,488.10 500.28,487.00 501.44,487.12 503.62,485.98 507.74,485.57 510.58,481.07 516.15,480.29 518.01,477.97 519.84,477.18 522.63,477.50 522.77,475.15 524.22,474.53 524.55,473.17 527.34,468.99 530.30,466.36 535.25,464.58 536.56,463.66 538.79,463.19 540.02,462.30 550.61,459.33 556.25,459.43 558.06,458.97 560.66,459.41 561.24,458.45 564.61,457.71 566.02,458.45 566.81,458.06 568.86,458.44 570.21,459.52 569.88,460.40 572.30,461.01 575.59,458.92 575.96,456.45 577.61,453.95 583.09,452.37 583.85,451.09 583.47,450.04 584.07,449.46 585.39,449.05 586.60,449.57 588.58,449.02 590.49,449.39 590.60,449.89 592.80,450.54 593.13,450.00 591.77,449.93 590.68,448.63 590.84,447.93 591.42,447.34 595.53,446.07 592.79,444.85 593.49,442.79 597.07,440.23 603.00,438.39 608.32,438.37 615.94,440.66 621.47,443.99 621.62,445.47 623.01,446.05 622.80,446.67 623.49,447.02 628.41,445.58 631.27,446.09 633.31,445.22 634.53,444.07 636.37,443.56 649.58,445.04 651.39,443.53 655.13,442.96 659.59,442.96 664.38,441.03 665.02,440.11 677.13,437.42 682.71,438.80 684.05,439.55 689.57,438.94 695.28,439.84 711.67,444.67 719.61,448.57 723.39,452.26 723.41,453.50 721.95,454.32 724.88,457.14 725.01,458.70 727.71,461.53 728.03,463.03 727.41,463.26 729.04,463.68 729.52,464.54 734.54,467.60 738.93,468.83 739.87,468.69 743.64,469.54 746.00,469.32 749.12,470.44 751.72,470.61 755.53,469.69 756.70,468.63 755.28,467.46 755.03,465.69 754.48,465.71 755.35,464.94 755.71,465.30 756.08,464.95 756.09,465.73 757.14,465.65 756.46,466.03 757.37,465.57 758.10,465.85 758.08,466.20 758.84,466.25 758.61,466.84 759.41,466.90 761.41,468.59 763.68,469.49 764.87,470.91 763.08,471.90 764.96,473.82 768.42,475.72 768.43,476.12 771.44,476.68 771.80,476.23 771.24,475.17 772.71,474.98 773.88,475.53 774.58,476.84 772.78,477.35 778.01,480.62 779.74,483.59 781.23,484.24 783.15,486.33 784.48,486.76 789.25,486.97 792.18,488.26 792.62,488.91 794.86,489.59 797.63,489.18 807.89,490.90 810.32,492.03 811.30,492.02 812.23,492.78 816.80,493.62 817.84,494.23 819.98,494.20 822.99,495.52 828.10,501.24 829.40,501.92 831.03,501.90 834.42,503.25 837.00,503.60 838.73,505.30 839.48,507.95 842.19,508.26 842.10,508.70 843.16,509.01 847.23,513.06 857.04,518.40 859.35,521.13 860.77,521.68 864.18,524.32 868.55,529.01 876.39,534.55 878.19,537.00 883.82,539.43 885.41,542.69 886.51,543.65 892.86,546.25 896.60,548.40 899.51,553.97 901.27,555.10 904.30,556.08 910.12,556.64 915.64,559.10 921.27,560.78 922.77,564.25 923.45,569.25 927.70,572.18 929.47,570.78 931.47,570.38 936.49,572.68 939.98,572.60 943.97,575.96 948.24,575.28 951.51,576.27 955.67,576.18 962.83,576.95 964.23,577.72 970.11,583.34 970.76,583.36 971.89,582.39 975.16,582.42 977.61,585.43 979.49,592.73 982.41,595.88 984.40,596.24 986.38,595.48 988.07,595.66 991.97,596.57 993.60,597.43 998.94,598.29 1000.82,599.75 1000.98,599.26 1001.00,599.69 1001.82,599.64 1002.48,600.23 1004.32,603.14 1007.02,609.75 1009.93,623.21 1010.26,622.56 1010.11,623.37 1012.30,624.43 1014.67,629.44 1015.73,633.26 1014.99,635.21 1015.54,635.66 1019.06,636.46 1022.15,638.04 1024.31,637.45 1024.50,637.13 1023.54,636.96 1023.40,636.49 1025.67,635.24 1028.01,636.16 1030.55,635.36 1031.82,636.98 1032.91,636.12 1034.71,636.67 1037.05,635.68 1037.35,636.46 1038.64,636.11 1040.82,637.08 1041.31,637.82 1042.08,637.13 1044.10,637.20 1045.49,637.96 1047.08,637.80 1048.04,638.87 1050.91,638.56 1052.22,639.21 1053.30,640.71 1057.81,642.36 1059.23,642.47 1060.37,641.09 1063.23,641.61 1062.90,640.31 1063.71,639.97 1063.02,640.37 1063.45,641.61 1062.05,641.76 1060.40,641.23 1059.84,642.46 1058.44,642.71 1053.35,641.05 1052.24,639.38 1051.22,638.96 1047.59,639.07 1046.96,637.98 1045.51,638.16 1044.19,637.38 1042.43,637.37 1041.28,638.00 1038.67,636.36 1037.27,636.64 1036.86,635.81 1034.72,637.03 1032.90,636.31 1031.80,637.25 1030.16,635.54 1028.56,636.48 1025.17,635.64 1023.75,636.78 1024.99,636.84 1024.88,637.66 1022.10,638.42 1018.84,636.47 1016.49,636.38 1015.70,637.51 1016.68,638.99 1016.05,639.59 1019.64,643.44 1020.38,643.04 1019.21,640.17 1023.34,640.41 1024.19,641.24 1023.47,641.41 1023.09,642.56 1020.43,643.15 1022.10,643.90 1021.64,645.17 1021.10,644.87 1021.56,645.63 1020.41,643.22 1020.41,643.82 1019.86,643.70 1023.12,648.33 1023.49,647.75 1024.89,659.05 1024.45,662.45 1020.35,670.24 1017.35,673.30 1015.98,673.54 1015.31,672.85 1011.96,675.50 1010.72,677.22 1010.26,680.45 1007.57,684.66 1004.33,686.11 1000.14,691.09 999.42,691.56 995.54,692.08 993.19,693.39 990.30,694.17 988.04,696.16 984.50,697.85 982.51,698.27 980.86,699.90 975.29,703.04 967.58,705.36 963.82,704.95 958.87,706.38 956.46,708.12 953.40,711.37 951.40,712.09 950.83,711.84 945.45,714.07 943.51,714.22 941.55,715.43 940.02,715.42 939.07,714.74 939.82,714.66 938.38,714.53 933.45,715.56 930.59,715.58 921.81,721.44 917.24,723.07 915.15,723.20 911.09,722.90 907.11,720.04 905.21,720.20 904.17,719.67 900.10,720.37 895.06,720.16 893.20,718.30 889.82,717.13 887.50,717.28 887.02,716.72 885.78,716.49 882.06,717.64 880.82,717.52 879.82,716.79 875.40,715.55 870.01,711.10 865.45,710.05 862.11,711.91 856.34,713.93 854.15,714.11 852.34,713.54 850.98,712.27 848.10,711.95 844.99,713.84 840.95,714.75 837.68,715.10 836.88,714.72 833.28,714.77 832.65,714.36 828.44,716.53 825.37,717.00 824.70,716.54 817.83,720.63 815.12,720.73 813.01,719.04 811.72,719.10 809.53,720.86 805.33,722.93 802.01,723.16 801.24,722.81 798.58,723.29 796.64,723.02 795.87,722.43 793.62,723.44 791.34,722.72 788.54,721.01 782.28,721.44 781.79,721.19 782.17,721.07 779.65,720.43 778.28,720.48 769.55,718.62 765.10,718.33 765.12,718.78 764.75,718.24 761.64,718.29 760.47,716.29 756.62,715.59 754.90,713.74 754.12,712.53 755.12,709.43 754.12,709.63 752.73,709.21 749.57,709.60 748.08,708.06 746.13,709.43 743.62,712.56 743.12,713.99 742.03,714.76 738.25,715.88 736.24,715.39 735.03,714.61 734.36,713.10 730.45,711.92 728.75,710.32 721.81,708.94 721.33,708.42 721.72,707.46 711.06,707.20 705.35,705.45 704.09,704.64 703.62,703.88 704.17,703.87 703.11,702.85 703.60,702.89 703.67,700.39 702.44,698.55 693.51,694.54 688.89,693.44 681.60,692.70 679.06,691.53 678.82,692.64 678.38,691.38 676.27,692.50 675.89,693.04 676.30,693.38 672.67,697.86 670.32,699.19 666.00,700.68 661.35,700.38 660.38,699.97 659.78,699.06 660.15,698.87 658.00,698.23 657.86,697.31 657.75,697.93 657.16,697.46 657.44,696.20 658.36,696.33 650.76,693.48 649.95,692.10 643.19,686.02 642.35,683.28 643.22,679.62 642.14,675.09 638.12,670.85 631.21,667.62 618.73,672.07 609.60,674.26 605.04,674.66 598.51,673.55 594.76,671.11 585.52,668.95 584.52,668.18 584.67,667.44 580.85,665.46 579.83,663.73 580.76,663.05 578.55,661.93 577.39,660.48 575.81,659.61 575.25,657.89 574.01,657.05 572.85,655.03 573.22,652.02 574.97,648.81 576.67,648.10 580.55,648.87 581.00,648.38 579.55,646.88 578.28,646.93 575.39,648.10 571.53,647.76 569.75,646.90 569.50,646.14 570.23,645.67 569.60,645.66 569.79,645.15 567.89,643.45 563.02,643.09 563.29,644.70 560.54,648.03 558.21,649.84 553.36,652.70 548.06,653.49 536.94,653.32 533.50,652.52 532.27,651.29 531.32,652.00 528.50,651.98 525.73,652.96 523.08,653.38 522.08,652.99 521.54,653.48 519.34,653.70 511.03,652.45 510.65,651.99 505.60,651.13 500.67,650.90 492.56,651.61 484.39,651.53 483.54,650.94 481.73,651.24 473.54,650.72 462.32,648.90 459.84,649.16 457.98,648.58 454.46,648.34 449.39,650.41 445.96,651.08 443.70,651.96 443.00,652.71 433.43,654.63 432.71,655.44 430.35,655.99 430.03,656.45 430.59,656.45 429.68,657.08 422.98,658.67 422.20,659.24 416.45,659.23 415.77,659.94 412.41,659.97 411.80,660.66 410.24,660.73 409.74,661.18 403.22,661.39 402.70,662.48 397.69,663.14 396.77,664.50 395.32,665.04 394.62,664.87 393.06,665.76 392.05,667.32 390.42,667.13 390.47,666.62 389.83,666.36 389.95,666.75 388.65,666.99 388.53,667.68 387.04,667.77 386.96,668.45 384.53,668.27 383.13,668.66 379.65,670.78 380.01,671.11 379.16,670.97 379.50,671.85 379.07,672.34 375.71,674.00 376.12,674.58 373.59,676.50 367.51,677.99 368.17,678.75 367.35,678.15 365.96,678.47 363.54,680.38 359.22,681.33 357.63,682.11 356.85,681.89 357.19,682.11 353.42,683.50 352.30,684.65 349.54,685.86 349.04,686.30 349.47,686.58 347.38,686.55 346.80,687.64 342.46,689.67 339.67,690.38 338.29,691.43 332.36,692.65 329.36,693.69 327.87,695.14 325.83,695.14 324.74,696.02 323.41,695.95 322.84,697.44 324.80,698.64 324.57,699.50 323.58,698.96 324.02,702.91 318.36,708.57 313.20,710.32 304.45,711.04 301.13,712.00 297.22,712.38 290.52,712.41 279.88,711.47 272.87,708.59 259.65,706.84 252.70,704.83 251.14,703.73 250.30,703.99 247.61,703.40 247.21,702.91 245.71,704.71 243.94,704.70 244.52,705.26 243.70,705.37 244.07,706.37 241.74,706.39 241.66,707.44 240.90,706.92 240.87,707.33 239.14,707.99 236.72,707.61 235.62,708.20 235.49,707.81 231.93,708.27 230.68,707.83 230.14,708.30 229.90,707.92 227.51,708.20 226.46,707.78 222.74,707.59 220.39,707.88 219.42,707.59 218.62,708.00 213.15,706.46 210.67,706.83 208.45,706.21 206.76,706.36 202.38,704.98 201.76,705.22 202.29,705.18 201.85,705.69 200.97,705.82 195.39,704.85 187.54,702.76 185.24,703.04 181.01,702.32 178.63,701.76 178.53,701.40 177.54,701.91 175.70,701.71 175.51,702.41 172.54,702.14 172.13,702.59 166.95,700.71 166.44,700.11 166.08,700.55 163.73,699.89 163.43,700.66 161.35,700.74 156.03,698.93 154.14,698.99 152.67,698.51 152.62,698.09 150.31,697.93 148.46,696.68 146.63,696.88 146.52,696.16 143.36,695.11 142.76,695.40 140.28,694.38 139.85,693.78 139.11,694.11 136.25,693.63 131.65,691.39 112.03,683.78 109.24,681.89 108.43,681.90 108.57,681.50 106.13,679.75 105.95,678.66 103.79,678.17 103.32,676.92 100.14,674.64 99.51,672.98 100.75,672.12 100.32,671.35 97.96,669.76 96.40,667.89 96.42,666.40 93.35,663.46 92.18,660.91 92.16,658.80 91.65,658.82 94.55,656.84 96.42,657.78 97.50,657.57 96.59,655.53 96.99,653.39 96.53,652.25 95.41,651.42 96.05,650.85 95.89,650.08 94.24,648.18 94.67,647.86 93.92,646.87 92.61,646.08 93.06,645.43 91.63,645.28 90.00,642.66 88.53,642.81 87.76,642.23 87.80,641.25 86.60,640.05 85.22,639.62 85.11,638.81 84.67,639.14 84.33,638.50 83.64,638.48 84.12,637.96 82.55,636.97 82.90,636.54 81.42,636.27 81.42,635.70 80.42,635.07 79.57,635.18 78.50,634.25 79.04,633.62 76.69,632.69 76.97,631.83 77.79,631.76 77.00,631.24 76.87,630.39 78.29,629.77 78.02,629.42 79.75,628.95 78.29,628.07 78.91,627.80 79.03,626.98 77.24,627.15 76.86,627.74 76.01,627.55 74.12,625.15 74.02,624.61 74.95,624.08 73.92,623.80 73.74,623.03 74.01,622.65 74.97,622.68 75.31,621.99 73.70,622.06 73.22,620.85 72.54,620.92 72.73,621.32 71.60,622.05 70.60,621.92 69.54,621.03 69.57,620.65 70.37,620.59 69.74,620.05 70.06,619.24 68.91,619.35 68.57,618.65 68.23,619.57 67.56,619.70 65.63,618.38 64.85,619.08 65.26,619.58 64.08,619.59 62.47,618.81 61.72,620.20 60.55,620.75 58.42,618.48 57.60,619.55 56.00,618.53 56.87,616.67 57.15,617.21 57.38,616.72 57.93,617.05 58.41,616.74 58.68,617.13 59.10,614.10 61.26,612.05 62.41,611.93 63.76,612.51 65.52,611.54 66.56,612.02 67.61,611.54 68.91,611.88 69.29,612.49 70.03,612.21 68.76,610.24 69.11,607.15 69.84,606.50 71.78,606.77 72.77,605.65 74.02,606.04 74.51,605.33 76.11,605.14 74.97,605.06 74.12,604.32 74.29,602.83 75.13,601.85 86.88,602.35 86.07,598.87 86.91,597.54 85.63,592.97 86.26,592.00 87.06,591.96 86.58,587.76 87.29,586.88 85.87,581.67 86.04,579.69 87.75,577.91 90.00,570.57 87.92,570.38 85.01,568.84 81.04,569.87 73.66,568.90 71.80,569.53 71.37,569.24 71.02,569.68 71.22,569.27 70.44,569.70 69.81,569.26 72.62,568.72 76.34,568.83 77.71,569.27 78.79,568.62 79.18,568.91 79.66,568.32 79.95,568.69 82.25,568.98 84.00,567.94 85.32,567.95 86.64,568.97 87.58,569.26 88.11,568.92 88.33,569.30 88.44,568.50 89.70,567.90 91.87,567.33 93.42,567.57 94.67,566.81 94.88,565.74 95.52,565.46 99.56,556.97 103.87,554.78 107.02,555.26 114.49,553.88 117.69,554.19 121.71,555.95 124.21,556.47 125.11,557.81 125.44,556.35 127.29,554.33 128.57,554.04 130.74,552.36 133.21,548.98 134.75,545.64 132.23,542.22 132.76,539.05 131.72,536.35 131.81,535.11 132.67,534.50 132.81,528.81 133.76,528.13 132.82,528.57 132.09,527.96 130.91,528.13 130.53,527.56 130.07,527.95 129.28,527.60 130.19,527.82 130.47,527.33 130.97,527.93 131.21,527.64 132.80,528.02 133.34,527.47 133.57,525.46 134.82,524.58 135.08,521.45 136.65,519.71 136.48,518.17 138.77,515.43 136.79,509.37 137.15,508.87 140.19,508.64 140.64,507.57 140.12,508.52 138.86,508.44 139.37,507.68 139.14,508.07 138.76,507.58 138.71,508.07 138.50,507.19 137.88,507.77 137.72,507.17 137.50,508.20 135.74,507.73 137.20,507.56 137.38,506.98 136.80,506.62 137.73,505.88 137.63,507.01 137.99,505.77 138.46,506.89 137.92,507.04 139.40,507.32 138.18,505.74 138.57,504.97 137.47,505.22 138.72,504.38 137.11,504.50 137.85,504.18 137.10,504.03 137.84,503.95 137.66,503.10 141.45,507.25 138.16,503.57 138.59,503.00 137.97,502.21 138.11,501.00 137.22,499.94 137.59,499.67 136.89,499.81 136.35,499.34 135.59,497.03 135.60,495.43 136.74,492.67 140.26,492.65 136.07,492.56 137.05,492.48 137.28,492.05 137.69,492.40 139.05,492.10 138.35,491.96 138.66,491.16 139.32,491.30 139.30,491.91 139.89,491.44 140.57,492.83 140.30,491.05 140.65,491.25 141.54,489.23 150.87,480.79 158.59,470.69 162.71,466.85 167.60,463.57 171.76,462.05 178.12,460.65 198.72,458.81 199.88,458.09 200.86,458.28 201.94,457.76 202.92,455.27 200.03,453.90 197.14,451.28 193.89,449.67 191.84,449.94 192.58,449.22 192.06,448.94 190.15,448.89 187.48,450.72 185.94,450.21 186.98,449.13 186.98,447.97 185.04,449.86 184.73,448.06 183.53,448.88 182.32,448.99 182.48,447.97 180.46,446.59 181.66,445.64 180.02,445.68 179.43,445.28 180.02,444.39 177.58,444.48 173.63,443.70 176.06,442.15 175.70,441.29 173.77,439.90 170.27,439.79 169.97,440.67 171.90,440.57 172.16,440.96 171.86,441.54 169.86,442.18 164.74,439.08 160.75,438.38 158.29,437.24 155.14,436.63 153.93,434.59 151.92,433.50 149.67,433.41 147.42,434.72 146.77,433.98 146.99,432.85 144.37,432.35 143.55,431.62 141.37,432.01 136.56,430.71 131.40,430.27 127.09,428.58 124.09,427.66 123.52,427.87 118.68,426.20 116.20,424.98 113.88,421.35 112.54,420.27 112.81,418.16 112.24,417.01 107.99,415.25 112.62,416.65 113.45,420.30 117.50,425.20 126.45,427.83 132.17,430.07 137.24,430.31 142.11,431.70 147.16,430.48 146.68,429.48 144.90,429.08 144.25,427.67 144.96,427.18 147.38,426.88 147.97,425.88 146.24,424.97 147.61,424.07 149.14,424.18 150.91,425.42 153.00,425.58 155.13,427.20 157.40,427.86 158.06,427.04 157.62,425.68 160.14,422.85 163.92,422.38 166.53,420.79 168.24,420.64 169.53,421.04 172.73,420.11 176.81,416.77 180.73,418.02 183.23,416.53 186.18,417.28 193.54,416.13 195.56,416.29 197.71,417.44 198.91,419.47 202.19,420.45 205.55,417.76 209.77,416.68 210.03,415.10 209.08,415.34 209.11,415.99 207.68,415.37 207.26,416.26 206.66,415.63 206.94,415.16 205.78,414.74 205.17,415.23 205.82,415.71 205.13,416.44 203.97,415.71 203.80,414.86 202.83,415.16 202.02,414.39 202.37,414.04 202.88,414.83 202.69,414.18 203.51,414.10 203.38,412.84 204.97,411.20 207.95,408.72 212.53,405.94 211.55,406.40 211.30,405.62 211.88,405.56 211.08,405.42 210.96,404.90 213.24,405.41 213.82,404.16 214.43,404.16 214.83,403.54 214.25,403.04 217.57,403.36 213.26,405.66 218.99,402.76 237.80,391.65 221.64,400.95 220.23,401.31 217.55,400.48 216.90,400.86 214.54,397.31 215.24,397.61 217.25,396.32 217.23,395.76 217.60,396.27 220.74,396.07 220.86,393.71 221.56,393.95 222.54,396.23 224.46,397.07 223.06,394.47 223.79,390.28 224.06,390.05 224.33,393.71 225.90,394.86 227.04,391.76 226.99,389.06 226.13,387.80 227.53,385.81 228.79,386.71 229.04,389.49 231.04,390.47 233.02,392.99 233.82,391.43 234.11,392.01 234.98,391.66 235.49,390.23 235.01,389.10 236.67,387.55 236.23,386.50 236.58,385.16 237.11,385.18 238.19,388.09 238.36,391.40 243.59,388.59 249.06,383.93 250.64,382.24 249.35,383.35 248.40,381.30 248.97,381.32 251.36,379.21 253.58,378.64 254.76,377.65 253.76,375.78 255.15,376.88 256.69,375.75 256.32,377.37 250.64,382.21 260.77,374.31 258.89,374.89 258.00,374.24 256.30,371.16 254.36,369.76 254.06,367.12 254.54,366.97 252.77,365.66 251.39,365.93 249.70,365.60 249.51,364.96 248.31,364.40 244.24,363.63 238.70,360.31 235.64,356.98 235.93,355.87 238.33,353.53 241.90,352.45 244.59,352.91 245.22,353.65 244.01,355.34 245.65,355.87 246.96,358.82 247.80,359.21 249.51,357.25 249.86,355.72 249.20,354.15 249.93,353.66 250.65,354.22 251.16,356.44 250.70,358.69 251.17,359.36 253.12,360.73 256.60,361.28 258.35,363.11 256.93,365.39 257.27,366.09 258.83,367.61 263.26,369.83 262.76,371.82 260.91,373.24 260.80,374.13 263.45,370.92 266.62,368.58 274.74,358.13 273.30,357.71 272.74,356.43 271.72,356.74 271.19,356.35 271.75,356.56 272.16,356.16 272.01,353.40 272.34,355.73 274.59,357.68 277.01,355.18 279.65,354.02 281.02,349.26 280.18,346.16 279.89,346.58 279.28,346.34 279.49,345.98 278.93,346.13 278.16,345.24 278.95,343.12 281.58,341.77 283.48,341.66 284.95,342.23 289.49,340.68 297.13,339.03 297.28,336.93 296.34,334.88 297.52,335.14 298.21,337.97 297.66,338.85 308.11,336.91 312.63,338.14 315.65,337.96 319.92,338.81 320.37,337.74 321.30,337.27 324.10,337.52 324.86,336.67 324.39,336.54 324.64,335.50 327.55,334.46 328.37,332.83 329.20,332.67 329.38,330.07 328.33,329.72 327.97,328.94 325.63,328.19 325.22,325.18 325.76,325.56 326.24,328.37 327.74,328.18 329.46,328.70 330.52,330.20 331.77,328.86 331.01,327.08 331.89,327.67 332.36,326.63 336.53,325.04 336.14,322.80 337.00,324.13 336.84,325.24 334.37,327.02 332.95,327.45 333.54,328.92 332.06,330.62 332.34,331.87 330.20,332.64 330.80,333.31 330.37,334.52 326.68,336.89 325.12,337.06 329.89,337.13 333.56,338.79 336.37,336.06 339.50,335.42 343.39,336.04 345.78,336.94 348.61,337.17 350.21,338.13 356.42,336.21 357.49,334.99 357.22,333.60 357.87,331.11 358.85,330.03 357.57,329.95 356.31,328.89 355.38,327.52 355.46,325.87 358.08,322.52 360.09,321.86 361.88,320.58 363.72,318.03 363.54,317.17 362.98,316.37 361.45,316.97 358.93,316.75 357.41,315.62 358.30,314.25 360.85,312.56 361.02,311.53 356.68,312.55 355.48,312.34 354.26,311.38 353.49,309.72 354.14,307.35 355.83,307.55 356.82,306.39 356.57,305.34 357.08,305.32 355.48,304.43 352.64,303.79 352.11,302.45 353.46,300.87 352.13,299.27 346.86,297.26 346.48,295.19 347.38,293.72 348.92,292.78 347.98,291.90 346.74,292.05 345.52,290.78 346.79,291.97 347.99,291.82 349.01,292.62 347.28,294.04 346.65,295.26 347.08,297.26 352.12,298.96 353.76,300.54 353.02,299.01 354.39,300.93 353.30,302.88 353.64,303.72 354.87,304.24 356.89,304.27 358.03,305.42 357.77,306.89 355.73,308.12 354.30,309.86 354.63,309.70 355.59,311.24 356.04,311.01 356.55,311.71 360.58,310.13 362.18,310.31 363.06,310.96 363.47,313.19 362.57,312.66 361.34,313.21 359.59,314.81 359.83,315.76 359.85,315.89"/>
    <polyline fill="none" stroke="#1f6f8b" stroke-width="2.10" stroke-opacity="0.38" stroke-linejoin="round" stroke-linecap="round" points="359.85,315.89 364.56,315.36 365.71,317.21 358.73,326.07 362.59,334.73 371.27,338.17 373.47,341.70 380.86,339.32 390.08,342.34 441.09,326.20 456.75,326.92 451.00,328.74 440.88,326.56 411.01,334.67 395.06,345.25 383.33,346.30 385.76,347.76 392.81,346.10 388.71,348.05 374.12,344.91 365.47,346.52 347.40,342.40 335.59,343.06 330.96,340.33 344.07,350.07 346.88,346.34 365.78,349.37 367.57,353.48 349.38,357.53 349.06,361.45 355.41,361.47 356.91,358.00 361.99,361.96 369.13,362.53 380.72,367.98 379.28,370.36 367.42,367.86 391.61,373.24 400.70,374.92 415.98,371.08 433.41,371.84 434.29,368.76 440.73,370.92 446.74,364.76 445.29,372.09 450.75,370.34 450.78,374.13 453.94,371.60 460.02,377.26 465.47,377.43 465.17,374.25 469.89,374.26 466.05,371.15 472.80,369.63 473.34,382.99 482.88,383.78 477.62,385.52 477.75,389.90 473.04,386.78 468.30,390.46 464.14,389.27 449.45,395.88 442.87,393.73 441.03,398.25 424.45,404.30 419.69,407.04 419.23,410.49 415.74,411.19 417.28,408.95 403.52,414.44 396.36,420.15 397.40,423.57 408.11,425.63 416.72,422.10 430.40,424.86 426.52,422.68 430.84,423.46 445.44,417.00 435.84,421.82 433.07,426.13 430.76,424.98 448.96,436.89 457.51,433.63 461.54,434.80 472.18,446.41 472.63,455.61 468.74,458.13 466.00,472.29 471.57,473.10 462.09,473.37 459.39,476.40 457.14,475.12 464.47,480.91 473.20,481.56 475.48,485.75 481.44,488.39 507.74,485.57 510.58,481.07 522.63,477.50 530.30,466.36 550.61,459.33 564.61,457.71 572.30,461.01 584.07,449.46 592.80,450.54 590.84,447.93 595.53,446.07 593.49,442.79 603.00,438.39 615.94,440.66 623.49,447.02 636.37,443.56 649.58,445.04 677.13,437.42 695.28,439.84 719.61,448.57 727.41,463.26 734.54,467.60 751.72,470.61 756.70,468.63 756.08,464.95 768.43,476.12 773.88,475.53 772.78,477.35 783.15,486.33 822.99,495.52 828.10,501.24 837.00,503.60 839.48,507.95 857.04,518.40 886.51,543.65 896.60,548.40 899.51,553.97 921.27,560.78 923.45,569.25 927.70,572.18 931.47,570.38 943.97,575.96 962.83,576.95 970.11,583.34 975.16,582.42 982.41,595.88 1002.48,600.23 1015.54,635.66 1022.15,638.04 1025.67,635.24 1037.05,635.68 1057.81,642.36 1063.71,639.97 1063.45,641.61 1058.44,642.71 1036.86,635.81 1031.80,637.25 1025.17,635.64 1022.10,638.42 1016.49,636.38 1019.64,643.44 1019.21,640.17 1024.19,641.24 1020.43,643.15 1021.56,645.63 1019.86,643.70 1023.49,647.75 1024.45,662.45 1020.35,670.24 1011.96,675.50 1007.57,684.66 1000.14,691.09 975.29,703.04 958.87,706.38 953.40,711.37 941.55,715.43 930.59,715.58 915.15,723.20 907.11,720.04 895.06,720.16 889.82,717.13 880.82,717.52 865.45,710.05 856.34,713.93 848.10,711.95 824.70,716.54 817.83,720.63 811.72,719.10 805.33,722.93 793.62,723.44 788.54,721.01 761.64,718.29 754.90,713.74 755.12,709.43 748.08,708.06 742.03,714.76 736.24,715.39 721.72,707.46 705.35,705.45 702.44,698.55 693.51,694.54 678.38,691.38 670.32,699.19 661.35,700.38 643.19,686.02 642.14,675.09 638.12,670.85 631.21,667.62 605.04,674.66 585.52,668.95 572.85,655.03 574.97,648.81 581.00,648.38 571.53,647.76 567.89,643.45 563.02,643.09 558.21,649.84 548.06,653.49 532.27,651.29 519.34,653.70 454.46,648.34 422.20,659.24 403.22,661.39 392.05,667.32 383.13,668.66 373.59,676.50 323.41,695.95 324.02,702.91 318.36,708.57 297.22,712.38 279.88,711.47 247.21,702.91 241.66,707.44 230.14,708.30 178.53,701.40 172.13,702.59 136.25,693.63 112.03,683.78 100.14,674.64 93.35,663.46 91.65,658.82 97.50,657.57 95.89,650.08 76.69,632.69 79.75,628.95 74.12,625.15 75.31,621.99 70.60,621.92 68.57,618.65 60.55,620.75 56.00,618.53 61.26,612.05 70.03,612.21 69.11,607.15 76.11,605.14 75.13,601.85 86.88,602.35 86.04,579.69 90.00,570.57 69.81,569.26 93.42,567.57 99.56,556.97 103.87,554.78 117.69,554.19 125.11,557.81 134.75,545.64 131.72,536.35 133.76,528.13 129.28,527.60 133.34,527.47 138.77,515.43 136.79,509.37 140.64,507.57 135.74,507.73 137.99,505.77 139.40,507.32 137.66,503.10 141.45,507.25 135.59,497.03 136.74,492.67 140.26,492.65 136.07,492.56 138.66,491.16 140.57,492.83 167.60,463.57 198.72,458.81 202.92,455.27 192.06,448.94 187.48,450.72 186.98,447.97 182.32,448.99 180.02,444.39 173.63,443.70 176.06,442.15 173.77,439.90 170.27,439.79 169.86,442.18 151.92,433.50 147.42,434.72 143.55,431.62 118.68,426.20 107.99,415.25 112.62,416.65 117.50,425.20 142.11,431.70 147.16,430.48 144.25,427.67 147.61,424.07 157.40,427.86 160.14,422.85 172.73,420.11 176.81,416.77 195.56,416.29 202.19,420.45 209.77,416.68 210.03,415.10 205.13,416.44 202.02,414.39 212.53,405.94 210.96,404.90 217.57,403.36 213.26,405.66 237.80,391.65 221.64,400.95 216.90,400.86 214.54,397.31 220.74,396.07 220.86,393.71 224.46,397.07 223.79,390.28 225.90,394.86 227.53,385.81 233.02,392.99 237.11,385.18 238.36,391.40 249.06,383.93 253.76,375.78 256.32,377.37 250.64,382.21 260.77,374.31 258.00,374.24 252.77,365.66 238.70,360.31 235.64,356.98 238.33,353.53 244.59,352.91 247.80,359.21 250.65,354.22 251.17,359.36 256.60,361.28 257.27,366.09 263.26,369.83 260.80,374.13 274.74,358.13 271.19,356.35 272.01,353.40 274.59,357.68 279.65,354.02 278.95,343.12 297.13,339.03 296.34,334.88 297.66,338.85 308.11,336.91 319.92,338.81 329.20,332.67 325.22,325.18 330.52,330.20 336.14,322.80 330.37,334.52 325.12,337.06 333.56,338.79 339.50,335.42 350.21,338.13 356.42,336.21 358.85,330.03 355.46,325.87 363.54,317.17 357.41,315.62 361.02,311.53 354.26,311.38 357.08,305.32 346.86,297.26 348.92,292.78 345.52,290.78 349.01,292.62 347.08,297.26 353.76,300.54 353.02,299.01 353.64,303.72 358.03,305.42 354.30,309.86 356.55,311.71 363.06,310.96 359.83,315.76 359.85,315.89"/>
    <polyline fill="none" stroke="#2c7a7b" stroke-width="3.60" stroke-opacity="1.00" stroke-linejoin="round" stroke-linecap="round" points="359.85,315.89 361.42,315.71 362.00,314.62 362.99,315.54 364.56,315.36 364.94,315.98 365.56,315.92 365.33,316.59 365.71,317.21 363.38,320.16 363.71,323.69 361.06,323.12 358.73,326.07 360.02,328.96 362.98,328.68 361.31,331.84 362.59,334.73 365.48,335.88 368.25,334.01 368.37,337.03 371.27,338.17 372.00,339.35 373.17,339.13 372.74,340.52 373.47,341.70 375.93,340.90 376.55,338.90 378.39,340.11 380.86,339.32 383.93,340.33 386.07,337.97 387.01,341.33 390.08,342.34 407.08,336.96 408.74,317.27 424.09,331.58 441.09,326.20 446.31,326.44 448.17,320.26 451.53,326.68 456.75,326.92 454.83,327.52 454.02,329.18 452.92,328.13 451.00,328.74 447.63,328.01 445.35,329.93 444.25,327.28 440.88,326.56 430.92,329.26 429.63,337.11 420.97,331.96 411.01,334.67 405.69,338.19 407.38,343.11 400.38,341.72 395.06,345.25 391.15,345.60 389.64,348.61 387.24,345.95 383.33,346.30 384.14,346.79 385.10,346.36 384.95,347.27 385.76,347.76 388.11,347.21 388.25,344.19 390.46,346.65 392.81,346.10 391.45,346.75 390.80,348.51 390.08,347.40 388.71,348.05 383.85,347.00 381.24,352.25 378.98,345.95 374.12,344.91 371.24,345.44 369.59,348.09 368.36,345.98 365.47,346.52 359.45,345.14 355.54,350.92 353.42,343.77 347.40,342.40 343.46,342.62 341.68,345.11 339.52,342.84 335.59,343.06 334.04,342.15 332.56,343.26 332.50,341.24 330.96,340.33 335.33,343.57 339.86,340.35 339.70,346.82 344.07,350.07 345.01,348.82 344.25,347.21 345.94,347.58 346.88,346.34 353.18,347.35 357.30,343.94 359.48,348.36 365.78,349.37 366.38,350.74 368.07,350.46 366.98,352.11 367.57,353.48 361.51,354.83 360.00,360.00 355.44,356.18 349.38,357.53 349.27,358.83 350.21,359.53 349.16,360.14 349.06,361.45 351.18,361.45 352.53,360.18 353.29,361.46 355.41,361.47 355.91,360.31 354.83,359.46 356.41,359.16 356.91,358.00 358.60,359.32 360.95,358.90 360.30,360.64 361.99,361.96 364.37,362.15 366.02,360.78 366.75,362.34 369.13,362.53 372.99,364.35 376.92,362.27 376.86,366.16 380.72,367.98 380.24,368.77 380.99,369.58 379.76,369.57 379.28,370.36 375.33,369.53 371.88,372.34 371.37,368.69 367.42,367.86 375.48,369.65 382.36,362.58 383.54,371.44 391.61,373.24 394.64,373.80 396.47,371.24 397.67,374.36 400.70,374.92 405.80,373.64 407.07,369.65 410.89,372.36 415.98,371.08 421.79,371.34 425.57,365.56 427.60,371.59 433.41,371.84 433.71,370.81 432.58,370.14 434.00,369.79 434.29,368.76 436.44,369.48 438.55,368.09 438.58,370.20 440.73,370.92 442.73,368.86 441.99,365.79 444.73,366.81 446.74,364.76 446.25,367.21 448.04,368.23 445.77,369.65 445.29,372.09 447.11,371.51 447.95,369.48 448.93,370.92 450.75,370.34 450.76,371.60 452.01,372.57 450.77,372.87 450.78,374.13 451.83,373.29 451.41,372.23 452.88,372.44 453.94,371.60 455.96,373.49 458.54,372.37 457.99,375.37 460.02,377.26 461.84,377.32 463.21,375.56 463.65,377.37 465.47,377.43 465.37,376.37 464.39,375.86 465.27,375.31 465.17,374.25 466.74,374.25 468.18,372.94 468.32,374.26 469.89,374.26 468.61,373.22 467.31,373.58 467.33,372.19 466.05,371.15 468.30,370.65 468.41,367.86 470.55,370.14 472.80,369.63 472.98,374.09 476.62,375.91 473.16,378.54 473.34,382.99 476.52,383.25 478.02,380.19 479.70,383.51 482.88,383.78 481.13,384.36 480.57,386.27 479.37,384.94 477.62,385.52 477.66,386.98 478.63,387.81 477.71,388.44 477.75,389.90 476.18,388.86 474.52,390.16 474.61,387.82 473.04,386.78 471.46,388.00 471.50,389.51 469.88,389.23 468.30,390.46 466.91,390.06 465.45,390.91 465.53,389.67 464.14,389.27 459.25,391.48 457.99,395.54 454.35,393.68 449.45,395.88 447.26,395.17 445.86,397.27 445.06,394.45 442.87,393.73 442.26,395.24 443.19,397.04 441.64,396.75 441.03,398.25 435.50,400.27 433.04,405.39 429.97,402.29 424.45,404.30 422.86,405.22 422.32,407.37 421.28,406.13 419.69,407.04 419.54,408.19 420.47,408.87 419.38,409.34 419.23,410.49 418.07,410.73 417.52,411.61 416.90,410.96 415.74,411.19 416.25,410.44 415.69,409.80 416.76,409.70 417.28,408.95 412.69,410.78 411.45,414.67 408.11,412.61 403.52,414.44 401.14,416.34 401.88,418.76 398.75,418.25 396.36,420.15 396.71,421.29 398.00,421.46 397.06,422.43 397.40,423.57 400.97,424.26 403.14,421.53 404.54,424.94 408.11,425.63 410.98,424.46 412.56,421.02 413.85,423.28 416.72,422.10 421.28,423.02 424.33,418.50 425.84,423.94 430.40,424.86 429.11,424.13 428.21,424.92 427.81,423.41 426.52,422.68 427.96,422.94 428.55,421.66 429.40,423.20 430.84,423.46 435.71,421.31 437.36,416.35 440.57,419.16 445.44,417.00 442.24,418.61 441.60,422.38 439.04,420.22 435.84,421.82 434.92,423.26 435.51,424.79 433.99,424.69 433.07,426.13 432.30,425.74 431.84,426.23 431.53,425.36 430.76,424.98 436.82,428.95 443.21,425.68 442.89,432.92 448.96,436.89 451.81,435.80 451.57,432.96 454.66,434.71 457.51,433.63 458.86,434.02 459.59,432.82 460.20,434.41 461.54,434.80 465.09,438.67 470.97,437.47 468.63,442.54 472.18,446.41 472.33,449.48 475.18,450.70 472.48,452.55 472.63,455.61 471.33,456.45 471.21,458.24 470.03,457.29 468.74,458.13 467.82,462.85 472.23,466.35 466.91,467.57 466.00,472.29 467.85,472.56 468.93,470.70 469.71,472.83 471.57,473.10 468.41,473.19 466.97,475.55 465.25,473.28 462.09,473.37 461.19,474.38 461.73,475.90 460.29,475.39 459.39,476.40 458.64,475.97 458.09,476.41 457.89,475.55 457.14,475.12 459.59,477.05 462.73,476.21 462.03,478.98 464.47,480.91 467.38,481.13 469.59,478.44 470.29,481.35 473.20,481.56 473.96,482.96 475.81,483.45 474.72,484.36 475.48,485.75 477.47,486.63 479.03,485.99 479.46,487.51 481.44,488.39 490.21,487.45 494.38,481.56 498.97,486.51 507.74,485.57 508.68,484.07 508.23,482.61 509.63,482.57 510.58,481.07 514.59,479.88 516.08,475.99 518.61,478.69 522.63,477.50 525.19,473.79 522.43,470.81 527.74,470.07 530.30,466.36 537.07,464.01 538.69,457.75 543.84,461.67 550.61,459.33 555.28,458.79 558.47,455.07 559.95,458.25 564.61,457.71 567.18,458.81 570.01,457.41 569.74,459.91 572.30,461.01 576.23,457.16 573.58,451.00 580.15,453.31 584.07,449.46 586.98,449.82 588.29,447.88 589.89,450.18 592.80,450.54 592.15,449.67 590.85,450.00 591.49,448.80 590.84,447.93 592.40,447.31 592.47,445.67 593.97,446.69 595.53,446.07 594.85,444.98 593.57,445.40 594.17,443.88 593.49,442.79 596.66,441.32 597.27,438.49 599.83,439.86 603.00,438.39 607.31,439.15 609.52,434.87 611.62,439.90 615.94,440.66 618.45,442.78 621.23,442.38 620.97,444.90 623.49,447.02 627.78,445.87 629.45,441.94 632.08,444.71 636.37,443.56 640.77,444.05 642.90,439.00 645.18,444.55 649.58,445.04 658.76,442.50 661.98,434.45 667.95,439.96 677.13,437.42 683.18,438.23 685.61,433.44 689.23,439.04 695.28,439.84 703.39,442.75 710.23,439.76 711.50,445.66 719.61,448.57 722.21,453.47 728.88,454.11 724.81,458.36 727.41,463.26 729.78,464.70 731.74,463.02 732.16,466.15 734.54,467.60 740.27,468.60 743.98,465.99 745.99,469.60 751.72,470.61 753.38,469.95 754.08,468.24 755.04,469.29 756.70,468.63 756.49,467.40 755.67,466.80 756.29,466.18 756.08,464.95 760.20,468.67 764.99,467.08 764.31,472.40 768.43,476.12 770.24,475.93 771.42,474.15 772.06,475.73 773.88,475.53 773.51,476.14 774.10,476.78 773.15,476.74 772.78,477.35 776.24,480.34 781.04,477.35 779.70,483.34 783.15,486.33 796.43,489.40 806.51,475.90 809.71,492.46 822.99,495.52 824.69,497.43 827.23,496.92 826.40,499.33 828.10,501.24 831.06,502.03 832.36,499.57 834.03,502.82 837.00,503.60 837.83,505.05 839.20,504.77 838.65,506.50 839.48,507.95 845.33,511.43 852.49,509.10 851.19,514.92 857.04,518.40 866.87,526.82 880.26,523.37 876.69,535.24 886.51,543.65 889.87,545.24 892.04,542.56 893.24,546.82 896.60,548.40 897.57,550.26 899.23,550.85 898.54,552.11 899.51,553.97 906.76,556.24 910.79,551.39 914.01,558.51 921.27,560.78 921.99,563.61 924.90,565.43 922.72,566.43 923.45,569.25 924.87,570.22 926.81,569.72 926.28,571.20 927.70,572.18 928.95,571.58 929.36,570.20 930.21,570.98 931.47,570.38 935.63,572.24 940.24,569.53 939.80,574.10 943.97,575.96 950.26,576.29 954.11,572.11 956.54,576.62 962.83,576.95 965.26,579.08 969.11,577.92 967.68,581.21 970.11,583.34 971.79,583.04 972.56,581.85 973.47,582.73 975.16,582.42 977.57,586.91 982.42,588.18 979.99,591.40 982.41,595.88 989.10,597.33 993.76,590.31 995.79,598.78 1002.48,600.23 1006.83,612.04 1019.23,615.95 1011.19,623.85 1015.54,635.66 1017.74,636.46 1019.29,634.73 1019.95,637.25 1022.15,638.04 1023.32,637.11 1023.30,635.79 1024.50,636.18 1025.67,635.24 1029.47,635.39 1031.40,633.05 1033.26,635.53 1037.05,635.68 1043.97,637.91 1051.52,634.18 1050.89,640.13 1057.81,642.36 1059.77,641.56 1060.29,639.78 1061.74,640.76 1063.71,639.97 1063.62,640.51 1064.00,640.79 1063.53,641.06 1063.45,641.61 1061.78,641.98 1061.69,643.97 1060.11,642.34 1058.44,642.71 1051.24,640.41 1047.71,645.19 1044.05,638.11 1036.86,635.81 1035.17,636.29 1034.23,638.01 1033.48,636.77 1031.80,637.25 1029.59,636.72 1027.89,638.30 1027.38,636.18 1025.17,635.64 1024.15,636.57 1024.44,637.98 1023.13,637.49 1022.10,638.42 1020.23,637.74 1018.88,638.46 1018.36,637.06 1016.49,636.38 1017.54,638.73 1020.14,639.70 1018.59,641.09 1019.64,643.44 1019.50,642.35 1018.25,642.23 1019.36,641.26 1019.21,640.17 1020.87,640.53 1022.13,639.53 1022.53,640.89 1024.19,641.24 1022.94,641.88 1023.05,643.30 1021.69,642.52 1020.43,643.15 1020.81,643.98 1021.75,644.29 1021.19,644.80 1021.56,645.63 1020.99,644.99 1020.09,644.99 1020.43,644.34 1019.86,643.70 1021.07,645.05 1022.71,644.56 1022.28,646.40 1023.49,647.75 1023.81,652.65 1028.70,655.14 1024.13,657.55 1024.45,662.45 1023.08,665.05 1025.65,667.39 1021.72,667.64 1020.35,670.24 1017.55,671.99 1017.59,674.86 1014.76,673.74 1011.96,675.50 1010.50,678.55 1011.82,682.37 1009.03,681.61 1007.57,684.66 1005.10,686.81 1006.54,690.45 1002.62,688.95 1000.14,691.09 991.86,695.08 992.93,703.45 983.57,699.06 975.29,703.04 969.82,704.16 967.88,710.25 964.34,705.27 958.87,706.38 957.05,708.05 958.21,710.85 955.22,709.71 953.40,711.37 949.45,712.72 947.87,715.90 945.50,714.07 941.55,715.43 937.90,715.48 935.18,718.54 934.24,715.53 930.59,715.58 925.44,718.12 923.92,723.51 920.30,720.66 915.15,723.20 912.47,722.15 910.75,723.85 909.79,721.09 907.11,720.04 903.09,720.08 901.90,723.22 899.08,720.12 895.06,720.16 893.31,719.15 891.74,719.57 891.56,718.14 889.82,717.13 886.82,717.26 885.12,719.62 883.82,717.39 880.82,717.52 875.70,715.03 869.08,717.19 870.58,712.54 865.45,710.05 862.41,711.34 861.06,714.90 859.37,712.64 856.34,713.93 853.59,713.27 852.00,715.44 850.85,712.61 848.10,711.95 840.30,713.48 836.68,719.15 832.50,715.01 824.70,716.54 822.41,717.90 821.84,720.27 820.12,719.27 817.83,720.63 815.79,720.12 814.51,721.84 813.75,719.61 811.72,719.10 809.59,720.38 809.10,722.61 807.46,721.65 805.33,722.93 801.43,723.10 799.37,726.30 797.52,723.27 793.62,723.44 791.93,722.63 790.61,723.76 790.23,721.82 788.54,721.01 779.57,720.10 776.59,729.22 770.61,719.19 761.64,718.29 759.39,716.77 757.61,718.17 757.15,715.26 754.90,713.74 754.97,712.30 754.14,711.31 755.05,710.87 755.12,709.43 752.77,708.97 750.62,710.59 750.43,708.52 748.08,708.06 746.06,710.30 746.78,713.73 744.05,712.53 742.03,714.76 740.10,714.97 739.08,716.28 738.17,715.18 736.24,715.39 731.40,712.75 727.55,716.93 726.56,710.10 721.72,707.46 716.26,706.79 714.36,710.82 710.80,706.12 705.35,705.45 704.38,703.15 701.65,703.45 703.41,700.85 702.44,698.55 699.47,697.21 697.29,699.21 696.49,695.87 693.51,694.54 688.47,693.48 685.44,698.94 683.42,692.43 678.38,691.38 675.70,693.98 675.81,697.97 673.01,696.59 670.32,699.19 667.33,699.59 666.26,702.08 664.34,699.98 661.35,700.38 655.30,695.59 649.07,697.27 649.24,690.81 643.19,686.02 642.84,682.38 639.22,680.50 642.49,678.73 642.14,675.09 640.80,673.67 639.12,673.92 639.46,672.26 638.12,670.85 635.81,669.77 634.00,670.43 633.51,668.70 631.21,667.62 622.49,669.97 619.94,676.73 613.76,672.31 605.04,674.66 598.54,672.76 592.00,678.07 592.03,670.85 585.52,668.95 581.29,664.31 576.07,664.91 577.07,659.67 572.85,655.03 573.55,652.96 572.25,651.08 574.26,650.89 574.97,648.81 576.98,648.67 577.98,646.37 578.99,648.53 581.00,648.38 577.84,648.18 574.96,650.76 574.69,647.97 571.53,647.76 570.32,646.32 568.72,647.09 569.10,644.88 567.89,643.45 566.27,643.33 565.26,645.00 564.64,643.21 563.02,643.09 561.42,645.34 562.08,648.29 559.82,647.59 558.21,649.84 554.83,651.06 554.45,655.33 551.45,652.27 548.06,653.49 542.80,652.76 538.70,656.80 537.54,652.02 532.27,651.29 527.96,652.09 526.11,655.45 523.65,652.90 519.34,653.70 497.71,651.91 487.93,674.49 476.09,650.13 454.46,648.34 443.71,651.98 439.01,663.34 432.95,655.61 422.20,659.24 415.87,659.96 414.08,667.40 409.55,660.67 403.22,661.39 399.49,663.37 399.36,666.96 395.77,665.34 392.05,667.32 389.07,667.76 387.68,670.95 386.10,668.21 383.13,668.66 379.95,671.27 381.56,674.74 376.77,673.89 373.59,676.50 356.86,682.98 349.02,702.94 340.14,689.47 323.41,695.95 323.62,698.27 325.60,698.55 323.82,700.59 324.02,702.91 322.13,704.80 323.49,707.77 320.24,706.68 318.36,708.57 311.31,709.84 310.99,716.39 304.26,711.11 297.22,712.38 291.44,712.08 288.73,716.29 285.66,711.77 279.88,711.47 268.99,708.62 263.89,718.12 258.10,705.76 247.21,702.91 245.36,704.42 246.01,706.76 243.51,705.93 241.66,707.44 237.82,707.73 235.49,710.95 233.98,708.01 230.14,708.30 212.93,706.00 205.86,723.64 195.73,703.70 178.53,701.40 176.40,701.80 175.05,703.59 174.26,702.19 172.13,702.59 160.17,699.60 153.31,707.93 148.21,696.62 136.25,693.63 128.17,690.35 119.76,693.87 120.10,687.07 112.03,683.78 108.07,680.74 104.66,682.63 104.11,677.69 100.14,674.64 97.88,670.92 94.69,671.98 95.62,667.19 93.35,663.46 92.78,661.91 91.27,661.84 92.22,660.37 91.65,658.82 93.60,658.40 94.62,656.20 95.55,657.98 97.50,657.57 96.96,655.07 94.38,654.78 96.43,652.58 95.89,650.08 89.49,644.28 81.83,647.65 83.09,638.49 76.69,632.69 77.71,631.44 77.08,630.05 78.73,630.20 79.75,628.95 77.87,627.69 75.87,628.68 76.00,626.42 74.12,625.15 74.52,624.10 74.06,623.06 74.92,623.05 75.31,621.99 73.74,621.97 73.02,623.60 72.17,621.95 70.60,621.92 69.92,620.83 68.91,621.01 69.25,619.74 68.57,618.65 65.90,619.35 64.80,622.04 63.22,620.05 60.55,620.75 59.04,620.01 57.72,620.72 57.52,619.27 56.00,618.53 57.75,616.37 56.95,613.83 59.50,614.21 61.26,612.05 64.18,612.10 66.39,609.72 67.11,612.15 70.03,612.21 69.72,610.52 68.15,609.34 69.41,608.83 69.11,607.15 71.44,606.48 72.12,604.15 73.78,605.81 76.11,605.14 75.78,604.04 74.45,603.70 75.45,602.94 75.13,601.85 79.05,602.01 81.82,599.09 82.97,602.18 86.88,602.35 86.60,594.80 81.23,592.37 86.32,587.25 86.04,579.69 87.36,576.65 86.06,573.63 88.68,573.61 90.00,570.57 83.27,570.14 78.22,576.18 76.54,569.70 69.81,569.26 77.68,568.70 79.89,560.78 85.55,568.13 93.42,567.57 95.47,564.03 92.46,561.07 97.52,560.50 99.56,556.97 101.00,556.24 101.37,555.07 102.44,555.51 103.87,554.78 108.48,554.59 110.15,550.14 113.09,554.39 117.69,554.19 120.17,555.40 122.08,553.04 122.64,556.61 125.11,557.81 128.32,553.75 126.02,550.40 131.54,549.70 134.75,545.64 133.74,542.54 131.10,541.70 132.73,539.45 131.72,536.35 132.40,533.61 130.49,531.61 133.08,530.87 133.76,528.13 132.27,527.95 131.72,529.08 130.77,527.78 129.28,527.60 130.63,527.56 131.23,526.24 131.99,527.51 133.34,527.47 135.15,523.46 132.26,520.07 136.96,519.45 138.77,515.43 138.11,513.41 135.53,513.60 137.45,511.39 136.79,509.37 138.08,508.77 138.34,507.11 139.36,508.17 140.64,507.57 139.01,507.62 138.08,508.89 137.37,507.68 135.74,507.73 136.49,507.08 136.00,506.08 137.24,506.42 137.99,505.77 138.46,506.28 139.04,506.34 138.93,506.80 139.40,507.32 138.82,505.91 137.06,505.28 138.24,504.51 137.66,503.10 138.92,504.48 140.72,504.57 140.19,505.86 141.45,507.25 139.50,503.84 135.54,504.41 137.54,500.43 135.59,497.03 135.98,495.58 135.34,494.61 136.36,494.13 136.74,492.67 137.92,492.67 138.37,491.58 139.09,492.66 140.26,492.65 138.86,492.62 138.31,494.17 137.47,492.59 136.07,492.56 136.94,492.09 137.05,490.96 137.80,491.62 138.66,491.16 139.30,491.72 140.16,491.59 139.94,492.28 140.57,492.83 149.58,483.08 144.60,473.10 158.59,473.32 167.60,463.57 177.97,461.98 179.86,449.11 188.35,460.40 198.72,458.81 200.12,457.63 200.05,456.16 201.52,456.45 202.92,455.27 199.30,453.16 196.55,455.51 195.68,451.05 192.06,448.94 190.54,449.53 190.25,451.51 189.01,450.13 187.48,450.72 187.32,449.80 186.40,449.26 187.15,448.89 186.98,447.97 185.43,448.31 185.15,449.84 183.88,448.65 182.32,448.99 181.56,447.46 180.26,447.78 180.79,445.92 180.02,444.39 177.89,444.16 175.95,445.98 175.76,443.93 173.63,443.70 174.44,443.18 174.45,442.13 175.25,442.67 176.06,442.15 175.30,441.40 174.03,441.71 174.54,440.65 173.77,439.90 172.60,439.86 172.26,440.79 171.44,439.83 170.27,439.79 170.13,440.59 170.91,441.19 169.99,441.38 169.86,442.18 163.88,439.28 157.55,442.59 157.90,436.39 151.92,433.50 150.42,433.91 149.97,435.58 148.92,434.31 147.42,434.72 146.13,433.69 144.41,434.18 144.84,432.65 143.55,431.62 135.26,429.81 129.60,435.92 126.97,428.00 118.68,426.20 115.12,422.55 109.69,422.66 111.55,418.90 107.99,415.25 109.53,415.72 110.23,414.45 111.08,416.18 112.62,416.65 114.25,419.50 117.56,419.44 115.87,422.35 117.50,425.20 125.71,427.37 134.42,421.63 133.91,429.53 142.11,431.70 143.80,431.29 144.74,429.37 145.48,430.89 147.16,430.48 146.19,429.54 144.68,430.01 145.22,428.61 144.25,427.67 145.37,426.47 145.26,425.04 146.49,425.27 147.61,424.07 150.87,425.33 153.36,423.71 154.14,426.60 157.40,427.86 158.32,426.19 157.59,424.82 159.23,424.52 160.14,422.85 164.34,421.94 164.32,416.94 168.54,421.02 172.73,420.11 174.09,419.00 173.95,416.90 175.45,417.88 176.81,416.77 183.06,416.61 185.81,410.85 189.31,416.45 195.56,416.29 197.77,417.68 200.64,416.42 199.98,419.06 202.19,420.45 204.72,419.20 204.62,417.03 207.24,417.94 209.77,416.68 209.86,416.16 209.51,415.79 209.94,415.63 210.03,415.10 208.39,415.55 208.07,417.46 206.76,415.99 205.13,416.44 204.09,415.76 203.26,416.42 203.05,415.08 202.02,414.39 205.52,411.58 205.17,407.83 209.03,408.76 212.53,405.94 212.01,405.60 211.44,405.79 211.49,405.25 210.96,404.90 213.17,404.39 214.33,402.64 215.37,403.87 217.57,403.36 216.14,404.13 216.05,405.38 214.70,404.89 213.26,405.66 221.44,400.99 222.56,391.41 229.62,396.32 237.80,391.65 232.42,394.75 232.52,399.63 227.03,397.85 221.64,400.95 220.06,400.92 219.29,401.85 218.48,400.89 216.90,400.86 216.11,399.68 214.75,399.63 215.32,398.49 214.54,397.31 216.60,396.90 217.42,394.83 218.67,396.48 220.74,396.07 220.78,395.28 220.31,394.84 220.82,394.50 220.86,393.71 222.06,394.83 223.75,394.59 223.26,395.95 224.46,397.07 224.23,394.81 222.24,394.50 224.01,392.55 223.79,390.28 224.49,391.81 226.45,392.17 225.20,393.33 225.90,394.86 226.44,391.84 224.69,389.99 226.99,388.83 227.53,385.81 229.36,388.21 232.61,388.03 231.19,390.60 233.02,392.99 234.38,390.39 232.54,388.85 235.75,387.78 237.11,385.18 237.53,387.25 239.89,387.67 237.95,389.33 238.36,391.40 241.93,388.91 240.53,385.02 245.50,386.42 249.06,383.93 250.63,381.22 248.79,379.42 252.19,378.50 253.76,375.78 254.61,376.31 255.63,375.68 255.46,376.84 256.32,377.37 254.43,378.98 254.39,380.93 252.54,380.60 250.64,382.21 254.02,379.58 253.91,374.99 257.39,376.95 260.77,374.31 259.85,374.29 259.20,374.86 258.93,374.26 258.00,374.24 256.26,371.38 252.54,371.40 254.52,368.52 252.77,365.66 248.08,363.88 244.36,366.21 243.39,362.09 238.70,360.31 237.68,359.20 236.30,359.16 236.66,358.09 235.64,356.98 236.54,355.83 235.70,354.38 237.43,354.68 238.33,353.53 240.42,353.33 240.60,351.75 242.51,353.12 244.59,352.91 245.66,355.01 248.36,355.11 246.73,357.11 247.80,359.21 248.75,357.55 247.92,355.51 249.70,355.89 250.65,354.22 250.82,355.93 252.36,356.67 250.99,357.65 251.17,359.36 252.98,360.00 253.96,358.49 254.79,360.64 256.60,361.28 256.82,362.88 258.28,363.29 257.05,364.49 257.27,366.09 259.27,367.34 261.45,366.82 261.26,368.58 263.26,369.83 262.44,371.26 262.82,372.77 261.62,372.70 260.80,374.13 265.45,368.80 262.78,360.68 270.09,363.47 274.74,358.13 273.55,357.54 272.81,358.33 272.37,356.94 271.19,356.35 271.47,355.36 270.43,354.70 271.74,354.38 272.01,353.40 272.87,354.83 274.22,354.56 273.73,356.25 274.59,357.68 276.28,356.46 275.76,354.33 277.97,355.24 279.65,354.02 279.42,350.39 276.02,347.97 279.19,346.76 278.95,343.12 285.01,341.76 285.44,334.50 291.07,340.40 297.13,339.03 296.87,337.65 295.68,337.10 296.61,336.27 296.34,334.88 296.78,336.21 298.14,336.28 297.22,337.53 297.66,338.85 301.14,338.20 302.07,334.07 304.63,337.56 308.11,336.91 312.05,337.54 314.31,334.65 315.98,338.18 319.92,338.81 323.01,336.76 321.70,332.47 326.11,334.71 329.20,332.67 327.87,330.17 324.71,329.45 326.54,327.68 325.22,325.18 326.99,326.85 329.83,326.80 328.76,328.53 330.52,330.20 332.40,327.73 331.84,325.37 334.27,325.27 336.14,322.80 334.21,326.71 336.39,331.35 332.29,330.61 330.37,334.52 328.62,335.37 328.62,336.94 326.87,336.21 325.12,337.06 327.94,337.63 329.77,336.12 330.75,338.21 333.56,338.79 335.54,337.66 335.35,335.87 337.52,336.54 339.50,335.42 343.07,336.32 344.90,332.64 346.64,337.23 350.21,338.13 352.28,337.49 353.23,335.38 354.35,336.85 356.42,336.21 357.23,334.15 356.21,331.78 358.04,332.09 358.85,330.03 357.72,328.64 355.57,328.73 356.59,327.26 355.46,325.87 358.15,322.97 356.95,318.30 360.84,320.07 363.54,317.17 361.50,316.66 360.36,317.82 359.45,316.14 357.41,315.62 358.61,314.26 358.50,312.47 359.82,312.89 361.02,311.53 358.77,311.48 357.48,312.95 356.52,311.43 354.26,311.38 355.20,309.36 353.45,307.78 356.14,307.34 357.08,305.32 353.67,302.64 350.09,303.64 350.27,299.95 346.86,297.26 347.55,295.77 346.61,294.07 348.23,294.27 348.92,292.78 347.79,292.11 346.63,292.90 346.65,291.44 345.52,290.78 346.68,291.39 348.15,290.82 347.84,292.00 349.01,292.62 348.36,294.16 349.51,295.54 347.72,295.71 347.08,297.26 349.31,298.35 351.77,297.24 351.53,299.45 353.76,300.54 353.51,300.03 353.01,300.05 353.27,299.52 353.02,299.01 353.23,300.58 354.81,301.26 353.43,302.15 353.64,303.72 355.10,304.29 356.77,303.40 356.56,304.86 358.03,305.42 356.79,306.90 357.03,308.67 355.55,308.38 354.30,309.86 355.05,310.48 356.24,310.42 355.80,311.09 356.55,311.71 358.72,311.46 359.44,309.05 360.89,311.21 363.06,310.96 361.98,312.56 362.42,314.84 360.90,314.16 359.83,315.76 359.83,315.80 359.88,315.80 359.84,315.84 359.85,315.89"/>
  </g>
  <g>
  </g>
  <g>
    <text x="1092" y="186" font-family="Helvetica, Arial, sans-serif" font-size="18" font-weight="700" fill="#16324f">Слои и длины</text>
    <line x1="1092" y1="224" x2="1126" y2="224" stroke="#7a8b99" stroke-width="1.80" stroke-opacity="0.85" stroke-dasharray="8 6"/>
    <text x="1138" y="222" font-family="Helvetica, Arial, sans-serif" font-size="13" fill="#16324f">Реальная загруженная</text>
    <text x="1138" y="237" font-family="Helvetica, Arial, sans-serif" font-size="13" fill="#16324f">полилиния (справочно)</text>
    <text x="1138" y="254" font-family="Helvetica, Arial, sans-serif" font-size="12" fill="#6b7a87">6391 км</text>
    <line x1="1092" y1="268" x2="1356" y2="268" stroke="#ddd6c8" stroke-width="1"/>
    <line x1="1092" y1="292" x2="1126" y2="292" stroke="#1f6f8b" stroke-width="2.10" stroke-opacity="0.38"/>
    <text x="1138" y="290" font-family="Helvetica, Arial, sans-serif" font-size="13" fill="#16324f">Упрощённая база модели</text>
    <text x="1138" y="305" font-family="Helvetica, Arial, sans-serif" font-size="13" fill="#16324f">(итерация 0)</text>
    <text x="1138" y="322" font-family="Helvetica, Arial, sans-serif" font-size="12" fill="#6b7a87">5334 км</text>
    <line x1="1092" y1="336" x2="1356" y2="336" stroke="#ddd6c8" stroke-width="1"/>
    <line x1="1092" y1="360" x2="1126" y2="360" stroke="#2c7a7b" stroke-width="3.60" stroke-opacity="1.00"/>
    <text x="1138" y="358" font-family="Helvetica, Arial, sans-serif" font-size="13" fill="#16324f">Синтетическая итерация 1</text>
    <text x="1138" y="375" font-family="Helvetica, Arial, sans-serif" font-size="12" fill="#6b7a87">7544 км</text>
  </g>
  <g>
    <rect x="1092" y="417" width="264" height="108" rx="18" fill="#f8f6ef" stroke="#d6d0c4"/>
    <text x="1106" y="437" font-family="Helvetica, Arial, sans-serif" font-size="14" font-weight="700" fill="#16324f">Контроль геометрии</text>
    <text x="1106" y="469" font-family="Helvetica, Arial, sans-serif" font-size="12" fill="#4f6d7a">Сегменты &gt; 450 км</text>
    <text x="1342" y="469" text-anchor="end" font-family="Helvetica, Arial, sans-serif" font-size="13" font-weight="700" fill="#3f6b4b">0</text>
    <line x1="1106" y1="473" x2="1342" y2="473" stroke="#e7e1d5" stroke-width="1"/>
    <text x="1106" y="491" font-family="Helvetica, Arial, sans-serif" font-size="12" fill="#4f6d7a">Повторы ориентиров</text>
    <text x="1342" y="491" text-anchor="end" font-family="Helvetica, Arial, sans-serif" font-size="13" font-weight="700" fill="#3f6b4b">0</text>
    <line x1="1106" y1="495" x2="1342" y2="495" stroke="#e7e1d5" stroke-width="1"/>
    <text x="1106" y="513" font-family="Helvetica, Arial, sans-serif" font-size="12" fill="#4f6d7a">Автоисправления</text>
    <text x="1342" y="513" text-anchor="end" font-family="Helvetica, Arial, sans-serif" font-size="13" font-weight="700" fill="#3f6b4b">0</text>
  </g>
  <g>
    <rect x="1092" y="543" width="264" height="126" rx="18" fill="#fcfbf7" stroke="#d6d0c4"/>
    <text x="1106" y="563" font-family="Helvetica, Arial, sans-serif" font-size="14" font-weight="700" fill="#16324f">Длина по итерациям</text>
    <line x1="1106" y1="574" x2="1122" y2="574" stroke="#1f6f8b" stroke-width="2.2"/>
    <text x="1128" y="578" font-family="Helvetica, Arial, sans-serif" font-size="11" fill="#4f6d7a">Измерено</text>
    <line x1="1106" y1="587.00" x2="1342" y2="587.00" stroke="#ddd6c8" stroke-width="1"/>
    <line x1="1106" y1="617.00" x2="1342" y2="617.00" stroke="#ddd6c8" stroke-width="1"/>
    <line x1="1106" y1="647.00" x2="1342" y2="647.00" stroke="#ddd6c8" stroke-width="1"/>
    <line x1="1106" y1="647" x2="1342" y2="647" stroke="#8a9aa6" stroke-width="1.4"/>
    <text x="1106" y="581" font-family="Helvetica, Arial, sans-serif" font-size="11" fill="#6b7a87">7721</text>
    <text x="1106" y="661" font-family="Helvetica, Arial, sans-serif" font-size="11" fill="#6b7a87">5157</text>
    <text x="1106" y="659" font-family="Helvetica, Arial, sans-serif" font-size="11" fill="#6b7a87">0</text>
    <text x="1342" y="659" text-anchor="end" font-family="Helvetica, Arial, sans-serif" font-size="11" fill="#6b7a87">1</text>
    <polyline fill="none" stroke="#1f6f8b" stroke-width="2.4" stroke-linecap="round" stroke-linejoin="round" points="1106.00,642.86 1342.00,591.14"/>
    <circle cx="1106.00" cy="642.86" r="2.8" fill="#1f6f8b"/>
    <circle cx="1342.00" cy="591.14" r="2.8" fill="#1f6f8b"/>
  </g>
  <g>
  </g>
  <g>
    <rect x="1092" y="713" width="264" height="158" rx="18" fill="#f8f6ef" stroke="#d6d0c4"/>
    <text x="1106" y="733" font-family="Helvetica, Arial, sans-serif" font-size="14" font-weight="700" fill="#16324f">Сводка</text>
    <text x="1106" y="755" font-family="Helvetica, Arial, sans-serif" font-size="12" fill="#4f6d7a">Реальная линия: 6391 км, 9635 т.</text>
    <line x1="1106" y1="775" x2="1342" y2="775" stroke="#e7e1d5" stroke-width="1"/>
    <text x="1106" y="783" font-family="Helvetica, Arial, sans-serif" font-size="12" fill="#4f6d7a">База модели: 5334 км, 391 т.</text>
    <text x="1106" y="799" font-family="Helvetica, Arial, sans-serif" font-size="12" fill="#4f6d7a">(-16.5% к реальной)</text>
    <line x1="1106" y1="819" x2="1342" y2="819" stroke="#e7e1d5" stroke-width="1"/>
    <text x="1106" y="827" font-family="Helvetica, Arial, sans-serif" font-size="12" fill="#4f6d7a">Текущий слой: 7544 км, 1561 т.</text>
    <text x="1106" y="843" font-family="Helvetica, Arial, sans-serif" font-size="12" fill="#4f6d7a">расчёт / 1561 т. SVG</text>
  </g>
  <g>
    <line x1="56" y1="829" x2="479" y2="829" stroke="#16324f" stroke-width="3"/>
    <line x1="56" y1="822" x2="56" y2="836" stroke="#16324f" stroke-width="6"/>
    <line x1="479" y1="822" x2="479" y2="836" stroke="#16324f" stroke-width="6"/>
    <text x="56" y="815" font-family="Helvetica, Arial, sans-serif" font-size="13" fill="#16324f">Масштаб ≈ 500 км</text>  </g>
</svg>
