<?xml version="1.0" encoding="UTF-8"?>
<svg xmlns="http://www.w3.org/2000/svg" width="1440" height="983" viewBox="0 0 1440 983">
  <rect width="100%" height="100%" fill="#f7f4ea"/>
  <rect x="20" y="20" width="1400" height="943" rx="28" fill="#fcfbf7" stroke="#d6d0c4"/>
  <rect x="1072" y="20" width="304" height="943" rx="24" fill="#f0ece2" stroke="#d6d0c4"/>
  <g>
  <text x="56" y="58" font-family="Helvetica, Arial, sans-serif" font-size="30" font-weight="700" fill="#16324f">Классическая кривая Коха — итерация 1</text>
  <text x="56" y="108" font-family="Helvetica, Arial, sans-serif" font-size="14" fill="#4f6d7a">Серая пунктирная линия показывает реальную загруженную береговую линию; цветные слои строятся от упрощённой базы модели и</text>
  <text x="56" y="126" font-family="Helvetica, Arial, sans-serif" font-size="14" fill="#4f6d7a">упрощены для рендера</text>
  <text x="56" y="152" font-family="Helvetica, Arial, sans-serif" font-size="13" fill="#6b7a87">SVG содержит исходную полилинию, фрактальные итерации, масштаб и длину по слоям.</text>
  </g>
  <g>
    <polyline fill="none" stroke="#7a8b99" stroke-width="1.80" stroke-opacity="0.85" stroke-linejoin="round" stroke-linecap="round" stroke-dasharray="8 6" points="359.95,318.51 361.40,318.92 361.97,318.41 363.60,318.17 363.31,317.97 364.65,317.98 365.81,319.83 364.82,321.53 364.92,322.87 362.97,323.86 362.60,324.27 363.10,324.46 362.28,325.10 360.76,325.25 360.75,327.50 358.83,328.70 359.78,329.37 359.02,330.04 360.26,329.62 359.62,331.46 360.76,331.81 362.49,333.99 362.00,335.99 362.69,337.36 365.86,339.74 367.59,340.42 370.08,340.28 371.36,340.80 373.57,344.32 380.96,341.95 383.87,343.09 384.99,344.60 390.18,344.97 395.67,343.42 396.24,341.85 395.94,343.34 398.36,341.79 400.83,341.69 399.45,341.09 399.71,340.55 400.66,340.42 400.93,340.79 401.64,340.14 402.58,340.11 402.23,340.47 402.72,340.44 402.89,341.03 402.20,340.79 401.48,341.19 401.05,340.82 401.10,341.66 403.88,341.15 403.84,340.63 404.31,340.93 409.25,337.41 413.06,336.33 417.73,336.25 426.15,332.36 430.00,331.74 434.10,331.69 441.21,328.82 450.71,328.93 452.42,329.62 455.39,328.97 456.87,329.54 455.45,330.57 451.12,331.36 441.00,329.18 434.66,331.99 426.34,332.73 419.50,336.22 415.38,337.06 411.12,337.29 409.03,337.99 406.33,339.80 405.11,340.86 405.59,341.13 404.75,341.16 400.44,345.62 398.43,345.54 395.17,347.88 391.24,347.96 386.68,349.17 383.43,348.93 385.86,349.70 385.23,350.26 385.87,350.39 388.76,349.09 391.53,348.49 392.92,348.73 391.50,350.05 388.81,350.68 384.78,350.47 380.20,349.48 377.41,349.52 375.14,348.90 377.10,349.05 374.22,347.53 373.77,347.65 374.55,348.03 374.54,348.68 371.37,348.12 365.57,349.14 365.40,348.44 365.19,348.99 363.40,348.83 357.75,347.44 357.55,346.75 358.08,346.57 356.36,346.09 357.17,346.99 355.54,347.24 350.70,346.33 347.49,345.02 341.42,345.68 335.68,345.69 332.75,344.60 331.04,342.95 333.23,345.29 339.58,349.00 344.16,352.70 343.52,352.15 344.45,352.40 343.38,351.90 343.76,350.35 344.70,349.55 346.97,348.97 356.37,350.76 360.93,352.30 359.21,351.53 361.56,351.90 360.07,351.40 360.92,351.47 362.19,352.06 360.86,352.00 361.97,352.26 364.17,351.30 365.87,352.00 366.64,353.85 368.09,355.12 367.67,356.11 366.41,356.45 365.69,356.07 364.53,357.69 361.33,358.77 357.18,359.45 356.61,359.42 358.89,359.20 353.11,359.34 349.47,360.16 349.75,360.36 348.00,361.16 347.62,362.00 348.19,361.74 348.87,362.15 349.45,363.35 349.15,364.08 350.11,363.39 349.94,362.99 350.41,363.51 351.29,363.24 351.57,364.03 352.58,363.01 353.01,363.25 352.50,363.52 353.43,363.39 353.73,363.84 355.07,363.37 355.50,364.10 357.02,362.30 356.54,361.76 356.31,362.31 355.88,362.19 355.77,360.87 357.00,360.63 356.98,361.67 360.02,362.03 359.35,362.00 360.40,362.35 360.65,363.32 361.30,363.52 360.68,363.37 360.88,363.72 361.20,364.02 361.77,363.74 361.30,364.01 362.09,364.59 363.65,364.73 364.17,364.09 363.94,364.85 364.80,365.07 365.60,365.20 365.16,364.79 365.67,364.59 366.05,365.28 367.19,364.59 368.76,365.61 368.58,365.17 369.22,365.16 370.17,366.95 370.91,366.93 370.74,367.25 371.87,367.92 372.85,368.03 372.74,367.70 373.20,368.33 375.18,368.34 377.55,370.24 377.11,369.67 377.86,369.74 377.88,369.29 378.80,369.13 380.26,369.64 380.82,370.61 380.25,370.75 380.08,370.21 379.66,370.59 380.20,371.84 379.38,373.00 367.52,370.49 391.71,375.87 400.81,377.56 401.02,376.48 404.85,375.32 407.73,374.81 409.69,375.26 413.67,374.69 416.09,373.72 420.07,374.52 423.20,374.04 425.59,374.92 433.53,374.47 433.96,374.32 432.85,374.22 432.67,373.75 433.66,372.65 433.16,371.69 434.41,371.40 436.27,371.59 437.32,372.85 440.85,373.55 444.16,371.43 444.94,370.22 444.36,368.82 445.18,369.28 446.86,367.40 445.56,370.23 447.08,371.56 445.82,372.27 445.07,374.16 445.40,374.73 445.98,374.81 445.78,373.44 446.60,372.99 448.56,372.59 450.87,372.97 452.34,373.70 452.83,374.59 452.13,375.74 450.65,375.44 450.90,376.77 453.01,376.83 452.49,376.65 452.84,374.95 454.06,374.23 454.98,375.45 456.82,375.95 456.47,376.93 460.14,379.89 460.85,379.91 460.24,379.63 460.47,379.21 461.90,379.17 462.98,378.59 465.59,380.07 466.66,379.87 464.93,378.40 465.29,376.89 466.55,376.44 470.01,376.89 466.61,375.32 466.17,373.79 466.95,374.16 468.19,373.90 468.59,372.75 469.99,372.64 470.80,371.32 471.82,371.35 472.92,372.27 475.11,376.69 473.91,377.27 473.25,378.36 474.44,384.35 473.47,385.63 474.79,385.88 474.89,385.41 476.20,385.02 481.69,385.21 482.56,385.50 483.01,386.42 482.32,386.89 480.72,386.96 478.79,388.25 478.31,387.92 477.75,388.16 477.88,392.54 476.18,390.67 474.96,390.50 473.17,389.42 470.92,390.94 470.06,390.83 468.42,393.10 467.75,392.38 465.70,392.79 465.11,391.81 464.27,391.91 460.11,393.43 460.09,394.03 459.79,393.65 459.53,394.03 459.76,394.73 459.37,394.04 456.00,396.35 449.57,398.53 446.31,398.61 444.19,397.60 442.99,396.37 442.25,399.53 441.14,400.90 436.31,401.94 428.72,404.82 424.56,406.95 419.81,409.69 419.57,410.12 420.88,410.16 421.27,410.75 420.04,412.06 420.26,412.48 419.49,411.79 418.53,412.14 418.48,412.51 419.20,412.41 419.34,413.14 415.85,413.84 418.36,412.22 417.39,411.60 412.22,413.82 412.10,414.76 410.83,415.12 411.33,414.71 410.83,414.23 403.63,417.09 400.50,418.87 396.47,422.80 397.17,423.55 398.38,423.71 398.98,424.61 397.51,426.22 408.22,428.28 413.41,425.53 416.83,424.75 425.24,425.14 428.51,426.26 430.51,427.51 430.66,427.17 426.63,425.33 429.59,425.80 430.67,425.22 430.96,426.11 432.21,425.43 432.45,424.73 434.77,424.53 434.87,423.79 436.09,423.33 438.26,423.52 438.13,423.14 440.50,422.10 440.95,421.37 441.73,421.46 442.35,420.19 443.79,419.95 444.41,419.26 445.56,419.65 443.88,420.72 443.08,420.30 441.79,422.06 439.55,423.04 440.60,423.36 439.31,423.34 438.45,424.58 437.24,424.59 437.06,424.12 435.96,424.47 434.81,425.90 436.33,425.94 436.44,426.29 435.75,426.73 435.55,426.29 435.02,426.67 433.59,426.53 434.27,427.44 433.51,427.46 433.18,428.78 430.87,427.63 436.33,431.07 439.29,433.92 441.08,434.78 441.88,435.92 444.21,437.11 446.95,437.70 449.08,439.54 450.72,439.55 452.34,437.82 455.48,437.77 457.63,436.28 459.64,436.54 461.67,437.46 465.46,439.84 469.65,443.85 472.30,449.07 472.59,450.86 472.10,451.34 473.12,455.05 472.75,458.27 471.77,460.05 470.38,460.58 469.13,460.38 468.86,460.79 468.90,462.37 467.74,463.72 468.72,467.95 468.58,471.85 467.90,473.64 466.61,474.14 466.12,474.96 469.72,474.97 471.70,475.77 467.73,475.52 467.42,476.60 467.29,475.42 466.83,475.70 466.00,475.23 465.39,475.98 463.75,475.82 463.59,476.54 463.32,475.88 462.22,476.03 461.98,476.94 461.38,476.29 460.20,477.07 461.19,478.52 459.79,477.47 459.51,479.07 459.31,478.19 458.84,478.69 458.91,477.24 457.27,477.78 459.78,480.09 463.25,481.89 464.60,483.58 465.44,483.17 469.26,484.26 471.95,483.69 473.33,484.23 474.67,485.29 475.61,488.42 477.21,488.98 479.55,488.75 481.57,491.05 484.27,491.09 489.88,489.70 497.31,490.77 500.42,489.67 501.58,489.79 503.75,488.65 507.87,488.24 510.72,483.74 516.29,482.96 518.15,480.64 519.98,479.84 522.77,480.17 522.91,477.82 524.36,477.19 524.69,475.84 527.48,471.65 530.45,469.02 535.39,467.24 536.70,466.32 538.94,465.85 540.17,464.96 550.76,461.99 556.40,462.09 558.21,461.63 560.81,462.07 561.39,461.11 564.77,460.37 566.17,461.11 566.96,460.72 569.01,461.10 570.36,462.18 570.04,463.06 572.46,463.67 575.75,461.58 576.12,459.11 577.76,456.61 583.25,455.03 584.01,453.75 583.63,452.69 584.23,452.12 585.55,451.70 586.76,452.23 588.73,451.68 590.65,452.04 590.76,452.55 592.96,453.19 593.29,452.66 591.93,452.59 590.84,451.28 591.00,450.59 591.58,450.00 595.69,448.73 592.95,447.51 593.65,445.44 597.23,442.89 603.16,441.04 608.49,441.03 616.10,443.31 621.64,446.65 621.79,448.13 623.17,448.71 622.96,449.33 623.66,449.68 628.58,448.24 631.44,448.74 633.49,447.87 634.70,446.72 636.54,446.21 649.76,447.70 651.57,446.19 655.31,445.61 659.77,445.61 664.56,443.68 665.20,442.77 677.31,440.07 682.90,441.46 684.24,442.21 689.76,441.60 695.47,442.50 711.87,447.32 719.81,451.23 723.59,454.92 723.61,456.16 722.15,456.98 725.08,459.80 725.21,461.36 727.91,464.19 728.23,465.69 727.61,465.92 729.24,466.34 729.72,467.20 734.74,470.26 739.13,471.50 740.07,471.35 743.84,472.21 746.20,471.99 749.32,473.10 751.92,473.27 755.74,472.36 756.90,471.30 755.49,470.12 755.24,468.35 754.69,468.37 755.56,467.60 755.92,467.96 756.29,467.61 756.30,468.40 757.34,468.31 756.67,468.70 757.57,468.23 758.31,468.52 758.29,468.87 759.05,468.92 758.81,469.50 759.62,469.56 761.62,471.25 763.88,472.16 765.08,473.57 763.28,474.57 765.16,476.48 768.63,478.38 768.64,478.79 771.65,479.35 772.01,478.89 771.46,477.84 772.92,477.65 774.09,478.20 774.79,479.50 772.99,480.01 778.22,483.28 779.95,486.26 781.44,486.91 783.37,489.00 784.70,489.43 789.47,489.64 792.39,490.93 792.84,491.57 795.08,492.26 797.85,491.85 808.11,493.57 810.55,494.70 811.52,494.69 812.45,495.45 817.03,496.29 818.06,496.90 820.20,496.87 823.22,498.19 828.32,503.91 829.63,504.59 831.26,504.58 834.65,505.92 837.23,506.28 838.96,507.97 839.71,510.62 842.42,510.94 842.33,511.37 843.39,511.68 847.47,515.73 857.28,521.08 859.58,523.81 861.00,524.36 864.42,526.99 868.79,531.69 876.63,537.23 878.43,539.68 884.06,542.11 885.65,545.38 886.76,546.34 893.11,548.93 896.84,551.09 899.75,556.66 901.52,557.79 904.54,558.77 910.37,559.33 915.89,561.79 921.52,563.47 923.02,566.94 923.71,571.94 927.95,574.87 929.73,573.47 931.72,573.08 936.75,575.37 940.24,575.29 944.23,578.65 948.50,577.97 951.77,578.97 955.93,578.87 963.10,579.64 964.49,580.41 970.38,586.04 971.03,586.06 972.16,585.08 975.42,585.12 977.88,588.12 979.76,595.42 982.68,598.58 984.67,598.94 986.65,598.18 988.34,598.36 992.25,599.27 993.87,600.13 999.21,600.99 1001.09,602.45 1001.25,601.95 1001.28,602.39 1002.09,602.34 1002.76,602.93 1004.60,605.84 1007.30,612.45 1010.20,625.91 1010.54,625.27 1010.39,626.07 1012.58,627.14 1014.95,632.15 1016.01,635.97 1015.27,637.92 1015.82,638.37 1019.34,639.17 1022.43,640.75 1024.59,640.16 1024.79,639.84 1023.82,639.67 1023.68,639.20 1025.96,637.95 1028.30,638.87 1030.84,638.07 1032.10,639.69 1033.20,638.83 1035.00,639.38 1037.34,638.39 1037.64,639.17 1038.92,638.82 1041.11,639.79 1041.59,640.53 1042.36,639.84 1044.39,639.91 1045.77,640.67 1047.37,640.51 1048.32,641.58 1051.20,641.27 1052.51,641.93 1053.59,643.42 1058.10,645.07 1059.53,645.19 1060.66,643.80 1063.52,644.32 1063.19,643.02 1064.00,642.68 1063.31,643.08 1063.74,644.32 1062.34,644.47 1060.70,643.94 1060.14,645.17 1058.73,645.42 1053.65,643.76 1052.53,642.09 1051.51,641.67 1047.88,641.78 1047.25,640.69 1045.80,640.87 1044.48,640.09 1042.72,640.08 1041.57,640.71 1038.96,639.07 1037.56,639.35 1037.15,638.52 1035.00,639.74 1033.19,639.02 1032.08,639.96 1030.45,638.25 1028.84,639.19 1025.45,638.35 1024.03,639.49 1025.28,639.55 1025.16,640.37 1022.38,641.13 1019.12,639.18 1016.77,639.09 1015.98,640.22 1016.96,641.70 1016.33,642.30 1019.92,646.15 1020.67,645.75 1019.49,642.88 1023.62,643.12 1024.47,643.96 1023.75,644.12 1023.37,645.28 1020.71,645.86 1022.38,646.61 1021.93,647.88 1021.38,647.58 1021.84,648.34 1020.69,645.93 1020.69,646.54 1020.14,646.42 1023.40,651.04 1023.77,650.46 1025.17,661.77 1024.73,665.17 1020.63,672.96 1017.63,676.02 1016.26,676.26 1015.59,675.57 1012.24,678.22 1011.00,679.94 1010.54,683.18 1007.85,687.39 1004.60,688.84 1000.42,693.82 999.70,694.29 995.81,694.81 993.47,696.11 990.57,696.90 988.31,698.88 984.77,700.58 982.78,701.00 981.13,702.62 975.56,705.77 967.85,708.09 964.08,707.68 959.14,709.11 956.72,710.85 953.66,714.10 951.66,714.82 951.09,714.57 945.71,716.80 943.77,716.95 941.81,718.16 940.28,718.15 939.33,717.48 940.08,717.39 938.63,717.26 933.71,718.30 930.84,718.32 922.06,724.18 917.49,725.81 915.40,725.93 911.34,725.63 907.35,722.78 905.46,722.93 904.42,722.41 900.35,723.10 895.31,722.90 893.45,721.03 890.06,719.87 887.74,720.01 887.26,719.46 886.02,719.22 882.30,720.38 881.06,720.25 880.06,719.52 875.64,718.29 870.25,713.83 865.69,712.78 862.35,714.64 856.57,716.67 854.39,716.84 852.57,716.27 851.21,715.00 848.34,714.68 845.22,716.57 841.18,717.49 837.91,717.84 837.11,717.45 833.51,717.50 832.88,717.09 828.67,719.26 825.60,719.73 824.93,719.27 818.06,723.37 815.34,723.47 813.23,721.77 811.94,721.83 809.75,723.59 805.55,725.66 802.23,725.89 801.46,725.54 798.80,726.02 796.86,725.76 796.09,725.16 793.84,726.18 791.56,725.45 788.75,723.74 782.50,724.17 782.01,723.92 782.38,723.81 779.87,723.16 778.49,723.22 769.76,721.35 765.31,721.06 765.33,721.52 764.96,720.97 761.85,721.02 760.68,719.03 756.82,718.32 755.10,716.47 754.32,715.27 755.32,712.16 754.32,712.37 752.94,711.94 749.77,712.33 748.28,710.79 746.33,712.16 743.82,715.29 743.33,716.72 742.24,717.50 738.46,718.62 736.44,718.12 735.23,717.35 734.56,715.83 730.65,714.65 728.95,713.05 722.01,711.67 721.52,711.15 721.92,710.19 711.25,709.93 705.54,708.18 704.28,707.37 703.81,706.61 704.36,706.60 703.30,705.58 703.79,705.62 703.86,703.12 702.63,701.28 693.70,697.26 689.08,696.17 681.79,695.42 679.24,694.26 679.00,695.37 678.57,694.11 676.46,695.23 676.08,695.76 676.48,696.10 672.86,700.59 670.51,701.92 666.18,703.41 661.53,703.11 660.56,702.70 659.96,701.79 660.33,701.60 658.18,700.96 658.04,700.03 657.93,700.66 657.34,700.19 657.62,698.92 658.54,699.06 650.94,696.20 650.13,694.82 643.36,688.75 642.52,686.00 643.39,682.35 642.31,677.81 638.29,673.57 631.38,670.34 618.89,674.79 609.76,676.98 605.21,677.38 598.67,676.27 594.92,673.83 585.68,671.67 584.68,670.90 584.83,670.16 581.00,668.18 579.99,666.45 580.91,665.77 578.70,664.65 577.55,663.20 575.97,662.32 575.40,660.60 574.17,659.76 573.00,657.75 573.37,654.73 575.12,651.53 576.82,650.81 580.71,651.59 581.15,651.10 579.70,649.59 578.43,649.64 575.54,650.81 571.69,650.47 569.90,649.61 569.66,648.85 570.38,648.39 569.75,648.38 569.94,647.87 568.04,646.16 563.17,645.80 563.44,647.41 560.69,650.75 558.36,652.56 553.51,655.41 548.21,656.20 537.08,656.04 533.64,655.23 532.42,654.01 531.46,654.71 528.64,654.70 525.87,655.67 523.22,656.10 522.22,655.71 521.68,656.20 519.48,656.41 511.17,655.17 510.79,654.71 505.74,653.84 500.80,653.61 492.69,654.32 484.52,654.24 483.67,653.66 481.86,653.96 473.67,653.43 462.45,651.61 459.97,651.87 458.10,651.29 454.58,651.06 449.51,653.12 446.08,653.79 443.81,654.67 443.12,655.43 433.55,657.35 432.82,658.15 430.47,658.71 430.14,659.16 430.70,659.17 429.79,659.79 423.09,661.39 422.31,661.96 416.56,661.95 415.88,662.66 412.52,662.69 411.91,663.37 410.35,663.45 409.85,663.89 403.32,664.11 402.81,665.20 397.80,665.86 396.87,667.22 395.43,667.76 394.72,667.59 393.16,668.48 392.15,670.03 390.52,669.85 390.58,669.34 389.93,669.08 390.05,669.47 388.75,669.71 388.64,670.40 387.14,670.49 387.06,671.17 384.63,670.99 383.23,671.38 379.75,673.50 380.11,673.83 379.26,673.69 379.60,674.57 379.17,675.06 375.81,676.72 376.22,677.30 373.69,679.22 367.60,680.72 368.27,681.48 367.45,680.87 366.05,681.19 363.63,683.10 359.31,684.06 357.72,684.84 356.95,684.61 357.28,684.83 353.51,686.22 352.39,687.37 349.63,688.58 349.13,689.03 349.56,689.30 347.47,689.28 346.90,690.36 342.55,692.39 339.76,693.11 338.38,694.16 332.45,695.38 329.45,696.41 327.95,697.86 325.91,697.87 324.83,698.75 323.50,698.68 322.92,700.16 324.88,701.37 324.66,702.23 323.67,701.69 324.10,705.64 318.44,711.30 313.28,713.05 304.53,713.77 301.21,714.73 297.29,715.11 290.59,715.14 279.96,714.20 272.95,711.32 259.71,709.57 252.76,707.56 251.21,706.46 250.37,706.72 247.68,706.13 247.27,705.64 245.77,707.44 244.00,707.43 244.59,707.99 243.76,708.10 244.13,709.10 241.81,709.12 241.72,710.17 240.96,709.66 240.93,710.06 239.20,710.72 236.78,710.34 235.68,710.94 235.55,710.54 231.99,711.00 230.73,710.56 230.19,711.03 229.95,710.65 227.57,710.93 226.52,710.51 222.79,710.32 220.44,710.61 219.47,710.32 218.68,710.73 213.21,709.19 210.72,709.56 208.50,708.94 206.81,709.09 202.43,707.71 201.81,707.95 202.34,707.91 201.90,708.42 201.02,708.55 195.43,707.58 187.58,705.49 185.29,705.77 181.06,705.05 178.67,704.49 178.57,704.13 177.58,704.64 175.75,704.43 175.55,705.14 172.58,704.87 172.17,705.32 166.99,703.44 166.48,702.84 166.12,703.28 163.77,702.62 163.47,703.39 161.39,703.47 156.07,701.66 154.18,701.72 152.70,701.24 152.66,700.82 150.35,700.66 148.49,699.40 146.66,699.61 146.55,698.88 143.40,697.84 142.79,698.12 140.31,697.11 139.88,696.50 139.15,696.84 136.28,696.36 131.68,694.11 112.05,686.51 109.26,684.62 108.45,684.62 108.60,684.23 106.16,682.47 105.97,681.39 103.81,680.89 103.34,679.65 100.17,677.36 99.53,675.70 100.77,674.84 100.34,674.07 97.98,672.48 96.42,670.61 96.44,669.12 93.37,666.18 92.20,663.63 92.18,661.52 91.67,661.53 94.57,659.55 96.44,660.50 97.52,660.28 96.61,658.25 97.01,656.10 96.55,654.96 95.43,654.13 96.07,653.56 95.91,652.80 94.26,650.89 94.69,650.57 93.94,649.58 92.63,648.79 93.08,648.14 91.65,647.99 90.01,645.37 88.55,645.53 87.78,644.94 87.82,643.96 86.62,642.76 85.24,642.33 85.13,641.53 84.69,641.85 84.34,641.21 83.66,641.19 84.14,640.68 82.57,639.68 82.91,639.25 81.43,638.98 81.44,638.41 80.43,637.78 79.59,637.89 78.51,636.96 79.05,636.33 76.70,635.40 76.99,634.54 77.80,634.47 77.02,633.95 76.88,633.09 78.30,632.48 78.04,632.12 79.76,631.66 78.30,630.78 78.92,630.51 79.04,629.68 77.26,629.86 76.87,630.45 76.02,630.26 74.13,627.86 74.03,627.32 74.96,626.79 73.93,626.50 73.75,625.74 74.02,625.35 74.98,625.39 75.33,624.70 73.71,624.77 73.23,623.56 72.56,623.62 72.74,624.03 71.61,624.76 70.62,624.63 69.55,623.73 69.59,623.36 70.38,623.30 69.76,622.75 70.07,621.94 68.92,622.05 68.58,621.35 68.25,622.28 67.57,622.40 65.65,621.09 64.86,621.79 65.27,622.29 64.10,622.29 62.48,621.51 61.73,622.91 60.56,623.46 58.43,621.19 57.61,622.26 56.01,621.24 56.88,619.37 57.16,619.92 57.39,619.43 57.94,619.76 58.42,619.44 58.69,619.83 59.11,616.80 61.27,614.75 62.43,614.64 63.77,615.21 65.53,614.25 66.58,614.73 67.62,614.24 68.92,614.58 69.30,615.19 70.04,614.91 68.78,612.94 69.12,609.85 69.85,609.20 71.79,609.47 72.79,608.35 74.03,608.75 74.53,608.03 76.12,607.84 74.99,607.76 74.13,607.02 74.31,605.53 75.14,604.55 86.90,605.05 86.09,601.57 86.93,600.24 85.65,595.67 86.28,594.70 87.08,594.66 86.60,590.46 87.31,589.58 85.88,584.37 86.05,582.39 87.76,580.60 90.02,573.27 87.94,573.07 85.03,571.54 81.05,572.56 73.68,571.59 71.81,572.22 71.38,571.93 71.04,572.38 71.24,571.97 70.45,572.40 69.82,571.96 72.64,571.42 76.36,571.52 77.73,571.96 78.80,571.31 79.20,571.60 79.68,571.01 79.96,571.39 82.26,571.68 84.02,570.63 85.34,570.64 86.66,571.66 87.60,571.95 88.13,571.61 88.34,572.00 88.45,571.19 89.72,570.59 91.89,570.02 93.44,570.26 94.69,569.50 94.90,568.43 95.54,568.15 99.59,559.65 103.90,557.47 107.04,557.94 114.52,556.57 117.72,556.88 121.74,558.64 124.24,559.16 125.14,560.50 125.47,559.04 127.32,557.02 128.60,556.73 130.77,555.05 133.24,551.67 134.78,548.32 132.26,544.90 132.79,541.73 131.75,539.03 131.84,537.79 132.70,537.19 132.84,531.49 133.79,530.81 132.85,531.25 132.12,530.64 130.94,530.81 130.56,530.24 130.10,530.63 129.31,530.28 130.22,530.50 130.51,530.01 131.00,530.61 131.24,530.32 132.83,530.70 133.37,530.15 133.60,528.14 134.85,527.26 135.12,524.13 136.68,522.39 136.51,520.85 138.80,518.11 136.82,512.04 137.18,511.54 140.22,511.31 140.68,510.25 140.16,511.20 138.89,511.11 139.40,510.35 139.17,510.74 138.80,510.25 138.75,510.74 138.53,509.86 137.91,510.45 137.75,509.85 137.53,510.87 135.77,510.40 137.23,510.23 137.41,509.65 136.84,509.30 137.76,508.56 137.66,509.69 138.02,508.44 138.49,509.56 137.96,509.71 139.44,509.99 138.21,508.41 138.60,507.65 137.50,507.90 138.75,507.05 137.14,507.17 137.89,506.85 137.13,506.70 137.88,506.63 137.69,505.77 141.48,509.92 138.19,506.24 138.62,505.67 138.00,504.88 138.15,503.68 137.25,502.61 137.63,502.34 136.92,502.48 136.38,502.01 135.62,499.70 135.63,498.10 136.78,495.34 140.29,495.32 136.11,495.23 137.08,495.15 137.32,494.72 137.73,495.07 139.08,494.77 138.38,494.63 138.70,493.83 139.36,493.97 139.33,494.58 139.93,494.11 140.60,495.50 140.33,493.72 140.68,493.92 141.58,491.89 150.90,483.45 158.63,473.36 162.74,469.51 167.64,466.23 171.80,464.71 178.17,463.31 198.77,461.47 199.93,460.75 200.91,460.94 201.99,460.42 202.97,457.93 200.08,456.56 197.19,453.94 193.93,452.33 191.89,452.60 192.63,451.88 192.11,451.60 190.19,451.55 187.53,453.37 185.99,452.86 187.02,451.79 187.03,450.63 185.09,452.52 184.77,450.72 183.58,451.54 182.37,451.65 182.52,450.63 180.50,449.25 181.70,448.30 180.07,448.34 179.47,447.94 180.06,447.05 177.62,447.13 173.68,446.36 176.10,444.81 175.74,443.94 173.82,442.55 170.31,442.45 170.01,443.32 171.95,443.23 172.20,443.61 171.90,444.19 169.90,444.83 164.78,441.74 160.79,441.03 158.33,439.89 155.18,439.28 153.97,437.24 151.95,436.15 149.70,436.06 147.45,437.37 146.81,436.64 147.02,435.50 144.41,435.00 143.58,434.27 141.41,434.66 136.59,433.36 131.43,432.93 127.12,431.23 124.12,430.31 123.55,430.52 118.71,428.85 116.22,427.63 113.91,424.00 112.57,422.92 112.83,420.81 112.26,419.66 108.01,417.90 112.65,419.30 113.47,422.94 117.53,427.85 126.48,430.48 132.20,432.72 137.28,432.96 142.15,434.35 147.20,433.13 146.71,432.13 144.94,431.73 144.29,430.32 144.99,429.83 147.41,429.53 148.00,428.53 146.27,427.62 147.64,426.72 149.18,426.83 150.95,428.07 153.04,428.23 155.17,429.85 157.44,430.51 158.10,429.70 157.66,428.33 160.18,425.50 163.96,425.03 166.57,423.44 168.28,423.29 169.57,423.69 172.77,422.76 176.85,419.42 180.77,420.67 183.28,419.18 186.22,419.93 193.59,418.78 195.61,418.94 197.76,420.09 198.96,422.12 202.24,423.10 205.60,420.41 209.82,419.33 210.08,417.75 209.13,417.99 209.17,418.63 207.74,418.02 207.31,418.91 206.71,418.28 207.00,417.81 205.83,417.38 205.22,417.88 205.87,418.36 205.18,419.09 204.02,418.36 203.85,417.51 202.88,417.81 202.07,417.04 202.42,416.69 202.93,417.48 202.74,416.83 203.56,416.75 203.43,415.49 205.02,413.85 208.00,411.36 212.59,408.59 211.60,409.04 211.35,408.26 211.94,408.20 211.13,408.07 211.01,407.55 213.29,408.05 213.87,406.80 214.49,406.80 214.88,406.19 214.30,405.68 217.63,406.01 213.32,408.30 219.04,405.41 237.87,394.29 221.70,403.59 220.28,403.95 217.61,403.13 216.96,403.50 214.59,399.96 215.29,400.25 217.30,398.97 217.28,398.41 217.65,398.92 220.80,398.71 220.92,396.35 221.62,396.59 222.59,398.87 224.51,399.72 223.11,397.12 223.85,392.92 224.11,392.69 224.39,396.35 225.96,397.50 227.10,394.40 227.05,391.70 226.19,390.44 227.59,388.45 228.85,389.35 229.10,392.13 231.09,393.12 233.08,395.63 233.88,394.07 234.17,394.65 235.04,394.31 235.55,392.87 235.07,391.75 236.73,390.19 236.29,389.13 236.64,387.80 237.17,387.81 238.25,390.73 238.43,394.05 243.66,391.23 249.13,386.57 250.70,384.88 249.41,385.99 248.46,383.93 249.03,383.96 251.43,381.85 253.64,381.28 254.82,380.29 253.82,378.42 255.22,379.52 256.76,378.39 256.38,380.00 250.71,384.85 260.84,376.95 258.95,377.53 258.07,376.87 256.36,373.80 254.43,372.40 254.13,369.75 254.60,369.61 252.84,368.30 251.46,368.56 249.76,368.24 249.57,367.59 248.37,367.03 244.30,366.26 238.76,362.94 235.70,359.61 235.99,358.50 238.39,356.17 241.96,355.08 244.66,355.54 245.28,356.28 244.07,357.97 245.71,358.50 247.03,361.45 247.86,361.85 249.58,359.89 249.92,358.35 249.26,356.78 249.99,356.29 250.71,356.85 251.22,359.07 250.77,361.32 251.23,361.99 253.18,363.36 256.66,363.91 258.41,365.74 256.99,368.03 257.34,368.73 258.90,370.24 263.32,372.46 262.83,374.46 260.98,375.88 260.87,376.77 263.52,373.55 266.69,371.22 274.81,360.77 273.37,360.34 272.81,359.06 271.79,359.37 271.26,358.98 271.82,359.20 272.23,358.79 272.08,356.03 272.41,358.36 274.66,360.31 277.08,357.81 279.73,356.66 281.09,351.89 280.25,348.79 279.97,349.21 279.35,348.97 279.56,348.61 279.00,348.76 278.23,347.87 279.02,345.75 281.65,344.40 283.55,344.29 285.02,344.86 289.56,343.31 297.21,341.66 297.36,339.56 296.42,337.51 297.60,337.77 298.29,340.60 297.73,341.47 308.19,339.54 312.71,340.77 315.73,340.59 320.00,341.43 320.45,340.36 321.39,339.89 324.19,340.15 324.94,339.29 324.48,339.17 324.73,338.13 327.63,337.09 328.46,335.46 329.29,335.29 329.47,332.70 328.42,332.34 328.05,331.56 325.72,330.81 325.30,327.80 325.84,328.18 326.33,330.99 327.82,330.80 329.54,331.32 330.61,332.82 331.86,331.48 331.09,329.70 331.98,330.29 332.45,329.25 336.62,327.67 336.22,325.42 337.09,326.76 336.93,327.87 334.45,329.64 333.03,330.07 333.63,331.54 332.15,333.24 332.43,334.50 330.28,335.26 330.89,335.94 330.45,337.15 326.76,339.51 325.21,339.68 329.97,339.76 333.65,341.41 336.46,338.69 339.59,338.05 343.48,338.67 345.87,339.57 348.70,339.79 350.30,340.76 356.52,338.83 357.59,337.62 357.31,336.22 357.97,333.73 358.94,332.66 357.66,332.58 356.40,331.51 355.47,330.14 355.55,328.49 358.17,325.14 360.19,324.48 361.98,323.20 363.82,320.65 363.64,319.79 363.08,318.99 361.54,319.59 359.03,319.37 357.51,318.24 358.40,316.87 360.95,315.18 361.12,314.15 356.77,315.17 355.57,314.96 354.36,314.00 353.58,312.34 354.23,309.97 355.93,310.17 356.91,309.01 356.67,307.96 357.17,307.94 355.58,307.04 352.73,306.41 352.20,305.06 353.55,303.49 352.23,301.89 346.95,299.87 346.57,297.80 347.47,296.34 349.01,295.39 348.08,294.51 346.83,294.66 345.61,293.39 346.88,294.58 348.08,294.43 349.10,295.23 347.37,296.65 346.75,297.87 347.17,299.87 352.21,301.58 353.85,303.16 353.11,301.62 354.48,303.55 353.40,305.49 353.73,306.34 354.97,306.85 356.98,306.89 358.12,308.04 357.86,309.50 355.82,310.74 354.40,312.48 354.73,312.32 355.68,313.86 356.14,313.63 356.65,314.33 360.68,312.74 362.28,312.93 363.15,313.58 363.57,315.81 362.66,315.28 361.43,315.83 359.68,317.43 359.92,318.38 359.95,318.51"/>
    <polyline fill="none" stroke="#1f6f8b" stroke-width="2.10" stroke-opacity="0.38" stroke-linejoin="round" stroke-linecap="round" points="359.96,318.51 361.39,318.91 363.60,318.17 363.31,317.97 364.66,317.98 365.80,319.83 364.83,321.52 364.93,322.87 362.96,323.86 362.60,324.27 363.10,324.46 362.29,325.10 360.75,325.25 360.75,327.50 358.81,328.69 359.78,329.38 359.03,330.04 360.26,329.62 359.63,331.46 360.75,331.82 362.51,333.99 362.02,335.99 362.68,337.36 365.87,339.74 367.61,340.42 370.07,340.28 371.37,340.80 373.58,344.32 376.36,343.11 378.22,342.99 380.97,341.95 383.88,343.09 384.97,344.59 390.20,344.97 391.81,344.21 394.03,344.06 395.68,343.42 396.24,341.86 396.47,342.69 395.94,343.34 398.36,341.79 400.83,341.68 399.43,341.08 399.72,340.54 400.65,340.41 400.93,340.79 401.64,340.13 402.18,340.41 402.56,340.11 402.23,340.47 402.88,341.03 402.20,340.78 401.49,341.19 401.06,340.81 401.08,341.66 403.89,341.15 403.84,340.64 404.31,340.93 409.24,337.41 413.05,336.33 417.74,336.25 426.16,332.36 430.00,331.74 434.10,331.69 441.22,328.82 450.70,328.92 452.42,329.63 455.40,328.97 456.87,329.53 455.45,330.56 451.13,331.36 440.98,329.17 434.67,331.99 426.34,332.73 419.50,336.21 415.37,337.06 411.13,337.30 409.03,337.98 406.33,339.80 405.10,340.85 405.59,341.13 404.75,341.16 400.45,345.61 398.44,345.54 395.17,347.87 391.25,347.96 386.67,349.17 383.42,348.92 385.87,349.70 385.22,350.25 385.86,350.39 388.77,349.10 391.53,348.49 392.92,348.73 391.50,350.04 388.83,350.68 384.77,350.47 380.20,349.47 377.41,349.52 375.13,348.90 377.09,349.05 374.22,347.53 373.77,347.65 374.56,348.02 374.53,348.68 371.37,348.12 365.58,349.14 365.40,348.45 365.19,348.99 363.41,348.84 358.38,347.65 357.74,347.44 357.56,346.75 358.08,346.56 356.37,346.10 357.18,346.98 355.55,347.24 350.70,346.33 347.49,345.02 341.41,345.68 335.67,345.69 332.75,344.60 331.06,342.96 333.22,345.29 339.58,348.99 344.15,352.70 343.53,352.14 344.45,352.40 343.38,351.90 343.77,350.35 344.71,349.56 346.97,348.96 356.35,350.76 360.92,352.30 359.22,351.53 361.56,351.91 360.08,351.39 360.92,351.48 362.20,352.07 360.84,352.01 361.97,352.26 364.18,351.30 365.87,351.99 366.64,353.85 368.09,355.12 367.68,356.09 366.41,356.45 365.68,356.07 364.53,357.69 361.35,358.77 357.18,359.45 356.61,359.42 358.89,359.20 353.10,359.34 349.47,360.17 349.23,360.84 348.00,361.15 347.64,362.00 348.18,361.74 348.88,362.15 349.46,363.36 349.14,364.07 350.11,363.39 349.92,363.00 350.40,363.51 351.30,363.24 351.57,364.04 352.59,363.01 353.01,363.25 352.50,363.51 353.43,363.40 353.73,363.84 355.07,363.36 355.50,364.09 357.02,362.29 356.54,361.77 356.30,362.31 355.88,362.18 355.76,360.87 357.00,360.64 356.98,361.67 360.02,362.02 359.35,361.99 360.39,362.34 360.65,363.32 361.29,363.52 360.68,363.36 360.87,363.72 361.22,364.02 361.77,363.74 361.29,364.02 362.09,364.59 363.65,364.73 364.18,364.11 363.95,364.85 364.80,365.08 365.59,365.20 365.17,364.80 365.69,364.58 366.05,365.28 367.19,364.58 368.76,365.60 368.58,365.17 369.22,365.16 370.16,366.95 370.91,366.93 370.73,367.24 371.87,367.92 372.86,368.04 372.74,367.70 373.19,368.32 375.19,368.34 377.55,370.24 377.11,369.67 377.87,369.74 377.89,369.29 378.80,369.12 380.27,369.63 380.82,370.62 380.26,370.75 380.08,370.22 379.66,370.59 380.19,371.86 379.39,373.00 367.52,370.49 391.71,375.88 400.81,377.57 401.01,376.47 404.85,375.32 407.73,374.80 409.69,375.26 413.68,374.70 416.10,373.72 420.08,374.51 423.22,374.02 425.60,374.92 433.53,374.48 433.96,374.30 432.84,374.22 432.67,373.76 433.67,372.65 433.17,371.69 434.42,371.39 436.28,371.59 437.32,372.85 440.84,373.55 444.17,371.43 444.95,370.22 444.35,368.82 445.19,369.28 446.85,367.40 445.56,370.22 447.08,371.57 445.82,372.27 445.05,374.16 445.40,374.73 445.99,374.81 445.78,373.43 446.60,373.00 448.54,372.60 450.86,372.97 452.33,373.70 452.82,374.60 452.12,375.74 450.64,375.44 450.90,376.77 453.00,376.82 452.50,376.65 452.83,374.96 454.06,374.24 454.98,375.44 456.84,375.95 456.47,376.93 460.14,379.90 460.86,379.91 460.23,379.63 460.48,379.21 463.00,378.58 465.58,380.06 466.66,379.87 464.92,378.40 465.29,376.88 466.54,376.44 470.00,376.89 466.60,375.33 466.18,373.79 466.95,374.15 468.18,373.90 468.60,372.76 469.99,372.63 470.80,371.32 471.82,371.35 472.92,372.26 475.11,376.69 473.90,377.26 473.25,378.36 474.45,384.33 473.47,385.63 474.78,385.88 474.88,385.41 476.19,385.01 478.37,384.94 481.69,385.22 482.57,385.51 483.01,386.42 482.32,386.89 480.71,386.96 478.80,388.25 478.32,387.92 477.74,388.17 477.87,392.54 476.17,390.66 474.97,390.51 473.16,389.40 470.91,390.94 470.06,390.84 468.42,393.11 467.75,392.39 465.71,392.79 465.11,391.80 464.27,391.91 460.10,393.42 460.07,394.02 459.79,393.66 459.53,394.03 459.76,394.72 459.37,394.05 455.99,396.35 449.58,398.54 446.32,398.61 444.19,397.60 442.98,396.38 442.24,399.52 441.15,400.89 436.32,401.94 428.71,404.82 424.57,406.95 419.81,409.69 419.57,410.12 420.87,410.17 421.28,410.76 420.04,412.07 420.26,412.49 419.49,411.80 418.53,412.14 418.47,412.51 419.20,412.42 419.32,413.14 415.85,413.84 418.36,412.22 417.39,411.59 412.22,413.83 412.10,414.76 410.81,415.12 411.33,414.71 410.84,414.22 403.63,417.09 400.50,418.87 396.48,422.79 396.53,423.25 398.38,423.70 398.98,424.61 397.53,426.23 408.23,428.28 413.41,425.53 416.83,424.75 425.23,425.13 428.51,426.27 430.50,427.50 430.66,427.17 426.63,425.34 429.59,425.80 430.67,425.22 430.96,426.11 432.21,425.42 432.46,424.74 434.78,424.53 434.87,423.78 436.10,423.33 438.26,423.51 438.13,423.15 440.51,422.11 440.96,421.36 441.74,421.46 442.35,420.20 443.80,419.95 444.43,419.27 445.56,419.64 443.88,420.73 443.08,420.29 441.78,422.07 439.56,423.04 440.59,423.35 439.30,423.33 438.44,424.59 437.44,424.31 437.23,424.59 437.06,424.12 435.98,424.47 434.81,425.90 436.34,425.94 436.44,426.28 435.76,426.73 435.55,426.29 435.03,426.67 433.61,426.54 434.27,427.44 433.51,427.45 433.18,428.77 430.88,427.64 436.34,431.07 439.28,433.91 441.10,434.78 441.88,435.93 444.20,437.11 446.95,437.70 449.08,439.55 450.73,439.56 452.34,437.81 455.48,437.76 457.64,436.27 459.64,436.53 461.66,437.45 465.46,439.85 469.63,443.84 472.30,449.07 472.58,450.86 472.10,451.33 473.12,455.06 472.76,458.28 471.77,460.05 470.38,460.58 469.11,460.37 468.86,460.79 468.91,462.36 467.74,463.72 468.73,467.95 468.56,471.86 467.91,473.65 466.60,474.15 466.13,474.96 469.72,474.97 471.69,475.77 467.72,475.51 467.42,476.60 467.29,475.42 466.83,475.71 466.00,475.23 465.39,475.96 463.73,475.82 463.59,476.54 463.32,475.87 462.22,476.03 461.97,476.95 461.39,476.28 460.19,477.07 461.19,478.53 459.78,477.48 459.50,479.07 459.32,478.18 458.83,478.68 458.89,477.25 457.27,477.79 459.77,480.09 463.25,481.89 464.60,483.58 465.44,483.17 469.26,484.26 471.95,483.68 473.32,484.23 474.67,485.29 475.61,488.42 477.22,488.96 479.54,488.75 481.59,491.06 484.27,491.10 489.87,489.72 497.31,490.76 500.42,489.67 501.57,489.79 503.77,488.65 507.88,488.24 510.73,483.75 516.29,482.96 518.14,480.64 519.99,479.85 522.76,480.17 522.93,477.83 524.36,477.19 524.70,475.84 527.49,471.65 530.47,469.03 535.39,467.25 536.70,466.32 538.93,465.85 540.17,464.96 550.76,461.98 556.40,462.09 558.20,461.63 560.82,462.07 561.38,461.11 564.77,460.37 566.16,461.11 566.97,460.73 569.03,461.11 570.35,462.19 570.02,463.06 572.47,463.68 575.74,461.57 576.12,459.11 577.76,456.62 579.61,455.78 581.78,455.63 583.25,455.03 584.01,453.75 583.62,452.69 584.23,452.12 585.54,451.70 586.76,452.22 588.73,451.67 590.65,452.04 590.78,452.54 592.95,453.20 593.29,452.66 591.93,452.58 590.83,451.28 590.99,450.59 591.56,449.99 595.70,448.73 592.95,447.51 593.65,445.44 597.21,442.88 603.17,441.04 608.48,441.02 616.10,443.32 621.64,446.64 621.79,448.13 623.17,448.70 622.97,449.33 623.66,449.67 628.59,448.23 631.43,448.74 633.50,447.87 634.70,446.73 636.55,446.21 640.44,446.36 649.76,447.70 651.58,446.19 655.31,445.62 659.77,445.61 664.55,443.69 665.20,442.76 677.31,440.07 682.89,441.46 684.23,442.20 689.76,441.61 695.46,442.50 711.86,447.33 719.81,451.23 723.59,454.92 723.60,456.16 722.16,456.98 725.08,459.80 725.20,461.35 727.91,464.19 728.23,465.69 727.61,465.93 729.24,466.35 729.73,467.21 734.74,470.26 739.13,471.49 740.06,471.34 743.85,472.21 746.20,471.98 749.34,473.10 751.93,473.27 755.74,472.36 756.89,471.31 755.50,470.13 755.25,468.34 754.70,468.37 755.55,467.60 755.91,467.97 756.27,467.61 756.30,468.40 757.33,468.32 756.67,468.70 757.58,468.23 758.31,468.50 758.29,468.86 759.04,468.91 758.81,469.50 763.89,472.16 765.08,473.57 763.29,474.57 765.16,476.49 768.64,478.38 768.65,478.78 771.65,479.35 772.01,478.89 771.47,477.82 772.91,477.65 774.08,478.21 774.80,479.51 772.99,480.01 778.21,483.29 779.96,486.26 781.45,486.92 783.36,489.00 784.69,489.43 789.50,489.64 792.40,490.93 792.84,491.58 795.07,492.26 797.84,491.85 808.11,493.58 810.56,494.71 811.52,494.70 812.46,495.44 817.03,496.28 818.06,496.89 820.20,496.87 823.21,498.20 828.34,503.91 829.63,504.60 831.27,504.57 834.66,505.92 837.23,506.27 838.97,507.97 839.71,510.62 842.42,510.94 842.34,511.38 843.40,511.67 847.45,515.75 857.27,521.08 859.57,523.80 861.01,524.35 864.41,526.98 868.78,531.69 876.62,537.23 878.43,539.68 884.05,542.11 885.65,545.38 886.75,546.33 893.10,548.94 896.84,551.09 899.77,556.66 901.51,557.79 904.53,558.78 910.36,559.34 915.89,561.79 921.53,563.48 923.01,566.95 923.71,571.93 927.95,574.87 929.73,573.47 931.73,573.08 936.74,575.38 940.24,575.28 944.23,578.65 948.49,577.96 951.77,578.97 955.93,578.87 963.10,579.64 967.20,582.79 970.38,586.05 971.03,586.06 972.15,585.08 975.44,585.11 977.87,588.12 979.77,595.43 982.67,598.58 984.67,598.94 986.66,598.17 988.34,598.36 992.26,599.27 993.88,600.12 999.22,600.99 1001.08,602.46 1001.24,601.96 1001.27,602.39 1002.10,602.34 1002.75,602.92 1004.60,605.84 1007.30,612.44 1010.20,625.91 1010.54,625.26 1010.39,626.07 1012.57,627.14 1014.97,632.14 1016.01,635.96 1015.28,637.92 1015.82,638.36 1019.36,639.18 1022.44,640.75 1024.59,640.17 1024.80,639.84 1023.82,639.67 1023.69,639.20 1025.96,637.96 1028.29,638.86 1030.83,638.06 1032.10,639.70 1033.20,638.82 1035.01,639.38 1037.35,638.39 1037.65,639.15 1038.92,638.81 1041.11,639.80 1041.58,640.54 1042.36,639.84 1044.37,639.93 1045.77,640.67 1047.38,640.51 1048.31,641.59 1051.22,641.27 1052.51,641.94 1053.60,643.43 1058.09,645.07 1059.53,645.18 1060.68,643.80 1063.53,644.32 1063.20,643.03 1064.00,642.68 1063.31,643.07 1063.75,644.32 1062.34,644.47 1060.70,643.94 1060.14,645.17 1058.74,645.41 1053.64,643.75 1052.53,642.08 1051.51,641.68 1047.88,641.79 1047.25,640.69 1045.79,640.86 1044.49,640.09 1042.72,640.09 1041.57,640.70 1038.95,639.07 1037.56,639.34 1037.15,638.51 1035.01,639.74 1033.18,639.03 1032.09,639.97 1030.45,638.25 1028.85,639.19 1025.46,638.35 1024.04,639.50 1025.28,639.55 1025.16,640.38 1022.39,641.13 1019.13,639.18 1016.78,639.09 1015.98,640.22 1016.96,641.69 1016.33,642.31 1019.90,646.15 1020.65,645.76 1019.48,642.89 1023.62,643.11 1024.48,643.97 1023.74,644.12 1023.37,645.28 1020.96,645.51 1020.72,645.86 1022.38,646.60 1021.92,647.88 1021.38,647.59 1021.84,648.34 1020.67,645.94 1020.68,646.53 1020.14,646.40 1023.41,651.05 1023.78,650.46 1025.17,661.76 1024.74,665.17 1020.64,672.95 1017.63,676.02 1016.27,676.26 1015.60,675.56 1012.22,678.22 1011.01,679.94 1010.53,683.18 1007.84,687.39 1004.61,688.85 1000.41,693.82 999.68,694.29 995.81,694.81 993.47,696.11 990.56,696.90 988.30,698.88 984.78,700.58 982.77,701.00 981.12,702.62 975.57,705.78 967.84,708.09 964.08,707.67 959.14,709.10 956.72,710.84 953.66,714.10 951.67,714.82 951.09,714.57 945.71,716.80 943.77,716.95 941.81,718.16 940.28,718.15 939.34,717.48 940.07,717.40 938.63,717.26 933.70,718.30 930.83,718.31 922.07,724.19 917.49,725.82 915.39,725.93 911.34,725.63 907.34,722.77 905.46,722.95 904.42,722.43 900.35,723.11 895.30,722.89 893.45,721.03 890.06,719.86 887.74,720.01 886.02,719.22 882.30,720.38 881.07,720.25 880.06,719.51 875.63,718.29 870.23,713.84 865.69,712.78 862.34,714.64 856.57,716.67 854.39,716.84 852.57,716.28 851.21,715.00 848.32,714.69 845.22,716.57 841.17,717.49 837.91,717.83 837.12,717.46 833.52,717.50 832.89,717.09 828.67,719.26 825.60,719.72 824.95,719.28 818.07,723.37 815.34,723.47 813.23,721.78 811.94,721.83 809.76,723.60 805.56,725.66 802.24,725.89 801.46,725.54 798.80,726.02 796.85,725.76 796.08,725.17 793.83,726.18 791.55,725.45 788.76,723.73 782.49,724.18 781.99,723.92 782.39,723.81 779.87,723.16 778.47,723.22 769.75,721.35 765.32,721.06 765.32,721.52 764.96,720.98 761.84,721.02 760.67,719.02 756.82,718.31 755.11,716.47 754.33,715.27 755.35,712.15 754.31,712.37 752.95,711.95 749.77,712.33 748.27,710.80 746.33,712.17 743.82,715.30 743.33,716.72 742.22,717.50 738.46,718.62 736.43,718.13 735.22,717.34 734.56,715.83 730.63,714.65 728.96,713.05 722.01,711.67 721.52,711.16 721.91,710.19 716.29,710.34 711.25,709.93 705.54,708.19 704.28,707.37 703.82,706.62 704.38,706.61 703.30,705.59 703.79,705.62 703.86,703.12 702.64,701.29 693.69,697.26 689.08,696.16 681.79,695.43 679.23,694.26 679.02,695.37 678.56,694.11 676.45,695.23 676.48,696.09 672.86,700.58 670.49,701.92 666.17,703.41 661.55,703.11 660.56,702.70 660.33,701.60 658.18,700.96 658.04,700.05 657.94,700.65 657.33,700.19 657.59,698.93 658.53,699.05 650.94,696.20 650.14,694.82 643.36,688.76 642.52,685.99 643.39,682.35 642.32,677.81 638.30,673.56 631.38,670.33 618.91,674.79 609.77,676.98 605.22,677.38 598.66,676.28 594.93,673.82 585.67,671.67 584.68,670.91 584.83,670.15 580.99,668.18 579.98,666.44 580.04,666.00 580.92,665.77 578.71,664.66 577.55,663.20 575.97,662.33 575.41,660.60 574.17,659.76 573.00,657.74 573.36,654.73 575.13,651.53 576.80,650.82 580.71,651.58 581.16,651.11 579.70,649.59 578.44,649.63 575.55,650.82 571.70,650.48 569.90,649.61 569.67,648.86 570.39,648.39 569.76,648.36 569.94,647.87 568.02,646.16 563.18,645.80 563.44,647.41 560.69,650.75 558.37,652.56 553.52,655.41 548.20,656.21 537.08,656.04 533.65,655.23 532.41,654.01 531.46,654.72 528.64,654.70 525.86,655.67 523.22,656.11 522.22,655.70 521.66,656.21 519.46,656.40 511.17,655.16 510.56,655.00 510.79,654.71 505.74,653.84 500.79,653.60 492.71,654.32 484.53,654.24 483.67,653.66 481.85,653.96 473.68,653.43 462.45,651.61 459.98,651.87 458.10,651.29 454.58,651.06 449.51,653.11 443.81,654.66 443.12,655.43 433.55,657.34 432.82,658.15 430.46,658.71 430.14,659.16 430.71,659.16 429.79,659.79 423.09,661.39 422.31,661.96 416.56,661.95 415.89,662.67 412.53,662.69 411.91,663.37 410.35,663.44 409.85,663.89 403.33,664.11 402.81,665.19 397.81,665.85 396.87,667.22 395.43,667.76 394.71,667.58 393.16,668.49 392.16,670.05 390.52,669.85 389.94,669.08 390.06,669.47 388.75,669.70 388.62,670.40 387.15,670.49 387.06,671.16 384.63,670.99 383.23,671.37 379.75,673.49 380.12,673.83 379.26,673.68 379.60,674.58 379.18,675.06 375.82,676.72 376.21,677.30 373.68,679.23 367.61,680.71 368.26,681.48 367.45,680.87 366.06,681.20 363.62,683.10 357.71,684.83 356.94,684.62 357.30,684.84 353.52,686.22 352.39,687.39 349.65,688.58 349.15,689.02 349.57,689.30 347.46,689.27 346.90,690.36 342.55,692.40 339.77,693.11 338.39,694.16 332.45,695.37 329.46,696.41 327.96,697.85 325.90,697.87 324.82,698.75 323.49,698.68 322.92,700.17 324.86,701.37 324.66,702.24 323.66,701.68 324.10,705.64 318.46,711.29 313.28,713.06 304.52,713.77 301.20,714.74 297.29,715.12 290.58,715.13 279.96,714.20 272.94,711.33 259.71,709.57 252.77,707.56 251.20,706.47 250.36,706.72 247.69,706.13 247.26,705.63 245.77,707.45 244.00,707.42 244.60,707.99 243.76,708.09 244.13,709.09 241.80,709.13 241.73,710.17 240.96,709.66 240.92,710.06 239.19,710.72 236.78,710.34 235.69,710.94 235.55,710.55 231.99,711.00 230.73,710.57 230.19,711.03 229.96,710.65 227.56,710.94 222.79,710.31 220.44,710.61 219.47,710.32 218.67,710.72 213.21,709.20 210.72,709.56 208.50,708.95 206.82,709.09 202.42,707.72 201.81,707.95 202.34,707.91 201.90,708.42 201.02,708.54 195.43,707.58 187.57,705.49 185.29,705.77 181.05,705.05 178.58,704.14 177.58,704.64 175.74,704.45 175.57,705.14 172.59,704.87 172.17,705.32 166.99,703.44 166.48,702.83 166.12,703.29 163.78,702.61 163.47,703.39 161.40,703.46 156.07,701.65 154.18,701.72 152.71,701.24 152.64,700.81 150.36,700.65 148.49,699.41 146.66,699.61 146.53,698.88 143.41,697.85 142.80,698.13 139.88,696.50 139.14,696.84 136.28,696.36 131.68,694.11 112.05,686.51 109.27,684.61 108.45,684.62 108.58,684.22 106.17,682.47 105.96,681.39 103.82,680.89 103.34,679.65 100.16,677.37 99.53,675.69 100.77,674.84 100.35,674.08 97.98,672.49 96.40,670.61 96.46,669.13 93.37,666.18 92.19,663.64 92.18,661.52 91.66,661.53 94.57,659.55 96.44,660.50 97.53,660.29 96.60,658.26 97.00,656.10 96.55,654.96 95.43,654.14 96.07,653.57 95.90,652.79 94.26,650.88 94.68,650.58 93.92,649.59 92.63,648.79 93.08,648.14 91.67,647.99 90.02,645.37 88.55,645.52 87.79,644.94 87.84,643.96 86.61,642.75 85.24,642.34 85.13,641.52 84.69,641.85 84.35,641.22 83.66,641.19 84.15,640.68 83.56,640.68 83.26,639.80 82.55,639.67 82.91,639.26 81.42,638.96 81.44,638.42 80.43,637.78 79.59,637.88 78.52,636.96 79.06,636.33 76.70,635.41 77.00,634.55 77.81,634.48 77.01,633.94 76.89,633.10 78.31,632.49 78.04,632.13 79.76,631.66 78.31,630.78 79.05,629.69 77.25,629.86 76.87,630.47 76.03,630.25 74.14,627.85 74.05,627.32 74.95,626.78 73.94,626.51 73.75,625.73 74.99,625.39 75.33,624.71 73.72,624.77 72.99,623.95 73.24,623.56 72.57,623.62 72.75,624.03 71.61,624.76 70.62,624.63 69.55,623.73 69.59,623.35 70.38,623.29 69.74,622.75 70.07,621.94 68.92,622.05 68.58,621.34 68.23,622.28 67.57,622.40 65.66,621.09 64.86,621.79 65.25,622.29 64.11,622.31 62.47,621.51 61.72,622.91 60.56,623.46 58.44,621.19 57.63,622.26 56.01,621.24 56.87,619.37 57.15,619.92 57.39,619.43 57.94,619.75 58.43,619.43 58.69,619.84 59.10,616.80 61.26,614.75 62.41,614.64 63.78,615.22 65.52,614.25 66.58,614.72 67.62,614.24 68.94,614.59 69.31,615.20 70.04,614.92 68.78,612.94 69.12,609.84 69.86,609.20 71.79,609.48 72.79,608.34 74.04,608.75 74.53,608.03 76.12,607.84 74.99,607.77 74.12,607.02 74.29,605.53 75.14,604.55 86.89,605.05 86.08,601.58 86.92,600.23 85.66,595.67 86.27,594.69 87.06,594.66 86.61,590.46 87.31,589.58 85.89,584.36 86.06,582.39 87.76,580.60 90.02,573.27 87.93,573.07 85.02,571.54 81.06,572.56 73.67,571.59 71.83,572.22 71.40,571.92 71.04,572.38 71.24,571.97 70.44,572.41 69.85,571.97 72.65,571.41 76.36,571.52 77.72,571.96 78.80,571.31 79.21,571.60 79.67,571.01 79.95,571.38 82.26,571.67 84.02,570.63 85.34,570.63 86.66,571.66 87.61,571.94 88.14,571.63 88.35,572.00 88.46,571.19 89.73,570.59 91.87,570.02 93.45,570.25 94.68,569.50 94.89,568.43 95.53,568.14 99.60,559.65 103.90,557.47 107.05,557.94 114.52,556.56 117.70,556.87 121.75,558.64 124.24,559.16 125.14,560.50 125.48,559.03 127.33,557.02 128.60,556.73 130.76,555.05 133.25,551.66 134.77,548.32 132.26,544.91 132.77,541.73 131.75,539.02 131.84,537.79 132.71,537.18 132.84,531.49 133.78,530.82 132.85,531.25 132.12,530.65 130.95,530.81 130.54,530.23 130.10,530.63 129.31,530.28 130.23,530.50 130.51,530.00 131.02,530.62 131.23,530.32 132.82,530.71 133.36,530.15 133.62,528.13 134.86,527.27 135.11,524.14 136.67,522.39 136.52,520.86 138.80,518.12 136.84,512.05 137.19,511.53 140.23,511.32 140.68,510.24 140.16,511.20 138.88,511.11 139.40,510.35 139.19,510.74 138.80,510.25 138.74,510.73 138.53,509.87 137.91,510.45 137.73,509.85 137.53,510.87 135.77,510.39 137.23,510.24 137.40,509.65 136.83,509.30 137.22,509.41 137.21,508.65 137.75,508.56 137.68,509.68 138.02,508.44 138.50,509.55 137.95,509.72 139.46,509.99 138.20,508.41 138.60,507.64 137.50,507.90 138.75,507.05 137.14,507.16 137.88,506.84 137.12,506.71 137.87,506.62 137.70,505.78 141.47,509.92 138.18,506.25 138.63,505.67 137.25,502.62 137.65,502.33 136.93,502.48 136.40,502.01 135.61,499.70 135.62,498.10 136.78,495.36 140.28,495.31 136.11,495.22 137.32,494.72 137.73,495.06 139.10,494.77 138.36,494.62 138.70,493.84 139.36,493.97 139.35,494.58 139.93,494.11 140.60,495.51 140.32,493.73 140.69,493.91 141.59,491.90 150.90,483.46 158.63,473.36 162.74,469.49 167.64,466.23 171.80,464.71 178.16,463.31 198.76,461.47 199.93,460.75 200.91,460.94 201.99,460.43 202.98,457.93 200.07,456.55 197.18,453.94 193.93,452.34 191.89,452.59 192.62,451.89 192.10,451.61 190.19,451.54 187.53,453.37 186.00,452.86 187.02,451.79 187.03,450.62 185.07,452.52 184.78,450.72 183.58,451.54 182.38,451.65 182.53,450.63 180.50,449.25 181.72,448.30 180.07,448.35 179.49,447.93 180.05,447.05 177.61,447.14 173.68,446.36 176.10,444.82 175.73,443.94 173.81,442.55 170.30,442.46 170.02,443.32 171.95,443.24 172.20,443.62 171.91,444.20 169.88,444.84 164.79,441.74 160.78,441.03 158.33,439.88 155.18,439.28 153.96,437.24 151.96,436.15 149.70,436.06 147.45,437.37 146.82,436.65 147.03,435.50 144.41,435.00 143.59,434.26 141.42,434.67 136.59,433.36 131.43,432.92 118.72,428.85 116.24,427.63 113.90,424.01 112.57,422.93 112.81,420.82 112.27,419.66 108.01,417.90 112.65,419.31 113.46,422.94 117.52,427.86 126.49,430.48 132.20,432.73 137.28,432.96 142.16,434.34 147.21,433.13 146.71,432.13 144.93,431.73 144.29,430.33 144.99,429.83 147.41,429.53 148.01,428.52 146.25,427.64 147.64,426.73 149.19,426.84 150.96,428.07 153.04,428.23 155.18,429.85 157.43,430.50 158.10,429.69 157.68,428.34 160.20,425.50 163.97,425.02 166.56,423.44 168.29,423.28 169.58,423.70 172.76,422.76 176.87,419.41 180.77,420.67 183.30,419.18 186.21,419.93 193.59,418.78 195.61,418.94 197.76,420.09 198.97,422.12 202.24,423.10 205.58,420.41 209.83,419.33 210.08,417.74 209.12,417.98 209.14,418.63 207.75,418.02 207.31,418.92 206.71,418.28 206.99,417.81 205.82,417.38 205.22,417.89 205.86,418.35 205.18,419.09 204.05,418.35 203.85,417.51 202.87,417.81 202.06,417.04 202.42,416.69 202.94,417.48 202.73,416.82 203.56,416.74 203.43,415.48 205.02,413.85 208.03,411.36 212.59,408.59 211.60,409.05 211.35,408.25 211.94,408.19 211.12,408.07 211.02,407.55 213.29,408.05 213.87,407.70 213.86,406.80 214.49,406.81 214.88,406.19 214.30,405.69 217.64,406.00 213.33,408.31 219.05,405.41 237.87,394.29 236.09,394.95 221.70,403.59 220.29,403.94 217.60,403.13 216.96,403.50 214.59,399.96 215.29,400.25 217.30,398.98 217.27,398.41 217.66,398.92 220.81,398.71 220.92,396.34 221.62,396.59 222.60,398.87 224.51,399.72 223.11,397.11 223.85,392.92 224.10,392.69 224.38,396.37 225.96,397.49 227.10,394.41 227.05,391.70 226.18,390.44 227.59,388.45 228.86,389.36 229.10,392.13 231.09,393.11 233.09,395.63 233.89,394.08 234.17,394.64 235.03,394.30 235.56,392.87 235.06,391.75 236.73,390.19 236.28,389.14 236.64,387.79 237.16,387.81 238.25,390.73 238.42,394.05 243.66,391.22 249.11,386.55 250.71,384.89 249.40,385.99 248.47,383.93 249.04,383.96 251.43,381.84 253.63,381.27 254.82,380.29 253.81,378.43 255.22,379.51 256.76,378.39 256.39,380.00 250.70,384.85 260.83,376.94 258.96,377.54 258.07,376.88 256.37,373.80 254.45,372.39 254.13,369.76 254.62,369.61 252.85,368.29 251.46,368.55 249.75,368.24 249.57,367.60 248.36,367.04 244.30,366.27 238.76,362.94 235.70,359.61 236.00,358.49 238.39,356.15 241.96,355.08 244.66,355.55 245.26,356.27 244.06,357.98 245.71,358.50 247.02,361.45 247.86,361.85 249.58,359.89 249.92,358.35 249.26,356.79 249.99,356.29 250.72,356.85 251.22,359.06 250.77,361.32 251.23,361.99 253.20,363.35 256.65,363.91 258.43,365.74 256.98,368.04 257.34,368.73 258.90,370.23 263.32,372.47 262.84,374.45 260.99,375.88 260.87,376.77 263.53,373.56 266.70,371.21 274.81,360.76 273.37,360.34 272.81,359.06 271.81,359.38 271.25,358.98 271.82,359.19 272.22,358.78 272.10,356.03 272.42,358.36 274.66,360.31 277.08,357.81 279.72,356.65 281.09,351.90 280.26,348.79 279.95,349.20 279.35,348.97 279.56,348.61 279.00,348.76 278.22,347.87 279.02,345.76 281.65,344.40 283.56,344.28 285.02,344.87 289.58,343.32 297.23,341.65 297.34,339.56 296.41,337.51 297.60,337.76 298.29,340.59 297.72,341.47 308.18,339.54 312.72,340.76 315.73,340.59 320.01,341.44 320.45,340.35 321.38,339.89 324.18,340.14 324.93,339.29 324.47,339.16 324.72,338.13 327.64,337.10 328.47,335.46 329.29,335.29 329.45,332.68 328.43,332.34 328.05,331.56 325.73,330.80 325.30,327.81 325.84,328.19 326.32,331.00 327.81,330.80 329.55,331.31 330.61,332.83 331.87,331.48 331.09,329.69 331.97,330.28 332.46,329.25 336.63,327.67 336.22,325.41 337.09,326.76 336.93,327.86 334.45,329.64 333.04,330.07 333.63,331.54 332.17,333.25 332.41,334.50 330.29,335.27 330.89,335.95 330.46,337.15 326.78,339.52 325.20,339.69 329.98,339.77 333.65,341.41 336.45,338.68 339.59,338.04 343.48,338.65 345.87,339.57 348.68,339.79 350.29,340.76 356.53,338.84 357.60,337.63 357.30,336.22 357.97,333.73 358.95,332.65 357.65,332.58 356.41,331.51 355.46,330.15 355.56,328.49 358.17,325.14 360.17,324.48 361.99,323.20 363.82,320.66 363.65,319.79 363.07,319.00 361.55,319.57 359.03,319.36 357.51,318.24 358.40,316.87 360.96,315.17 361.13,314.15 356.77,315.17 355.57,314.96 354.36,314.00 353.58,312.34 354.25,309.97 355.92,310.17 356.92,308.99 356.67,307.97 357.16,307.95 355.57,307.05 352.72,306.41 352.20,305.06 353.55,303.49 352.24,301.89 346.96,299.88 346.56,297.80 347.47,296.33 349.01,295.40 348.08,294.51 346.83,294.65 345.61,293.39 346.88,294.58 348.08,294.42 349.11,295.23 346.75,297.87 347.17,299.87 352.21,301.57 353.84,303.15 353.12,301.63 354.47,303.54 353.39,305.50 353.74,306.33 354.97,306.85 356.97,306.89 358.12,308.04 357.87,309.50 355.82,310.74 354.41,312.48 354.76,312.33 355.67,313.85 356.13,313.63 356.65,314.32 360.67,312.74 362.27,312.93 363.14,313.57 363.58,315.81 362.66,315.28 361.43,315.84 359.68,317.43 359.92,318.38 359.96,318.51"/>
    <polyline fill="none" stroke="#2c7a7b" stroke-width="3.60" stroke-opacity="1.00" stroke-linejoin="round" stroke-linecap="round" points="359.95,318.52 361.39,318.92 363.99,317.59 365.98,319.33 364.22,323.93 360.76,325.24 360.70,327.93 358.84,328.69 359.03,330.04 359.94,329.41 360.52,330.33 359.62,331.46 362.26,332.41 362.68,337.35 363.74,338.16 364.97,337.64 364.80,338.94 367.60,340.42 368.79,339.63 370.88,340.17 372.11,341.98 373.45,341.93 373.57,344.32 374.61,342.91 378.24,342.98 379.30,341.68 381.92,342.32 382.72,341.66 385.00,344.60 388.29,344.98 388.75,344.15 390.18,344.98 392.87,343.49 394.01,344.05 396.23,341.86 395.93,343.34 396.71,341.86 399.56,341.02 400.83,341.70 399.44,341.09 400.15,340.21 402.98,340.68 401.05,340.83 401.09,341.64 402.83,340.67 403.88,341.16 407.17,338.07 410.52,337.04 410.84,335.77 411.79,336.70 414.51,335.62 414.92,336.45 417.73,336.24 422.19,334.40 422.29,332.17 424.18,333.39 427.43,332.15 427.90,330.94 428.71,331.95 431.37,331.73 432.03,330.53 434.10,331.69 437.63,330.13 437.96,328.26 439.42,329.47 442.62,327.89 446.14,329.01 448.42,328.37 452.42,329.62 453.71,328.45 456.80,329.28 453.51,332.22 452.56,331.10 449.91,331.87 447.74,330.39 446.30,331.03 444.02,329.80 443.28,330.49 443.05,329.50 441.01,329.17 438.89,330.11 438.64,332.41 436.79,331.05 433.21,332.04 432.53,333.32 431.76,332.09 428.99,332.32 428.48,333.57 426.34,332.73 421.81,335.18 421.69,336.44 420.65,335.69 418.12,336.49 417.69,337.83 416.76,336.78 413.96,337.84 413.48,337.02 411.11,337.29 408.12,338.59 408.21,339.68 406.31,339.81 401.37,345.31 397.33,346.33 397.47,347.64 396.26,347.09 393.23,349.05 392.57,347.93 389.73,348.37 389.31,349.88 388.19,348.78 383.44,348.93 385.87,350.39 387.92,348.84 392.92,348.73 390.34,351.15 387.48,350.61 386.74,351.73 386.14,350.54 383.26,350.13 382.21,351.30 381.74,349.81 380.18,349.48 378.82,350.30 378.35,349.51 376.09,349.86 375.31,348.65 377.09,349.05 374.22,347.53 374.83,348.59 372.78,349.32 371.36,348.12 366.48,349.35 365.40,348.45 364.26,349.43 359.62,348.35 356.67,346.00 357.18,346.98 353.83,346.87 352.68,348.17 352.16,346.51 349.63,345.90 348.71,346.61 347.49,345.03 345.93,346.02 345.36,345.11 343.32,345.33 342.99,346.23 337.99,345.57 337.48,346.60 336.83,345.63 333.90,345.98 331.04,342.94 335.34,346.52 337.49,345.31 337.46,347.76 341.10,350.24 342.95,349.53 343.69,352.61 343.26,351.09 345.66,348.60 350.09,349.57 352.19,347.15 353.23,350.17 357.89,351.28 359.09,350.22 359.40,351.79 360.94,352.30 359.21,351.53 360.50,351.03 361.56,351.90 360.67,352.08 360.06,351.40 361.58,351.30 361.45,352.33 360.84,351.83 361.97,352.26 362.81,351.15 365.22,351.15 368.10,355.98 365.70,356.06 363.26,359.16 362.41,358.41 359.94,359.00 359.44,360.30 358.56,359.23 356.61,359.41 357.68,358.64 358.89,359.21 355.05,359.40 354.55,360.23 354.09,359.37 351.74,359.58 347.62,362.01 348.67,361.76 349.14,364.08 349.94,362.99 351.56,364.03 352.86,363.01 355.52,364.09 357.01,362.29 355.63,361.02 357.00,360.64 356.98,361.68 359.64,361.57 362.10,364.61 364.17,364.09 363.94,364.86 366.05,365.28 367.80,364.46 368.76,365.61 369.65,365.18 370.35,367.07 373.20,368.33 374.20,367.76 377.43,370.32 378.31,368.94 379.67,368.96 380.84,369.96 379.66,370.60 380.14,372.66 376.98,372.40 375.26,374.20 374.55,371.82 369.16,370.78 368.53,371.43 367.44,370.33 375.58,372.29 381.17,366.20 383.64,374.09 394.12,376.33 395.73,374.47 396.55,376.80 400.81,377.55 402.60,374.79 403.56,375.71 406.89,374.48 409.68,375.26 410.61,374.38 413.66,374.70 415.12,373.42 420.06,374.52 421.49,373.37 425.60,374.91 427.32,373.61 428.06,374.62 430.71,374.47 431.43,373.25 432.12,374.47 433.75,374.51 432.63,374.04 433.16,371.69 435.40,370.96 437.31,372.85 440.85,373.56 442.52,371.35 444.16,371.43 444.10,369.05 445.20,369.28 446.84,367.41 445.55,370.23 447.07,371.55 445.40,374.72 446.05,372.97 449.84,372.10 452.84,374.00 452.45,375.71 450.65,375.43 450.90,376.77 453.03,376.83 452.18,375.70 454.07,374.23 457.70,377.92 459.17,377.36 460.15,379.90 462.28,378.56 465.60,380.08 466.66,379.86 465.15,379.55 464.60,377.89 465.80,376.29 470.00,376.89 467.86,377.10 466.18,373.78 468.18,373.89 471.33,371.04 472.64,371.48 473.99,374.81 475.08,374.79 473.64,380.36 475.56,381.02 473.47,385.62 477.26,384.35 483.05,385.82 480.13,388.17 477.73,388.16 477.87,392.54 473.16,389.42 470.05,390.84 468.43,393.09 467.20,392.26 465.71,392.78 465.12,391.81 462.88,392.42 462.62,393.87 461.49,392.91 460.10,393.42 458.36,396.17 457.13,395.59 454.90,397.77 454.06,397.13 451.95,397.86 451.63,399.05 450.76,398.19 448.62,399.29 444.96,398.73 442.98,396.38 443.54,398.16 442.10,400.53 431.65,403.65 430.84,404.86 428.70,404.83 427.24,407.10 425.96,406.24 424.56,406.94 422.97,407.87 422.97,409.68 421.39,408.78 419.81,409.68 421.31,411.15 420.02,412.61 418.52,412.15 419.35,413.13 417.80,414.49 415.84,413.84 418.36,412.23 417.39,411.60 415.66,412.35 415.44,414.21 413.95,413.07 411.58,415.31 410.83,414.23 408.44,415.19 408.05,417.73 406.03,416.14 403.60,417.09 396.47,422.79 398.94,423.99 397.50,426.21 399.18,426.49 400.26,425.16 400.87,426.76 408.22,428.29 413.98,424.84 418.60,424.75 419.48,423.19 420.41,424.74 423.21,424.86 423.83,424.06 426.33,425.51 427.19,424.75 430.51,427.51 429.32,426.57 428.10,427.40 426.63,425.34 430.66,425.22 430.94,426.11 435.58,423.37 438.27,423.53 445.09,419.13 440.97,423.19 439.56,423.04 440.68,423.28 437.86,424.74 435.96,424.48 434.81,425.91 436.43,426.28 433.59,426.53 433.72,428.21 431.84,428.71 430.85,427.63 432.70,428.78 434.60,427.78 434.51,429.93 437.91,431.35 439.29,433.91 444.22,437.11 448.55,438.01 449.07,439.54 450.72,439.55 451.04,438.22 453.90,436.89 455.49,437.77 458.73,435.82 462.92,438.25 464.23,437.55 464.20,439.04 466.85,441.18 468.71,440.64 468.24,442.51 470.54,445.58 472.48,445.69 471.42,447.32 473.86,456.78 471.22,460.72 468.86,460.80 467.74,463.72 469.78,469.94 468.62,470.57 468.76,472.95 466.14,474.96 468.97,474.65 471.69,475.77 467.73,475.52 467.42,476.60 465.98,475.22 463.57,476.55 462.23,476.04 460.20,477.07 461.19,478.51 459.79,477.47 459.50,479.07 458.89,477.24 457.26,477.78 459.19,478.21 458.95,479.32 460.92,480.69 462.02,480.00 464.58,483.59 466.19,482.84 469.26,484.26 472.78,483.55 475.51,486.26 475.61,488.42 477.21,488.98 478.32,488.20 481.57,491.05 491.28,489.09 491.62,489.90 494.12,489.57 494.35,490.49 497.30,490.77 501.58,489.80 502.79,488.47 506.71,487.59 507.85,488.24 508.83,486.74 507.99,485.18 509.76,485.24 511.12,483.41 513.16,483.55 514.89,482.32 516.29,482.96 518.62,480.17 521.46,479.20 522.77,480.17 522.18,478.96 528.46,470.78 528.19,469.48 529.44,469.91 531.67,467.36 532.63,468.06 542.06,463.87 544.58,463.98 546.12,461.98 547.25,462.88 552.09,461.08 552.61,461.84 555.07,461.11 555.45,461.99 557.18,461.34 560.81,462.07 562.87,459.76 566.17,461.12 568.09,460.33 569.99,461.25 570.04,463.06 571.42,462.67 572.46,463.68 575.74,461.57 576.21,457.39 578.44,455.66 582.77,455.41 584.78,451.52 586.75,452.23 587.91,451.31 590.22,451.63 592.97,453.20 591.05,451.77 591.13,450.12 592.97,449.57 593.28,448.17 594.30,449.15 595.70,448.74 593.21,447.87 593.07,445.69 594.84,444.59 594.70,443.14 596.04,443.75 597.92,442.00 600.41,441.78 600.79,440.41 601.78,441.42 604.07,440.33 606.27,440.86 606.88,439.95 607.37,440.95 609.96,441.38 611.02,440.28 611.46,441.74 613.98,442.50 614.87,441.79 615.06,442.90 617.23,443.90 618.33,443.22 618.38,444.47 621.06,445.25 623.66,449.68 625.30,449.19 625.72,447.54 626.94,448.72 629.09,447.90 631.44,448.74 638.54,445.17 639.13,446.32 642.92,446.66 644.40,444.67 645.39,446.96 649.75,447.69 653.26,444.83 654.06,445.80 656.80,445.61 657.56,444.33 658.30,445.62 659.77,445.61 661.36,444.96 661.61,443.25 662.95,444.32 669.25,441.88 670.49,437.92 673.27,440.97 679.18,440.54 680.50,439.14 681.03,440.99 684.24,442.22 686.77,441.80 687.44,440.44 688.27,441.70 691.68,441.90 692.86,440.39 693.56,442.20 700.94,444.11 705.06,440.19 706.41,445.72 714.50,448.64 716.95,447.00 717.16,449.93 720.76,452.00 721.88,451.57 723.96,455.53 722.16,456.98 723.12,457.92 724.42,457.53 725.20,461.35 726.09,462.32 727.38,461.99 728.50,464.85 727.61,465.92 730.89,467.11 732.94,469.46 738.19,470.33 739.11,471.49 747.27,471.69 751.94,473.27 753.57,471.70 754.47,472.66 756.91,471.31 754.83,469.31 754.90,467.98 756.28,467.61 756.67,468.70 758.00,468.30 764.90,472.52 763.29,474.57 768.62,478.79 770.31,478.19 771.65,479.36 772.12,477.32 774.74,478.42 774.79,479.51 772.98,480.02 774.52,479.91 776.31,481.88 777.40,481.42 777.27,482.59 779.95,484.27 779.96,486.25 783.02,487.39 783.37,488.99 788.45,488.81 790.45,490.07 791.31,489.45 792.84,491.57 794.17,491.27 795.07,492.26 798.80,491.57 802.74,492.67 803.52,491.89 803.82,492.93 807.04,492.60 812.43,495.45 818.05,496.89 822.11,496.66 825.51,501.02 828.09,501.92 828.33,503.91 838.57,506.63 839.70,510.61 842.16,510.68 844.33,512.51 845.50,512.13 847.46,515.73 849.11,515.73 849.12,516.69 856.50,519.96 858.04,521.98 859.22,521.78 859.57,523.81 862.14,525.24 863.47,524.68 863.28,526.12 865.89,528.56 867.97,528.08 867.33,530.12 871.40,533.54 874.31,532.18 874.00,535.38 878.22,537.93 878.44,539.69 879.68,540.14 880.68,539.29 880.91,540.59 883.42,541.02 886.76,546.34 888.86,547.20 890.68,545.80 890.99,548.07 896.47,550.22 898.56,552.41 897.79,553.40 899.75,556.65 906.48,558.96 907.62,557.36 908.42,559.14 911.92,559.23 915.88,561.79 917.65,561.23 917.96,562.23 920.54,562.25 923.32,565.49 923.25,568.61 924.80,569.25 923.71,571.94 927.41,573.53 927.96,574.86 930.61,572.70 933.46,572.98 933.52,573.97 936.73,575.38 938.92,574.40 941.07,575.31 944.24,578.65 950.42,577.52 951.77,578.97 953.83,577.71 954.54,578.90 957.38,578.31 957.69,579.14 961.40,579.35 961.95,578.68 965.57,580.81 970.39,586.03 972.95,584.67 976.01,585.18 977.75,586.45 978.50,590.56 980.92,591.23 979.14,593.00 982.70,598.58 984.67,598.95 987.56,597.79 989.65,598.67 990.55,597.70 990.95,598.97 995.65,600.42 996.79,599.01 997.43,600.69 999.83,600.95 1004.51,603.85 1005.51,608.04 1007.85,608.36 1006.40,610.25 1008.26,616.93 1012.64,618.34 1009.23,621.41 1010.20,625.91 1010.52,625.27 1010.38,626.07 1011.79,625.97 1013.38,628.82 1015.22,628.97 1014.16,630.48 1015.31,633.43 1016.59,633.75 1015.82,638.37 1020.82,639.20 1022.44,640.76 1024.59,640.15 1023.62,639.49 1024.46,637.93 1027.69,637.93 1028.30,638.86 1030.44,637.85 1032.09,639.69 1036.71,638.21 1037.63,639.17 1040.30,638.68 1041.60,640.54 1043.40,639.29 1048.35,641.57 1049.67,640.59 1052.04,641.21 1053.59,643.42 1055.10,643.98 1056.32,642.94 1056.59,644.53 1058.10,645.08 1061.62,643.60 1063.53,644.32 1063.50,642.62 1063.74,644.33 1060.69,643.95 1059.51,645.69 1057.03,644.88 1055.71,646.05 1052.54,642.09 1049.65,641.62 1049.27,642.43 1044.48,640.08 1041.56,640.71 1037.13,638.52 1033.88,639.92 1033.19,639.03 1032.34,640.05 1030.43,638.25 1028.26,639.44 1025.46,638.35 1024.05,639.49 1025.19,639.36 1025.17,640.37 1023.06,641.16 1021.30,640.48 1020.20,641.10 1019.12,639.18 1017.93,639.82 1016.76,639.09 1016.34,642.29 1018.13,644.40 1019.33,644.06 1019.92,646.16 1019.50,642.89 1020.82,642.08 1024.49,643.97 1022.78,645.70 1020.72,645.86 1022.37,646.61 1021.85,648.33 1020.15,646.41 1023.76,650.47 1024.07,654.79 1027.39,656.06 1024.63,658.27 1025.93,663.61 1021.99,670.22 1022.82,671.50 1021.29,671.60 1019.64,673.98 1020.01,675.36 1018.63,675.00 1016.58,676.45 1015.59,675.57 1012.23,678.22 1009.35,686.66 1006.77,687.88 1006.65,689.04 1004.61,688.84 1004.19,691.30 1002.78,691.07 1001.27,693.59 998.40,694.46 997.88,695.67 995.81,694.80 992.25,697.35 990.57,696.91 990.02,698.54 987.14,699.45 987.03,700.76 985.94,700.00 983.88,701.36 982.78,700.99 982.41,702.30 979.11,703.61 978.54,704.96 974.40,706.14 974.13,707.35 971.63,706.66 970.16,708.48 969.11,707.62 967.46,708.34 964.61,707.64 959.13,709.13 952.88,715.04 949.29,715.32 949.05,717.24 947.51,716.06 941.04,718.60 939.76,717.13 936.98,717.60 936.45,719.20 935.35,717.96 932.27,719.13 930.84,718.31 925.16,723.23 923.78,722.93 921.51,724.97 914.24,726.62 910.62,725.71 907.35,722.77 906.45,723.41 903.07,722.64 902.59,723.93 901.70,722.87 899.22,723.12 898.66,724.11 890.04,719.87 888.94,720.60 886.03,719.23 884.50,720.87 878.58,719.11 877.47,720.18 877.11,718.70 873.79,716.53 872.61,717.07 871.45,714.49 865.68,712.78 864.09,714.58 861.33,714.94 861.27,715.92 858.57,716.08 858.32,717.11 857.58,716.39 855.53,717.38 853.31,717.08 851.22,715.00 850.21,715.59 848.34,714.68 847.33,716.53 846.26,715.93 843.92,717.63 843.30,716.86 840.08,717.60 839.64,718.61 837.13,717.45 835.35,718.52 832.86,717.08 830.79,718.01 830.78,719.23 829.73,718.64 827.77,719.82 823.33,719.95 821.08,721.46 821.15,723.26 819.58,722.42 815.85,723.84 811.94,721.83 808.36,724.28 808.26,725.84 806.96,724.98 804.74,726.09 800.57,725.71 800.27,726.55 796.10,725.17 792.49,726.48 788.75,723.74 786.84,725.15 786.03,724.05 783.56,724.83 779.88,723.16 775.19,723.06 774.12,722.05 771.85,721.76 771.14,722.56 769.77,721.36 768.28,721.25 767.45,722.49 766.80,721.16 763.91,720.99 763.42,721.90 760.51,720.11 760.68,719.02 757.90,719.29 754.37,716.10 755.32,712.16 750.19,712.59 748.30,710.79 743.01,717.42 740.98,717.87 740.68,719.14 739.71,718.25 737.31,718.94 734.56,715.83 729.33,714.34 728.95,713.05 725.90,712.91 725.26,711.95 722.76,712.50 721.92,710.20 720.03,710.23 719.13,711.88 718.16,710.29 714.60,710.20 713.67,711.58 712.90,710.06 709.35,709.35 707.89,710.70 707.44,708.76 703.83,707.13 702.64,701.28 699.65,699.94 697.01,701.84 696.67,698.60 693.70,697.26 692.16,696.90 691.06,698.05 690.60,696.53 687.45,695.92 686.43,697.22 685.82,695.67 680.18,695.59 679.24,694.26 679.13,695.43 678.57,694.10 676.47,695.23 672.07,701.92 671.29,701.47 667.45,703.76 665.39,703.11 662.71,704.07 660.34,701.60 658.74,701.77 658.04,700.04 657.51,700.60 658.13,698.73 656.08,698.02 655.45,698.73 653.14,697.16 652.17,697.89 646.53,691.80 644.41,692.41 644.93,690.27 642.17,686.72 643.39,682.35 641.56,680.40 642.32,677.80 640.19,677.04 640.61,675.80 638.29,673.57 636.09,673.84 635.94,672.57 631.40,670.35 628.93,671.28 628.51,673.88 626.46,672.24 622.31,673.71 621.93,675.47 620.59,674.24 615.86,675.52 614.96,678.52 612.81,676.25 608.24,677.11 607.62,678.49 606.73,677.24 603.98,677.26 603.29,678.26 602.79,677.15 597.64,675.72 596.62,676.33 594.93,673.83 592.55,673.35 590.93,675.18 590.15,672.87 586.51,672.64 583.55,669.50 582.35,670.27 582.28,668.83 579.98,667.62 580.93,665.78 579.50,665.85 573.00,659.09 572.32,656.14 574.63,651.72 578.99,650.08 579.41,651.32 581.17,651.10 579.72,649.59 576.63,651.10 572.58,651.24 570.55,650.56 570.38,648.39 568.05,646.16 564.19,646.65 563.18,645.80 563.02,649.88 561.61,649.65 560.05,652.33 559.13,651.95 557.45,654.36 556.40,653.85 554.74,655.51 550.09,655.77 549.81,656.68 546.16,656.01 542.45,657.18 541.99,656.36 535.92,655.78 535.13,656.64 532.41,654.01 530.39,655.47 528.64,654.69 527.53,655.99 522.22,655.70 520.64,656.94 513.54,655.34 512.87,656.33 512.35,655.26 509.11,654.42 508.01,655.73 507.42,654.13 504.64,653.79 504.02,654.70 503.51,653.71 500.80,653.61 499.02,654.72 498.39,653.68 494.67,654.24 494.20,655.10 490.55,654.13 489.90,655.37 489.16,654.20 486.61,654.76 483.72,653.65 482.84,654.33 479.14,653.78 477.61,656.06 476.40,653.61 472.41,653.19 471.86,654.02 469.08,652.78 468.17,653.72 466.54,652.16 464.76,653.06 462.44,651.61 461.29,652.45 454.59,651.06 448.55,654.11 446.08,653.79 442.44,655.92 437.45,656.45 436.87,658.36 435.50,656.90 433.54,657.35 431.80,659.12 430.48,658.71 430.24,659.80 428.07,660.30 427.65,662.03 426.34,660.79 421.23,662.45 420.29,661.75 417.89,662.86 416.57,661.95 414.90,663.18 412.52,662.68 408.04,664.85 407.50,663.82 403.34,664.12 402.03,665.66 397.81,665.87 396.30,667.91 394.72,667.58 391.28,670.42 389.94,669.08 386.76,671.44 383.23,671.38 382.58,672.85 379.24,673.68 378.97,675.48 375.81,676.72 375.51,679.00 371.84,679.76 371.40,681.63 370.00,680.31 367.61,680.72 367.89,681.57 366.05,681.19 362.83,683.73 356.96,684.61 355.80,686.61 354.76,685.75 353.51,686.21 343.63,692.39 335.27,695.41 332.45,695.37 331.25,696.77 329.45,696.42 326.93,698.47 325.91,697.86 323.50,698.68 323.08,700.47 325.01,701.59 324.32,702.36 323.66,701.70 324.23,705.43 321.61,709.44 320.66,709.00 319.18,711.29 316.72,711.89 316.36,713.67 314.99,712.46 310.72,713.34 309.67,715.72 308.14,713.63 300.10,714.74 299.56,715.73 298.97,714.77 295.06,715.11 293.93,717.06 292.83,715.14 287.05,714.83 285.01,717.75 283.51,714.52 277.62,713.24 275.64,714.79 275.28,712.28 270.22,711.05 268.60,713.28 267.48,710.78 263.06,710.20 261.97,711.48 261.39,709.88 258.63,709.33 257.90,710.13 255.25,708.40 254.28,709.28 252.50,707.01 250.78,706.42 248.85,707.20 247.26,705.63 246.45,707.21 244.00,707.45 243.96,709.36 241.81,709.12 242.06,710.06 240.99,709.66 240.26,710.88 226.53,710.50 224.36,711.50 223.93,710.45 221.70,711.15 219.47,710.33 217.59,711.10 213.21,709.21 209.83,709.92 202.42,707.71 201.49,708.74 199.16,708.22 197.96,709.69 197.30,707.90 192.83,706.89 190.92,708.80 190.20,706.18 187.59,705.49 186.51,706.29 183.87,705.53 182.98,706.62 182.47,705.29 179.93,705.29 178.57,704.13 170.09,705.74 169.84,704.54 166.48,702.84 163.79,702.62 162.46,704.03 156.07,701.65 153.30,701.90 152.63,700.81 151.10,701.35 148.50,699.41 147.63,700.03 145.51,698.54 144.67,699.28 143.39,697.83 141.27,698.33 139.88,696.51 138.29,697.04 134.75,695.60 133.33,696.55 133.21,694.86 128.21,692.84 125.38,695.22 124.76,691.58 118.22,689.05 115.56,691.08 115.13,687.78 111.13,685.87 110.12,686.37 110.17,685.24 107.78,683.65 106.86,684.05 105.98,681.38 100.75,678.64 99.34,676.36 100.33,674.06 98.69,673.95 96.45,669.12 92.05,665.23 92.61,660.44 93.77,659.45 97.52,660.29 95.89,652.79 90.00,645.37 87.98,645.46 87.82,643.96 83.77,641.40 82.92,639.26 78.78,637.74 78.33,635.84 77.09,636.16 76.89,633.10 79.76,631.66 78.29,630.78 79.04,629.69 76.39,630.61 74.25,628.74 74.97,626.79 73.78,625.46 75.34,624.71 73.92,625.00 73.24,623.56 72.38,624.73 69.83,624.49 70.07,621.94 68.58,621.35 67.09,622.54 65.65,621.09 64.70,622.62 62.49,621.51 60.96,623.62 58.42,621.20 57.94,622.28 56.00,621.23 56.29,619.60 58.68,619.83 58.03,618.19 60.73,614.73 63.77,615.21 64.37,614.21 68.37,614.03 70.04,614.91 68.46,610.46 69.31,609.32 71.79,609.46 71.96,608.63 76.12,607.85 74.34,607.63 74.45,604.79 76.44,603.79 76.85,604.53 79.34,603.94 79.68,604.88 83.19,604.94 84.11,603.65 84.77,605.12 86.91,605.05 85.87,602.93 86.51,598.71 84.98,598.32 85.68,595.00 87.07,594.66 85.63,592.69 87.30,589.58 86.83,587.85 85.09,587.39 86.36,586.10 85.39,583.33 87.76,580.61 87.20,578.78 90.02,573.26 85.02,571.54 81.98,572.93 77.04,572.10 75.98,573.43 75.37,571.84 69.81,571.94 74.22,570.72 75.60,571.75 81.18,570.87 82.26,571.67 84.40,570.52 88.34,571.99 88.92,570.52 93.45,570.25 101.10,557.32 102.46,558.20 104.50,557.15 108.87,557.84 115.87,556.05 117.01,556.98 119.06,556.56 121.74,558.64 123.14,558.17 125.14,560.49 125.81,557.51 130.77,555.06 131.04,552.64 132.41,552.80 133.76,550.55 133.05,549.54 134.79,548.33 132.38,546.16 132.78,541.73 131.43,539.91 132.71,537.20 132.42,532.20 133.78,530.80 129.30,530.28 133.37,530.14 134.84,527.27 134.27,525.02 136.70,522.39 136.86,518.80 138.80,518.11 136.64,512.46 137.90,510.95 140.83,510.69 139.50,511.52 138.53,509.86 137.39,510.97 135.76,510.40 137.24,510.23 137.47,508.45 137.67,509.69 138.02,508.45 137.96,509.72 139.44,510.00 138.12,509.10 138.60,507.65 137.44,507.79 138.78,507.05 137.13,507.17 137.83,505.64 141.50,509.92 138.08,506.04 137.62,502.34 135.33,501.07 135.41,496.39 138.53,494.32 140.30,495.33 138.16,496.49 136.10,495.23 139.10,494.77 138.69,493.84 140.60,495.50 139.92,494.29 142.76,490.74 142.33,489.15 143.93,489.59 147.04,486.77 146.57,484.26 148.97,485.11 153.48,480.09 151.85,476.17 156.05,476.71 160.00,472.06 159.56,470.24 161.37,470.77 164.38,468.41 164.25,466.46 165.99,467.32 169.02,465.73 169.29,464.27 170.41,465.23 173.94,464.25 174.59,462.17 176.05,463.77 180.43,463.05 181.34,460.96 182.71,462.77 189.58,462.17 191.57,458.02 194.18,461.82 198.77,461.47 201.99,460.42 202.95,457.93 199.12,455.69 197.88,456.09 198.14,454.82 196.34,453.58 195.60,454.16 193.93,452.34 191.88,452.60 192.11,451.61 190.18,451.55 189.74,452.86 186.85,453.62 185.99,452.86 187.03,450.63 185.58,452.56 184.77,450.72 182.37,451.64 182.51,450.62 180.52,449.60 181.70,448.29 179.64,448.31 180.05,447.04 178.87,447.79 176.45,446.96 175.70,447.89 173.82,446.60 176.09,444.81 173.81,442.56 170.31,442.44 170.03,443.32 172.18,443.35 171.39,444.91 168.05,444.97 164.76,441.73 162.59,442.53 162.12,441.25 159.24,441.17 157.53,439.67 156.92,440.26 151.96,436.15 150.79,436.76 149.70,436.06 147.69,437.53 147.02,435.51 143.59,434.27 142.59,435.10 139.80,434.24 138.62,435.41 138.19,433.80 136.58,433.37 134.88,433.22 133.88,434.62 133.15,433.08 130.00,432.37 128.79,433.33 127.12,431.24 122.43,430.06 121.48,430.79 121.32,429.58 117.85,428.26 117.17,428.79 115.45,426.41 114.01,426.48 114.69,425.20 112.31,422.64 112.25,419.66 108.02,417.90 109.90,417.28 110.25,418.38 112.21,418.60 113.48,422.95 114.40,424.19 115.95,424.01 115.32,425.43 117.52,427.85 120.51,428.72 122.78,426.58 123.49,429.61 128.38,431.23 129.98,429.95 130.31,431.97 132.21,432.72 133.89,432.80 134.81,431.37 135.59,432.89 138.89,433.42 140.10,432.25 140.51,433.90 142.14,434.35 145.09,432.91 147.19,433.13 144.20,431.21 144.51,429.86 146.78,429.82 148.01,428.52 146.26,427.79 146.69,426.77 150.42,426.93 150.97,428.07 154.58,428.43 155.18,429.85 157.46,430.51 158.11,426.19 159.34,426.44 161.39,424.46 163.97,425.03 164.79,423.48 165.71,423.97 167.37,422.86 169.57,423.70 170.89,422.30 172.78,422.76 175.82,419.44 178.08,419.16 180.76,420.67 181.60,419.20 186.21,419.93 188.20,418.54 189.00,419.68 191.45,419.29 191.79,418.25 192.52,419.04 194.65,418.27 197.45,419.37 198.96,422.11 202.25,423.11 203.93,420.49 209.81,419.33 210.08,417.74 207.31,418.91 205.82,417.38 205.73,418.93 204.40,419.06 203.86,417.50 202.07,417.05 203.56,416.75 203.75,414.20 206.01,413.02 205.80,411.75 207.00,412.19 209.52,410.44 209.49,408.65 212.22,409.10 211.01,407.54 213.29,408.07 214.73,405.45 217.63,406.00 216.11,406.78 216.03,408.50 214.61,407.58 213.08,408.36 215.22,407.34 215.36,405.21 217.13,406.37 222.63,403.34 222.60,399.18 226.19,401.26 231.44,398.10 231.29,396.13 233.06,397.01 235.74,395.39 235.80,394.19 237.86,394.29 233.67,396.51 233.82,399.35 231.27,398.04 226.49,400.91 226.45,403.65 224.10,402.26 221.10,404.19 215.38,402.89 214.57,399.96 219.16,397.91 220.80,398.71 220.92,396.35 224.52,399.73 223.06,398.83 222.50,395.02 224.11,392.69 225.32,394.45 224.39,396.36 225.95,397.50 225.64,395.62 227.10,394.40 226.66,388.75 228.78,388.88 229.08,392.13 232.81,393.80 233.10,395.63 233.88,394.07 235.03,394.30 237.15,387.80 238.43,394.04 240.17,393.11 240.21,391.14 241.90,392.17 245.47,389.68 245.05,387.31 247.30,388.11 250.71,384.88 250.37,385.80 248.62,385.59 248.47,383.94 249.62,382.20 254.83,380.29 253.83,378.41 255.23,379.52 256.76,378.39 257.03,379.31 254.48,381.62 254.95,384.07 252.59,383.24 250.71,384.85 253.16,382.82 252.64,379.68 255.63,380.79 258.93,377.05 260.85,376.95 258.32,377.45 256.32,375.83 256.37,373.80 255.00,373.66 253.89,371.72 254.59,369.60 252.84,368.29 250.51,368.89 247.88,366.86 243.21,366.36 241.66,364.74 240.60,365.18 240.73,364.03 237.74,361.83 236.27,362.16 235.52,358.98 236.53,356.64 237.58,356.95 240.94,354.71 244.30,355.07 245.28,356.27 244.07,357.97 246.27,358.98 247.86,361.85 249.59,359.88 249.49,356.33 250.51,356.36 251.62,357.82 251.22,361.99 258.07,364.84 257.33,368.72 260.38,370.98 261.75,370.08 261.85,371.73 263.35,372.47 263.67,373.61 260.87,376.77 261.51,374.45 262.76,374.57 266.69,371.21 268.69,366.59 269.99,366.93 271.02,363.96 272.18,364.01 274.81,360.75 272.82,359.05 271.41,359.33 272.09,356.03 272.41,358.35 274.67,360.32 275.15,358.36 279.72,356.66 281.09,351.89 280.25,348.79 278.06,347.63 279.30,345.05 282.56,343.80 285.04,344.85 286.85,342.78 288.06,343.83 291.16,343.00 291.70,341.48 292.75,342.72 295.31,342.18 295.55,341.23 297.21,341.66 296.20,337.55 298.18,338.98 297.73,341.49 299.66,341.11 300.30,339.26 301.58,340.74 309.47,339.06 312.71,340.77 314.17,339.80 317.15,340.87 318.13,339.78 320.00,341.45 322.11,339.44 324.20,340.15 325.49,337.34 327.63,337.08 329.29,335.28 329.47,332.70 325.91,331.25 324.63,329.43 325.30,327.80 326.33,330.99 328.83,330.56 330.61,332.81 331.87,331.48 331.07,329.71 331.99,330.30 335.03,327.39 336.62,327.66 336.23,325.42 337.34,327.36 333.04,330.07 333.63,331.55 331.58,335.50 330.28,335.26 331.03,336.66 329.98,338.16 325.19,339.67 326.79,339.72 327.62,338.35 328.39,339.73 331.03,339.51 333.65,341.41 337.85,337.47 340.89,338.25 341.72,337.23 342.18,338.46 344.92,338.42 345.86,339.57 347.35,338.87 350.30,340.76 352.85,339.85 353.33,338.01 354.69,339.34 356.50,338.83 358.94,332.66 356.72,332.41 355.54,331.10 355.52,327.65 358.98,324.23 361.98,323.21 363.65,319.81 363.08,319.00 360.21,320.20 357.50,318.24 361.13,314.14 356.11,315.39 353.50,313.39 353.45,311.01 354.41,309.76 355.94,310.16 357.17,307.95 353.30,307.08 352.07,305.88 353.55,303.48 352.22,301.88 350.75,301.41 349.59,302.43 349.29,300.92 346.39,299.42 346.60,296.80 349.02,295.40 345.85,294.36 345.62,293.38 349.10,295.23 346.74,297.87 347.16,299.88 349.50,300.81 350.49,299.83 353.87,303.17 352.75,301.63 353.76,301.71 353.74,306.34 357.89,307.13 358.34,309.17 354.39,312.48 356.64,314.33 361.54,312.38 363.76,313.98 363.57,315.82 361.42,315.84 359.93,318.47 359.95,318.52"/>
  </g>
  <g>
  </g>
  <g>
    <text x="1092" y="186" font-family="Helvetica, Arial, sans-serif" font-size="18" font-weight="700" fill="#16324f">Слои и длины</text>
    <line x1="1092" y1="224" x2="1126" y2="224" stroke="#7a8b99" stroke-width="1.80" stroke-opacity="0.85" stroke-dasharray="8 6"/>
    <text x="1138" y="222" font-family="Helvetica, Arial, sans-serif" font-size="13" fill="#16324f">Реальная загруженная</text>
    <text x="1138" y="237" font-family="Helvetica, Arial, sans-serif" font-size="13" fill="#16324f">полилиния (справочно)</text>
    <text x="1138" y="254" font-family="Helvetica, Arial, sans-serif" font-size="12" fill="#6b7a87">6391 км</text>
    <line x1="1092" y1="268" x2="1356" y2="268" stroke="#ddd6c8" stroke-width="1"/>
    <line x1="1092" y1="292" x2="1126" y2="292" stroke="#1f6f8b" stroke-width="2.10" stroke-opacity="0.38"/>
    <text x="1138" y="290" font-family="Helvetica, Arial, sans-serif" font-size="13" fill="#16324f">Упрощённая база модели</text>
    <text x="1138" y="305" font-family="Helvetica, Arial, sans-serif" font-size="13" fill="#16324f">(итерация 0)</text>
    <text x="1138" y="322" font-family="Helvetica, Arial, sans-serif" font-size="12" fill="#6b7a87">6135 км</text>
    <line x1="1092" y1="336" x2="1356" y2="336" stroke="#ddd6c8" stroke-width="1"/>
    <line x1="1092" y1="360" x2="1126" y2="360" stroke="#2c7a7b" stroke-width="3.60" stroke-opacity="1.00"/>
    <text x="1138" y="358" font-family="Helvetica, Arial, sans-serif" font-size="13" fill="#16324f">Синтетическая итерация 1</text>
    <text x="1138" y="375" font-family="Helvetica, Arial, sans-serif" font-size="12" fill="#6b7a87">8592 км</text>
  </g>
  <g>
    <rect x="1092" y="417" width="264" height="108" rx="18" fill="#f8f6ef" stroke="#d6d0c4"/>
    <text x="1106" y="437" font-family="Helvetica, Arial, sans-serif" font-size="14" font-weight="700" fill="#16324f">Контроль геометрии</text>
    <text x="1106" y="469" font-family="Helvetica, Arial, sans-serif" font-size="12" fill="#4f6d7a">Сегменты &gt; 450 км</text>
    <text x="1342" y="469" text-anchor="end" font-family="Helvetica, Arial, sans-serif" font-size="13" font-weight="700" fill="#3f6b4b">0</text>
    <line x1="1106" y1="473" x2="1342" y2="473" stroke="#e7e1d5" stroke-width="1"/>
    <text x="1106" y="491" font-family="Helvetica, Arial, sans-serif" font-size="12" fill="#4f6d7a">Повторы ориентиров</text>
    <text x="1342" y="491" text-anchor="end" font-family="Helvetica, Arial, sans-serif" font-size="13" font-weight="700" fill="#3f6b4b">0</text>
    <line x1="1106" y1="495" x2="1342" y2="495" stroke="#e7e1d5" stroke-width="1"/>
    <text x="1106" y="513" font-family="Helvetica, Arial, sans-serif" font-size="12" fill="#4f6d7a">Автоисправления</text>
    <text x="1342" y="513" text-anchor="end" font-family="Helvetica, Arial, sans-serif" font-size="13" font-weight="700" fill="#3f6b4b">0</text>
  </g>
  <g>
    <rect x="1092" y="543" width="264" height="126" rx="18" fill="#fcfbf7" stroke="#d6d0c4"/>
    <text x="1106" y="563" font-family="Helvetica, Arial, sans-serif" font-size="14" font-weight="700" fill="#16324f">Длина по итерациям</text>
    <line x1="1106" y1="574" x2="1122" y2="574" stroke="#1f6f8b" stroke-width="2.2"/>
    <text x="1128" y="578" font-family="Helvetica, Arial, sans-serif" font-size="11" fill="#4f6d7a">Измерено</text>
    <line x1="1204" y1="574" x2="1220" y2="574" stroke="#c06c3f" stroke-width="2.2" stroke-dasharray="5 4"/>
    <text x="1226" y="578" font-family="Helvetica, Arial, sans-serif" font-size="11" fill="#4f6d7a">Теория</text>
    <line x1="1106" y1="587.00" x2="1342" y2="587.00" stroke="#ddd6c8" stroke-width="1"/>
    <line x1="1106" y1="617.00" x2="1342" y2="617.00" stroke="#ddd6c8" stroke-width="1"/>
    <line x1="1106" y1="647.00" x2="1342" y2="647.00" stroke="#ddd6c8" stroke-width="1"/>
    <line x1="1106" y1="647" x2="1342" y2="647" stroke="#8a9aa6" stroke-width="1.4"/>
    <text x="1106" y="581" font-family="Helvetica, Arial, sans-serif" font-size="11" fill="#6b7a87">8788</text>
    <text x="1106" y="661" font-family="Helvetica, Arial, sans-serif" font-size="11" fill="#6b7a87">5938</text>
    <text x="1106" y="659" font-family="Helvetica, Arial, sans-serif" font-size="11" fill="#6b7a87">0</text>
    <text x="1342" y="659" text-anchor="end" font-family="Helvetica, Arial, sans-serif" font-size="11" fill="#6b7a87">1</text>
    <polyline fill="none" stroke="#1f6f8b" stroke-width="2.4" stroke-linecap="round" stroke-linejoin="round" points="1106.00,642.86 1342.00,591.14"/>
    <circle cx="1106.00" cy="642.86" r="2.8" fill="#1f6f8b"/>
    <circle cx="1342.00" cy="591.14" r="2.8" fill="#1f6f8b"/>
    <polyline fill="none" stroke="#c06c3f" stroke-width="2.4" stroke-linecap="round" stroke-linejoin="round" stroke-dasharray="5 4" points="1106.00,642.86 1342.00,599.81"/>
    <circle cx="1106.00" cy="642.86" r="2.8" fill="#c06c3f"/>
    <circle cx="1342.00" cy="599.81" r="2.8" fill="#c06c3f"/>
  </g>
  <g>
  </g>
  <g>
    <rect x="1092" y="713" width="264" height="214" rx="18" fill="#f8f6ef" stroke="#d6d0c4"/>
    <text x="1106" y="733" font-family="Helvetica, Arial, sans-serif" font-size="14" font-weight="700" fill="#16324f">Сводка</text>
    <text x="1106" y="755" font-family="Helvetica, Arial, sans-serif" font-size="12" fill="#4f6d7a">Реальная линия: 6391 км, 9635 т.</text>
    <line x1="1106" y1="775" x2="1342" y2="775" stroke="#e7e1d5" stroke-width="1"/>
    <text x="1106" y="783" font-family="Helvetica, Arial, sans-serif" font-size="12" fill="#4f6d7a">База модели: 6135 км, 3071 т.</text>
    <text x="1106" y="799" font-family="Helvetica, Arial, sans-serif" font-size="12" fill="#4f6d7a">(-4.0% к реальной)</text>
    <line x1="1106" y1="819" x2="1342" y2="819" stroke="#e7e1d5" stroke-width="1"/>
    <text x="1106" y="827" font-family="Helvetica, Arial, sans-serif" font-size="12" fill="#4f6d7a">Текущий слой: 8592 км, 12281 т.</text>
    <text x="1106" y="843" font-family="Helvetica, Arial, sans-serif" font-size="12" fill="#4f6d7a">расчёт / 1799 т. SVG</text>
    <line x1="1106" y1="863" x2="1342" y2="863" stroke="#e7e1d5" stroke-width="1"/>
    <text x="1106" y="871" font-family="Helvetica, Arial, sans-serif" font-size="12" fill="#4f6d7a">Теория: 8180 км, ошибка 4.99%</text>
    <line x1="1106" y1="891" x2="1342" y2="891" stroke="#e7e1d5" stroke-width="1"/>
    <text x="1106" y="899" font-family="Helvetica, Arial, sans-serif" font-size="12" fill="#4f6d7a">Эрозия: σ=10 м, seed=42</text>
  </g>
  <g>
    <line x1="56" y1="885" x2="479" y2="885" stroke="#16324f" stroke-width="3"/>
    <line x1="56" y1="878" x2="56" y2="892" stroke="#16324f" stroke-width="6"/>
    <line x1="479" y1="878" x2="479" y2="892" stroke="#16324f" stroke-width="6"/>
    <text x="56" y="871" font-family="Helvetica, Arial, sans-serif" font-size="13" fill="#16324f">Масштаб ≈ 500 км</text>  </g>
</svg>
