<?xml version="1.0" encoding="UTF-8"?>
<svg xmlns="http://www.w3.org/2000/svg" width="1440" height="902" viewBox="0 0 1440 902">
  <rect width="100%" height="100%" fill="#f7f4ea"/>
  <rect x="20" y="20" width="1400" height="862" rx="28" fill="#fcfbf7" stroke="#d6d0c4"/>
  <rect x="1072" y="20" width="304" height="862" rx="24" fill="#f0ece2" stroke="#d6d0c4"/>
  <g>
  <text x="56" y="58" font-family="Helvetica, Arial, sans-serif" font-size="30" font-weight="700" fill="#16324f">Органическая кривая Коха — итерация 0</text>
  <text x="56" y="108" font-family="Helvetica, Arial, sans-serif" font-size="14" fill="#4f6d7a">Органическая модель: seed=42, угол ±18°, высота ±25%; серая пунктирная линия — реальная линия, цветные слои — от упрощённой</text>
  <text x="56" y="126" font-family="Helvetica, Arial, sans-serif" font-size="14" fill="#4f6d7a">базы</text>
  <text x="56" y="152" font-family="Helvetica, Arial, sans-serif" font-size="13" fill="#6b7a87">SVG содержит исходную полилинию, фрактальные итерации, масштаб и длину по слоям.</text>
  </g>
  <g>
    <polyline fill="none" stroke="#7a8b99" stroke-width="1.80" stroke-opacity="0.85" stroke-linejoin="round" stroke-linecap="round" stroke-dasharray="8 6" points="359.94,318.72 361.39,319.14 361.97,318.62 363.59,318.38 363.30,318.19 364.65,318.20 365.80,320.05 364.81,321.74 364.92,323.08 362.96,324.08 362.59,324.49 363.10,324.67 362.28,325.31 360.75,325.46 360.74,327.72 358.82,328.91 359.78,329.59 359.01,330.25 360.26,329.83 359.61,331.67 360.75,332.03 362.49,334.21 362.00,336.20 362.68,337.57 365.85,339.95 367.59,340.63 370.07,340.50 371.36,341.02 373.57,344.54 380.95,342.16 383.86,343.30 384.98,344.81 390.18,345.18 395.67,343.63 396.23,342.07 395.94,343.56 398.35,342.00 400.82,341.90 399.44,341.30 399.70,340.76 400.65,340.63 400.92,341.01 401.64,340.35 402.58,340.33 402.23,340.69 402.71,340.66 402.88,341.25 402.19,341.00 401.47,341.40 401.05,341.03 401.09,341.88 403.88,341.37 403.84,340.84 404.30,341.15 409.24,337.63 413.05,336.55 417.72,336.47 426.15,332.58 430.00,331.96 434.09,331.91 441.21,329.04 450.70,329.15 452.42,329.84 455.39,329.19 456.86,329.76 455.45,330.78 451.12,331.58 440.99,329.39 434.66,332.21 426.33,332.94 419.50,336.43 415.37,337.27 411.11,337.51 409.03,338.21 406.32,340.02 405.10,341.07 405.59,341.35 404.75,341.37 400.43,345.83 398.42,345.75 395.16,348.10 391.24,348.18 386.67,349.39 383.42,349.15 385.86,349.92 385.23,350.47 385.86,350.60 388.75,349.31 391.52,348.71 392.91,348.94 391.50,350.27 388.80,350.89 384.77,350.69 380.19,349.69 377.40,349.74 375.13,349.12 377.09,349.26 374.22,347.75 373.76,347.87 374.55,348.24 374.53,348.89 371.36,348.33 365.56,349.36 365.40,348.66 365.19,349.21 363.40,349.05 357.74,347.65 357.55,346.97 358.07,346.79 356.35,346.31 357.17,347.20 355.54,347.46 350.69,346.55 347.48,345.24 341.41,345.90 335.67,345.91 332.75,344.82 331.04,343.17 333.22,345.51 339.58,349.22 344.15,352.91 343.52,352.36 344.44,352.61 343.37,352.11 343.76,350.57 344.69,349.77 346.96,349.18 356.36,350.98 360.92,352.52 359.21,351.75 361.55,352.12 360.06,351.62 360.91,351.69 362.18,352.28 360.85,352.22 361.97,352.48 364.17,351.52 365.87,352.21 366.63,354.07 368.08,355.34 367.67,356.32 366.41,356.67 365.69,356.28 364.52,357.91 361.33,358.99 357.18,359.66 356.60,359.63 358.89,359.41 353.11,359.55 349.46,360.38 349.75,360.57 347.99,361.37 347.62,362.22 348.19,361.95 348.87,362.37 349.45,363.57 349.14,364.29 350.11,363.61 349.93,363.21 350.40,363.72 351.29,363.45 351.56,364.25 352.57,363.23 353.00,363.47 352.50,363.74 353.42,363.61 353.73,364.06 355.07,363.58 355.50,364.31 357.01,362.51 356.54,361.98 356.30,362.52 355.87,362.40 355.76,361.08 356.99,360.85 356.97,361.89 360.02,362.24 359.34,362.21 360.39,362.56 360.64,363.54 361.29,363.74 360.67,363.59 360.87,363.94 361.20,364.23 361.76,363.95 361.30,364.23 362.08,364.81 363.64,364.95 364.17,364.31 363.94,365.07 364.80,365.29 365.59,365.41 365.15,365.01 365.67,364.80 366.04,365.50 367.19,364.81 368.75,365.82 368.57,365.38 369.22,365.38 370.16,367.16 370.91,367.15 370.73,367.47 371.86,368.14 372.85,368.25 372.73,367.91 373.20,368.54 375.17,368.56 377.54,370.46 377.10,369.89 377.85,369.96 377.87,369.51 378.79,369.35 380.26,369.85 380.82,370.83 380.24,370.96 380.07,370.43 379.66,370.80 380.19,372.06 379.38,373.21 367.51,370.71 391.70,376.09 400.80,377.78 401.01,376.69 404.84,375.54 407.72,375.03 409.69,375.47 413.67,374.91 416.08,373.94 420.06,374.74 423.20,374.25 425.59,375.13 433.52,374.69 433.96,374.53 432.84,374.44 432.67,373.97 433.66,372.87 433.16,371.90 434.40,371.61 436.26,371.80 437.32,373.07 440.84,373.77 444.15,371.65 444.94,370.43 444.35,369.03 445.18,369.50 446.85,367.61 445.56,370.44 447.07,371.78 445.81,372.49 445.07,374.38 445.40,374.94 445.98,375.03 445.77,373.66 446.60,373.21 448.55,372.80 450.87,373.19 452.33,373.91 452.82,374.80 452.12,375.95 450.65,375.66 450.90,376.99 453.01,377.04 452.49,376.87 452.83,375.17 454.05,374.45 454.98,375.66 456.81,376.17 456.47,377.14 460.14,380.11 460.85,380.13 460.23,379.85 460.47,379.42 461.89,379.39 462.98,378.80 465.59,380.28 466.65,380.09 464.93,378.62 465.29,377.10 466.55,376.65 470.01,377.11 466.60,375.54 466.17,374.00 466.94,374.37 468.19,374.12 468.59,372.97 469.99,372.85 470.80,371.53 471.82,371.56 472.92,372.49 475.11,376.90 473.90,377.49 473.25,378.58 474.43,384.56 473.46,385.84 474.78,386.09 474.88,385.63 476.19,385.23 481.69,385.42 482.56,385.71 483.01,386.63 482.32,387.11 480.71,387.18 478.79,388.47 478.31,388.14 477.74,388.37 477.87,392.76 476.17,390.89 474.96,390.72 473.17,389.63 470.91,391.15 470.05,391.05 468.42,393.31 467.75,392.60 465.70,393.00 465.11,392.02 464.26,392.13 460.10,393.64 460.08,394.24 459.79,393.87 459.53,394.24 459.75,394.94 459.37,394.26 455.99,396.57 449.57,398.74 446.30,398.83 444.18,397.82 442.98,396.59 442.25,399.74 441.14,401.11 436.31,402.16 428.71,405.04 424.55,407.17 419.80,409.90 419.56,410.34 420.87,410.38 421.26,410.97 420.03,412.28 420.26,412.70 419.48,412.01 418.52,412.36 418.47,412.73 419.19,412.63 419.33,413.36 415.85,414.05 418.35,412.44 417.38,411.81 412.22,414.04 412.10,414.97 410.82,415.34 411.33,414.93 410.83,414.45 403.62,417.30 400.49,419.08 396.46,423.01 397.17,423.77 398.37,423.92 398.98,424.82 397.50,426.43 408.22,428.50 413.40,425.74 416.82,424.96 425.23,425.36 428.50,426.47 430.51,427.72 430.65,427.39 426.63,425.55 429.58,426.02 430.66,425.43 430.95,426.33 432.20,425.65 432.45,424.95 434.77,424.74 434.87,424.01 436.09,423.55 438.25,423.74 438.13,423.36 440.50,422.32 440.95,421.58 441.73,421.67 442.34,420.41 443.79,420.17 444.41,419.48 445.55,419.87 443.87,420.94 443.07,420.51 441.78,422.28 439.55,423.26 440.60,423.57 439.30,423.56 438.44,424.80 437.23,424.81 437.05,424.34 435.96,424.69 434.81,426.12 436.33,426.16 436.43,426.50 435.74,426.95 435.54,426.51 435.01,426.88 433.59,426.75 434.27,427.65 433.51,427.68 433.18,428.99 430.86,427.84 436.33,431.29 439.28,434.13 441.08,435.00 441.87,436.14 444.20,437.33 446.95,437.92 449.07,439.76 450.72,439.77 452.34,438.04 455.48,437.98 457.63,436.50 459.64,436.76 461.66,437.67 465.45,440.06 469.65,444.06 472.30,449.28 472.58,451.08 472.09,451.55 473.11,455.27 472.75,458.49 471.76,460.26 470.37,460.80 469.12,460.60 468.86,461.00 468.90,462.58 467.74,463.94 468.71,468.17 468.58,472.07 467.90,473.86 466.60,474.36 466.12,475.17 469.71,475.19 471.69,475.98 467.72,475.73 467.42,476.82 467.28,475.63 466.82,475.92 465.99,475.44 465.38,476.19 463.74,476.04 463.58,476.76 463.31,476.09 462.21,476.25 461.98,477.15 461.37,476.50 460.19,477.28 461.18,478.74 459.78,477.69 459.50,479.29 459.30,478.41 458.83,478.91 458.90,477.46 457.26,478.00 459.77,480.31 463.24,482.11 464.59,483.80 465.44,483.39 469.25,484.47 471.94,483.90 473.32,484.45 474.67,485.51 475.61,488.64 477.21,489.19 479.54,488.97 481.57,491.27 484.27,491.31 489.88,489.92 497.30,490.98 500.41,489.88 501.57,490.01 503.75,488.87 507.87,488.46 510.71,483.96 516.28,483.17 518.14,480.85 519.97,480.06 522.76,480.38 522.91,478.03 524.35,477.41 524.69,476.05 527.47,471.87 530.44,469.24 535.39,467.46 536.70,466.54 538.93,466.07 540.16,465.18 550.76,462.20 556.39,462.31 558.21,461.84 560.81,462.29 561.38,461.32 564.76,460.58 566.16,461.33 566.96,460.94 569.01,461.32 570.36,462.40 570.03,463.28 572.46,463.89 575.74,461.79 576.12,459.33 577.76,456.83 583.24,455.24 584.00,453.96 583.62,452.91 584.22,452.34 585.55,451.92 586.75,452.44 588.73,451.89 590.65,452.26 590.76,452.76 592.95,453.41 593.29,452.88 591.93,452.81 590.83,451.50 591.00,450.81 591.57,450.21 595.68,448.95 592.94,447.73 593.65,445.66 597.22,443.10 603.16,441.26 608.48,441.24 616.10,443.53 621.64,446.86 621.78,448.35 623.17,448.93 622.96,449.55 623.66,449.89 628.58,448.46 631.44,448.96 633.48,448.09 634.70,446.94 636.54,446.43 649.75,447.91 651.57,446.40 655.31,445.83 659.76,445.83 664.56,443.90 665.19,442.98 677.31,440.29 682.89,441.67 684.24,442.42 689.76,441.81 695.47,442.72 711.87,447.54 719.80,451.45 723.58,455.14 723.60,456.38 722.15,457.19 725.07,460.02 725.20,461.58 727.90,464.41 728.23,465.91 727.60,466.14 729.24,466.56 729.72,467.42 734.74,470.48 739.13,471.71 740.07,471.57 743.84,472.42 746.20,472.20 749.32,473.32 751.92,473.49 755.74,472.57 756.90,471.51 755.49,470.34 755.24,468.57 754.69,468.59 755.56,467.81 755.91,468.18 756.28,467.83 756.29,468.61 757.34,468.53 756.67,468.91 757.57,468.45 758.31,468.73 758.29,469.08 759.05,469.13 758.81,469.72 759.61,469.78 761.61,471.47 763.88,472.37 765.08,473.79 763.28,474.78 765.16,476.70 768.63,478.60 768.64,479.01 771.64,479.57 772.01,479.11 771.45,478.05 772.92,477.87 774.09,478.42 774.79,479.72 772.99,480.23 778.22,483.50 779.95,486.48 781.44,487.13 783.36,489.22 784.69,489.64 789.47,489.86 792.39,491.15 792.84,491.79 795.08,492.48 797.84,492.06 808.11,493.79 810.54,494.92 811.52,494.91 812.45,495.66 817.03,496.51 818.06,497.12 820.20,497.08 823.22,498.41 828.32,504.13 829.62,504.81 831.25,504.79 834.65,506.14 837.23,506.49 838.96,508.19 839.71,510.84 842.41,511.15 842.33,511.59 843.39,511.90 847.46,515.95 857.28,521.30 859.58,524.02 861.00,524.57 864.42,527.21 868.78,531.90 876.63,537.45 878.43,539.90 884.06,542.33 885.65,545.59 886.75,546.55 893.11,549.15 896.84,551.31 899.75,556.87 901.52,558.01 904.54,558.99 910.37,559.55 915.89,562.01 921.52,563.69 923.02,567.16 923.71,572.16 927.95,575.09 929.73,573.69 931.72,573.29 936.75,575.59 940.23,575.51 944.23,578.87 948.50,578.19 951.77,579.18 955.93,579.09 963.10,579.86 964.49,580.63 970.38,586.26 971.03,586.28 972.16,585.30 975.42,585.34 977.87,588.34 979.76,595.64 982.68,598.80 984.67,599.16 986.65,598.40 988.34,598.58 992.25,599.49 993.87,600.35 999.21,601.21 1001.09,602.67 1001.25,602.17 1001.28,602.60 1002.09,602.56 1002.76,603.15 1004.60,606.06 1007.30,612.67 1010.20,626.13 1010.54,625.49 1010.39,626.29 1012.58,627.36 1014.95,632.37 1016.01,636.18 1015.27,638.14 1015.82,638.59 1019.34,639.38 1022.43,640.97 1024.59,640.38 1024.79,640.06 1023.82,639.89 1023.68,639.42 1025.96,638.17 1028.30,639.08 1030.84,638.29 1032.10,639.91 1033.20,639.04 1035.00,639.60 1037.34,638.61 1037.64,639.38 1038.92,639.04 1041.11,640.01 1041.59,640.75 1042.36,640.06 1044.39,640.13 1045.77,640.89 1047.37,640.72 1048.32,641.80 1051.20,641.49 1052.51,642.14 1053.59,643.64 1058.10,645.29 1059.53,645.40 1060.66,644.02 1063.52,644.54 1063.19,643.24 1064.00,642.90 1063.31,643.30 1063.74,644.54 1062.34,644.69 1060.70,644.16 1060.14,645.39 1058.73,645.64 1053.64,643.98 1052.53,642.31 1051.51,641.89 1047.88,642.00 1047.25,640.91 1045.80,641.09 1044.48,640.31 1042.72,640.30 1041.57,640.93 1038.96,639.29 1037.56,639.56 1037.15,638.73 1035.00,639.96 1033.19,639.24 1032.08,640.18 1030.45,638.47 1028.84,639.41 1025.45,638.57 1024.03,639.71 1025.28,639.77 1025.16,640.59 1022.38,641.35 1019.12,639.40 1016.76,639.31 1015.98,640.44 1016.96,641.92 1016.33,642.52 1019.92,646.37 1020.67,645.97 1019.49,643.10 1023.62,643.34 1024.47,644.17 1023.75,644.34 1023.37,645.49 1020.71,646.08 1022.38,646.83 1021.93,648.10 1021.38,647.80 1021.84,648.56 1020.69,646.15 1020.69,646.75 1020.14,646.63 1023.40,651.26 1023.77,650.68 1025.17,661.99 1024.73,665.39 1020.63,673.17 1017.63,676.24 1016.26,676.48 1015.59,675.79 1012.24,678.44 1011.00,680.16 1010.54,683.39 1007.85,687.60 1004.60,689.06 1000.42,694.04 999.70,694.51 995.81,695.02 993.47,696.33 990.57,697.12 988.31,699.10 984.77,700.80 982.78,701.22 981.13,702.84 975.56,705.99 967.85,708.31 964.08,707.90 959.13,709.33 956.72,711.07 953.66,714.32 951.66,715.04 951.09,714.79 945.71,717.02 943.76,717.17 941.81,718.38 940.28,718.37 939.33,717.70 940.08,717.61 938.63,717.48 933.71,718.51 930.84,718.54 922.06,724.40 917.49,726.03 915.40,726.15 911.34,725.85 907.35,722.99 905.46,723.15 904.42,722.63 900.34,723.32 895.31,723.11 893.45,721.25 890.06,720.08 887.74,720.23 887.26,719.67 886.02,719.44 882.30,720.59 881.06,720.47 880.06,719.74 875.64,718.51 870.25,714.05 865.69,713.00 862.35,714.86 856.57,716.89 854.39,717.06 852.57,716.49 851.21,715.22 848.34,714.90 845.22,716.79 841.18,717.71 837.90,718.06 837.11,717.67 833.51,717.72 832.87,717.31 828.67,719.48 825.60,719.95 824.93,719.49 818.05,723.58 815.34,723.69 813.23,721.99 811.94,722.05 809.75,723.81 805.55,725.88 802.23,726.11 801.46,725.76 798.79,726.24 796.86,725.97 796.09,725.38 793.83,726.40 791.56,725.67 788.75,723.96 782.49,724.39 782.00,724.14 782.38,724.02 779.86,723.38 778.49,723.43 769.75,721.57 765.31,721.28 765.33,721.74 764.96,721.19 761.85,721.24 760.67,719.24 756.82,718.54 755.10,716.69 754.32,715.48 755.32,712.38 754.32,712.58 752.94,712.16 749.77,712.55 748.28,711.01 746.33,712.38 743.82,715.51 743.32,716.94 742.23,717.72 738.45,718.84 736.44,718.34 735.23,717.57 734.56,716.05 730.64,714.87 728.94,713.27 722.00,711.89 721.52,711.37 721.91,710.41 711.25,710.15 705.54,708.40 704.28,707.59 703.81,706.83 704.36,706.82 703.30,705.80 703.79,705.84 703.86,703.34 702.63,701.50 693.69,697.48 689.07,696.39 681.78,695.64 679.24,694.48 679.00,695.59 678.56,694.33 676.45,695.45 676.07,695.98 676.48,696.32 672.85,700.81 670.50,702.14 666.18,703.62 661.53,703.33 660.56,702.92 659.96,702.01 660.32,701.81 658.17,701.18 658.04,700.25 657.92,700.88 657.34,700.41 657.62,699.14 658.54,699.28 650.93,696.42 650.13,695.04 643.36,688.97 642.52,686.22 643.39,682.56 642.31,678.03 638.29,673.79 631.38,670.56 618.89,675.01 609.76,677.20 605.20,677.60 598.67,676.49 594.92,674.04 585.67,671.89 584.67,671.12 584.82,670.38 581.00,668.39 579.99,666.67 580.91,665.99 578.70,664.87 577.54,663.42 575.97,662.54 575.40,660.82 574.17,659.98 573.00,657.97 573.37,654.95 575.12,651.75 576.82,651.03 580.71,651.80 581.15,651.32 579.70,649.81 578.43,649.86 575.54,651.03 571.68,650.69 569.90,649.83 569.65,649.07 570.38,648.61 569.74,648.60 569.94,648.08 568.04,646.38 563.17,646.02 563.44,647.63 560.69,650.96 558.36,652.78 553.51,655.63 548.20,656.42 537.08,656.26 533.64,655.45 532.41,654.23 531.46,654.93 528.64,654.91 525.87,655.89 523.22,656.32 522.21,655.92 521.67,656.42 519.47,656.63 511.16,655.39 510.79,654.92 505.73,654.06 500.80,653.83 492.69,654.54 484.51,654.46 483.66,653.88 481.85,654.18 473.66,653.65 462.44,651.83 459.96,652.09 458.09,651.51 454.58,651.28 449.51,653.34 446.08,654.01 443.81,654.89 443.11,655.65 433.54,657.57 432.82,658.37 430.46,658.93 430.13,659.38 430.69,659.39 429.79,660.01 423.09,661.61 422.31,662.17 416.55,662.17 415.88,662.88 412.52,662.90 411.91,663.59 410.34,663.67 409.84,664.11 403.32,664.33 402.80,665.42 397.79,666.08 396.86,667.44 395.42,667.98 394.71,667.81 393.15,668.70 392.14,670.25 390.52,670.07 390.57,669.56 389.92,669.30 390.04,669.68 388.74,669.92 388.63,670.61 387.13,670.71 387.05,671.39 384.63,671.21 383.22,671.60 379.75,673.72 380.11,674.05 379.26,673.90 379.59,674.79 379.16,675.28 375.80,676.94 376.21,677.52 373.68,679.44 367.60,680.94 368.26,681.70 367.44,681.09 366.05,681.41 363.63,683.32 359.31,684.27 357.71,685.06 356.94,684.83 357.28,685.05 353.51,686.44 352.38,687.59 349.63,688.80 349.13,689.24 349.55,689.52 347.46,689.49 346.89,690.58 342.54,692.61 339.76,693.33 338.37,694.38 332.44,695.60 329.44,696.63 327.95,698.08 325.90,698.09 324.82,698.97 323.49,698.90 322.91,700.38 324.88,701.59 324.65,702.45 323.66,701.90 324.10,705.86 318.43,711.52 313.27,713.27 304.52,713.99 301.20,714.95 297.29,715.33 290.58,715.36 279.95,714.42 272.94,711.54 259.71,709.79 252.76,707.78 251.20,706.68 250.36,706.94 247.67,706.35 247.26,705.86 245.77,707.66 243.99,707.65 244.58,708.21 243.75,708.32 244.12,709.31 241.80,709.34 241.72,710.39 240.96,709.87 240.92,710.28 239.19,710.94 236.77,710.56 235.67,711.15 235.54,710.76 231.98,711.21 230.73,710.78 230.19,711.25 229.95,710.87 227.56,711.15 226.51,710.73 222.79,710.54 220.44,710.83 219.46,710.54 218.67,710.95 213.20,709.41 210.71,709.78 208.49,709.16 206.80,709.31 202.42,707.93 201.80,708.17 202.34,708.13 201.90,708.64 201.02,708.77 195.43,707.80 187.58,705.71 185.28,705.98 181.05,705.27 178.67,704.70 178.57,704.35 177.57,704.86 175.74,704.65 175.55,705.35 172.57,705.08 172.16,705.53 166.98,703.66 166.47,703.05 166.11,703.50 163.77,702.83 163.46,703.61 161.39,703.69 156.06,701.88 154.17,701.94 152.70,701.46 152.65,701.03 150.34,700.87 148.49,699.62 146.65,699.83 146.54,699.10 143.39,698.06 142.79,698.34 140.31,697.33 139.87,696.72 139.14,697.06 136.27,696.58 131.67,694.33 112.04,686.72 109.26,684.84 108.44,684.84 108.59,684.45 106.15,682.69 105.96,681.60 103.80,681.11 103.33,679.87 100.16,677.58 99.53,675.91 100.76,675.06 100.33,674.29 97.97,672.70 96.41,670.83 96.44,669.34 93.36,666.40 92.19,663.85 92.17,661.74 91.66,661.75 94.56,659.77 96.43,660.72 97.52,660.50 96.60,658.47 97.00,656.32 96.54,655.18 95.42,654.35 96.06,653.78 95.90,653.02 94.25,651.11 94.68,650.79 93.93,649.80 92.63,649.01 93.07,648.36 91.64,648.21 90.01,645.59 88.54,645.75 87.77,645.16 87.81,644.18 86.61,642.98 85.23,642.55 85.12,641.74 84.68,642.07 84.33,641.43 83.65,641.41 84.13,640.89 82.56,639.90 82.90,639.47 81.43,639.19 81.43,638.63 80.42,638.00 79.58,638.11 78.50,637.18 79.05,636.55 76.69,635.62 76.98,634.76 77.80,634.69 77.01,634.17 76.87,633.31 78.29,632.70 78.03,632.34 79.75,631.88 78.29,631.00 78.91,630.73 79.04,629.90 77.25,630.08 76.86,630.67 76.01,630.47 74.13,628.08 74.02,627.54 74.95,627.01 73.92,626.72 73.74,625.95 74.01,625.57 74.97,625.61 75.32,624.92 73.71,624.99 73.22,623.78 72.55,623.84 72.73,624.25 71.60,624.98 70.61,624.85 69.54,623.95 69.58,623.57 70.38,623.52 69.75,622.97 70.06,622.16 68.91,622.27 68.57,621.57 68.24,622.50 67.56,622.62 65.64,621.31 64.85,622.01 65.26,622.51 64.09,622.51 62.47,621.73 61.72,623.13 60.55,623.67 58.42,621.40 57.60,622.48 56.00,621.45 56.87,619.59 57.15,620.14 57.38,619.64 57.93,619.98 58.41,619.66 58.68,620.05 59.10,617.02 61.26,614.97 62.42,614.86 63.76,615.43 65.52,614.47 66.57,614.94 67.61,614.46 68.91,614.80 69.29,615.41 70.04,615.13 68.77,613.16 69.11,610.07 69.84,609.42 71.78,609.69 72.78,608.57 74.02,608.96 74.52,608.25 76.12,608.06 74.98,607.98 74.12,607.24 74.30,605.75 75.13,604.76 86.89,605.27 86.08,601.79 86.92,600.45 85.64,595.89 86.27,594.92 87.07,594.88 86.59,590.68 87.30,589.80 85.87,584.58 86.04,582.60 87.76,580.82 90.01,573.48 87.93,573.29 85.02,571.75 81.04,572.78 73.67,571.81 71.80,572.44 71.37,572.15 71.03,572.59 71.23,572.18 70.44,572.61 69.81,572.17 72.63,571.63 76.35,571.74 77.72,572.17 78.80,571.53 79.19,571.82 79.67,571.23 79.96,571.60 82.25,571.89 84.01,570.85 85.33,570.86 86.65,571.88 87.59,572.17 88.12,571.83 88.34,572.21 88.45,571.41 89.71,570.81 91.88,570.24 93.43,570.48 94.68,569.72 94.89,568.65 95.54,568.37 99.58,559.87 103.89,557.69 107.04,558.16 114.51,556.78 117.71,557.10 121.73,558.86 124.23,559.37 125.13,560.72 125.46,559.26 127.32,557.24 128.59,556.95 130.76,555.27 133.24,551.88 134.77,548.54 132.25,545.12 132.78,541.95 131.74,539.25 131.83,538.01 132.70,537.40 132.83,531.71 133.78,531.02 132.85,531.47 132.11,530.86 130.93,531.03 130.55,530.45 130.09,530.84 129.30,530.50 130.21,530.71 130.50,530.22 131.00,530.83 131.23,530.53 132.82,530.92 133.37,530.37 133.59,528.36 134.84,527.48 135.11,524.35 136.67,522.61 136.50,521.07 138.79,518.33 136.82,512.26 137.17,511.76 140.21,511.53 140.67,510.46 140.15,511.41 138.88,511.33 139.39,510.57 139.16,510.96 138.79,510.47 138.74,510.96 138.52,510.08 137.90,510.66 137.74,510.06 137.52,511.09 135.76,510.62 137.22,510.45 137.40,509.87 136.83,509.51 137.75,508.77 137.66,509.90 138.01,508.66 138.48,509.78 137.95,509.93 139.43,510.21 138.21,508.63 138.59,507.86 137.50,508.11 138.75,507.27 137.13,507.39 137.88,507.07 137.13,506.92 137.87,506.84 137.68,505.99 141.47,510.14 138.18,506.46 138.61,505.89 138.00,505.10 138.14,503.89 137.24,502.83 137.62,502.55 136.91,502.70 136.37,502.23 135.61,499.92 135.62,498.32 136.77,495.56 140.28,495.54 136.10,495.44 137.07,495.37 137.31,494.94 137.72,495.28 139.07,494.98 138.37,494.84 138.69,494.05 139.35,494.19 139.32,494.80 139.92,494.33 140.60,495.72 140.32,493.94 140.67,494.13 141.57,492.11 150.90,483.67 158.62,473.57 162.74,469.72 167.63,466.45 171.80,464.93 178.16,463.52 198.76,461.69 199.92,460.96 200.91,461.15 201.98,460.64 202.96,458.15 200.07,456.77 197.18,454.16 193.93,452.55 191.88,452.81 192.62,452.10 192.10,451.82 190.18,451.76 187.52,453.59 185.98,453.08 187.01,452.01 187.02,450.84 185.08,452.73 184.76,450.94 183.57,451.76 182.36,451.87 182.51,450.85 180.49,449.46 181.69,448.51 180.06,448.55 179.46,448.15 180.05,447.26 177.61,447.35 173.67,446.57 176.09,445.03 175.73,444.16 173.81,442.77 170.30,442.66 170.00,443.54 171.94,443.45 172.19,443.83 171.90,444.41 169.89,445.05 164.77,441.95 160.78,441.25 158.32,440.11 155.17,439.50 153.96,437.46 151.94,436.37 149.69,436.28 147.45,437.59 146.80,436.85 147.01,435.72 144.40,435.22 143.58,434.48 141.40,434.88 136.58,433.58 131.43,433.14 127.11,431.45 124.11,430.53 123.54,430.74 118.70,429.06 116.22,427.84 113.90,424.21 112.56,423.13 112.83,421.02 112.26,419.87 108.01,418.11 112.64,419.52 113.46,423.16 117.52,428.07 126.47,430.70 132.20,432.94 137.27,433.18 142.14,434.57 147.19,433.35 146.71,432.35 144.93,431.95 144.28,430.54 144.98,430.05 147.40,429.74 148.00,428.74 146.26,427.84 147.63,426.93 149.17,427.05 150.94,428.28 153.03,428.45 155.16,430.07 157.43,430.73 158.09,429.91 157.65,428.55 160.17,425.72 163.96,425.25 166.56,423.65 168.28,423.51 169.56,423.91 172.77,422.98 176.84,419.63 180.76,420.88 183.27,419.40 186.21,420.14 193.58,419.00 195.60,419.15 197.75,420.31 198.95,422.34 202.23,423.32 205.59,420.62 209.82,419.55 210.07,417.96 209.12,418.21 209.16,418.85 207.73,418.24 207.30,419.13 206.71,418.50 206.99,418.02 205.83,417.60 205.21,418.10 205.86,418.57 205.17,419.31 204.02,418.57 203.85,417.72 202.87,418.02 202.06,417.26 202.41,416.90 202.92,417.69 202.74,417.04 203.55,416.97 203.42,415.71 205.01,414.06 207.99,411.58 212.58,408.81 211.59,409.26 211.34,408.48 211.93,408.42 211.13,408.28 211.01,407.76 213.28,408.27 213.87,407.02 214.48,407.02 214.87,406.40 214.29,405.90 217.62,406.22 213.31,408.52 219.03,405.62 237.86,394.51 221.69,403.81 220.28,404.17 217.60,403.34 216.95,403.72 214.58,400.17 215.28,400.47 217.29,399.18 217.27,398.62 217.65,399.13 220.79,398.93 220.91,396.57 221.61,396.81 222.59,399.09 224.51,399.93 223.10,397.33 223.84,393.14 224.10,392.91 224.38,396.57 225.95,397.71 227.09,394.61 227.04,391.92 226.18,390.66 227.58,388.67 228.84,389.57 229.09,392.35 231.09,393.33 233.07,395.85 233.88,394.29 234.16,394.87 235.03,394.52 235.54,393.09 235.06,391.96 236.72,390.40 236.28,389.35 236.63,388.01 237.16,388.03 238.24,390.95 238.42,394.26 243.65,391.45 249.12,386.79 250.69,385.10 249.41,386.20 248.45,384.15 249.03,384.17 251.42,382.07 253.64,381.49 254.81,380.50 253.81,378.64 255.21,379.74 256.75,378.61 256.38,380.22 250.70,385.07 260.83,377.17 258.94,377.74 258.06,377.09 256.35,374.01 254.42,372.61 254.12,369.97 254.59,369.82 252.83,368.51 251.45,368.78 249.76,368.45 249.57,367.81 248.37,367.25 244.29,366.48 238.75,363.16 235.69,359.83 235.98,358.71 238.38,356.38 241.96,355.29 244.65,355.76 245.27,356.50 244.06,358.19 245.71,358.71 247.02,361.67 247.86,362.06 249.57,360.10 249.91,358.57 249.25,357.00 249.99,356.50 250.70,357.07 251.21,359.29 250.76,361.54 251.22,362.20 253.17,363.57 256.65,364.12 258.41,365.96 256.99,368.24 257.33,368.94 258.89,370.46 263.32,372.68 262.82,374.67 260.97,376.09 260.86,376.98 263.51,373.77 266.68,371.43 274.80,360.98 273.36,360.55 272.80,359.28 271.78,359.59 271.26,359.19 271.82,359.41 272.22,359.00 272.08,356.24 272.40,358.57 274.65,360.53 277.07,358.03 279.72,356.87 281.09,352.11 280.24,349.00 279.96,349.42 279.34,349.19 279.56,348.82 278.99,348.98 278.22,348.09 279.02,345.97 281.64,344.62 283.54,344.50 285.02,345.07 289.55,343.52 297.20,341.88 297.35,339.78 296.41,337.73 297.59,337.98 298.28,340.81 297.73,341.69 308.19,339.75 312.71,340.98 315.73,340.81 319.99,341.65 320.45,340.58 321.38,340.11 324.18,340.37 324.94,339.51 324.47,339.38 324.72,338.35 327.63,337.30 328.45,335.67 329.28,335.51 329.46,332.91 328.41,332.56 328.05,331.77 325.71,331.03 325.29,328.02 325.83,328.39 326.32,331.20 327.82,331.02 329.53,331.54 330.60,333.04 331.85,331.70 331.09,329.92 331.97,330.51 332.45,329.47 336.61,327.88 336.22,325.64 337.08,326.97 336.92,328.08 334.45,329.86 333.03,330.29 333.62,331.76 332.14,333.46 332.42,334.71 330.28,335.48 330.88,336.15 330.45,337.36 326.76,339.73 325.20,339.90 329.97,339.97 333.64,341.63 336.46,338.90 339.58,338.26 343.47,338.88 345.86,339.78 348.69,340.01 350.29,340.97 356.51,339.05 357.58,337.83 357.30,336.44 357.96,333.95 358.94,332.87 357.66,332.79 356.40,331.72 355.47,330.36 355.54,328.71 358.16,325.36 360.18,324.70 361.97,323.42 363.81,320.87 363.63,320.01 363.07,319.21 361.53,319.80 359.02,319.59 357.50,318.46 358.39,317.08 360.94,315.39 361.11,314.36 356.76,315.39 355.57,315.17 354.35,314.21 353.57,312.56 354.23,310.18 355.92,310.39 356.91,309.22 356.66,308.17 357.16,308.16 355.57,307.26 352.72,306.62 352.20,305.28 353.55,303.70 352.22,302.10 346.95,300.09 346.57,298.02 347.47,296.55 349.00,295.61 348.07,294.73 346.82,294.88 345.61,293.60 346.88,294.80 348.07,294.64 349.09,295.45 347.36,296.86 346.74,298.09 347.17,300.09 352.20,301.79 353.85,303.37 353.11,301.84 354.47,303.76 353.39,305.71 353.73,306.55 354.96,307.07 356.97,307.10 358.12,308.26 357.86,309.72 355.82,310.96 354.39,312.69 354.72,312.53 355.68,314.07 356.13,313.85 356.64,314.54 360.67,312.96 362.27,313.15 363.15,313.79 363.56,316.02 362.66,315.49 361.43,316.05 359.68,317.65 359.91,318.59 359.94,318.72"/>
    <polyline fill="none" stroke="#1f6f8b" stroke-width="3.60" stroke-opacity="1.00" stroke-linejoin="round" stroke-linecap="round" points="359.95,318.72 361.38,319.13 363.59,318.38 363.31,318.18 364.65,318.20 365.80,320.04 364.82,321.74 364.92,323.09 362.95,324.08 362.59,324.49 363.10,324.68 362.28,325.32 360.75,325.47 360.74,327.72 358.81,328.91 359.78,329.59 359.02,330.26 360.26,329.83 359.63,331.68 360.74,332.04 362.50,334.21 362.01,336.20 362.68,337.57 365.86,339.96 367.60,340.64 370.07,340.50 371.36,341.02 373.57,344.54 376.35,343.33 378.22,343.20 380.97,342.16 383.87,343.31 384.97,344.81 390.19,345.19 391.80,344.43 394.02,344.27 395.67,343.63 396.24,342.07 396.46,342.91 395.93,343.56 398.36,342.00 400.82,341.90 399.42,341.30 399.71,340.76 400.65,340.63 400.93,341.00 401.63,340.35 402.17,340.62 402.55,340.32 402.23,340.69 402.88,341.24 402.19,340.99 401.48,341.41 401.05,341.02 401.08,341.87 403.88,341.37 403.83,340.85 404.31,341.15 409.23,337.63 413.05,336.54 417.73,336.47 426.15,332.57 430.00,331.96 434.09,331.90 441.22,329.03 450.69,329.14 452.41,329.85 455.39,329.18 456.87,329.75 455.45,330.78 451.12,331.58 440.98,329.39 434.67,332.21 426.33,332.94 419.50,336.43 415.37,337.27 411.12,337.51 409.02,338.19 406.32,340.01 405.09,341.07 405.59,341.35 404.75,341.38 400.44,345.83 398.44,345.76 395.17,348.09 391.24,348.17 386.66,349.39 383.42,349.14 385.87,349.92 385.22,350.47 385.86,350.61 388.76,349.31 391.53,348.71 392.91,348.95 391.49,350.25 388.82,350.90 384.77,350.69 380.20,349.69 377.40,349.74 375.12,349.12 377.08,349.27 374.22,347.75 373.76,347.87 374.55,348.24 374.53,348.89 371.36,348.33 365.57,349.35 365.40,348.67 365.19,349.20 363.41,349.06 358.37,347.87 357.73,347.66 357.55,346.97 358.08,346.78 356.36,346.31 357.17,347.19 355.54,347.45 350.69,346.55 347.48,345.24 341.41,345.89 335.67,345.90 332.74,344.81 331.05,343.17 333.21,345.51 339.57,349.21 344.15,352.91 343.52,352.36 344.45,352.62 343.37,352.11 343.76,350.57 344.70,349.77 346.96,349.18 356.34,350.98 360.91,352.52 359.21,351.75 361.55,352.12 360.07,351.60 360.91,351.69 362.20,352.28 360.83,352.22 361.96,352.48 364.17,351.51 365.87,352.21 366.64,354.07 368.09,355.34 367.67,356.31 366.40,356.67 365.68,356.29 364.52,357.90 361.34,358.98 357.18,359.67 356.60,359.63 358.88,359.41 353.10,359.56 349.47,360.38 349.22,361.06 347.99,361.37 347.63,362.22 348.18,361.95 348.87,362.37 349.46,363.57 349.13,364.29 350.11,363.61 349.91,363.22 350.39,363.73 351.29,363.46 351.57,364.25 352.58,363.23 353.00,363.46 352.49,363.73 353.43,363.61 353.72,364.05 355.06,363.58 355.50,364.30 357.01,362.51 356.54,361.98 356.30,362.52 355.87,362.39 355.76,361.09 356.99,360.86 356.98,361.88 360.02,362.23 359.35,362.20 360.38,362.56 360.64,363.53 361.28,363.74 360.67,363.58 360.86,363.93 361.21,364.24 361.76,363.95 361.29,364.23 362.08,364.80 363.65,364.95 364.18,364.32 363.95,365.07 364.79,365.29 365.58,365.42 365.16,365.02 365.68,364.80 366.04,365.49 367.19,364.79 368.75,365.82 368.57,365.39 369.21,365.37 370.16,367.17 370.90,367.15 370.72,367.46 371.86,368.14 372.85,368.26 372.74,367.92 373.19,368.54 375.18,368.56 377.54,370.46 377.11,369.89 377.87,369.96 377.89,369.51 378.79,369.34 380.27,369.85 380.82,370.84 380.25,370.96 380.07,370.44 379.66,370.81 380.19,372.07 379.38,373.22 367.52,370.71 391.70,376.09 400.80,377.79 401.01,376.69 404.84,375.53 407.72,375.02 409.68,375.47 413.68,374.92 416.10,373.94 420.07,374.73 423.21,374.24 425.60,375.13 433.52,374.70 433.96,374.51 432.83,374.44 432.67,373.98 433.67,372.86 433.16,371.90 434.42,371.61 436.27,371.80 437.31,373.07 440.83,373.77 444.16,371.65 444.94,370.43 444.34,369.03 445.18,369.49 446.85,367.62 445.55,370.43 447.07,371.78 445.81,372.48 445.05,374.38 445.40,374.94 445.98,375.02 445.78,373.65 446.59,373.22 448.53,372.81 450.85,373.18 452.33,373.91 452.81,374.81 452.12,375.96 450.64,375.66 450.89,376.98 453.00,377.04 452.49,376.86 452.83,375.17 454.06,374.46 454.97,375.66 456.83,376.16 456.46,377.14 460.14,380.11 460.85,380.13 460.22,379.85 460.47,379.43 463.00,378.80 465.58,380.28 466.65,380.09 464.92,378.62 465.28,377.10 466.54,376.66 469.99,377.11 466.59,375.55 466.17,374.01 466.94,374.37 468.18,374.12 468.60,372.98 469.98,372.85 470.80,371.53 471.82,371.57 472.91,372.48 475.11,376.91 473.90,377.48 473.25,378.58 474.44,384.55 473.46,385.85 474.77,386.09 474.88,385.63 476.19,385.23 478.37,385.15 481.69,385.43 482.57,385.72 483.00,386.64 482.32,387.11 480.71,387.17 478.80,388.47 478.32,388.14 477.74,388.38 477.87,392.76 476.17,390.88 474.97,390.72 473.16,389.62 470.91,391.15 470.05,391.05 468.41,393.32 467.75,392.61 465.70,393.00 465.10,392.02 464.27,392.13 460.09,393.64 460.06,394.24 459.78,393.88 459.52,394.25 459.75,394.93 459.36,394.27 455.99,396.57 449.57,398.75 446.31,398.83 444.18,397.82 442.97,396.59 442.24,399.74 441.15,401.10 436.32,402.15 428.71,405.03 424.56,407.17 419.80,409.90 419.56,410.34 420.86,410.38 421.27,410.97 420.04,412.28 420.25,412.71 419.48,412.02 418.53,412.36 418.47,412.73 419.20,412.63 419.31,413.36 415.85,414.05 418.36,412.44 417.38,411.81 412.21,414.04 412.09,414.97 410.81,415.34 411.33,414.93 410.83,414.44 403.62,417.30 400.49,419.09 396.47,423.01 396.53,423.47 398.37,423.92 398.98,424.82 397.52,426.45 408.22,428.50 413.40,425.74 416.82,424.96 425.22,425.35 428.50,426.48 430.50,427.72 430.65,427.38 426.62,425.55 429.58,426.02 430.67,425.43 430.95,426.33 432.20,425.64 432.45,424.96 434.78,424.75 434.87,423.99 436.10,423.55 438.26,423.73 438.12,423.36 440.51,422.32 440.95,421.58 441.73,421.68 442.35,420.42 443.79,420.17 444.42,419.49 445.55,419.86 443.87,420.95 443.07,420.51 441.77,422.28 439.55,423.26 440.58,423.56 439.29,423.55 438.43,424.80 437.44,424.52 437.23,424.81 437.05,424.33 435.97,424.68 434.81,426.11 436.34,426.16 436.43,426.50 435.75,426.95 435.54,426.51 435.02,426.88 433.60,426.76 434.26,427.65 433.50,427.67 433.18,428.99 430.87,427.86 436.33,431.28 439.27,434.13 441.10,434.99 441.87,436.14 444.20,437.32 446.94,437.91 449.08,439.77 450.72,439.77 452.34,438.03 455.48,437.98 457.63,436.49 459.64,436.75 461.66,437.66 465.45,440.07 469.63,444.06 472.29,449.29 472.58,451.08 472.10,451.55 473.11,455.27 472.76,458.50 471.76,460.27 470.37,460.79 469.11,460.59 468.86,461.00 468.90,462.58 467.73,463.94 468.73,468.16 468.56,472.08 467.90,473.87 466.60,474.37 466.12,475.18 469.72,475.19 471.69,475.99 467.71,475.73 467.42,476.82 467.28,475.64 466.82,475.92 465.99,475.45 465.39,476.18 463.73,476.04 463.59,476.76 463.31,476.09 462.21,476.24 461.96,477.16 461.38,476.50 460.19,477.29 461.18,478.75 459.77,477.69 459.50,479.28 459.31,478.40 458.83,478.90 458.89,477.47 457.26,478.01 459.77,480.31 463.25,482.11 464.60,483.79 465.43,483.39 469.25,484.47 471.94,483.90 473.31,484.44 474.66,485.51 475.61,488.64 477.21,489.18 479.53,488.97 481.58,491.27 484.26,491.32 489.87,489.93 497.30,490.98 500.42,489.89 501.57,490.01 503.76,488.87 507.87,488.46 510.73,483.97 516.29,483.18 518.14,480.85 519.98,480.06 522.76,480.39 522.93,478.04 524.35,477.40 524.69,476.06 527.49,471.87 530.46,469.25 535.39,467.47 536.69,466.53 538.93,466.06 540.16,465.17 550.75,462.20 556.40,462.31 558.20,461.85 560.81,462.29 561.37,461.33 564.76,460.58 566.16,461.32 566.97,460.94 569.03,461.33 570.35,462.40 570.02,463.28 572.46,463.90 575.73,461.79 576.12,459.33 577.75,456.84 579.61,455.99 581.78,455.85 583.24,455.25 584.00,453.97 583.62,452.91 584.23,452.33 585.54,451.92 586.76,452.43 588.72,451.89 590.64,452.26 590.78,452.75 592.94,453.42 593.28,452.88 591.93,452.79 590.83,451.50 590.99,450.81 591.55,450.21 595.70,448.94 592.94,447.73 593.64,445.66 597.21,443.10 603.16,441.26 608.48,441.24 616.09,443.54 621.63,446.86 621.78,448.34 623.16,448.92 622.97,449.55 623.66,449.89 628.59,448.45 631.42,448.96 633.49,448.09 634.70,446.95 636.55,446.43 640.44,446.58 649.76,447.91 651.57,446.41 655.31,445.83 659.77,445.82 664.55,443.90 665.19,442.98 677.31,440.28 682.89,441.68 684.23,442.42 689.76,441.82 695.46,442.72 711.85,447.54 719.81,451.45 723.59,455.14 723.59,456.38 722.15,457.20 725.08,460.02 725.20,461.57 727.90,464.40 728.23,465.90 727.60,466.14 729.24,466.56 729.72,467.42 734.74,470.48 739.12,471.71 740.06,471.56 743.85,472.42 746.20,472.20 749.34,473.32 751.92,473.48 755.73,472.58 756.88,471.52 755.49,470.34 755.25,468.56 754.69,468.59 755.55,467.81 755.91,468.19 756.27,467.83 756.29,468.62 757.33,468.54 756.67,468.91 757.58,468.45 758.30,468.72 758.28,469.08 759.04,469.13 758.81,469.71 763.88,472.38 765.08,473.79 763.29,474.79 765.16,476.71 768.64,478.60 768.64,479.00 771.65,479.57 772.00,479.11 771.47,478.04 772.91,477.87 774.08,478.43 774.80,479.72 772.99,480.23 778.21,483.50 779.96,486.47 781.45,487.13 783.35,489.21 784.68,489.65 789.49,489.86 792.40,491.15 792.84,491.80 795.07,492.47 797.84,492.06 808.11,493.80 810.56,494.93 811.52,494.92 812.46,495.66 817.03,496.50 818.06,497.11 820.20,497.09 823.21,498.42 828.34,504.13 829.63,504.81 831.26,504.79 834.66,506.14 837.23,506.49 838.97,508.18 839.70,510.84 842.42,511.16 842.33,511.59 843.40,511.89 847.45,515.96 857.27,521.30 859.57,524.02 861.01,524.57 864.40,527.20 868.78,531.91 876.62,537.45 878.43,539.90 884.05,542.33 885.65,545.60 886.75,546.55 893.10,549.16 896.84,551.31 899.76,556.87 901.51,558.01 904.53,559.00 910.36,559.56 915.89,562.01 921.53,563.70 923.01,567.17 923.71,572.15 927.95,575.09 929.73,573.68 931.73,573.30 936.74,575.59 940.23,575.50 944.23,578.87 948.49,578.18 951.77,579.18 955.93,579.08 963.09,579.85 967.20,583.01 970.38,586.27 971.03,586.27 972.15,585.30 975.44,585.33 977.87,588.34 979.77,595.65 982.67,598.79 984.67,599.16 986.66,598.39 988.34,598.58 992.26,599.48 993.88,600.34 999.22,601.21 1001.08,602.68 1001.23,602.17 1001.27,602.61 1002.10,602.55 1002.75,603.14 1004.60,606.05 1007.30,612.66 1010.20,626.13 1010.54,625.48 1010.39,626.29 1012.57,627.36 1014.97,632.36 1016.01,636.18 1015.28,638.14 1015.82,638.58 1019.36,639.39 1022.44,640.97 1024.59,640.39 1024.80,640.06 1023.82,639.89 1023.69,639.42 1025.96,638.18 1028.29,639.08 1030.83,638.28 1032.10,639.92 1033.20,639.04 1035.01,639.59 1037.35,638.61 1037.65,639.37 1038.92,639.03 1041.11,640.01 1041.58,640.76 1042.36,640.06 1044.37,640.15 1045.77,640.89 1047.38,640.73 1048.31,641.81 1051.22,641.49 1052.51,642.16 1053.60,643.64 1058.09,645.29 1059.53,645.40 1060.68,644.02 1063.53,644.54 1063.20,643.24 1064.00,642.90 1063.31,643.29 1063.75,644.54 1062.34,644.69 1060.70,644.16 1060.14,645.39 1058.74,645.63 1053.64,643.97 1052.53,642.30 1051.51,641.90 1047.88,642.01 1047.25,640.91 1045.79,641.08 1044.49,640.31 1042.72,640.30 1041.57,640.92 1038.95,639.29 1037.56,639.56 1037.15,638.73 1035.01,639.96 1033.18,639.25 1032.09,640.19 1030.45,638.46 1028.85,639.41 1025.46,638.57 1024.04,639.72 1025.28,639.77 1025.16,640.60 1022.39,641.35 1019.13,639.40 1016.78,639.31 1015.98,640.44 1016.96,641.91 1016.32,642.53 1019.90,646.37 1020.65,645.98 1019.48,643.10 1023.62,643.33 1024.48,644.19 1023.74,644.34 1023.37,645.49 1020.96,645.73 1020.72,646.08 1022.37,646.82 1021.92,648.10 1021.38,647.81 1021.84,648.56 1020.67,646.16 1020.67,646.75 1020.14,646.62 1023.40,651.26 1023.78,650.68 1025.17,661.98 1024.74,665.39 1020.64,673.17 1017.63,676.24 1016.27,676.48 1015.60,675.78 1012.22,678.44 1011.01,680.15 1010.53,683.40 1007.84,687.61 1004.61,689.07 1000.41,694.04 999.68,694.51 995.81,695.03 993.47,696.33 990.56,697.12 988.30,699.10 984.78,700.80 982.77,701.21 981.12,702.84 975.57,706.00 967.84,708.31 964.08,707.89 959.14,709.32 956.72,711.06 953.66,714.32 951.67,715.04 951.09,714.79 945.71,717.02 943.77,717.17 941.81,718.38 940.28,718.37 939.34,717.70 940.07,717.62 938.63,717.48 933.70,718.52 930.83,718.53 922.07,724.41 917.49,726.04 915.39,726.15 911.34,725.84 907.34,722.99 905.46,723.16 904.42,722.64 900.35,723.33 895.30,723.11 893.45,721.25 890.06,720.08 887.73,720.23 886.02,719.44 882.29,720.60 881.06,720.47 880.06,719.73 875.63,718.51 870.23,714.06 865.69,713.00 862.34,714.86 856.57,716.89 854.39,717.05 852.57,716.50 851.21,715.22 848.32,714.91 845.22,716.79 841.17,717.71 837.91,718.05 837.12,717.68 833.52,717.72 832.89,717.31 828.67,719.48 825.59,719.94 824.94,719.49 818.07,723.59 815.34,723.68 813.23,722.00 811.94,722.05 809.76,723.82 805.55,725.88 802.23,726.11 801.46,725.76 798.80,726.24 796.85,725.98 796.08,725.39 793.83,726.40 791.55,725.67 788.75,723.95 782.49,724.40 781.99,724.14 782.38,724.02 779.87,723.38 778.47,723.44 769.75,721.57 765.31,721.28 765.32,721.74 764.96,721.20 761.84,721.24 760.67,719.24 756.82,718.53 755.11,716.69 754.33,715.49 755.34,712.37 754.31,712.59 752.94,712.16 749.77,712.55 748.27,711.02 746.33,712.39 743.81,715.52 743.33,716.94 742.22,717.72 738.45,718.84 736.43,718.35 735.22,717.56 734.56,716.05 730.63,714.87 728.95,713.27 722.00,711.89 721.52,711.38 721.91,710.41 716.29,710.56 711.24,710.15 705.53,708.41 704.28,707.59 703.82,706.83 704.37,706.83 703.30,705.81 703.79,705.84 703.85,703.34 702.64,701.51 693.69,697.48 689.08,696.38 681.78,695.65 679.22,694.48 679.02,695.59 678.56,694.33 676.44,695.45 676.47,696.31 672.85,700.80 670.48,702.14 666.17,703.62 661.55,703.33 660.56,702.92 660.33,701.82 658.17,701.17 658.04,700.26 657.93,700.87 657.32,700.40 657.59,699.14 658.52,699.27 650.94,696.42 650.13,695.04 643.36,688.98 642.52,686.21 643.38,682.57 642.31,678.03 638.30,673.78 631.38,670.55 618.91,675.01 609.76,677.20 605.22,677.60 598.65,676.50 594.93,674.04 585.67,671.89 584.67,671.13 584.83,670.37 580.99,668.39 579.97,666.66 580.04,666.22 580.91,665.98 578.70,664.88 577.55,663.42 575.96,662.55 575.40,660.82 574.16,659.98 572.99,657.96 573.36,654.95 575.12,651.75 576.80,651.04 580.71,651.80 581.15,651.33 579.70,649.81 578.43,649.85 575.55,651.03 571.69,650.70 569.89,649.83 569.67,649.08 570.38,648.61 569.75,648.58 569.94,648.09 568.02,646.38 563.17,646.02 563.43,647.63 560.68,650.97 558.36,652.78 553.51,655.63 548.19,656.43 537.07,656.26 533.65,655.45 532.41,654.23 531.46,654.94 528.64,654.92 525.86,655.89 523.21,656.33 522.21,655.92 521.66,656.43 519.46,656.62 511.16,655.38 510.56,655.22 510.79,654.93 505.74,654.05 500.78,653.82 492.70,654.54 484.52,654.46 483.67,653.88 481.85,654.18 473.67,653.65 462.45,651.83 459.98,652.09 458.09,651.51 454.57,651.28 449.50,653.33 443.80,654.88 443.11,655.64 433.54,657.56 432.81,658.37 430.46,658.93 430.13,659.38 430.70,659.38 429.78,660.01 423.09,661.61 422.31,662.17 416.55,662.17 415.88,662.88 412.52,662.91 411.91,663.58 410.34,663.66 409.84,664.11 403.32,664.33 402.81,665.41 397.80,666.07 396.87,667.44 395.42,667.98 394.70,667.80 393.15,668.70 392.15,670.26 390.51,670.07 389.93,669.30 390.05,669.69 388.75,669.92 388.61,670.62 387.14,670.71 387.06,671.38 384.63,671.21 383.23,671.59 379.75,673.71 380.12,674.05 379.26,673.90 379.59,674.80 379.17,675.28 375.81,676.94 376.21,677.52 373.68,679.45 367.60,680.93 368.26,681.70 367.44,681.09 366.05,681.41 363.61,683.32 357.70,685.05 356.93,684.84 357.30,685.05 353.51,686.43 352.38,687.60 349.64,688.80 349.14,689.24 349.56,689.52 347.45,689.49 346.89,690.58 342.54,692.62 339.76,693.33 338.38,694.37 332.44,695.59 329.45,696.62 327.96,698.07 325.89,698.09 324.82,698.97 323.48,698.90 322.91,700.39 324.86,701.59 324.65,702.45 323.66,701.90 324.09,705.86 318.45,711.51 313.28,713.28 304.52,713.99 301.20,714.96 297.28,715.34 290.58,715.35 279.95,714.42 272.93,711.54 259.70,709.79 252.76,707.78 251.19,706.69 250.36,706.94 247.68,706.35 247.25,705.85 245.76,707.67 243.99,707.64 244.59,708.21 243.75,708.31 244.12,709.31 241.79,709.35 241.72,710.39 240.95,709.88 240.91,710.28 239.18,710.94 236.77,710.56 235.68,711.16 235.54,710.77 231.98,711.22 230.72,710.78 230.18,711.25 229.95,710.87 227.56,711.16 222.78,710.53 220.43,710.83 219.46,710.54 218.67,710.94 213.20,709.41 210.72,709.78 208.49,709.16 206.81,709.30 202.41,707.94 201.80,708.17 202.33,708.13 201.90,708.64 201.02,708.76 195.42,707.80 187.57,705.71 185.28,705.99 181.04,705.26 178.58,704.36 177.58,704.86 175.73,704.67 175.56,705.35 172.58,705.09 172.16,705.53 166.98,703.66 166.47,703.05 166.11,703.51 163.77,702.83 163.46,703.61 161.40,703.68 156.06,701.87 154.17,701.94 152.70,701.46 152.63,701.03 150.35,700.87 148.49,699.63 146.66,699.83 146.52,699.10 143.40,698.07 142.79,698.34 139.87,696.72 139.13,697.06 136.27,696.58 131.67,694.33 112.05,686.73 109.26,684.83 108.44,684.84 108.57,684.44 106.16,682.69 105.95,681.61 103.81,681.11 103.33,679.87 100.15,677.59 99.53,675.91 100.77,675.06 100.34,674.29 97.97,672.71 96.39,670.83 96.45,669.35 93.36,666.40 92.18,663.86 92.17,661.74 91.65,661.75 94.56,659.77 96.44,660.72 97.52,660.51 96.59,658.48 96.99,656.32 96.54,655.18 95.43,654.35 96.06,653.79 95.89,653.01 94.25,651.10 94.67,650.80 93.91,649.80 92.62,649.01 93.07,648.36 91.66,648.21 90.01,645.59 88.54,645.74 87.78,645.16 87.83,644.18 86.60,642.97 85.24,642.56 85.13,641.74 84.68,642.06 84.34,641.43 83.65,641.41 84.14,640.89 83.55,640.90 83.25,640.02 82.55,639.89 82.90,639.48 81.41,639.18 81.43,638.64 80.42,637.99 79.58,638.09 78.52,637.18 79.05,636.55 76.69,635.62 76.99,634.77 77.80,634.70 77.00,634.16 76.88,633.32 78.30,632.70 78.03,632.35 79.75,631.88 78.30,631.00 79.05,629.90 77.24,630.07 76.87,630.69 76.02,630.47 74.13,628.07 74.04,627.54 74.94,627.00 73.93,626.73 73.74,625.95 74.98,625.61 75.32,624.92 73.71,624.99 72.98,624.17 73.23,623.78 72.56,623.84 72.74,624.25 71.60,624.98 70.61,624.85 69.54,623.95 69.58,623.57 70.37,623.51 69.73,622.97 70.06,622.16 68.91,622.27 68.57,621.56 68.22,622.49 67.56,622.62 65.65,621.31 64.85,622.01 65.24,622.51 64.10,622.53 62.46,621.73 61.71,623.13 60.55,623.68 58.43,621.41 57.62,622.48 56.00,621.45 56.86,619.59 57.15,620.14 57.38,619.64 57.93,619.97 58.42,619.65 58.68,620.06 59.09,617.01 61.25,614.97 62.40,614.86 63.77,615.44 65.51,614.47 66.57,614.94 67.61,614.46 68.93,614.81 69.30,615.42 70.03,615.14 68.77,613.15 69.11,610.06 69.85,609.42 71.78,609.69 72.78,608.56 74.03,608.97 74.53,608.25 76.11,608.06 74.98,607.99 74.11,607.23 74.28,605.75 75.13,604.77 86.88,605.27 86.07,601.80 86.91,600.45 85.65,595.89 86.26,594.91 87.05,594.88 86.60,590.68 87.30,589.79 85.88,584.58 86.06,582.60 87.75,580.81 90.02,573.49 87.92,573.29 85.01,571.76 81.05,572.77 73.67,571.81 71.82,572.44 71.39,572.14 71.03,572.60 71.23,572.18 70.43,572.63 69.84,572.19 72.64,571.63 76.35,571.74 77.71,572.18 78.79,571.53 79.20,571.82 79.66,571.23 79.94,571.60 82.25,571.89 84.01,570.85 85.33,570.85 86.65,571.88 87.60,572.16 88.13,571.84 88.34,572.21 88.45,571.41 89.72,570.81 91.86,570.24 93.44,570.47 94.67,569.72 94.88,568.65 95.53,568.36 99.59,559.87 103.89,557.69 107.04,558.16 114.51,556.78 117.69,557.09 121.74,558.86 124.24,559.38 125.13,560.72 125.47,559.25 127.32,557.24 128.59,556.94 130.76,555.26 133.25,551.88 134.76,548.54 132.25,545.12 132.76,541.95 131.74,539.24 131.83,538.01 132.70,537.40 132.84,531.71 133.77,531.04 132.85,531.47 132.11,530.87 130.94,531.03 130.53,530.45 130.09,530.84 129.30,530.50 130.22,530.72 130.50,530.21 131.02,530.84 131.23,530.54 132.82,530.93 133.35,530.36 133.61,528.35 134.85,527.48 135.10,524.36 136.66,522.61 136.51,521.08 138.79,518.34 136.83,512.26 137.18,511.75 140.22,511.53 140.67,510.46 140.15,511.42 138.88,511.33 139.39,510.56 139.18,510.96 138.79,510.47 138.74,510.95 138.52,510.08 137.90,510.66 137.72,510.07 137.52,511.08 135.76,510.61 137.22,510.45 137.39,509.87 136.82,509.52 137.21,509.63 137.20,508.87 137.74,508.78 137.67,509.90 138.01,508.66 138.49,509.77 137.95,509.94 139.45,510.21 138.20,508.63 138.59,507.85 137.50,508.12 138.74,507.27 137.13,507.38 137.87,507.06 137.11,506.92 137.86,506.84 137.70,506.00 141.46,510.14 138.17,506.46 138.63,505.89 137.24,502.83 137.64,502.55 136.92,502.70 136.39,502.22 135.60,499.92 135.62,498.32 136.77,495.57 140.27,495.53 136.10,495.43 137.31,494.94 137.72,495.28 139.09,494.98 138.36,494.84 138.69,494.05 139.35,494.19 139.34,494.80 139.92,494.33 140.59,495.72 140.31,493.94 140.68,494.13 141.58,492.12 150.89,483.67 158.62,473.57 162.73,469.71 167.63,466.45 171.79,464.93 178.15,463.53 198.75,461.69 199.93,460.96 200.90,461.16 201.98,460.64 202.97,458.14 200.06,456.77 197.17,454.16 193.93,452.56 191.88,452.81 192.61,452.11 192.09,451.82 190.18,451.75 187.52,453.59 185.99,453.07 187.01,452.01 187.02,450.84 185.07,452.74 184.77,450.94 183.57,451.76 182.37,451.87 182.52,450.84 180.49,449.47 181.71,448.51 180.07,448.57 179.48,448.15 180.04,447.27 177.61,447.36 173.67,446.57 176.09,445.03 175.73,444.16 173.81,442.77 170.30,442.67 170.01,443.54 171.94,443.45 172.19,443.83 171.90,444.42 169.88,445.06 164.78,441.96 160.77,441.25 158.32,440.10 155.17,439.49 153.95,437.46 151.95,436.37 149.69,436.28 147.44,437.58 146.81,436.86 147.02,435.72 144.40,435.22 143.58,434.48 141.41,434.89 136.58,433.58 131.43,433.14 118.71,429.06 116.23,427.85 113.90,424.22 112.56,423.14 112.81,421.03 112.26,419.88 108.00,418.12 112.65,419.52 113.46,423.16 117.51,428.07 126.48,430.70 132.19,432.94 137.28,433.17 142.15,434.56 147.20,433.35 146.70,432.35 144.92,431.95 144.28,430.54 144.98,430.05 147.40,429.74 148.00,428.74 146.24,427.85 147.63,426.94 149.18,427.05 150.95,428.29 153.03,428.45 155.17,430.06 157.43,430.72 158.09,429.91 157.67,428.55 160.19,425.71 163.96,425.24 166.56,423.66 168.28,423.50 169.57,423.92 172.75,422.98 176.86,419.63 180.76,420.88 183.29,419.39 186.21,420.14 193.58,419.00 195.60,419.15 197.75,420.31 198.96,422.34 202.23,423.32 205.58,420.63 209.83,419.55 210.07,417.96 209.11,418.20 209.13,418.85 207.74,418.23 207.30,419.14 206.71,418.49 206.98,418.03 205.82,417.60 205.21,418.11 205.85,418.57 205.17,419.31 204.04,418.57 203.85,417.73 202.86,418.03 202.05,417.26 202.41,416.90 202.93,417.69 202.72,417.04 203.55,416.96 203.42,415.70 205.01,414.07 208.03,411.58 212.58,408.80 211.59,409.27 211.35,408.46 211.93,408.40 211.11,408.29 211.01,407.77 213.28,408.27 213.86,407.91 213.85,407.02 214.48,407.02 214.87,406.40 214.30,405.90 217.63,406.22 213.33,408.52 219.05,405.63 237.86,394.51 236.08,395.17 221.69,403.81 220.28,404.16 217.60,403.34 216.95,403.72 214.58,400.18 215.28,400.47 217.29,399.19 217.26,398.63 217.65,399.14 220.80,398.93 220.91,396.56 221.61,396.81 222.59,399.09 224.50,399.94 223.10,397.33 223.84,393.14 224.10,392.91 224.38,396.58 225.95,397.71 227.09,394.62 227.04,391.92 226.17,390.65 227.58,388.67 228.85,389.57 229.09,392.35 231.09,393.32 233.08,395.85 233.88,394.29 234.16,394.86 235.02,394.51 235.55,393.09 235.05,391.96 236.72,390.41 236.28,389.36 236.64,388.01 237.15,388.02 238.24,390.95 238.41,394.26 243.65,391.44 249.11,386.77 250.70,385.11 249.39,386.21 248.46,384.15 249.04,384.17 251.42,382.06 253.62,381.49 254.82,380.50 253.80,378.64 255.21,379.73 256.76,378.61 256.38,380.22 250.69,385.07 260.83,377.16 258.95,377.75 258.06,377.09 256.36,374.02 254.44,372.60 254.12,369.98 254.61,369.83 252.85,368.51 251.45,368.77 249.75,368.46 249.57,367.81 248.36,367.25 244.29,366.49 238.75,363.16 235.69,359.83 236.00,358.71 238.38,356.37 241.95,355.30 244.65,355.77 245.26,356.49 244.05,358.19 245.71,358.71 247.02,361.67 247.85,362.07 249.57,360.10 249.91,358.57 249.25,357.01 249.98,356.50 250.72,357.06 251.21,359.28 250.76,361.53 251.22,362.21 253.19,363.57 256.65,364.13 258.42,365.96 256.98,368.26 257.34,368.95 258.90,370.45 263.31,372.68 262.84,374.67 260.99,376.09 260.86,376.98 263.52,373.77 266.69,371.43 274.80,360.97 273.36,360.56 272.80,359.28 271.80,359.59 271.25,359.19 271.81,359.41 272.22,359.00 272.09,356.25 272.41,358.57 274.65,360.52 277.08,358.02 279.72,356.86 281.08,352.11 280.25,349.00 279.94,349.42 279.34,349.18 279.55,348.82 278.99,348.98 278.21,348.09 279.02,345.97 281.64,344.62 283.55,344.50 285.01,345.09 289.57,343.53 297.22,341.86 297.34,339.78 296.41,337.73 297.59,337.98 298.28,340.81 297.72,341.69 308.18,339.75 312.71,340.97 315.73,340.81 320.00,341.66 320.44,340.57 321.37,340.11 324.18,340.36 324.92,339.51 324.46,339.38 324.71,338.35 327.64,337.31 328.46,335.67 329.28,335.51 329.45,332.90 328.42,332.56 328.05,331.77 325.73,331.02 325.29,328.02 325.84,328.40 326.31,331.21 327.81,331.02 329.54,331.53 330.60,333.05 331.86,331.69 331.08,329.91 331.96,330.49 332.46,329.46 336.62,327.89 336.21,325.62 337.09,326.97 336.93,328.08 334.44,329.85 333.03,330.29 333.62,331.76 332.16,333.46 332.41,334.72 330.29,335.48 330.89,336.17 330.45,337.37 326.78,339.74 325.19,339.90 329.97,339.99 333.64,341.63 336.44,338.90 339.59,338.26 343.47,338.87 345.86,339.78 348.67,340.01 350.29,340.97 356.52,339.06 357.59,337.84 357.30,336.44 357.97,333.95 358.95,332.87 357.65,332.80 356.40,331.72 355.45,330.36 355.55,328.71 358.17,325.36 360.17,324.70 361.98,323.42 363.81,320.88 363.64,320.01 363.06,319.21 361.54,319.79 359.02,319.58 357.50,318.45 358.39,317.08 360.95,315.39 361.12,314.37 356.76,315.38 355.56,315.18 354.36,314.22 353.58,312.55 354.24,310.18 355.92,310.39 356.92,309.21 356.66,308.19 357.16,308.16 355.56,307.26 352.72,306.63 352.19,305.27 353.54,303.71 352.23,302.11 346.96,300.10 346.56,298.01 347.46,296.54 349.00,295.62 348.08,294.72 346.82,294.87 345.60,293.61 346.87,294.80 348.07,294.64 349.10,295.45 346.74,298.08 347.17,300.09 352.20,301.78 353.84,303.36 353.11,301.84 354.46,303.76 353.38,305.71 353.73,306.55 354.96,307.07 356.97,307.11 358.12,308.26 357.86,309.72 355.82,310.96 354.40,312.70 354.75,312.55 355.67,314.07 356.13,313.84 356.64,314.54 360.67,312.96 362.27,313.15 363.13,313.79 363.57,316.03 362.65,315.49 361.43,316.05 359.68,317.65 359.91,318.59 359.95,318.72"/>
  </g>
  <g>
  </g>
  <g>
    <text x="1092" y="186" font-family="Helvetica, Arial, sans-serif" font-size="18" font-weight="700" fill="#16324f">Слои и длины</text>
    <line x1="1092" y1="224" x2="1126" y2="224" stroke="#7a8b99" stroke-width="1.80" stroke-opacity="0.85" stroke-dasharray="8 6"/>
    <text x="1138" y="222" font-family="Helvetica, Arial, sans-serif" font-size="13" fill="#16324f">Реальная загруженная</text>
    <text x="1138" y="237" font-family="Helvetica, Arial, sans-serif" font-size="13" fill="#16324f">полилиния (справочно)</text>
    <text x="1138" y="254" font-family="Helvetica, Arial, sans-serif" font-size="12" fill="#6b7a87">6391 км</text>
    <line x1="1092" y1="268" x2="1356" y2="268" stroke="#ddd6c8" stroke-width="1"/>
    <line x1="1092" y1="292" x2="1126" y2="292" stroke="#1f6f8b" stroke-width="3.60" stroke-opacity="1.00"/>
    <text x="1138" y="290" font-family="Helvetica, Arial, sans-serif" font-size="13" fill="#16324f">Упрощённая база модели</text>
    <text x="1138" y="305" font-family="Helvetica, Arial, sans-serif" font-size="13" fill="#16324f">(итерация 0)</text>
    <text x="1138" y="322" font-family="Helvetica, Arial, sans-serif" font-size="12" fill="#6b7a87">6135 км</text>
  </g>
  <g>
    <rect x="1092" y="364" width="264" height="108" rx="18" fill="#f8f6ef" stroke="#d6d0c4"/>
    <text x="1106" y="384" font-family="Helvetica, Arial, sans-serif" font-size="14" font-weight="700" fill="#16324f">Контроль геометрии</text>
    <text x="1106" y="416" font-family="Helvetica, Arial, sans-serif" font-size="12" fill="#4f6d7a">Сегменты &gt; 450 км</text>
    <text x="1342" y="416" text-anchor="end" font-family="Helvetica, Arial, sans-serif" font-size="13" font-weight="700" fill="#3f6b4b">0</text>
    <line x1="1106" y1="420" x2="1342" y2="420" stroke="#e7e1d5" stroke-width="1"/>
    <text x="1106" y="438" font-family="Helvetica, Arial, sans-serif" font-size="12" fill="#4f6d7a">Повторы ориентиров</text>
    <text x="1342" y="438" text-anchor="end" font-family="Helvetica, Arial, sans-serif" font-size="13" font-weight="700" fill="#3f6b4b">0</text>
    <line x1="1106" y1="442" x2="1342" y2="442" stroke="#e7e1d5" stroke-width="1"/>
    <text x="1106" y="460" font-family="Helvetica, Arial, sans-serif" font-size="12" fill="#4f6d7a">Автоисправления</text>
    <text x="1342" y="460" text-anchor="end" font-family="Helvetica, Arial, sans-serif" font-size="13" font-weight="700" fill="#3f6b4b">0</text>
  </g>
  <g>
    <rect x="1092" y="490" width="264" height="126" rx="18" fill="#fcfbf7" stroke="#d6d0c4"/>
    <text x="1106" y="510" font-family="Helvetica, Arial, sans-serif" font-size="14" font-weight="700" fill="#16324f">Длина по итерациям</text>
    <line x1="1106" y1="521" x2="1122" y2="521" stroke="#1f6f8b" stroke-width="2.2"/>
    <text x="1128" y="525" font-family="Helvetica, Arial, sans-serif" font-size="11" fill="#4f6d7a">Измерено</text>
    <line x1="1106" y1="534.00" x2="1342" y2="534.00" stroke="#ddd6c8" stroke-width="1"/>
    <line x1="1106" y1="564.00" x2="1342" y2="564.00" stroke="#ddd6c8" stroke-width="1"/>
    <line x1="1106" y1="594.00" x2="1342" y2="594.00" stroke="#ddd6c8" stroke-width="1"/>
    <line x1="1106" y1="594" x2="1342" y2="594" stroke="#8a9aa6" stroke-width="1.4"/>
    <text x="1106" y="528" font-family="Helvetica, Arial, sans-serif" font-size="11" fill="#6b7a87">6442</text>
    <text x="1106" y="608" font-family="Helvetica, Arial, sans-serif" font-size="11" fill="#6b7a87">5828</text>
    <text x="1106" y="606" font-family="Helvetica, Arial, sans-serif" font-size="11" fill="#6b7a87">0</text>
    <text x="1342" y="606" text-anchor="end" font-family="Helvetica, Arial, sans-serif" font-size="11" fill="#6b7a87">0</text>
    <polyline fill="none" stroke="#1f6f8b" stroke-width="2.4" stroke-linecap="round" stroke-linejoin="round" points="1106.00,564.00"/>
    <circle cx="1106.00" cy="564.00" r="2.8" fill="#1f6f8b"/>
  </g>
  <g>
  </g>
  <g>
    <rect x="1092" y="660" width="264" height="186" rx="18" fill="#f8f6ef" stroke="#d6d0c4"/>
    <text x="1106" y="680" font-family="Helvetica, Arial, sans-serif" font-size="14" font-weight="700" fill="#16324f">Сводка</text>
    <text x="1106" y="702" font-family="Helvetica, Arial, sans-serif" font-size="12" fill="#4f6d7a">Реальная линия: 6391 км, 9635 т.</text>
    <line x1="1106" y1="722" x2="1342" y2="722" stroke="#e7e1d5" stroke-width="1"/>
    <text x="1106" y="730" font-family="Helvetica, Arial, sans-serif" font-size="12" fill="#4f6d7a">База модели: 6135 км, 3071 т.</text>
    <text x="1106" y="746" font-family="Helvetica, Arial, sans-serif" font-size="12" fill="#4f6d7a">(-4.0% к реальной)</text>
    <line x1="1106" y1="766" x2="1342" y2="766" stroke="#e7e1d5" stroke-width="1"/>
    <text x="1106" y="774" font-family="Helvetica, Arial, sans-serif" font-size="12" fill="#4f6d7a">Текущий слой: 6135 км, 3071 т.</text>
    <text x="1106" y="790" font-family="Helvetica, Arial, sans-serif" font-size="12" fill="#4f6d7a">расчёт / 1800 т. SVG</text>
    <line x1="1106" y1="810" x2="1342" y2="810" stroke="#e7e1d5" stroke-width="1"/>
    <text x="1106" y="818" font-family="Helvetica, Arial, sans-serif" font-size="12" fill="#4f6d7a">Эрозия: σ=10 м, seed=42</text>
  </g>
  <g>
    <line x1="56" y1="804" x2="479" y2="804" stroke="#16324f" stroke-width="3"/>
    <line x1="56" y1="797" x2="56" y2="811" stroke="#16324f" stroke-width="6"/>
    <line x1="479" y1="797" x2="479" y2="811" stroke="#16324f" stroke-width="6"/>
    <text x="56" y="790" font-family="Helvetica, Arial, sans-serif" font-size="13" fill="#16324f">Масштаб ≈ 500 км</text>  </g>
</svg>
