<?xml version="1.0" encoding="UTF-8"?>
<svg xmlns="http://www.w3.org/2000/svg" width="1440" height="938" viewBox="0 0 1440 938">
  <rect width="100%" height="100%" fill="#f7f4ea"/>
  <rect x="20" y="20" width="1400" height="898" rx="28" fill="#fcfbf7" stroke="#d6d0c4"/>
  <rect x="1072" y="20" width="304" height="898" rx="24" fill="#f0ece2" stroke="#d6d0c4"/>
  <g>
  <text x="56" y="58" font-family="Helvetica, Arial, sans-serif" font-size="30" font-weight="700" fill="#16324f">Эрозия — шаг 2</text>
  <text x="56" y="108" font-family="Helvetica, Arial, sans-serif" font-size="14" fill="#4f6d7a">Серая пунктирная линия показывает реальную загруженную береговую линию; цветные слои — результаты пошаговой эрозии</text>
  <text x="56" y="134" font-family="Helvetica, Arial, sans-serif" font-size="13" fill="#6b7a87">SVG содержит исходную полилинию, фрактальные итерации, масштаб и длину по слоям.</text>
  </g>
  <g>
    <line x1="56.00" y1="711.25" x2="1064.00" y2="711.25" stroke="#d6d0c4" stroke-width="0.8" stroke-opacity="0.50" stroke-dasharray="3 3"/>
    <text x="48" y="714" font-family="Helvetica, Arial, sans-serif" font-size="9.0" fill="#8a9aa6" text-anchor="end">41°0'N</text>
    <line x1="56.00" y1="697.72" x2="1064.00" y2="697.72" stroke="#d6d0c4" stroke-width="0.8" stroke-opacity="0.50" stroke-dasharray="3 3"/>
    <text x="48" y="701" font-family="Helvetica, Arial, sans-serif" font-size="9.0" fill="#8a9aa6" text-anchor="end">41°12'N</text>
    <line x1="56.00" y1="684.20" x2="1064.00" y2="684.20" stroke="#d6d0c4" stroke-width="0.8" stroke-opacity="0.50" stroke-dasharray="3 3"/>
    <text x="48" y="687" font-family="Helvetica, Arial, sans-serif" font-size="9.0" fill="#8a9aa6" text-anchor="end">41°24'N</text>
    <line x1="56.00" y1="670.68" x2="1064.00" y2="670.68" stroke="#d6d0c4" stroke-width="0.8" stroke-opacity="0.50" stroke-dasharray="3 3"/>
    <text x="48" y="674" font-family="Helvetica, Arial, sans-serif" font-size="9.0" fill="#8a9aa6" text-anchor="end">41°36'N</text>
    <line x1="56.00" y1="657.16" x2="1064.00" y2="657.16" stroke="#d6d0c4" stroke-width="0.8" stroke-opacity="0.50" stroke-dasharray="3 3"/>
    <text x="48" y="660" font-family="Helvetica, Arial, sans-serif" font-size="9.0" fill="#8a9aa6" text-anchor="end">41°48'N</text>
    <line x1="56.00" y1="643.64" x2="1064.00" y2="643.64" stroke="#d6d0c4" stroke-width="0.8" stroke-opacity="0.50" stroke-dasharray="3 3"/>
    <text x="48" y="647" font-family="Helvetica, Arial, sans-serif" font-size="9.0" fill="#8a9aa6" text-anchor="end">42°0'N</text>
    <line x1="56.00" y1="630.11" x2="1064.00" y2="630.11" stroke="#d6d0c4" stroke-width="0.8" stroke-opacity="0.50" stroke-dasharray="3 3"/>
    <text x="48" y="633" font-family="Helvetica, Arial, sans-serif" font-size="9.0" fill="#8a9aa6" text-anchor="end">42°12'N</text>
    <line x1="56.00" y1="616.59" x2="1064.00" y2="616.59" stroke="#d6d0c4" stroke-width="0.8" stroke-opacity="0.50" stroke-dasharray="3 3"/>
    <text x="48" y="620" font-family="Helvetica, Arial, sans-serif" font-size="9.0" fill="#8a9aa6" text-anchor="end">42°24'N</text>
    <line x1="56.00" y1="603.07" x2="1064.00" y2="603.07" stroke="#d6d0c4" stroke-width="0.8" stroke-opacity="0.50" stroke-dasharray="3 3"/>
    <text x="48" y="606" font-family="Helvetica, Arial, sans-serif" font-size="9.0" fill="#8a9aa6" text-anchor="end">42°36'N</text>
    <line x1="56.00" y1="589.55" x2="1064.00" y2="589.55" stroke="#d6d0c4" stroke-width="0.8" stroke-opacity="0.50" stroke-dasharray="3 3"/>
    <text x="48" y="593" font-family="Helvetica, Arial, sans-serif" font-size="9.0" fill="#8a9aa6" text-anchor="end">42°48'N</text>
    <line x1="56.00" y1="576.02" x2="1064.00" y2="576.02" stroke="#d6d0c4" stroke-width="0.8" stroke-opacity="0.50" stroke-dasharray="3 3"/>
    <text x="48" y="579" font-family="Helvetica, Arial, sans-serif" font-size="9.0" fill="#8a9aa6" text-anchor="end">43°0'N</text>
    <line x1="56.00" y1="562.50" x2="1064.00" y2="562.50" stroke="#d6d0c4" stroke-width="0.8" stroke-opacity="0.50" stroke-dasharray="3 3"/>
    <text x="48" y="566" font-family="Helvetica, Arial, sans-serif" font-size="9.0" fill="#8a9aa6" text-anchor="end">43°12'N</text>
    <line x1="56.00" y1="548.98" x2="1064.00" y2="548.98" stroke="#d6d0c4" stroke-width="0.8" stroke-opacity="0.50" stroke-dasharray="3 3"/>
    <text x="48" y="552" font-family="Helvetica, Arial, sans-serif" font-size="9.0" fill="#8a9aa6" text-anchor="end">43°24'N</text>
    <line x1="56.00" y1="535.46" x2="1064.00" y2="535.46" stroke="#d6d0c4" stroke-width="0.8" stroke-opacity="0.50" stroke-dasharray="3 3"/>
    <text x="48" y="538" font-family="Helvetica, Arial, sans-serif" font-size="9.0" fill="#8a9aa6" text-anchor="end">43°36'N</text>
    <line x1="56.00" y1="521.94" x2="1064.00" y2="521.94" stroke="#d6d0c4" stroke-width="0.8" stroke-opacity="0.50" stroke-dasharray="3 3"/>
    <text x="48" y="525" font-family="Helvetica, Arial, sans-serif" font-size="9.0" fill="#8a9aa6" text-anchor="end">43°48'N</text>
    <line x1="56.00" y1="508.41" x2="1064.00" y2="508.41" stroke="#d6d0c4" stroke-width="0.8" stroke-opacity="0.50" stroke-dasharray="3 3"/>
    <text x="48" y="511" font-family="Helvetica, Arial, sans-serif" font-size="9.0" fill="#8a9aa6" text-anchor="end">44°0'N</text>
    <line x1="56.00" y1="494.89" x2="1064.00" y2="494.89" stroke="#d6d0c4" stroke-width="0.8" stroke-opacity="0.50" stroke-dasharray="3 3"/>
    <text x="48" y="498" font-family="Helvetica, Arial, sans-serif" font-size="9.0" fill="#8a9aa6" text-anchor="end">44°12'N</text>
    <line x1="56.00" y1="481.37" x2="1064.00" y2="481.37" stroke="#d6d0c4" stroke-width="0.8" stroke-opacity="0.50" stroke-dasharray="3 3"/>
    <text x="48" y="484" font-family="Helvetica, Arial, sans-serif" font-size="9.0" fill="#8a9aa6" text-anchor="end">44°24'N</text>
    <line x1="56.00" y1="467.85" x2="1064.00" y2="467.85" stroke="#d6d0c4" stroke-width="0.8" stroke-opacity="0.50" stroke-dasharray="3 3"/>
    <text x="48" y="471" font-family="Helvetica, Arial, sans-serif" font-size="9.0" fill="#8a9aa6" text-anchor="end">44°36'N</text>
    <line x1="56.00" y1="454.32" x2="1064.00" y2="454.32" stroke="#d6d0c4" stroke-width="0.8" stroke-opacity="0.50" stroke-dasharray="3 3"/>
    <text x="48" y="457" font-family="Helvetica, Arial, sans-serif" font-size="9.0" fill="#8a9aa6" text-anchor="end">44°48'N</text>
    <line x1="56.00" y1="440.80" x2="1064.00" y2="440.80" stroke="#d6d0c4" stroke-width="0.8" stroke-opacity="0.50" stroke-dasharray="3 3"/>
    <text x="48" y="444" font-family="Helvetica, Arial, sans-serif" font-size="9.0" fill="#8a9aa6" text-anchor="end">45°0'N</text>
    <line x1="56.00" y1="427.28" x2="1064.00" y2="427.28" stroke="#d6d0c4" stroke-width="0.8" stroke-opacity="0.50" stroke-dasharray="3 3"/>
    <text x="48" y="430" font-family="Helvetica, Arial, sans-serif" font-size="9.0" fill="#8a9aa6" text-anchor="end">45°12'N</text>
    <line x1="56.00" y1="413.76" x2="1064.00" y2="413.76" stroke="#d6d0c4" stroke-width="0.8" stroke-opacity="0.50" stroke-dasharray="3 3"/>
    <text x="48" y="417" font-family="Helvetica, Arial, sans-serif" font-size="9.0" fill="#8a9aa6" text-anchor="end">45°24'N</text>
    <line x1="56.00" y1="400.24" x2="1064.00" y2="400.24" stroke="#d6d0c4" stroke-width="0.8" stroke-opacity="0.50" stroke-dasharray="3 3"/>
    <text x="48" y="403" font-family="Helvetica, Arial, sans-serif" font-size="9.0" fill="#8a9aa6" text-anchor="end">45°36'N</text>
    <line x1="56.00" y1="386.71" x2="1064.00" y2="386.71" stroke="#d6d0c4" stroke-width="0.8" stroke-opacity="0.50" stroke-dasharray="3 3"/>
    <text x="48" y="390" font-family="Helvetica, Arial, sans-serif" font-size="9.0" fill="#8a9aa6" text-anchor="end">45°48'N</text>
    <line x1="56.00" y1="373.19" x2="1064.00" y2="373.19" stroke="#d6d0c4" stroke-width="0.8" stroke-opacity="0.50" stroke-dasharray="3 3"/>
    <text x="48" y="376" font-family="Helvetica, Arial, sans-serif" font-size="9.0" fill="#8a9aa6" text-anchor="end">46°0'N</text>
    <line x1="56.00" y1="359.67" x2="1064.00" y2="359.67" stroke="#d6d0c4" stroke-width="0.8" stroke-opacity="0.50" stroke-dasharray="3 3"/>
    <text x="48" y="363" font-family="Helvetica, Arial, sans-serif" font-size="9.0" fill="#8a9aa6" text-anchor="end">46°12'N</text>
    <line x1="56.00" y1="346.15" x2="1064.00" y2="346.15" stroke="#d6d0c4" stroke-width="0.8" stroke-opacity="0.50" stroke-dasharray="3 3"/>
    <text x="48" y="349" font-family="Helvetica, Arial, sans-serif" font-size="9.0" fill="#8a9aa6" text-anchor="end">46°24'N</text>
    <line x1="56.00" y1="332.62" x2="1064.00" y2="332.62" stroke="#d6d0c4" stroke-width="0.8" stroke-opacity="0.50" stroke-dasharray="3 3"/>
    <text x="48" y="336" font-family="Helvetica, Arial, sans-serif" font-size="9.0" fill="#8a9aa6" text-anchor="end">46°36'N</text>
    <line x1="56.00" y1="319.10" x2="1064.00" y2="319.10" stroke="#d6d0c4" stroke-width="0.8" stroke-opacity="0.50" stroke-dasharray="3 3"/>
    <text x="48" y="322" font-family="Helvetica, Arial, sans-serif" font-size="9.0" fill="#8a9aa6" text-anchor="end">46°48'N</text>
    <line x1="56.00" y1="305.58" x2="1064.00" y2="305.58" stroke="#d6d0c4" stroke-width="0.8" stroke-opacity="0.50" stroke-dasharray="3 3"/>
    <text x="48" y="309" font-family="Helvetica, Arial, sans-serif" font-size="9.0" fill="#8a9aa6" text-anchor="end">47°0'N</text>
    <line x1="56.00" y1="292.06" x2="1064.00" y2="292.06" stroke="#d6d0c4" stroke-width="0.8" stroke-opacity="0.50" stroke-dasharray="3 3"/>
    <text x="48" y="295" font-family="Helvetica, Arial, sans-serif" font-size="9.0" fill="#8a9aa6" text-anchor="end">47°12'N</text>
    <line x1="66.57" y1="284.60" x2="66.57" y2="717.40" stroke="#d6d0c4" stroke-width="0.8" stroke-opacity="0.50" stroke-dasharray="3 3"/>
    <text x="67" y="731" font-family="Helvetica, Arial, sans-serif" font-size="9.0" fill="#8a9aa6" text-anchor="middle" transform="rotate(-45, 67, 731)">27°36'E</text>
    <line x1="80.09" y1="284.60" x2="80.09" y2="717.40" stroke="#d6d0c4" stroke-width="0.8" stroke-opacity="0.50" stroke-dasharray="3 3"/>
    <text x="80" y="731" font-family="Helvetica, Arial, sans-serif" font-size="9.0" fill="#8a9aa6" text-anchor="middle" transform="rotate(-45, 80, 731)">27°48'E</text>
    <line x1="93.61" y1="284.60" x2="93.61" y2="717.40" stroke="#d6d0c4" stroke-width="0.8" stroke-opacity="0.50" stroke-dasharray="3 3"/>
    <text x="94" y="731" font-family="Helvetica, Arial, sans-serif" font-size="9.0" fill="#8a9aa6" text-anchor="middle" transform="rotate(-45, 94, 731)">28°0'E</text>
    <line x1="107.13" y1="284.60" x2="107.13" y2="717.40" stroke="#d6d0c4" stroke-width="0.8" stroke-opacity="0.50" stroke-dasharray="3 3"/>
    <text x="107" y="731" font-family="Helvetica, Arial, sans-serif" font-size="9.0" fill="#8a9aa6" text-anchor="middle" transform="rotate(-45, 107, 731)">28°12'E</text>
    <line x1="120.66" y1="284.60" x2="120.66" y2="717.40" stroke="#d6d0c4" stroke-width="0.8" stroke-opacity="0.50" stroke-dasharray="3 3"/>
    <text x="121" y="731" font-family="Helvetica, Arial, sans-serif" font-size="9.0" fill="#8a9aa6" text-anchor="middle" transform="rotate(-45, 121, 731)">28°24'E</text>
    <line x1="134.18" y1="284.60" x2="134.18" y2="717.40" stroke="#d6d0c4" stroke-width="0.8" stroke-opacity="0.50" stroke-dasharray="3 3"/>
    <text x="134" y="731" font-family="Helvetica, Arial, sans-serif" font-size="9.0" fill="#8a9aa6" text-anchor="middle" transform="rotate(-45, 134, 731)">28°36'E</text>
    <line x1="147.70" y1="284.60" x2="147.70" y2="717.40" stroke="#d6d0c4" stroke-width="0.8" stroke-opacity="0.50" stroke-dasharray="3 3"/>
    <text x="148" y="731" font-family="Helvetica, Arial, sans-serif" font-size="9.0" fill="#8a9aa6" text-anchor="middle" transform="rotate(-45, 148, 731)">28°48'E</text>
    <line x1="161.22" y1="284.60" x2="161.22" y2="717.40" stroke="#d6d0c4" stroke-width="0.8" stroke-opacity="0.50" stroke-dasharray="3 3"/>
    <text x="161" y="731" font-family="Helvetica, Arial, sans-serif" font-size="9.0" fill="#8a9aa6" text-anchor="middle" transform="rotate(-45, 161, 731)">28°60'E</text>
    <line x1="174.74" y1="284.60" x2="174.74" y2="717.40" stroke="#d6d0c4" stroke-width="0.8" stroke-opacity="0.50" stroke-dasharray="3 3"/>
    <text x="175" y="731" font-family="Helvetica, Arial, sans-serif" font-size="9.0" fill="#8a9aa6" text-anchor="middle" transform="rotate(-45, 175, 731)">29°12'E</text>
    <line x1="188.27" y1="284.60" x2="188.27" y2="717.40" stroke="#d6d0c4" stroke-width="0.8" stroke-opacity="0.50" stroke-dasharray="3 3"/>
    <text x="188" y="731" font-family="Helvetica, Arial, sans-serif" font-size="9.0" fill="#8a9aa6" text-anchor="middle" transform="rotate(-45, 188, 731)">29°24'E</text>
    <line x1="201.79" y1="284.60" x2="201.79" y2="717.40" stroke="#d6d0c4" stroke-width="0.8" stroke-opacity="0.50" stroke-dasharray="3 3"/>
    <text x="202" y="731" font-family="Helvetica, Arial, sans-serif" font-size="9.0" fill="#8a9aa6" text-anchor="middle" transform="rotate(-45, 202, 731)">29°36'E</text>
    <line x1="215.31" y1="284.60" x2="215.31" y2="717.40" stroke="#d6d0c4" stroke-width="0.8" stroke-opacity="0.50" stroke-dasharray="3 3"/>
    <text x="215" y="731" font-family="Helvetica, Arial, sans-serif" font-size="9.0" fill="#8a9aa6" text-anchor="middle" transform="rotate(-45, 215, 731)">29°48'E</text>
    <line x1="228.83" y1="284.60" x2="228.83" y2="717.40" stroke="#d6d0c4" stroke-width="0.8" stroke-opacity="0.50" stroke-dasharray="3 3"/>
    <text x="229" y="731" font-family="Helvetica, Arial, sans-serif" font-size="9.0" fill="#8a9aa6" text-anchor="middle" transform="rotate(-45, 229, 731)">29°60'E</text>
    <line x1="242.36" y1="284.60" x2="242.36" y2="717.40" stroke="#d6d0c4" stroke-width="0.8" stroke-opacity="0.50" stroke-dasharray="3 3"/>
    <text x="242" y="731" font-family="Helvetica, Arial, sans-serif" font-size="9.0" fill="#8a9aa6" text-anchor="middle" transform="rotate(-45, 242, 731)">30°12'E</text>
    <line x1="255.88" y1="284.60" x2="255.88" y2="717.40" stroke="#d6d0c4" stroke-width="0.8" stroke-opacity="0.50" stroke-dasharray="3 3"/>
    <text x="256" y="731" font-family="Helvetica, Arial, sans-serif" font-size="9.0" fill="#8a9aa6" text-anchor="middle" transform="rotate(-45, 256, 731)">30°24'E</text>
    <line x1="269.40" y1="284.60" x2="269.40" y2="717.40" stroke="#d6d0c4" stroke-width="0.8" stroke-opacity="0.50" stroke-dasharray="3 3"/>
    <text x="269" y="731" font-family="Helvetica, Arial, sans-serif" font-size="9.0" fill="#8a9aa6" text-anchor="middle" transform="rotate(-45, 269, 731)">30°36'E</text>
    <line x1="282.92" y1="284.60" x2="282.92" y2="717.40" stroke="#d6d0c4" stroke-width="0.8" stroke-opacity="0.50" stroke-dasharray="3 3"/>
    <text x="283" y="731" font-family="Helvetica, Arial, sans-serif" font-size="9.0" fill="#8a9aa6" text-anchor="middle" transform="rotate(-45, 283, 731)">30°48'E</text>
    <line x1="296.44" y1="284.60" x2="296.44" y2="717.40" stroke="#d6d0c4" stroke-width="0.8" stroke-opacity="0.50" stroke-dasharray="3 3"/>
    <text x="296" y="731" font-family="Helvetica, Arial, sans-serif" font-size="9.0" fill="#8a9aa6" text-anchor="middle" transform="rotate(-45, 296, 731)">30°60'E</text>
    <line x1="309.97" y1="284.60" x2="309.97" y2="717.40" stroke="#d6d0c4" stroke-width="0.8" stroke-opacity="0.50" stroke-dasharray="3 3"/>
    <text x="310" y="731" font-family="Helvetica, Arial, sans-serif" font-size="9.0" fill="#8a9aa6" text-anchor="middle" transform="rotate(-45, 310, 731)">31°12'E</text>
    <line x1="323.49" y1="284.60" x2="323.49" y2="717.40" stroke="#d6d0c4" stroke-width="0.8" stroke-opacity="0.50" stroke-dasharray="3 3"/>
    <text x="323" y="731" font-family="Helvetica, Arial, sans-serif" font-size="9.0" fill="#8a9aa6" text-anchor="middle" transform="rotate(-45, 323, 731)">31°24'E</text>
    <line x1="337.01" y1="284.60" x2="337.01" y2="717.40" stroke="#d6d0c4" stroke-width="0.8" stroke-opacity="0.50" stroke-dasharray="3 3"/>
    <text x="337" y="731" font-family="Helvetica, Arial, sans-serif" font-size="9.0" fill="#8a9aa6" text-anchor="middle" transform="rotate(-45, 337, 731)">31°36'E</text>
    <line x1="350.53" y1="284.60" x2="350.53" y2="717.40" stroke="#d6d0c4" stroke-width="0.8" stroke-opacity="0.50" stroke-dasharray="3 3"/>
    <text x="351" y="731" font-family="Helvetica, Arial, sans-serif" font-size="9.0" fill="#8a9aa6" text-anchor="middle" transform="rotate(-45, 351, 731)">31°48'E</text>
    <line x1="364.05" y1="284.60" x2="364.05" y2="717.40" stroke="#d6d0c4" stroke-width="0.8" stroke-opacity="0.50" stroke-dasharray="3 3"/>
    <text x="364" y="731" font-family="Helvetica, Arial, sans-serif" font-size="9.0" fill="#8a9aa6" text-anchor="middle" transform="rotate(-45, 364, 731)">31°60'E</text>
    <line x1="377.58" y1="284.60" x2="377.58" y2="717.40" stroke="#d6d0c4" stroke-width="0.8" stroke-opacity="0.50" stroke-dasharray="3 3"/>
    <text x="378" y="731" font-family="Helvetica, Arial, sans-serif" font-size="9.0" fill="#8a9aa6" text-anchor="middle" transform="rotate(-45, 378, 731)">32°12'E</text>
    <line x1="391.10" y1="284.60" x2="391.10" y2="717.40" stroke="#d6d0c4" stroke-width="0.8" stroke-opacity="0.50" stroke-dasharray="3 3"/>
    <text x="391" y="731" font-family="Helvetica, Arial, sans-serif" font-size="9.0" fill="#8a9aa6" text-anchor="middle" transform="rotate(-45, 391, 731)">32°24'E</text>
    <line x1="404.62" y1="284.60" x2="404.62" y2="717.40" stroke="#d6d0c4" stroke-width="0.8" stroke-opacity="0.50" stroke-dasharray="3 3"/>
    <text x="405" y="731" font-family="Helvetica, Arial, sans-serif" font-size="9.0" fill="#8a9aa6" text-anchor="middle" transform="rotate(-45, 405, 731)">32°36'E</text>
    <line x1="418.14" y1="284.60" x2="418.14" y2="717.40" stroke="#d6d0c4" stroke-width="0.8" stroke-opacity="0.50" stroke-dasharray="3 3"/>
    <text x="418" y="731" font-family="Helvetica, Arial, sans-serif" font-size="9.0" fill="#8a9aa6" text-anchor="middle" transform="rotate(-45, 418, 731)">32°48'E</text>
    <line x1="431.67" y1="284.60" x2="431.67" y2="717.40" stroke="#d6d0c4" stroke-width="0.8" stroke-opacity="0.50" stroke-dasharray="3 3"/>
    <text x="432" y="731" font-family="Helvetica, Arial, sans-serif" font-size="9.0" fill="#8a9aa6" text-anchor="middle" transform="rotate(-45, 432, 731)">33°0'E</text>
    <line x1="445.19" y1="284.60" x2="445.19" y2="717.40" stroke="#d6d0c4" stroke-width="0.8" stroke-opacity="0.50" stroke-dasharray="3 3"/>
    <text x="445" y="731" font-family="Helvetica, Arial, sans-serif" font-size="9.0" fill="#8a9aa6" text-anchor="middle" transform="rotate(-45, 445, 731)">33°12'E</text>
    <line x1="458.71" y1="284.60" x2="458.71" y2="717.40" stroke="#d6d0c4" stroke-width="0.8" stroke-opacity="0.50" stroke-dasharray="3 3"/>
    <text x="459" y="731" font-family="Helvetica, Arial, sans-serif" font-size="9.0" fill="#8a9aa6" text-anchor="middle" transform="rotate(-45, 459, 731)">33°24'E</text>
    <line x1="472.23" y1="284.60" x2="472.23" y2="717.40" stroke="#d6d0c4" stroke-width="0.8" stroke-opacity="0.50" stroke-dasharray="3 3"/>
    <text x="472" y="731" font-family="Helvetica, Arial, sans-serif" font-size="9.0" fill="#8a9aa6" text-anchor="middle" transform="rotate(-45, 472, 731)">33°36'E</text>
    <line x1="485.75" y1="284.60" x2="485.75" y2="717.40" stroke="#d6d0c4" stroke-width="0.8" stroke-opacity="0.50" stroke-dasharray="3 3"/>
    <text x="486" y="731" font-family="Helvetica, Arial, sans-serif" font-size="9.0" fill="#8a9aa6" text-anchor="middle" transform="rotate(-45, 486, 731)">33°48'E</text>
    <line x1="499.28" y1="284.60" x2="499.28" y2="717.40" stroke="#d6d0c4" stroke-width="0.8" stroke-opacity="0.50" stroke-dasharray="3 3"/>
    <text x="499" y="731" font-family="Helvetica, Arial, sans-serif" font-size="9.0" fill="#8a9aa6" text-anchor="middle" transform="rotate(-45, 499, 731)">34°0'E</text>
    <line x1="512.80" y1="284.60" x2="512.80" y2="717.40" stroke="#d6d0c4" stroke-width="0.8" stroke-opacity="0.50" stroke-dasharray="3 3"/>
    <text x="513" y="731" font-family="Helvetica, Arial, sans-serif" font-size="9.0" fill="#8a9aa6" text-anchor="middle" transform="rotate(-45, 513, 731)">34°12'E</text>
    <line x1="526.32" y1="284.60" x2="526.32" y2="717.40" stroke="#d6d0c4" stroke-width="0.8" stroke-opacity="0.50" stroke-dasharray="3 3"/>
    <text x="526" y="731" font-family="Helvetica, Arial, sans-serif" font-size="9.0" fill="#8a9aa6" text-anchor="middle" transform="rotate(-45, 526, 731)">34°24'E</text>
    <line x1="539.84" y1="284.60" x2="539.84" y2="717.40" stroke="#d6d0c4" stroke-width="0.8" stroke-opacity="0.50" stroke-dasharray="3 3"/>
    <text x="540" y="731" font-family="Helvetica, Arial, sans-serif" font-size="9.0" fill="#8a9aa6" text-anchor="middle" transform="rotate(-45, 540, 731)">34°36'E</text>
    <line x1="553.37" y1="284.60" x2="553.37" y2="717.40" stroke="#d6d0c4" stroke-width="0.8" stroke-opacity="0.50" stroke-dasharray="3 3"/>
    <text x="553" y="731" font-family="Helvetica, Arial, sans-serif" font-size="9.0" fill="#8a9aa6" text-anchor="middle" transform="rotate(-45, 553, 731)">34°48'E</text>
    <line x1="566.89" y1="284.60" x2="566.89" y2="717.40" stroke="#d6d0c4" stroke-width="0.8" stroke-opacity="0.50" stroke-dasharray="3 3"/>
    <text x="567" y="731" font-family="Helvetica, Arial, sans-serif" font-size="9.0" fill="#8a9aa6" text-anchor="middle" transform="rotate(-45, 567, 731)">35°0'E</text>
    <line x1="580.41" y1="284.60" x2="580.41" y2="717.40" stroke="#d6d0c4" stroke-width="0.8" stroke-opacity="0.50" stroke-dasharray="3 3"/>
    <text x="580" y="731" font-family="Helvetica, Arial, sans-serif" font-size="9.0" fill="#8a9aa6" text-anchor="middle" transform="rotate(-45, 580, 731)">35°12'E</text>
    <line x1="593.93" y1="284.60" x2="593.93" y2="717.40" stroke="#d6d0c4" stroke-width="0.8" stroke-opacity="0.50" stroke-dasharray="3 3"/>
    <text x="594" y="731" font-family="Helvetica, Arial, sans-serif" font-size="9.0" fill="#8a9aa6" text-anchor="middle" transform="rotate(-45, 594, 731)">35°24'E</text>
    <line x1="607.45" y1="284.60" x2="607.45" y2="717.40" stroke="#d6d0c4" stroke-width="0.8" stroke-opacity="0.50" stroke-dasharray="3 3"/>
    <text x="607" y="731" font-family="Helvetica, Arial, sans-serif" font-size="9.0" fill="#8a9aa6" text-anchor="middle" transform="rotate(-45, 607, 731)">35°36'E</text>
    <line x1="620.98" y1="284.60" x2="620.98" y2="717.40" stroke="#d6d0c4" stroke-width="0.8" stroke-opacity="0.50" stroke-dasharray="3 3"/>
    <text x="621" y="731" font-family="Helvetica, Arial, sans-serif" font-size="9.0" fill="#8a9aa6" text-anchor="middle" transform="rotate(-45, 621, 731)">35°48'E</text>
    <line x1="634.50" y1="284.60" x2="634.50" y2="717.40" stroke="#d6d0c4" stroke-width="0.8" stroke-opacity="0.50" stroke-dasharray="3 3"/>
    <text x="634" y="731" font-family="Helvetica, Arial, sans-serif" font-size="9.0" fill="#8a9aa6" text-anchor="middle" transform="rotate(-45, 634, 731)">36°0'E</text>
    <line x1="648.02" y1="284.60" x2="648.02" y2="717.40" stroke="#d6d0c4" stroke-width="0.8" stroke-opacity="0.50" stroke-dasharray="3 3"/>
    <text x="648" y="731" font-family="Helvetica, Arial, sans-serif" font-size="9.0" fill="#8a9aa6" text-anchor="middle" transform="rotate(-45, 648, 731)">36°12'E</text>
    <line x1="661.54" y1="284.60" x2="661.54" y2="717.40" stroke="#d6d0c4" stroke-width="0.8" stroke-opacity="0.50" stroke-dasharray="3 3"/>
    <text x="662" y="731" font-family="Helvetica, Arial, sans-serif" font-size="9.0" fill="#8a9aa6" text-anchor="middle" transform="rotate(-45, 662, 731)">36°24'E</text>
    <line x1="675.07" y1="284.60" x2="675.07" y2="717.40" stroke="#d6d0c4" stroke-width="0.8" stroke-opacity="0.50" stroke-dasharray="3 3"/>
    <text x="675" y="731" font-family="Helvetica, Arial, sans-serif" font-size="9.0" fill="#8a9aa6" text-anchor="middle" transform="rotate(-45, 675, 731)">36°36'E</text>
    <line x1="688.59" y1="284.60" x2="688.59" y2="717.40" stroke="#d6d0c4" stroke-width="0.8" stroke-opacity="0.50" stroke-dasharray="3 3"/>
    <text x="689" y="731" font-family="Helvetica, Arial, sans-serif" font-size="9.0" fill="#8a9aa6" text-anchor="middle" transform="rotate(-45, 689, 731)">36°48'E</text>
    <line x1="702.11" y1="284.60" x2="702.11" y2="717.40" stroke="#d6d0c4" stroke-width="0.8" stroke-opacity="0.50" stroke-dasharray="3 3"/>
    <text x="702" y="731" font-family="Helvetica, Arial, sans-serif" font-size="9.0" fill="#8a9aa6" text-anchor="middle" transform="rotate(-45, 702, 731)">37°0'E</text>
    <line x1="715.63" y1="284.60" x2="715.63" y2="717.40" stroke="#d6d0c4" stroke-width="0.8" stroke-opacity="0.50" stroke-dasharray="3 3"/>
    <text x="716" y="731" font-family="Helvetica, Arial, sans-serif" font-size="9.0" fill="#8a9aa6" text-anchor="middle" transform="rotate(-45, 716, 731)">37°12'E</text>
    <line x1="729.15" y1="284.60" x2="729.15" y2="717.40" stroke="#d6d0c4" stroke-width="0.8" stroke-opacity="0.50" stroke-dasharray="3 3"/>
    <text x="729" y="731" font-family="Helvetica, Arial, sans-serif" font-size="9.0" fill="#8a9aa6" text-anchor="middle" transform="rotate(-45, 729, 731)">37°24'E</text>
    <line x1="742.68" y1="284.60" x2="742.68" y2="717.40" stroke="#d6d0c4" stroke-width="0.8" stroke-opacity="0.50" stroke-dasharray="3 3"/>
    <text x="743" y="731" font-family="Helvetica, Arial, sans-serif" font-size="9.0" fill="#8a9aa6" text-anchor="middle" transform="rotate(-45, 743, 731)">37°36'E</text>
    <line x1="756.20" y1="284.60" x2="756.20" y2="717.40" stroke="#d6d0c4" stroke-width="0.8" stroke-opacity="0.50" stroke-dasharray="3 3"/>
    <text x="756" y="731" font-family="Helvetica, Arial, sans-serif" font-size="9.0" fill="#8a9aa6" text-anchor="middle" transform="rotate(-45, 756, 731)">37°48'E</text>
    <line x1="769.72" y1="284.60" x2="769.72" y2="717.40" stroke="#d6d0c4" stroke-width="0.8" stroke-opacity="0.50" stroke-dasharray="3 3"/>
    <text x="770" y="731" font-family="Helvetica, Arial, sans-serif" font-size="9.0" fill="#8a9aa6" text-anchor="middle" transform="rotate(-45, 770, 731)">38°0'E</text>
    <line x1="783.24" y1="284.60" x2="783.24" y2="717.40" stroke="#d6d0c4" stroke-width="0.8" stroke-opacity="0.50" stroke-dasharray="3 3"/>
    <text x="783" y="731" font-family="Helvetica, Arial, sans-serif" font-size="9.0" fill="#8a9aa6" text-anchor="middle" transform="rotate(-45, 783, 731)">38°12'E</text>
    <line x1="796.77" y1="284.60" x2="796.77" y2="717.40" stroke="#d6d0c4" stroke-width="0.8" stroke-opacity="0.50" stroke-dasharray="3 3"/>
    <text x="797" y="731" font-family="Helvetica, Arial, sans-serif" font-size="9.0" fill="#8a9aa6" text-anchor="middle" transform="rotate(-45, 797, 731)">38°24'E</text>
    <line x1="810.29" y1="284.60" x2="810.29" y2="717.40" stroke="#d6d0c4" stroke-width="0.8" stroke-opacity="0.50" stroke-dasharray="3 3"/>
    <text x="810" y="731" font-family="Helvetica, Arial, sans-serif" font-size="9.0" fill="#8a9aa6" text-anchor="middle" transform="rotate(-45, 810, 731)">38°36'E</text>
    <line x1="823.81" y1="284.60" x2="823.81" y2="717.40" stroke="#d6d0c4" stroke-width="0.8" stroke-opacity="0.50" stroke-dasharray="3 3"/>
    <text x="824" y="731" font-family="Helvetica, Arial, sans-serif" font-size="9.0" fill="#8a9aa6" text-anchor="middle" transform="rotate(-45, 824, 731)">38°48'E</text>
    <line x1="837.33" y1="284.60" x2="837.33" y2="717.40" stroke="#d6d0c4" stroke-width="0.8" stroke-opacity="0.50" stroke-dasharray="3 3"/>
    <text x="837" y="731" font-family="Helvetica, Arial, sans-serif" font-size="9.0" fill="#8a9aa6" text-anchor="middle" transform="rotate(-45, 837, 731)">39°0'E</text>
    <line x1="850.85" y1="284.60" x2="850.85" y2="717.40" stroke="#d6d0c4" stroke-width="0.8" stroke-opacity="0.50" stroke-dasharray="3 3"/>
    <text x="851" y="731" font-family="Helvetica, Arial, sans-serif" font-size="9.0" fill="#8a9aa6" text-anchor="middle" transform="rotate(-45, 851, 731)">39°12'E</text>
    <line x1="864.38" y1="284.60" x2="864.38" y2="717.40" stroke="#d6d0c4" stroke-width="0.8" stroke-opacity="0.50" stroke-dasharray="3 3"/>
    <text x="864" y="731" font-family="Helvetica, Arial, sans-serif" font-size="9.0" fill="#8a9aa6" text-anchor="middle" transform="rotate(-45, 864, 731)">39°24'E</text>
    <line x1="877.90" y1="284.60" x2="877.90" y2="717.40" stroke="#d6d0c4" stroke-width="0.8" stroke-opacity="0.50" stroke-dasharray="3 3"/>
    <text x="878" y="731" font-family="Helvetica, Arial, sans-serif" font-size="9.0" fill="#8a9aa6" text-anchor="middle" transform="rotate(-45, 878, 731)">39°36'E</text>
    <line x1="891.42" y1="284.60" x2="891.42" y2="717.40" stroke="#d6d0c4" stroke-width="0.8" stroke-opacity="0.50" stroke-dasharray="3 3"/>
    <text x="891" y="731" font-family="Helvetica, Arial, sans-serif" font-size="9.0" fill="#8a9aa6" text-anchor="middle" transform="rotate(-45, 891, 731)">39°48'E</text>
    <line x1="904.94" y1="284.60" x2="904.94" y2="717.40" stroke="#d6d0c4" stroke-width="0.8" stroke-opacity="0.50" stroke-dasharray="3 3"/>
    <text x="905" y="731" font-family="Helvetica, Arial, sans-serif" font-size="9.0" fill="#8a9aa6" text-anchor="middle" transform="rotate(-45, 905, 731)">40°0'E</text>
    <line x1="918.46" y1="284.60" x2="918.46" y2="717.40" stroke="#d6d0c4" stroke-width="0.8" stroke-opacity="0.50" stroke-dasharray="3 3"/>
    <text x="918" y="731" font-family="Helvetica, Arial, sans-serif" font-size="9.0" fill="#8a9aa6" text-anchor="middle" transform="rotate(-45, 918, 731)">40°12'E</text>
    <line x1="931.99" y1="284.60" x2="931.99" y2="717.40" stroke="#d6d0c4" stroke-width="0.8" stroke-opacity="0.50" stroke-dasharray="3 3"/>
    <text x="932" y="731" font-family="Helvetica, Arial, sans-serif" font-size="9.0" fill="#8a9aa6" text-anchor="middle" transform="rotate(-45, 932, 731)">40°24'E</text>
    <line x1="945.51" y1="284.60" x2="945.51" y2="717.40" stroke="#d6d0c4" stroke-width="0.8" stroke-opacity="0.50" stroke-dasharray="3 3"/>
    <text x="946" y="731" font-family="Helvetica, Arial, sans-serif" font-size="9.0" fill="#8a9aa6" text-anchor="middle" transform="rotate(-45, 946, 731)">40°36'E</text>
    <line x1="959.03" y1="284.60" x2="959.03" y2="717.40" stroke="#d6d0c4" stroke-width="0.8" stroke-opacity="0.50" stroke-dasharray="3 3"/>
    <text x="959" y="731" font-family="Helvetica, Arial, sans-serif" font-size="9.0" fill="#8a9aa6" text-anchor="middle" transform="rotate(-45, 959, 731)">40°48'E</text>
    <line x1="972.55" y1="284.60" x2="972.55" y2="717.40" stroke="#d6d0c4" stroke-width="0.8" stroke-opacity="0.50" stroke-dasharray="3 3"/>
    <text x="973" y="731" font-family="Helvetica, Arial, sans-serif" font-size="9.0" fill="#8a9aa6" text-anchor="middle" transform="rotate(-45, 973, 731)">41°0'E</text>
    <line x1="986.08" y1="284.60" x2="986.08" y2="717.40" stroke="#d6d0c4" stroke-width="0.8" stroke-opacity="0.50" stroke-dasharray="3 3"/>
    <text x="986" y="731" font-family="Helvetica, Arial, sans-serif" font-size="9.0" fill="#8a9aa6" text-anchor="middle" transform="rotate(-45, 986, 731)">41°12'E</text>
    <line x1="999.60" y1="284.60" x2="999.60" y2="717.40" stroke="#d6d0c4" stroke-width="0.8" stroke-opacity="0.50" stroke-dasharray="3 3"/>
    <text x="1000" y="731" font-family="Helvetica, Arial, sans-serif" font-size="9.0" fill="#8a9aa6" text-anchor="middle" transform="rotate(-45, 1000, 731)">41°24'E</text>
    <line x1="1013.12" y1="284.60" x2="1013.12" y2="717.40" stroke="#d6d0c4" stroke-width="0.8" stroke-opacity="0.50" stroke-dasharray="3 3"/>
    <text x="1013" y="731" font-family="Helvetica, Arial, sans-serif" font-size="9.0" fill="#8a9aa6" text-anchor="middle" transform="rotate(-45, 1013, 731)">41°36'E</text>
    <line x1="1026.64" y1="284.60" x2="1026.64" y2="717.40" stroke="#d6d0c4" stroke-width="0.8" stroke-opacity="0.50" stroke-dasharray="3 3"/>
    <text x="1027" y="731" font-family="Helvetica, Arial, sans-serif" font-size="9.0" fill="#8a9aa6" text-anchor="middle" transform="rotate(-45, 1027, 731)">41°48'E</text>
    <line x1="1040.16" y1="284.60" x2="1040.16" y2="717.40" stroke="#d6d0c4" stroke-width="0.8" stroke-opacity="0.50" stroke-dasharray="3 3"/>
    <text x="1040" y="731" font-family="Helvetica, Arial, sans-serif" font-size="9.0" fill="#8a9aa6" text-anchor="middle" transform="rotate(-45, 1040, 731)">42°0'E</text>
    <line x1="1053.69" y1="284.60" x2="1053.69" y2="717.40" stroke="#d6d0c4" stroke-width="0.8" stroke-opacity="0.50" stroke-dasharray="3 3"/>
    <text x="1054" y="731" font-family="Helvetica, Arial, sans-serif" font-size="9.0" fill="#8a9aa6" text-anchor="middle" transform="rotate(-45, 1054, 731)">42°12'E</text>
  </g>
  <g>
  </g>
  <g>
    <polyline fill="none" stroke="#7a8b99" stroke-width="1.80" stroke-opacity="0.85" stroke-linejoin="round" stroke-linecap="round" stroke-dasharray="8 6" points="359.94,309.72 361.39,310.13 361.97,309.62 363.59,309.38 363.30,309.18 364.65,309.20 365.80,311.04 364.81,312.74 364.92,314.08 362.96,315.08 362.59,315.48 363.10,315.67 362.28,316.31 360.75,316.46 360.74,318.72 358.82,319.91 359.78,320.59 359.01,321.25 360.26,320.83 359.61,322.67 360.75,323.02 362.49,325.21 362.00,327.20 362.68,328.57 365.85,330.95 367.59,331.63 370.07,331.50 371.36,332.01 373.57,335.54 380.95,333.16 383.86,334.30 384.98,335.81 390.18,336.18 395.67,334.63 396.23,333.07 395.94,334.55 398.35,333.00 400.82,332.90 399.44,332.30 399.70,331.76 400.65,331.63 400.92,332.01 401.64,331.35 402.58,331.33 402.23,331.68 402.71,331.66 402.88,332.24 402.19,332.00 401.47,332.40 401.05,332.03 401.09,332.87 403.88,332.36 403.84,331.84 404.30,332.15 409.24,328.62 413.05,327.54 417.72,327.46 426.15,323.57 430.00,322.96 434.09,322.90 441.21,320.03 450.70,320.15 452.42,320.84 455.39,320.19 456.86,320.76 455.45,321.78 451.12,322.57 440.99,320.39 434.66,323.20 426.33,323.94 419.50,327.43 415.37,328.27 411.11,328.50 409.03,329.20 406.32,331.01 405.10,332.07 405.59,332.35 404.75,332.37 400.43,336.83 398.42,336.75 395.16,339.09 391.24,339.17 386.67,340.39 383.42,340.15 385.86,340.92 385.23,341.47 385.86,341.60 388.75,340.30 391.52,339.71 392.91,339.94 391.50,341.27 388.80,341.89 384.77,341.68 380.19,340.69 377.40,340.73 375.13,340.12 377.09,340.26 374.22,338.75 373.76,338.86 374.55,339.24 374.53,339.89 371.36,339.33 365.56,340.36 365.40,339.66 365.19,340.21 363.40,340.05 357.74,338.65 357.55,337.96 358.07,337.78 356.35,337.30 357.17,338.20 355.54,338.46 350.69,337.55 347.48,336.24 341.41,336.89 335.67,336.90 332.75,335.82 331.04,334.17 333.22,336.50 339.58,340.22 344.15,343.91 343.52,343.36 344.44,343.61 343.37,343.11 343.76,341.56 344.69,340.77 346.96,340.18 356.36,341.97 360.92,343.52 359.21,342.75 361.55,343.11 360.06,342.61 360.91,342.69 362.18,343.27 360.85,343.21 361.97,343.47 364.17,342.52 365.87,343.21 366.63,345.07 368.08,346.34 367.67,347.32 366.41,347.67 365.69,347.28 364.52,348.91 361.33,349.99 357.18,350.66 356.60,350.63 358.89,350.41 353.11,350.55 349.46,351.37 349.75,351.57 347.99,352.37 347.62,353.22 348.19,352.95 348.87,353.37 349.45,354.57 349.14,355.29 350.11,354.60 349.93,354.21 350.40,354.72 351.29,354.45 351.56,355.25 352.57,354.23 353.00,354.47 352.50,354.74 353.42,354.61 353.73,355.05 355.07,354.58 355.50,355.31 357.01,353.51 356.54,352.97 356.30,353.52 355.87,353.40 355.76,352.08 356.99,351.85 356.97,352.89 360.02,353.24 359.34,353.21 360.39,353.56 360.64,354.54 361.29,354.74 360.67,354.58 360.87,354.93 361.20,355.23 361.76,354.95 361.30,355.23 362.08,355.80 363.64,355.95 364.17,355.31 363.94,356.07 364.80,356.29 365.59,356.41 365.15,356.01 365.67,355.80 366.04,356.49 367.19,355.80 368.75,356.82 368.57,356.38 369.22,356.38 370.16,358.16 370.91,358.14 370.73,358.46 371.86,359.13 372.85,359.25 372.73,358.91 373.20,359.54 375.17,359.55 377.54,361.45 377.10,360.88 377.85,360.95 377.87,360.50 378.79,360.34 380.26,360.85 380.82,361.83 380.24,361.96 380.07,361.43 379.66,361.80 380.19,363.06 379.38,364.21 367.51,361.71 391.70,367.09 400.80,368.77 401.01,367.69 404.84,366.54 407.72,366.02 409.69,366.47 413.67,365.91 416.08,364.93 420.06,365.74 423.20,365.25 425.59,366.13 433.52,365.69 433.96,365.53 432.84,365.44 432.67,364.97 433.66,363.86 433.16,362.90 434.40,362.61 436.26,362.80 437.32,364.07 440.84,364.76 444.15,362.64 444.94,361.43 444.35,360.03 445.18,360.49 446.85,358.61 445.56,361.44 447.07,362.77 445.81,363.48 445.07,365.38 445.40,365.94 445.98,366.03 445.77,364.66 446.60,364.21 448.55,363.80 450.87,364.19 452.33,364.91 452.82,365.80 452.12,366.95 450.65,366.66 450.90,367.98 453.01,368.04 452.49,367.87 452.83,366.17 454.05,365.45 454.98,366.66 456.81,367.16 456.47,368.14 460.14,371.11 460.85,371.13 460.23,370.85 460.47,370.42 461.89,370.38 462.98,369.80 465.59,371.28 466.65,371.08 464.93,369.61 465.29,368.10 466.55,367.65 470.01,368.11 466.60,366.54 466.17,365.00 466.94,365.37 468.19,365.12 468.59,363.96 469.99,363.85 470.80,362.53 471.82,362.56 472.92,363.48 475.11,367.90 473.90,368.49 473.25,369.58 474.43,375.56 473.46,376.84 474.78,377.09 474.88,376.63 476.19,376.23 481.69,376.42 482.56,376.71 483.01,377.63 482.32,378.11 480.71,378.17 478.79,379.46 478.31,379.14 477.74,379.37 477.87,383.75 476.17,381.89 474.96,381.72 473.17,380.63 470.91,382.15 470.05,382.05 468.42,384.31 467.75,383.60 465.70,384.00 465.11,383.02 464.26,383.13 460.10,384.64 460.08,385.24 459.79,384.87 459.53,385.24 459.75,385.94 459.37,385.25 455.99,387.57 449.57,389.74 446.30,389.83 444.18,388.82 442.98,387.59 442.25,390.74 441.14,392.11 436.31,393.15 428.71,396.03 424.55,398.16 419.80,400.90 419.56,401.33 420.87,401.38 421.26,401.97 420.03,403.27 420.26,403.69 419.48,403.01 418.52,403.36 418.47,403.72 419.19,403.63 419.33,404.35 415.85,405.05 418.35,403.44 417.38,402.81 412.22,405.04 412.10,405.97 410.82,406.33 411.33,405.92 410.83,405.45 403.62,408.30 400.49,410.08 396.46,414.01 397.17,414.77 398.37,414.92 398.98,415.82 397.50,417.43 408.22,419.50 413.40,416.74 416.82,415.96 425.23,416.36 428.50,417.47 430.51,418.72 430.65,418.38 426.63,416.55 429.58,417.02 430.66,416.43 430.95,417.32 432.20,416.64 432.45,415.95 434.77,415.74 434.87,415.01 436.09,414.55 438.25,414.74 438.13,414.36 440.50,413.32 440.95,412.58 441.73,412.67 442.34,411.41 443.79,411.16 444.41,410.47 445.55,410.87 443.87,411.94 443.07,411.51 441.78,413.28 439.55,414.26 440.60,414.57 439.30,414.55 438.44,415.80 437.23,415.81 437.05,415.34 435.96,415.68 434.81,417.12 436.33,417.15 436.43,417.50 435.74,417.94 435.54,417.51 435.01,417.88 433.59,417.75 434.27,418.65 433.51,418.67 433.18,419.99 430.86,418.84 436.33,422.29 439.28,425.13 441.08,425.99 441.87,427.14 444.20,428.32 446.95,428.92 449.07,430.76 450.72,430.76 452.34,429.04 455.48,428.98 457.63,427.49 459.64,427.75 461.66,428.67 465.45,431.06 469.65,435.06 472.30,440.28 472.58,442.08 472.09,442.55 473.11,446.27 472.75,449.49 471.76,451.26 470.37,451.80 469.12,451.60 468.86,452.00 468.90,453.58 467.74,454.94 468.71,459.17 468.58,463.06 467.90,464.85 466.60,465.36 466.12,466.17 469.71,466.19 471.69,466.98 467.72,466.73 467.42,467.82 467.28,466.63 466.82,466.91 465.99,466.44 465.38,467.19 463.74,467.04 463.58,467.76 463.31,467.09 462.21,467.24 461.98,468.15 461.37,467.50 460.19,468.28 461.18,469.74 459.78,468.69 459.50,470.28 459.30,469.41 458.83,469.91 458.90,468.46 457.26,469.00 459.77,471.31 463.24,473.11 464.59,474.80 465.44,474.38 469.25,475.47 471.94,474.90 473.32,475.45 474.67,476.51 475.61,479.63 477.21,480.19 479.54,479.97 481.57,482.27 484.27,482.31 489.88,480.92 497.30,481.98 500.41,480.88 501.57,481.01 503.75,479.87 507.87,479.45 510.71,474.95 516.28,474.17 518.14,471.85 519.97,471.06 522.76,471.38 522.91,469.03 524.35,468.41 524.69,467.05 527.47,462.87 530.44,460.24 535.39,458.46 536.70,457.54 538.93,457.06 540.16,456.18 550.76,453.20 556.39,453.31 558.21,452.84 560.81,453.29 561.38,452.32 564.76,451.58 566.16,452.33 566.96,451.94 569.01,452.32 570.36,453.40 570.03,454.27 572.46,454.89 575.74,452.79 576.12,450.32 577.76,447.83 583.24,446.24 584.00,444.96 583.62,443.91 584.22,443.33 585.55,442.92 586.75,443.44 588.73,442.89 590.65,443.26 590.76,443.76 592.95,444.41 593.29,443.88 591.93,443.80 590.83,442.50 591.00,441.80 591.57,441.21 595.68,439.94 592.94,438.73 593.65,436.66 597.22,434.10 603.16,432.26 608.48,432.24 616.10,434.53 621.64,437.86 621.78,439.34 623.17,439.92 622.96,440.54 623.66,440.89 628.58,439.46 631.44,439.96 633.48,439.09 634.70,437.94 636.54,437.43 649.75,438.91 651.57,437.40 655.31,436.83 659.76,436.83 664.56,434.90 665.19,433.98 677.31,431.29 682.89,432.67 684.24,433.42 689.76,432.81 695.47,433.71 711.87,438.54 719.80,442.45 723.58,446.14 723.60,447.37 722.15,448.19 725.07,451.02 725.20,452.58 727.90,455.41 728.23,456.91 727.60,457.13 729.24,457.56 729.72,458.41 734.74,461.48 739.13,462.71 740.07,462.56 743.84,463.42 746.20,463.20 749.32,464.32 751.92,464.49 755.74,463.57 756.90,462.51 755.49,461.34 755.24,459.56 754.69,459.58 755.56,458.81 755.91,459.18 756.28,458.82 756.29,459.61 757.34,459.53 756.67,459.91 757.57,459.45 758.31,459.73 758.29,460.08 759.05,460.13 758.81,460.72 759.61,460.77 761.61,462.47 763.88,463.37 765.08,464.79 763.28,465.78 765.16,467.70 768.63,469.59 768.64,470.00 771.64,470.56 772.01,470.11 771.45,469.05 772.92,468.86 774.09,469.41 774.79,470.72 772.99,471.23 778.22,474.50 779.95,477.47 781.44,478.12 783.36,480.22 784.69,480.64 789.47,480.85 792.39,482.14 792.84,482.79 795.08,483.47 797.84,483.06 808.11,484.79 810.54,485.91 811.52,485.91 812.45,486.66 817.03,487.50 818.06,488.11 820.20,488.08 823.22,489.41 828.32,495.12 829.62,495.81 831.25,495.79 834.65,497.14 837.23,497.49 838.96,499.19 839.71,501.84 842.41,502.15 842.33,502.59 843.39,502.90 847.46,506.95 857.28,512.29 859.58,515.02 861.00,515.57 864.42,518.21 868.78,522.90 876.63,528.44 878.43,530.90 884.06,533.33 885.65,536.59 886.75,537.55 893.11,540.15 896.84,542.30 899.75,547.87 901.52,549.01 904.54,549.98 910.37,550.55 915.89,553.01 921.52,554.69 923.02,558.16 923.71,563.15 927.95,566.09 929.73,564.69 931.72,564.29 936.75,566.59 940.23,566.51 944.23,569.87 948.50,569.19 951.77,570.18 955.93,570.09 963.10,570.86 964.49,571.63 970.38,577.25 971.03,577.27 972.16,576.30 975.42,576.33 977.87,579.34 979.76,586.64 982.68,589.80 984.67,590.16 986.65,589.40 988.34,589.58 992.25,590.48 993.87,591.35 999.21,592.21 1001.09,593.67 1001.25,593.17 1001.28,593.60 1002.09,593.56 1002.76,594.15 1004.60,597.05 1007.30,603.66 1010.20,617.13 1010.54,616.49 1010.39,617.29 1012.58,618.36 1014.95,623.37 1016.01,627.18 1015.27,629.14 1015.82,629.59 1019.34,630.38 1022.43,631.97 1024.59,631.38 1024.79,631.06 1023.82,630.89 1023.68,630.42 1025.96,629.17 1028.30,630.08 1030.84,629.28 1032.10,630.91 1033.20,630.04 1035.00,630.60 1037.34,629.61 1037.64,630.38 1038.92,630.03 1041.11,631.01 1041.59,631.75 1042.36,631.06 1044.39,631.13 1045.77,631.89 1047.37,631.72 1048.32,632.80 1051.20,632.49 1052.51,633.14 1053.59,634.64 1058.10,636.29 1059.53,636.40 1060.66,635.02 1063.52,635.53 1063.19,634.24 1064.00,633.89 1063.31,634.30 1063.74,635.54 1062.34,635.69 1060.70,635.16 1060.14,636.39 1058.73,636.64 1053.64,634.97 1052.53,633.31 1051.51,632.89 1047.88,633.00 1047.25,631.91 1045.80,632.09 1044.48,631.30 1042.72,631.30 1041.57,631.93 1038.96,630.29 1037.56,630.56 1037.15,629.73 1035.00,630.96 1033.19,630.24 1032.08,631.18 1030.45,629.47 1028.84,630.41 1025.45,629.57 1024.03,630.71 1025.28,630.76 1025.16,631.58 1022.38,632.35 1019.12,630.40 1016.76,630.30 1015.98,631.43 1016.96,632.92 1016.33,633.51 1019.92,637.37 1020.67,636.97 1019.49,634.09 1023.62,634.33 1024.47,635.17 1023.75,635.34 1023.37,636.49 1020.71,637.08 1022.38,637.83 1021.93,639.10 1021.38,638.80 1021.84,639.55 1020.69,637.15 1020.69,637.75 1020.14,637.63 1023.40,642.26 1023.77,641.68 1025.17,652.98 1024.73,656.39 1020.63,664.17 1017.63,667.23 1016.26,667.47 1015.59,666.78 1012.24,669.44 1011.00,671.16 1010.54,674.39 1007.85,678.60 1004.60,680.06 1000.42,685.03 999.70,685.50 995.81,686.02 993.47,687.33 990.57,688.12 988.31,690.10 984.77,691.79 982.78,692.21 981.13,693.84 975.56,696.99 967.85,699.30 964.08,698.89 959.13,700.33 956.72,702.07 953.66,705.32 951.66,706.03 951.09,705.79 945.71,708.02 943.76,708.17 941.81,709.38 940.28,709.37 939.33,708.69 940.08,708.61 938.63,708.48 933.71,709.51 930.84,709.53 922.06,715.40 917.49,717.03 915.40,717.15 911.34,716.85 907.35,713.99 905.46,714.15 904.42,713.62 900.34,714.32 895.31,714.11 893.45,712.25 890.06,711.08 887.74,711.23 887.26,710.67 886.02,710.44 882.30,711.59 881.06,711.47 880.06,710.74 875.64,709.50 870.25,705.05 865.69,703.99 862.35,705.86 856.57,707.88 854.39,708.06 852.57,707.49 851.21,706.22 848.34,705.90 845.22,707.79 841.18,708.70 837.90,709.05 837.11,708.67 833.51,708.72 832.87,708.31 828.67,710.48 825.60,710.95 824.93,710.49 818.05,714.58 815.34,714.69 813.23,712.99 811.94,713.05 809.75,714.81 805.55,716.88 802.23,717.11 801.46,716.76 798.79,717.24 796.86,716.97 796.09,716.38 793.83,717.39 791.56,716.67 788.75,714.96 782.49,715.39 782.00,715.14 782.38,715.02 779.86,714.38 778.49,714.43 769.75,712.57 765.31,712.28 765.33,712.73 764.96,712.19 761.85,712.24 760.67,710.24 756.82,709.54 755.10,707.69 754.32,706.48 755.32,703.38 754.32,703.58 752.94,703.16 749.77,703.55 748.28,702.01 746.33,703.38 743.82,706.51 743.32,707.94 742.23,708.71 738.45,709.83 736.44,709.34 735.23,708.56 734.56,707.05 730.64,705.87 728.94,704.27 722.00,702.89 721.52,702.36 721.91,701.41 711.25,701.15 705.54,699.40 704.28,698.58 703.81,697.83 704.36,697.81 703.30,696.80 703.79,696.84 703.86,694.33 702.63,692.50 693.69,688.48 689.07,687.38 681.78,686.64 679.24,685.48 679.00,686.59 678.56,685.32 676.45,686.45 676.07,686.98 676.48,687.32 672.85,691.80 670.50,693.13 666.18,694.62 661.53,694.32 660.56,693.92 659.96,693.01 660.32,692.81 658.17,692.17 658.04,691.25 657.92,691.87 657.34,691.40 657.62,690.14 658.54,690.27 650.93,687.42 650.13,686.04 643.36,679.97 642.52,677.22 643.39,673.56 642.31,669.02 638.29,664.79 631.38,661.56 618.89,666.01 609.76,668.19 605.20,668.60 598.67,667.49 594.92,665.04 585.67,662.89 584.67,662.11 584.82,661.37 581.00,659.39 579.99,657.67 580.91,656.99 578.70,655.87 577.54,654.42 575.97,653.54 575.40,651.82 574.17,650.98 573.00,648.96 573.37,645.95 575.12,642.74 576.82,642.03 580.71,642.80 581.15,642.31 579.70,640.81 578.43,640.86 575.54,642.03 571.68,641.69 569.90,640.83 569.65,640.07 570.38,639.60 569.74,639.59 569.94,639.08 568.04,637.37 563.17,637.02 563.44,638.63 560.69,641.96 558.36,643.77 553.51,646.63 548.20,647.42 537.08,647.25 533.64,646.45 532.41,645.22 531.46,645.93 528.64,645.91 525.87,646.89 523.22,647.31 522.21,646.92 521.67,647.41 519.47,647.63 511.16,646.39 510.79,645.92 505.73,645.06 500.80,644.83 492.69,645.54 484.51,645.46 483.66,644.87 481.85,645.18 473.66,644.65 462.44,642.83 459.96,643.09 458.09,642.51 454.58,642.27 449.51,644.34 446.08,645.01 443.81,645.89 443.11,646.64 433.54,648.56 432.82,649.37 430.46,649.93 430.13,650.38 430.69,650.38 429.79,651.01 423.09,652.60 422.31,653.17 416.55,653.17 415.88,653.87 412.52,653.90 411.91,654.59 410.34,654.67 409.84,655.11 403.32,655.33 402.80,656.42 397.79,657.08 396.86,658.44 395.42,658.98 394.71,658.80 393.15,659.70 392.14,661.25 390.52,661.07 390.57,660.56 389.92,660.30 390.04,660.68 388.74,660.92 388.63,661.61 387.13,661.71 387.05,662.38 384.63,662.20 383.22,662.60 379.75,664.71 380.11,665.05 379.26,664.90 379.59,665.79 379.16,666.28 375.80,667.94 376.21,668.52 373.68,670.44 367.60,671.93 368.26,672.69 367.44,672.09 366.05,672.41 363.63,674.32 359.31,675.27 357.71,676.05 356.94,675.83 357.28,676.05 353.51,677.44 352.38,678.59 349.63,679.80 349.13,680.24 349.55,680.52 347.46,680.49 346.89,681.58 342.54,683.61 339.76,684.33 338.37,685.37 332.44,686.59 329.44,687.63 327.95,689.08 325.90,689.08 324.82,689.97 323.49,689.89 322.91,691.38 324.88,692.59 324.65,693.45 323.66,692.90 324.10,696.86 318.43,702.52 313.27,704.27 304.52,704.98 301.20,705.95 297.29,706.33 290.58,706.35 279.95,705.42 272.94,702.54 259.71,700.79 252.76,698.77 251.20,697.68 250.36,697.94 247.67,697.35 247.26,696.85 245.77,698.66 243.99,698.65 244.58,699.20 243.75,699.31 244.12,700.31 241.80,700.33 241.72,701.39 240.96,700.87 240.92,701.27 239.19,701.94 236.77,701.56 235.67,702.15 235.54,701.76 231.98,702.21 230.73,701.78 230.19,702.24 229.95,701.87 227.56,702.15 226.51,701.72 222.79,701.54 220.44,701.83 219.46,701.54 218.67,701.95 213.20,700.41 210.71,700.78 208.49,700.16 206.80,700.31 202.42,698.93 201.80,699.17 202.34,699.13 201.90,699.64 201.02,699.77 195.43,698.79 187.58,696.70 185.28,696.98 181.05,696.27 178.67,695.70 178.57,695.34 177.57,695.86 175.74,695.65 175.55,696.35 172.57,696.08 172.16,696.53 166.98,694.66 166.47,694.05 166.11,694.50 163.77,693.83 163.46,694.61 161.39,694.69 156.06,692.87 154.17,692.94 152.70,692.45 152.65,692.03 150.34,691.87 148.49,690.62 146.65,690.82 146.54,690.10 143.39,689.06 142.79,689.34 140.31,688.32 139.87,687.72 139.14,688.06 136.27,687.57 131.67,685.33 112.04,677.72 109.26,675.83 108.44,675.84 108.59,675.44 106.15,673.69 105.96,672.60 103.80,672.11 103.33,670.86 100.16,668.58 99.53,666.91 100.76,666.06 100.33,665.29 97.97,663.70 96.41,661.83 96.44,660.34 93.36,657.40 92.19,654.85 92.17,652.73 91.66,652.75 94.56,650.77 96.43,651.72 97.52,651.50 96.60,649.47 97.00,647.32 96.54,646.18 95.42,645.35 96.06,644.78 95.90,644.01 94.25,642.11 94.68,641.79 93.93,640.80 92.63,640.01 93.07,639.36 91.64,639.21 90.01,636.59 88.54,636.74 87.77,636.15 87.81,635.18 86.61,633.97 85.23,633.55 85.12,632.74 84.68,633.06 84.33,632.43 83.65,632.41 84.13,631.89 82.56,630.90 82.90,630.47 81.43,630.19 81.43,629.63 80.42,628.99 79.58,629.11 78.50,628.18 79.05,627.55 76.69,626.61 76.98,625.76 77.80,625.68 77.01,625.17 76.87,624.31 78.29,623.70 78.03,623.34 79.75,622.88 78.29,622.00 78.91,621.72 79.04,620.90 77.25,621.07 76.86,621.67 76.01,621.47 74.13,619.07 74.02,618.54 74.95,618.01 73.92,617.72 73.74,616.95 74.01,616.57 74.97,616.60 75.32,615.92 73.71,615.99 73.22,614.77 72.55,614.84 72.73,615.24 71.60,615.98 70.61,615.85 69.54,614.95 69.58,614.57 70.38,614.51 69.75,613.97 70.06,613.16 68.91,613.27 68.57,612.57 68.24,613.50 67.56,613.62 65.64,612.31 64.85,613.00 65.26,613.50 64.09,613.51 62.47,612.73 61.72,614.12 60.55,614.67 58.42,612.40 57.60,613.47 56.00,612.45 56.87,610.59 57.15,611.14 57.38,610.64 57.93,610.98 58.41,610.66 58.68,611.05 59.10,608.01 61.26,605.96 62.42,605.85 63.76,606.43 65.52,605.46 66.57,605.94 67.61,605.46 68.91,605.80 69.29,606.41 70.04,606.12 68.77,604.16 69.11,601.06 69.84,600.42 71.78,600.69 72.78,599.57 74.02,599.96 74.52,599.25 76.12,599.06 74.98,598.98 74.12,598.23 74.30,596.74 75.13,595.76 86.89,596.27 86.08,592.79 86.92,591.45 85.64,586.88 86.27,585.91 87.07,585.87 86.59,581.67 87.30,580.80 85.87,575.58 86.04,573.60 87.76,571.82 90.01,564.48 87.93,564.29 85.02,562.75 81.04,563.78 73.67,562.81 71.80,563.44 71.37,563.15 71.03,563.59 71.23,563.18 70.44,563.61 69.81,563.17 72.63,562.63 76.35,562.74 77.72,563.17 78.80,562.52 79.19,562.81 79.67,562.23 79.96,562.60 82.25,562.89 84.01,561.85 85.33,561.86 86.65,562.87 87.59,563.16 88.12,562.83 88.34,563.21 88.45,562.41 89.71,561.80 91.88,561.24 93.43,561.47 94.68,560.72 94.89,559.65 95.54,559.37 99.58,550.87 103.89,548.68 107.04,549.16 114.51,547.78 117.71,548.09 121.73,549.85 124.23,550.37 125.13,551.72 125.46,550.26 127.32,548.24 128.59,547.95 130.76,546.26 133.24,542.88 134.77,539.54 132.25,536.12 132.78,532.95 131.74,530.25 131.83,529.01 132.70,528.40 132.83,522.70 133.78,522.02 132.85,522.47 132.11,521.86 130.93,522.02 130.55,521.45 130.09,521.84 129.30,521.50 130.21,521.71 130.50,521.22 131.00,521.83 131.23,521.53 132.82,521.92 133.37,521.36 133.59,519.35 134.84,518.48 135.11,515.35 136.67,513.60 136.50,512.07 138.79,509.33 136.82,503.25 137.17,502.76 140.21,502.53 140.67,501.46 140.15,502.41 138.88,502.33 139.39,501.57 139.16,501.95 138.79,501.47 138.74,501.96 138.52,501.08 137.90,501.66 137.74,501.06 137.52,502.09 135.76,501.62 137.22,501.45 137.40,500.87 136.83,500.51 137.75,499.77 137.66,500.90 138.01,499.66 138.48,500.78 137.95,500.93 139.43,501.21 138.21,499.62 138.59,498.86 137.50,499.11 138.75,498.27 137.13,498.39 137.88,498.07 137.13,497.92 137.87,497.84 137.68,496.99 141.47,501.13 138.18,497.46 138.61,496.89 138.00,496.10 138.14,494.89 137.24,493.83 137.62,493.55 136.91,493.70 136.37,493.22 135.61,490.91 135.62,489.31 136.77,486.56 140.28,486.54 136.10,486.44 137.07,486.37 137.31,485.94 137.72,486.28 139.07,485.98 138.37,485.84 138.69,485.04 139.35,485.18 139.32,485.79 139.92,485.33 140.60,486.72 140.32,484.93 140.67,485.13 141.57,483.11 150.90,474.67 158.62,464.57 162.74,460.72 167.63,457.45 171.80,455.93 178.16,454.52 198.76,452.69 199.92,451.96 200.91,452.15 201.98,451.63 202.96,449.15 200.07,447.77 197.18,445.16 193.93,443.54 191.88,443.81 192.62,443.10 192.10,442.82 190.18,442.76 187.52,444.59 185.98,444.08 187.01,443.01 187.02,441.84 185.08,443.73 184.76,441.94 183.57,442.75 182.36,442.86 182.51,441.84 180.49,440.46 181.69,439.51 180.06,439.55 179.46,439.15 180.05,438.26 177.61,438.35 173.67,437.57 176.09,436.02 175.73,435.16 173.81,433.77 170.30,433.66 170.00,434.54 171.94,434.44 172.19,434.83 171.90,435.41 169.89,436.05 164.77,432.95 160.78,432.25 158.32,431.10 155.17,430.49 153.96,428.46 151.94,427.37 149.69,427.28 147.45,428.59 146.80,427.85 147.01,426.72 144.40,426.22 143.58,425.48 141.40,425.88 136.58,424.58 131.43,424.14 127.11,422.45 124.11,421.53 123.54,421.74 118.70,420.06 116.22,418.84 113.90,415.21 112.56,414.13 112.83,412.02 112.26,410.87 108.01,409.11 112.64,410.51 113.46,414.16 117.52,419.07 126.47,421.70 132.20,423.93 137.27,424.18 142.14,425.56 147.19,424.35 146.71,423.35 144.93,422.94 144.28,421.53 144.98,421.05 147.40,420.74 148.00,419.74 146.26,418.83 147.63,417.93 149.17,418.05 150.94,419.28 153.03,419.45 155.16,421.06 157.43,421.72 158.09,420.91 157.65,419.55 160.17,416.71 163.96,416.25 166.56,414.65 168.28,414.51 169.56,414.91 172.77,413.97 176.84,410.63 180.76,411.88 183.27,410.39 186.21,411.14 193.58,410.00 195.60,410.15 197.75,411.30 198.95,413.33 202.23,414.31 205.59,411.62 209.82,410.55 210.07,408.96 209.12,409.21 209.16,409.85 207.73,409.24 207.30,410.13 206.71,409.50 206.99,409.02 205.83,408.60 205.21,409.09 205.86,409.57 205.17,410.30 204.02,409.57 203.85,408.72 202.87,409.02 202.06,408.26 202.41,407.90 202.92,408.69 202.74,408.04 203.55,407.96 203.42,406.70 205.01,405.06 207.99,402.58 212.58,399.80 211.59,400.26 211.34,399.48 211.93,399.42 211.13,399.28 211.01,398.76 213.28,399.27 213.87,398.02 214.48,398.02 214.87,397.40 214.29,396.90 217.62,397.22 213.31,399.52 219.03,396.62 237.86,385.50 221.69,394.81 220.28,395.17 217.60,394.34 216.95,394.71 214.58,391.17 215.28,391.46 217.29,390.18 217.27,389.62 217.65,390.13 220.79,389.92 220.91,387.57 221.61,387.81 222.59,390.09 224.51,390.93 223.10,388.33 223.84,384.14 224.10,383.91 224.38,387.57 225.95,388.71 227.09,385.61 227.04,382.91 226.18,381.65 227.58,379.67 228.84,380.57 229.09,383.35 231.09,384.33 233.07,386.85 233.88,385.29 234.16,385.87 235.03,385.52 235.54,384.09 235.06,382.96 236.72,381.40 236.28,380.35 236.63,379.01 237.16,379.03 238.24,381.95 238.42,385.26 243.65,382.44 249.12,377.79 250.69,376.09 249.41,377.20 248.45,375.15 249.03,375.17 251.42,373.07 253.64,372.49 254.81,371.50 253.81,369.64 255.21,370.73 256.75,369.60 256.38,371.22 250.70,376.07 260.83,368.16 258.94,368.74 258.06,368.09 256.35,365.01 254.42,363.61 254.12,360.97 254.59,360.82 252.83,359.51 251.45,359.77 249.76,359.45 249.57,358.81 248.37,358.25 244.29,357.48 238.75,354.15 235.69,350.82 235.98,349.71 238.38,347.38 241.96,346.29 244.65,346.76 245.27,347.49 244.06,349.19 245.71,349.71 247.02,352.66 247.86,353.06 249.57,351.10 249.91,349.57 249.25,348.00 249.99,347.50 250.70,348.07 251.21,350.28 250.76,352.53 251.22,353.20 253.17,354.57 256.65,355.12 258.41,356.95 256.99,359.24 257.33,359.94 258.89,361.46 263.32,363.68 262.82,365.67 260.97,367.09 260.86,367.98 263.51,364.77 266.68,362.43 274.80,351.98 273.36,351.55 272.80,350.28 271.78,350.59 271.26,350.19 271.82,350.41 272.22,350.00 272.08,347.24 272.40,349.57 274.65,351.53 277.07,349.03 279.72,347.87 281.09,343.11 280.24,340.00 279.96,340.42 279.34,340.19 279.56,339.82 278.99,339.98 278.22,339.09 279.02,336.96 281.64,335.62 283.54,335.50 285.02,336.07 289.55,334.52 297.20,332.87 297.35,330.77 296.41,328.72 297.59,328.98 298.28,331.81 297.73,332.69 308.19,330.75 312.71,331.98 315.73,331.80 319.99,332.65 320.45,331.58 321.38,331.11 324.18,331.36 324.94,330.50 324.47,330.38 324.72,329.34 327.63,328.30 328.45,326.67 329.28,326.50 329.46,323.91 328.41,323.56 328.05,322.77 325.71,322.03 325.29,319.02 325.83,319.39 326.32,322.20 327.82,322.02 329.53,322.53 330.60,324.04 331.85,322.69 331.09,320.92 331.97,321.50 332.45,320.47 336.61,318.88 336.22,316.63 337.08,317.97 336.92,319.08 334.45,320.85 333.03,321.28 333.62,322.75 332.14,324.46 332.42,325.71 330.28,326.47 330.88,327.15 330.45,328.36 326.76,330.73 325.20,330.89 329.97,330.97 333.64,332.62 336.46,329.90 339.58,329.26 343.47,329.88 345.86,330.78 348.69,331.01 350.29,331.97 356.51,330.05 357.58,328.83 357.30,327.44 357.96,324.95 358.94,323.87 357.66,323.79 356.40,322.72 355.47,321.36 355.54,319.70 358.16,316.35 360.18,315.70 361.97,314.41 363.81,311.86 363.63,311.01 363.07,310.21 361.53,310.80 359.02,310.58 357.50,309.46 358.39,308.08 360.94,306.39 361.11,305.36 356.76,306.39 355.57,306.17 354.35,305.21 353.57,303.56 354.23,301.18 355.92,301.38 356.91,300.22 356.66,299.17 357.16,299.15 355.57,298.26 352.72,297.62 352.20,296.27 353.55,294.70 352.22,293.10 346.95,291.09 346.57,289.01 347.47,287.55 349.00,286.61 348.07,285.73 346.82,285.87 345.61,284.60 346.88,285.80 348.07,285.64 349.09,286.44 347.36,287.86 346.74,289.08 347.17,291.09 352.20,292.79 353.85,294.37 353.11,292.83 354.47,294.76 353.39,296.71 353.73,297.55 354.96,298.07 356.97,298.10 358.12,299.25 357.86,300.72 355.82,301.95 354.39,303.69 354.72,303.53 355.68,305.07 356.13,304.85 356.64,305.54 360.67,303.96 362.27,304.14 363.15,304.79 363.56,307.02 362.66,306.49 361.43,307.05 359.68,308.65 359.91,309.59 359.94,309.72"/>
    <polyline fill="none" stroke="#1f6f8b" stroke-width="2.20" stroke-opacity="0.35" stroke-linejoin="round" stroke-linecap="round" points="359.94,309.72 364.65,309.20 365.80,311.04 358.82,319.91 362.68,328.57 371.36,332.01 373.57,335.54 380.95,333.16 390.18,336.18 441.21,320.03 456.86,320.76 451.12,322.57 440.99,320.39 411.11,328.50 395.16,339.09 383.42,340.15 385.86,341.60 392.91,339.94 388.80,341.89 374.22,338.75 365.56,340.36 347.48,336.24 335.67,336.90 331.04,334.17 344.15,343.91 346.96,340.18 365.87,343.21 367.67,347.32 349.46,351.37 349.14,355.29 355.50,355.31 356.99,351.85 362.08,355.80 369.22,356.38 380.82,361.83 379.38,364.21 367.51,361.71 391.70,367.09 400.80,368.77 416.08,364.93 433.52,365.69 434.40,362.61 440.84,364.76 446.85,358.61 445.40,365.94 450.87,364.19 450.90,367.98 454.05,365.45 460.14,371.11 465.59,371.28 465.29,368.10 470.01,368.11 466.17,365.00 472.92,363.48 473.46,376.84 483.01,377.63 477.74,379.37 477.87,383.75 473.17,380.63 468.42,384.31 464.26,383.13 449.57,389.74 442.98,387.59 441.14,392.11 424.55,398.16 419.80,400.90 419.33,404.35 415.85,405.05 417.38,402.81 403.62,408.30 396.46,414.01 397.50,417.43 408.22,419.50 416.82,415.96 430.51,418.72 426.63,416.55 430.95,417.32 445.55,410.87 435.96,415.68 433.18,419.99 430.86,418.84 449.07,430.76 457.63,427.49 461.66,428.67 472.30,440.28 472.75,449.49 468.86,452.00 466.12,466.17 471.69,466.98 462.21,467.24 459.50,470.28 457.26,469.00 464.59,474.80 473.32,475.45 475.61,479.63 481.57,482.27 507.87,479.45 510.71,474.95 522.76,471.38 530.44,460.24 550.76,453.20 564.76,451.58 572.46,454.89 584.22,443.33 592.95,444.41 591.00,441.80 595.68,439.94 593.65,436.66 603.16,432.26 616.10,434.53 623.66,440.89 636.54,437.43 649.75,438.91 677.31,431.29 695.47,433.71 719.80,442.45 727.60,457.13 734.74,461.48 751.92,464.49 756.90,462.51 756.28,458.82 768.64,470.00 774.09,469.41 772.99,471.23 783.36,480.22 823.22,489.41 828.32,495.12 837.23,497.49 839.71,501.84 857.28,512.29 886.75,537.55 896.84,542.30 899.75,547.87 921.52,554.69 923.71,563.15 927.95,566.09 931.72,564.29 944.23,569.87 963.10,570.86 970.38,577.25 975.42,576.33 982.68,589.80 1002.76,594.15 1015.82,629.59 1022.43,631.97 1025.96,629.17 1037.34,629.61 1058.10,636.29 1064.00,633.89 1063.74,635.54 1058.73,636.64 1037.15,629.73 1032.08,631.18 1025.45,629.57 1022.38,632.35 1016.76,630.30 1019.92,637.37 1019.49,634.09 1024.47,635.17 1020.71,637.08 1021.84,639.55 1020.14,637.63 1023.77,641.68 1024.73,656.39 1020.63,664.17 1012.24,669.44 1007.85,678.60 1000.42,685.03 975.56,696.99 959.13,700.33 953.66,705.32 941.81,709.38 930.84,709.53 915.40,717.15 907.35,713.99 895.31,714.11 890.06,711.08 881.06,711.47 865.69,703.99 856.57,707.88 848.34,705.90 824.93,710.49 818.05,714.58 811.94,713.05 805.55,716.88 793.83,717.39 788.75,714.96 761.85,712.24 755.10,707.69 755.32,703.38 748.28,702.01 742.23,708.71 736.44,709.34 721.91,701.41 705.54,699.40 702.63,692.50 693.69,688.48 678.56,685.32 670.50,693.13 661.53,694.32 643.36,679.97 642.31,669.02 638.29,664.79 631.38,661.56 605.20,668.60 585.67,662.89 573.00,648.96 575.12,642.74 581.15,642.31 571.68,641.69 568.04,637.37 563.17,637.02 558.36,643.77 548.20,647.42 532.41,645.22 519.47,647.63 454.58,642.27 422.31,653.17 403.32,655.33 392.14,661.25 383.22,662.60 373.68,670.44 323.49,689.89 324.10,696.86 318.43,702.52 297.29,706.33 279.95,705.42 247.26,696.85 241.72,701.39 230.19,702.24 178.57,695.34 172.16,696.53 136.27,687.57 112.04,677.72 100.16,668.58 93.36,657.40 91.66,652.75 97.52,651.50 95.90,644.01 76.69,626.61 79.75,622.88 74.13,619.07 75.32,615.92 70.61,615.85 68.57,612.57 60.55,614.67 56.00,612.45 61.26,605.96 70.04,606.12 69.11,601.06 76.12,599.06 75.13,595.76 86.89,596.27 86.04,573.60 90.01,564.48 69.81,563.17 93.43,561.47 99.58,550.87 103.89,548.68 117.71,548.09 125.13,551.72 134.77,539.54 131.74,530.25 133.78,522.02 129.30,521.50 133.37,521.36 138.79,509.33 136.82,503.25 140.67,501.46 135.76,501.62 138.01,499.66 139.43,501.21 137.68,496.99 141.47,501.13 135.61,490.91 136.77,486.56 140.28,486.54 136.10,486.44 138.69,485.04 140.60,486.72 167.63,457.45 198.76,452.69 202.96,449.15 192.10,442.82 187.52,444.59 187.02,441.84 182.36,442.86 180.05,438.26 173.67,437.57 176.09,436.02 173.81,433.77 170.30,433.66 169.89,436.05 151.94,427.37 147.45,428.59 143.58,425.48 118.70,420.06 108.01,409.11 112.64,410.51 117.52,419.07 142.14,425.56 147.19,424.35 144.28,421.53 147.63,417.93 157.43,421.72 160.17,416.71 172.77,413.97 176.84,410.63 195.60,410.15 202.23,414.31 209.82,410.55 210.07,408.96 205.17,410.30 202.06,408.26 212.58,399.80 211.01,398.76 217.62,397.22 213.31,399.52 237.86,385.50 221.69,394.81 216.95,394.71 214.58,391.17 220.79,389.92 220.91,387.57 224.51,390.93 223.84,384.14 225.95,388.71 227.58,379.67 233.07,386.85 237.16,379.03 238.42,385.26 249.12,377.79 253.81,369.64 256.38,371.22 250.70,376.07 260.83,368.16 258.06,368.09 252.83,359.51 238.75,354.15 235.69,350.82 238.38,347.38 244.65,346.76 247.86,353.06 250.70,348.07 251.22,353.20 256.65,355.12 257.33,359.94 263.32,363.68 260.86,367.98 274.80,351.98 271.26,350.19 272.08,347.24 274.65,351.53 279.72,347.87 279.02,336.96 297.20,332.87 296.41,328.72 297.73,332.69 308.19,330.75 319.99,332.65 329.28,326.50 325.29,319.02 330.60,324.04 336.22,316.63 330.45,328.36 325.20,330.89 333.64,332.62 339.58,329.26 350.29,331.97 356.51,330.05 358.94,323.87 355.54,319.70 363.63,311.01 357.50,309.46 361.11,305.36 354.35,305.21 357.16,299.15 346.95,291.09 349.00,286.61 345.61,284.60 349.09,286.44 347.17,291.09 353.85,294.37 353.11,292.83 353.73,297.55 358.12,299.25 354.39,303.69 356.64,305.54 363.15,304.79 359.91,309.59 359.94,309.72"/>
    <polyline fill="none" stroke="#c06c3f" stroke-width="2.20" stroke-opacity="0.45" stroke-linejoin="round" stroke-linecap="round" points="359.94,309.72 364.64,309.21 365.80,311.04 358.82,319.91 362.68,328.57 371.35,332.02 373.57,335.54 380.95,333.18 390.18,336.18 441.20,320.05 456.84,320.77 451.12,322.57 440.99,320.39 411.12,328.51 395.16,339.09 383.43,340.15 385.86,341.60 392.91,339.94 388.80,341.89 374.22,338.75 365.56,340.36 347.48,336.24 335.67,336.91 331.04,334.17 344.15,343.91 346.97,340.18 365.87,343.21 367.66,347.32 349.46,351.38 349.14,355.29 355.50,355.31 356.99,351.85 362.08,355.81 369.22,356.38 380.81,361.83 379.37,364.21 367.51,361.71 391.70,367.09 400.81,368.78 416.08,364.94 433.52,365.69 434.41,362.63 440.84,364.77 446.84,358.64 445.40,365.94 450.85,364.21 450.90,367.98 454.05,365.47 460.13,371.11 465.59,371.28 465.30,368.11 470.01,368.11 466.19,365.00 472.91,363.49 473.46,376.84 482.98,377.64 477.75,379.37 477.87,383.75 473.17,380.64 468.42,384.31 464.26,383.13 449.57,389.74 442.99,387.60 441.14,392.11 424.56,398.17 419.81,400.90 419.34,404.35 415.85,405.05 417.38,402.82 403.63,408.31 396.47,414.01 397.50,417.43 408.22,419.50 416.82,415.97 430.51,418.72 426.64,416.55 430.95,417.33 445.55,410.87 435.96,415.69 433.18,419.99 430.86,418.84 449.07,430.76 457.63,427.51 461.66,428.68 472.29,440.28 472.75,449.49 468.86,452.00 466.11,466.17 471.69,466.98 462.22,467.25 459.51,470.28 457.26,469.00 464.59,474.80 473.31,475.46 475.60,479.64 481.57,482.27 507.86,479.46 510.72,474.96 522.77,471.38 530.45,460.24 550.76,453.21 564.76,451.59 572.46,454.89 584.23,443.35 592.95,444.41 591.02,441.81 595.68,439.95 593.67,436.66 603.16,432.28 616.09,434.54 623.66,440.89 636.54,437.44 649.76,438.91 677.31,431.30 695.47,433.72 719.79,442.45 727.60,457.13 734.74,461.48 751.92,464.49 756.90,462.51 756.28,458.84 768.63,470.00 774.07,469.43 772.99,471.23 783.36,480.22 823.21,489.41 828.32,495.13 837.22,497.50 839.70,501.84 857.27,512.30 886.75,537.55 896.84,542.31 899.75,547.87 921.51,554.69 923.70,563.15 927.95,566.09 931.72,564.30 944.23,569.87 963.09,570.86 970.37,577.25 975.42,576.34 982.68,589.80 1002.75,594.15 1015.82,629.59 1022.43,631.97 1025.96,629.18 1037.34,629.61 1058.10,636.29 1063.99,633.91 1063.74,635.54 1058.73,636.64 1037.15,629.73 1032.08,631.18 1025.46,629.58 1022.38,632.35 1016.77,630.31 1019.92,637.37 1019.50,634.10 1024.47,635.17 1020.71,637.08 1021.84,639.55 1020.14,637.63 1023.78,641.68 1024.74,656.39 1020.63,664.17 1012.24,669.44 1007.85,678.60 1000.42,685.04 975.56,696.99 959.15,700.34 953.66,705.32 941.81,709.38 930.84,709.54 915.41,717.15 907.35,714.00 895.31,714.11 890.05,711.09 881.06,711.47 865.69,704.02 856.57,707.89 848.33,705.91 824.93,710.49 818.06,714.58 811.94,713.07 805.55,716.89 793.84,717.40 788.74,714.97 761.85,712.24 755.10,707.69 755.31,703.38 748.28,702.02 742.24,708.71 736.43,709.34 721.91,701.41 705.53,699.40 702.63,692.50 693.69,688.49 678.57,685.35 670.51,693.14 661.52,694.32 643.36,679.97 642.30,669.03 638.28,664.79 631.37,661.58 605.20,668.60 585.67,662.89 573.00,648.97 575.12,642.74 581.13,642.32 571.68,641.69 568.03,637.39 563.18,637.03 558.36,643.78 548.20,647.42 532.41,645.24 519.46,647.63 454.58,642.29 422.31,653.18 403.33,655.34 392.15,661.25 383.23,662.61 373.68,670.45 323.51,689.90 324.10,696.86 318.43,702.52 297.29,706.33 279.95,705.42 247.27,696.86 241.72,701.39 230.18,702.25 178.57,695.35 172.15,696.53 136.27,687.58 112.04,677.72 100.16,668.58 93.36,657.40 91.67,652.75 97.52,651.50 95.89,644.01 76.69,626.61 79.74,622.88 74.13,619.07 75.31,615.92 70.61,615.85 68.57,612.58 60.55,614.67 56.01,612.45 61.26,605.97 70.04,606.13 69.12,601.07 76.12,599.06 75.14,595.77 86.89,596.27 86.05,573.60 90.01,564.48 69.83,563.18 93.43,561.48 99.58,550.87 103.89,548.69 117.71,548.10 125.13,551.72 134.77,539.54 131.74,530.25 133.78,522.02 129.30,521.50 133.37,521.36 138.79,509.33 136.82,503.26 140.67,501.46 135.76,501.62 138.01,499.67 139.43,501.21 137.69,497.00 141.47,501.13 135.61,490.92 136.77,486.56 140.28,486.54 136.10,486.44 138.69,485.05 140.60,486.72 167.63,457.45 198.76,452.69 202.95,449.15 192.10,442.82 187.52,444.59 187.01,441.85 182.36,442.86 180.05,438.26 173.67,437.57 176.09,436.02 173.80,433.77 170.30,433.67 169.89,436.05 151.94,427.37 147.45,428.59 143.58,425.48 118.70,420.06 108.00,409.11 112.63,410.52 117.52,419.07 142.14,425.56 147.19,424.35 144.28,421.53 147.64,417.94 157.43,421.73 160.18,416.72 172.77,413.98 176.85,410.64 195.60,410.16 202.23,414.31 209.82,410.55 210.07,408.97 205.17,410.30 202.07,408.26 212.58,399.80 211.02,398.77 217.62,397.22 213.31,399.52 237.86,385.51 221.69,394.81 216.95,394.71 214.59,391.17 220.79,389.93 220.91,387.58 224.51,390.93 223.85,384.14 225.95,388.71 227.59,379.68 233.07,386.85 237.16,379.04 238.42,385.26 249.12,377.79 253.82,369.64 256.38,371.22 250.70,376.07 260.83,368.16 258.06,368.09 252.83,359.51 238.75,354.15 235.69,350.82 238.39,347.38 244.64,346.76 247.86,353.06 250.70,348.10 251.22,353.20 256.65,355.13 257.33,359.94 263.31,363.68 260.86,367.98 274.80,351.98 271.25,350.19 272.07,347.25 274.65,351.53 279.72,347.87 279.03,336.97 297.20,332.88 296.43,328.76 297.73,332.69 308.19,330.76 320.00,332.65 329.28,326.50 325.31,319.03 330.61,324.04 336.22,316.63 330.45,328.36 325.20,330.89 333.64,332.63 339.59,329.27 350.29,331.97 356.51,330.05 358.94,323.87 355.55,319.70 363.63,311.01 357.50,309.46 361.11,305.36 354.35,305.21 357.16,299.15 346.95,291.09 349.00,286.61 345.63,284.61 349.08,286.45 347.17,291.09 353.84,294.37 353.10,292.84 353.73,297.55 358.10,299.26 354.40,303.69 356.64,305.54 363.12,304.80 359.91,309.59 359.94,309.72"/>
    <polyline fill="none" stroke="#2c7a7b" stroke-width="2.20" stroke-opacity="1.00" stroke-linejoin="round" stroke-linecap="round" points="359.94,309.72 364.62,309.23 365.80,311.05 358.82,319.91 362.68,328.57 371.33,332.03 373.57,335.54 380.95,333.19 390.19,336.18 441.20,320.06 456.82,320.78 451.12,322.57 440.99,320.39 411.13,328.52 395.16,339.09 383.43,340.15 385.86,341.60 392.91,339.94 388.80,341.89 374.22,338.75 365.56,340.36 347.48,336.24 335.67,336.91 331.04,334.17 344.15,343.91 346.97,340.18 365.86,343.21 367.66,347.32 349.47,351.38 349.14,355.29 355.50,355.31 357.00,351.85 362.08,355.81 369.22,356.39 380.79,361.83 379.37,364.21 367.51,361.71 391.69,367.10 400.81,368.78 416.09,364.95 433.52,365.69 434.42,362.65 440.84,364.77 446.82,358.67 445.40,365.94 450.83,364.23 450.90,367.98 454.04,365.49 460.13,371.11 465.59,371.28 465.32,368.12 470.01,368.11 466.20,365.01 472.89,363.50 473.46,376.84 482.95,377.65 477.75,379.38 477.87,383.75 473.17,380.65 468.42,384.31 464.26,383.14 449.57,389.74 443.00,387.61 441.14,392.11 424.57,398.17 419.82,400.91 419.34,404.35 415.85,405.05 417.37,402.83 403.64,408.31 396.48,414.02 397.50,417.43 408.22,419.50 416.83,415.98 430.51,418.72 426.65,416.55 430.96,417.33 445.54,410.88 435.96,415.69 433.18,419.99 430.86,418.84 449.06,430.76 457.63,427.52 461.65,428.69 472.28,440.28 472.75,449.49 468.86,452.01 466.11,466.17 471.69,466.99 462.23,467.27 459.51,470.28 457.26,469.00 464.59,474.80 473.29,475.47 475.60,479.64 481.58,482.28 507.86,479.46 510.74,474.97 522.77,471.38 530.46,460.25 550.76,453.22 564.75,451.61 572.46,454.89 584.24,443.36 592.95,444.41 591.04,441.81 595.69,439.95 593.69,436.67 603.17,432.29 616.08,434.55 623.66,440.90 636.54,437.45 649.76,438.92 677.31,431.31 695.47,433.73 719.78,442.46 727.59,457.13 734.74,461.49 751.91,464.49 756.90,462.51 756.28,458.85 768.62,470.00 774.06,469.44 772.99,471.23 783.37,480.22 823.20,489.42 828.32,495.13 837.21,497.50 839.70,501.84 857.27,512.30 886.74,537.55 896.83,542.31 899.75,547.88 921.50,554.70 923.70,563.15 927.95,566.09 931.72,564.31 944.22,569.88 963.08,570.87 970.37,577.25 975.41,576.35 982.68,589.80 1002.74,594.16 1015.81,629.59 1022.43,631.97 1025.97,629.18 1037.34,629.62 1058.09,636.29 1063.99,633.92 1063.74,635.54 1058.73,636.64 1037.15,629.73 1032.08,631.18 1025.46,629.59 1022.38,632.35 1016.78,630.31 1019.92,637.37 1019.50,634.10 1024.47,635.17 1020.72,637.08 1021.84,639.55 1020.14,637.63 1023.78,641.68 1024.74,656.38 1020.63,664.17 1012.25,669.44 1007.85,678.60 1000.42,685.04 975.56,696.99 959.16,700.35 953.66,705.33 941.81,709.38 930.84,709.55 915.41,717.15 907.35,714.01 895.31,714.12 890.05,711.10 881.06,711.47 865.69,704.04 856.57,707.89 848.33,705.93 824.94,710.50 818.06,714.58 811.94,713.09 805.55,716.89 793.84,717.40 788.73,714.98 761.85,712.24 755.10,707.69 755.30,703.38 748.29,702.03 742.24,708.71 736.43,709.34 721.91,701.42 705.53,699.40 702.62,692.50 693.68,688.50 678.58,685.37 670.51,693.14 661.51,694.32 643.36,679.97 642.30,669.03 638.27,664.80 631.36,661.59 605.21,668.60 585.67,662.89 572.99,648.97 575.12,642.75 581.11,642.34 571.68,641.69 568.02,637.40 563.19,637.05 558.37,643.78 548.20,647.43 532.41,645.25 519.46,647.64 454.59,642.30 422.32,653.18 403.33,655.35 392.15,661.26 383.24,662.62 373.68,670.45 323.53,689.90 324.10,696.86 318.43,702.53 297.29,706.33 279.94,705.42 247.27,696.87 241.72,701.39 230.18,702.25 178.57,695.35 172.15,696.54 136.27,687.58 112.04,677.73 100.15,668.58 93.36,657.40 91.68,652.76 97.52,651.50 95.89,644.01 76.69,626.62 79.74,622.88 74.12,619.07 75.30,615.93 70.61,615.85 68.56,612.58 60.55,614.67 56.02,612.45 61.27,605.98 70.04,606.13 69.13,601.07 76.12,599.06 75.16,595.78 86.90,596.27 86.05,573.60 90.00,564.49 69.85,563.18 93.43,561.48 99.59,550.88 103.90,548.70 117.70,548.11 125.14,551.72 134.78,539.54 131.74,530.25 133.77,522.03 129.30,521.50 133.37,521.36 138.80,509.33 136.82,503.26 140.67,501.46 135.76,501.62 138.01,499.68 139.43,501.21 137.69,497.01 141.47,501.13 135.61,490.92 136.77,486.56 140.28,486.54 136.10,486.44 138.69,485.07 140.60,486.72 167.64,457.45 198.76,452.69 202.94,449.15 192.10,442.83 187.52,444.59 187.01,441.86 182.36,442.86 180.04,438.27 173.67,437.57 176.09,436.02 173.80,433.78 170.31,433.67 169.89,436.05 151.94,427.37 147.45,428.59 143.57,425.48 118.70,420.06 108.00,409.12 112.63,410.52 117.52,419.07 142.14,425.56 147.19,424.35 144.29,421.53 147.64,417.96 157.43,421.73 160.19,416.72 172.77,413.98 176.85,410.64 195.60,410.16 202.23,414.32 209.82,410.55 210.06,408.97 205.17,410.30 202.08,408.26 212.58,399.81 211.03,398.77 217.61,397.23 213.31,399.52 237.86,385.51 221.69,394.81 216.95,394.72 214.60,391.18 220.79,389.93 220.91,387.59 224.51,390.93 223.85,384.15 225.95,388.71 227.59,379.69 233.07,386.85 237.17,379.05 238.42,385.26 249.12,377.79 253.82,369.64 256.38,371.22 250.70,376.07 260.83,368.16 258.06,368.09 252.83,359.51 238.75,354.16 235.70,350.82 238.40,347.39 244.64,346.77 247.86,353.06 250.69,348.14 251.22,353.20 256.64,355.13 257.33,359.94 263.31,363.68 260.86,367.98 274.80,351.98 271.25,350.19 272.07,347.26 274.65,351.53 279.72,347.87 279.05,336.98 297.20,332.88 296.45,328.79 297.73,332.69 308.19,330.78 320.00,332.65 329.28,326.50 325.33,319.04 330.61,324.04 336.22,316.64 330.45,328.36 325.20,330.89 333.64,332.63 339.59,329.28 350.29,331.98 356.51,330.05 358.94,323.87 355.56,319.70 363.63,311.01 357.51,309.45 361.11,305.36 354.36,305.21 357.16,299.15 346.95,291.09 349.00,286.61 345.65,284.62 349.07,286.45 347.17,291.09 353.83,294.37 353.10,292.84 353.73,297.55 358.09,299.26 354.41,303.69 356.64,305.54 363.10,304.82 359.92,309.59 359.94,309.72"/>
  </g>
  <g>
  </g>
  <g>
    <circle cx="359.94" cy="309.72" r="10.0" fill="#2d6a4f" stroke="#fff" stroke-width="2"/>
    <text x="359.94" y="293.72" font-family="Helvetica, Arial, sans-serif" font-size="11" font-weight="600" fill="#16324f" text-anchor="middle">Начало</text>
  </g>
  <g>
    <text x="1092" y="168" font-family="Helvetica, Arial, sans-serif" font-size="18" font-weight="700" fill="#16324f">Слои и длины</text>
    <line x1="1092" y1="206" x2="1126" y2="206" stroke="#7a8b99" stroke-width="1.80" stroke-opacity="0.85" stroke-dasharray="8 6"/>
    <text x="1138" y="204" font-family="Helvetica, Arial, sans-serif" font-size="13" fill="#16324f">Реальная загруженная</text>
    <text x="1138" y="219" font-family="Helvetica, Arial, sans-serif" font-size="13" fill="#16324f">полилиния (справочно)</text>
    <text x="1138" y="236" font-family="Helvetica, Arial, sans-serif" font-size="12" fill="#6b7a87">6391 км</text>
    <line x1="1092" y1="250" x2="1356" y2="250" stroke="#ddd6c8" stroke-width="1"/>
    <line x1="1092" y1="274" x2="1126" y2="274" stroke="#1f6f8b" stroke-width="2.20" stroke-opacity="0.35"/>
    <text x="1138" y="272" font-family="Helvetica, Arial, sans-serif" font-size="13" fill="#16324f">Эрозия шаг 0</text>
    <text x="1138" y="289" font-family="Helvetica, Arial, sans-serif" font-size="12" fill="#6b7a87">5334 км</text>
    <line x1="1092" y1="303" x2="1356" y2="303" stroke="#ddd6c8" stroke-width="1"/>
    <line x1="1092" y1="327" x2="1126" y2="327" stroke="#c06c3f" stroke-width="2.20" stroke-opacity="0.45"/>
    <text x="1138" y="325" font-family="Helvetica, Arial, sans-serif" font-size="13" fill="#16324f">Эрозия шаг 1</text>
    <text x="1138" y="342" font-family="Helvetica, Arial, sans-serif" font-size="12" fill="#6b7a87">5331 км</text>
    <line x1="1092" y1="356" x2="1356" y2="356" stroke="#ddd6c8" stroke-width="1"/>
    <line x1="1092" y1="380" x2="1126" y2="380" stroke="#2c7a7b" stroke-width="2.20" stroke-opacity="1.00"/>
    <text x="1138" y="378" font-family="Helvetica, Arial, sans-serif" font-size="13" fill="#16324f">Эрозия шаг 2</text>
    <text x="1138" y="395" font-family="Helvetica, Arial, sans-serif" font-size="12" fill="#6b7a87">5328 км</text>
  </g>
  <g>
    <rect x="1092" y="437" width="264" height="108" rx="18" fill="#f8f6ef" stroke="#d6d0c4"/>
    <text x="1106" y="457" font-family="Helvetica, Arial, sans-serif" font-size="14" font-weight="700" fill="#16324f">Контроль геометрии</text>
    <text x="1106" y="489" font-family="Helvetica, Arial, sans-serif" font-size="12" fill="#4f6d7a">Сегменты &gt; 450 км</text>
    <text x="1342" y="489" text-anchor="end" font-family="Helvetica, Arial, sans-serif" font-size="13" font-weight="700" fill="#3f6b4b">0</text>
    <line x1="1106" y1="493" x2="1342" y2="493" stroke="#e7e1d5" stroke-width="1"/>
    <text x="1106" y="511" font-family="Helvetica, Arial, sans-serif" font-size="12" fill="#4f6d7a">Повторы ориентиров</text>
    <text x="1342" y="511" text-anchor="end" font-family="Helvetica, Arial, sans-serif" font-size="13" font-weight="700" fill="#3f6b4b">0</text>
    <line x1="1106" y1="515" x2="1342" y2="515" stroke="#e7e1d5" stroke-width="1"/>
    <text x="1106" y="533" font-family="Helvetica, Arial, sans-serif" font-size="12" fill="#4f6d7a">Автоисправления</text>
    <text x="1342" y="533" text-anchor="end" font-family="Helvetica, Arial, sans-serif" font-size="13" font-weight="700" fill="#3f6b4b">0</text>
  </g>
  <g>
  </g>
  <g>
  </g>
  <g>
    <rect x="1092" y="608" width="264" height="274" rx="18" fill="#f8f6ef" stroke="#d6d0c4"/>
    <text x="1106" y="628" font-family="Helvetica, Arial, sans-serif" font-size="14" font-weight="700" fill="#16324f">Сводка</text>
    <text x="1106" y="650" font-family="Helvetica, Arial, sans-serif" font-size="12" fill="#4f6d7a">Реальная линия: 6391 км, 9635 т.</text>
    <line x1="1106" y1="670" x2="1342" y2="670" stroke="#e7e1d5" stroke-width="1"/>
    <text x="1106" y="678" font-family="Helvetica, Arial, sans-serif" font-size="12" fill="#4f6d7a">База модели: 5334 км, 391 т.</text>
    <text x="1106" y="694" font-family="Helvetica, Arial, sans-serif" font-size="12" fill="#4f6d7a">(-16.5% к реальной)</text>
    <line x1="1106" y1="714" x2="1342" y2="714" stroke="#e7e1d5" stroke-width="1"/>
    <text x="1106" y="722" font-family="Helvetica, Arial, sans-serif" font-size="12" fill="#4f6d7a">Шаг 2: 5328 км, 391 т. расчёт /</text>
    <text x="1106" y="738" font-family="Helvetica, Arial, sans-serif" font-size="12" fill="#4f6d7a">391 т. SVG</text>
    <line x1="1106" y1="758" x2="1342" y2="758" stroke="#e7e1d5" stroke-width="1"/>
    <text x="1106" y="766" font-family="Helvetica, Arial, sans-serif" font-size="12" fill="#4f6d7a">Площадь: 415792 км²</text>
    <line x1="1106" y1="786" x2="1342" y2="786" stroke="#e7e1d5" stroke-width="1"/>
    <text x="1106" y="794" font-family="Helvetica, Arial, sans-serif" font-size="12" fill="#4f6d7a">Эрозия: базовый отступ 30 м,</text>
    <text x="1106" y="810" font-family="Helvetica, Arial, sans-serif" font-size="12" fill="#4f6d7a">seed=42</text>
    <line x1="1106" y1="830" x2="1342" y2="830" stroke="#e7e1d5" stroke-width="1"/>
    <text x="1106" y="838" font-family="Helvetica, Arial, sans-serif" font-size="12" fill="#4f6d7a">Волны: 0° от севера, ветер 12.0</text>
    <text x="1106" y="854" font-family="Helvetica, Arial, sans-serif" font-size="12" fill="#4f6d7a">м/с, сектор ±55°, fetch &lt;= 150 км</text>
  </g>
  <g>
    <g transform="translate(979, 652)">
      <circle cx="0" cy="0" r="35.0" fill="none" stroke="#16324f" stroke-width="2" opacity="0.8"/>
      <text x="0.0" y="-23.0" font-family="Helvetica, Arial, sans-serif" font-size="12" font-weight="700" fill="#16324f" text-anchor="middle" dominant-baseline="middle">N</text>
      <text x="23.0" y="0.0" font-family="Helvetica, Arial, sans-serif" font-size="12" font-weight="700" fill="#16324f" text-anchor="middle" dominant-baseline="middle">E</text>
      <text x="0.0" y="23.0" font-family="Helvetica, Arial, sans-serif" font-size="12" font-weight="700" fill="#16324f" text-anchor="middle" dominant-baseline="middle">S</text>
      <text x="-23.0" y="0.0" font-family="Helvetica, Arial, sans-serif" font-size="12" font-weight="700" fill="#16324f" text-anchor="middle" dominant-baseline="middle">W</text>
      <line x1="0" y1="0" x2="0.0" y2="-15.0" stroke="#c2410c" stroke-width="2.5" stroke-linecap="round"/>
      <polygon points="0.0,-15.0 3.8,-8.0 -3.8,-8.0" fill="#c2410c"/>
      <text x="0" y="49.0" font-family="Helvetica, Arial, sans-serif" font-size="10" fill="#4f6d7a" text-anchor="middle" transform="rotate(-45, %!f(string=), %!f(MISSING))">%!s(MISSING)</text>
    </g>
  </g>
  <g>
    <line x1="56" y1="840" x2="479" y2="840" stroke="#16324f" stroke-width="3"/>
    <line x1="56" y1="833" x2="56" y2="847" stroke="#16324f" stroke-width="6"/>
    <line x1="479" y1="833" x2="479" y2="847" stroke="#16324f" stroke-width="6"/>
    <text x="56" y="826" font-family="Helvetica, Arial, sans-serif" font-size="13" fill="#16324f">Масштаб ≈ 500 км</text>  </g>
</svg>
